<svg width="48" height="48" viewBox="0 0 48 48" fill="none" xmlns="http://www.w3.org/2000/svg">
<path d="M6 1.5H42C44.4853 1.5 46.5 3.51472 46.5 6V42C46.5 44.4853 44.4853 46.5 42 46.5H6C3.51472 46.5 1.5 44.4853 1.5 42V6C1.5 3.51472 3.51472 1.5 6 1.5Z" stroke="white" stroke-width="3"/>
<path d="M10 29.791V33.541C10 35.1979 11.3431 36.541 13 36.541H34C35.6569 36.541 37 35.1979 37 33.541V29.791" stroke="white" stroke-width="2"/>
<path fill-rule="evenodd" clip-rule="evenodd" d="M18.523 14H23.4033V17.054C23.4033 19.2631 25.1942 21.054 27.4033 21.054H29.4775V28.3295C29.4775 28.8043 29.1466 29.2019 28.7028 29.3041V31.3212C30.2544 31.206 31.4775 29.9106 31.4775 28.3295L31.4775 21.054V20.054L30.5991 19.054L25.4033 13.1385L24.4033 12H23.4033H18.523C16.8661 12 15.5229 13.3431 15.5229 15V28.3295C15.5229 29.9106 16.746 31.206 18.2977 31.3212V29.3041C17.8539 29.2019 17.5229 28.8044 17.5229 28.3295L17.5229 15C17.523 14.4477 17.9707 14 18.523 14ZM25.4033 16.1691L27.9372 19.054H27.4033C26.2987 19.054 25.4033 18.1586 25.4033 17.054V16.1691Z" fill="white"/>
<path d="M23.4998 34.3945L20.3113 29.5621L26.6884 29.5621L23.4998 34.3945Z" fill="white"/>
<path d="M23.4998 31.7285L23.4998 24.268" stroke="white" stroke-width="2"/>
</svg>
