<svg width="48" height="48" viewBox="0 0 48 48" fill="none" xmlns="http://www.w3.org/2000/svg">
<path d="M1.5 6C1.5 3.51472 3.51472 1.5 6 1.5H42C44.4853 1.5 46.5 3.51472 46.5 6V42C46.5 44.4853 44.4853 46.5 42 46.5H6C3.51472 46.5 1.5 44.4853 1.5 42V6Z" stroke="white" stroke-width="3"/>
<path d="M10 28.4512V34.0007C10 35.6575 11.3431 37.0007 13 37.0007H34C35.6569 37.0007 37 35.6575 37 34.0007V28.4512" stroke="white" stroke-width="2"/>
<path d="M23.2793 25.75L23.2793 10.0009" stroke="white" stroke-width="2"/>
<path d="M23.4992 31.1504L16.7911 22.7134L30.2074 22.7134L23.4992 31.1504Z" fill="white"/>
</svg>
