<svg width="30" height="30" viewBox="0 0 30 30" fill="none" xmlns="http://www.w3.org/2000/svg">
<rect x="5" y="7" width="20" height="2" rx="1" fill="white"/>
<mask id="path-2-inside-1_467_350" fill="white">
<path fill-rule="evenodd" clip-rule="evenodd" d="M8.8968 10.3535C7.71459 10.3535 6.79036 11.3735 6.90647 12.5499L8.12413 24.888C8.22514 25.9115 9.08597 26.6915 10.1145 26.6915H19.603C20.6315 26.6915 21.4923 25.9115 21.5933 24.888L22.811 12.5499C22.9271 11.3735 22.0028 10.3535 20.8206 10.3535H8.8968ZM14.0135 22.7639C14.0135 23.2306 14.3918 23.609 14.8586 23.609C15.3253 23.609 15.7036 23.2306 15.7036 22.7639V14.2813C15.7036 13.8146 15.3253 13.4362 14.8586 13.4362C14.3918 13.4362 14.0135 13.8146 14.0135 14.2813V22.7639ZM11.9601 23.609C11.527 23.609 11.1647 23.2801 11.1229 22.849L10.3 14.3585C10.2521 13.8642 10.6406 13.4362 11.1373 13.4362C11.5704 13.4362 11.9327 13.7651 11.9745 14.1962L12.7973 22.6867C12.8452 23.181 12.4567 23.609 11.9601 23.609ZM18.5942 22.849C18.5524 23.2801 18.1901 23.609 17.757 23.609C17.2604 23.609 16.8719 23.181 16.9198 22.6867L17.7426 14.1962C17.7844 13.7651 18.1467 13.4362 18.5798 13.4362C19.0765 13.4362 19.465 13.8642 19.4171 14.3585L18.5942 22.849Z"/>
</mask>
<path fill-rule="evenodd" clip-rule="evenodd" d="M8.8968 10.3535C7.71459 10.3535 6.79036 11.3735 6.90647 12.5499L8.12413 24.888C8.22514 25.9115 9.08597 26.6915 10.1145 26.6915H19.603C20.6315 26.6915 21.4923 25.9115 21.5933 24.888L22.811 12.5499C22.9271 11.3735 22.0028 10.3535 20.8206 10.3535H8.8968ZM14.0135 22.7639C14.0135 23.2306 14.3918 23.609 14.8586 23.609C15.3253 23.609 15.7036 23.2306 15.7036 22.7639V14.2813C15.7036 13.8146 15.3253 13.4362 14.8586 13.4362C14.3918 13.4362 14.0135 13.8146 14.0135 14.2813V22.7639ZM11.9601 23.609C11.527 23.609 11.1647 23.2801 11.1229 22.849L10.3 14.3585C10.2521 13.8642 10.6406 13.4362 11.1373 13.4362C11.5704 13.4362 11.9327 13.7651 11.9745 14.1962L12.7973 22.6867C12.8452 23.181 12.4567 23.609 11.9601 23.609ZM18.5942 22.849C18.5524 23.2801 18.1901 23.609 17.757 23.609C17.2604 23.609 16.8719 23.181 16.9198 22.6867L17.7426 14.1962C17.7844 13.7651 18.1467 13.4362 18.5798 13.4362C19.0765 13.4362 19.465 13.8642 19.4171 14.3585L18.5942 22.849Z" fill="white"/>
<path d="M6.90647 12.5499L9.89196 12.2553L6.90647 12.5499ZM8.12413 24.888L5.13864 25.1826L8.12413 24.888ZM21.5933 24.888L24.5788 25.1826V25.1826L21.5933 24.888ZM22.811 12.5499L25.7964 12.8446L25.7965 12.8446L22.811 12.5499ZM11.1229 22.849L8.13691 23.1384L8.13691 23.1384L11.1229 22.849ZM10.3 14.3585L7.31404 14.6479L7.31404 14.6479L10.3 14.3585ZM11.9745 14.1962L14.9605 13.9068L14.9605 13.9068L11.9745 14.1962ZM12.7973 22.6867L9.81133 22.9761V22.9761L12.7973 22.6867ZM18.5942 22.849L15.6082 22.5596L18.5942 22.849ZM16.9198 22.6867L13.9338 22.3973L13.9338 22.3973L16.9198 22.6867ZM17.7426 14.1962L20.7287 14.4856V14.4856L17.7426 14.1962ZM19.4171 14.3585L16.431 14.0691L16.431 14.0691L19.4171 14.3585ZM9.89196 12.2553C9.95002 12.8435 9.4879 13.3535 8.8968 13.3535V7.35352C5.94127 7.35352 3.63069 9.90336 3.92097 12.8446L9.89196 12.2553ZM11.1096 24.5933L9.89196 12.2553L3.92097 12.8446L5.13864 25.1826L11.1096 24.5933ZM10.1145 23.6915C10.6287 23.6915 11.0591 24.0816 11.1096 24.5933L5.13864 25.1826C5.39117 27.7414 7.54322 29.6915 10.1145 29.6915V23.6915ZM19.603 23.6915H10.1145V29.6915H19.603V23.6915ZM18.6078 24.5933C18.6583 24.0816 19.0887 23.6915 19.603 23.6915V29.6915C22.1742 29.6915 24.3263 27.7414 24.5788 25.1826L18.6078 24.5933ZM19.8255 12.2553L18.6078 24.5933L24.5788 25.1826L25.7964 12.8446L19.8255 12.2553ZM20.8206 13.3535C20.2295 13.3535 19.7674 12.8435 19.8255 12.2553L25.7965 12.8446C26.0867 9.90336 23.7762 7.35352 20.8206 7.35352V13.3535ZM8.8968 13.3535H20.8206V7.35352H8.8968V13.3535ZM14.8586 20.609C16.0487 20.609 17.0135 21.5738 17.0135 22.7639H11.0135C11.0135 24.8875 12.735 26.609 14.8586 26.609V20.609ZM12.7036 22.7639C12.7036 21.5738 13.6684 20.609 14.8586 20.609V26.609C16.9821 26.609 18.7036 24.8875 18.7036 22.7639H12.7036ZM12.7036 14.2813V22.7639H18.7036V14.2813H12.7036ZM14.8586 16.4362C13.6684 16.4362 12.7036 15.4714 12.7036 14.2813H18.7036C18.7036 12.1577 16.9821 10.4362 14.8586 10.4362V16.4362ZM17.0135 14.2813C17.0135 15.4714 16.0487 16.4362 14.8586 16.4362V10.4362C12.735 10.4362 11.0135 12.1577 11.0135 14.2813H17.0135ZM17.0135 22.7639V14.2813H11.0135V22.7639H17.0135ZM8.13691 23.1384C8.32771 25.107 9.98226 26.609 11.9601 26.609V20.609C13.0718 20.609 14.0017 21.4531 14.1089 22.5596L8.13691 23.1384ZM7.31404 14.6479L8.13691 23.1384L14.1089 22.5596L13.2861 14.0691L7.31404 14.6479ZM11.1373 10.4362C8.86944 10.4362 7.09527 12.3906 7.31404 14.6479L13.2861 14.0691C13.409 15.3378 12.4119 16.4362 11.1373 16.4362V10.4362ZM14.9605 13.9068C14.7697 11.9382 13.1151 10.4362 11.1373 10.4362V16.4362C10.0256 16.4362 9.09569 15.5921 8.98845 14.4856L14.9605 13.9068ZM15.7833 22.3973L14.9605 13.9068L8.98845 14.4856L9.81133 22.9761L15.7833 22.3973ZM11.9601 26.609C14.2279 26.609 16.0021 24.6545 15.7833 22.3973L9.81133 22.9761C9.68837 21.7074 10.6855 20.609 11.9601 20.609V26.609ZM17.757 26.609C19.7348 26.609 21.3894 25.107 21.5802 23.1384L15.6082 22.5596C15.7154 21.4531 16.6453 20.609 17.757 20.609V26.609ZM13.9338 22.3973C13.715 24.6545 15.4892 26.609 17.757 26.609V20.609C19.0316 20.609 20.0287 21.7074 19.9058 22.9761L13.9338 22.3973ZM14.7566 13.9068L13.9338 22.3973L19.9058 22.9761L20.7287 14.4856L14.7566 13.9068ZM18.5798 10.4362C16.602 10.4362 14.9474 11.9382 14.7566 13.9068L20.7287 14.4856C20.6214 15.5921 19.6915 16.4362 18.5798 16.4362V10.4362ZM22.4031 14.6479C22.6218 12.3906 20.8477 10.4362 18.5798 10.4362V16.4362C17.3052 16.4362 16.3081 15.3378 16.431 14.0691L22.4031 14.6479ZM21.5802 23.1384L22.4031 14.6479L16.431 14.0691L15.6082 22.5596L21.5802 23.1384Z" fill="white" mask="url(#path-2-inside-1_467_350)"/>
<path d="M18.8029 7.53521V7.53521C18.8029 6.13505 17.6678 5 16.2676 5H13.4507C12.0506 5 10.9155 6.13505 10.9155 7.53521V7.53521" stroke="white" stroke-width="2"/>
</svg>
