<svg width="30" height="30" viewBox="0 0 30 30" fill="none" xmlns="http://www.w3.org/2000/svg">
<mask id="path-1-inside-1_467_410" fill="white">
<path fill-rule="evenodd" clip-rule="evenodd" d="M7.79306 9.50586C7.20196 9.50586 6.73984 10.0158 6.7979 10.6041L8.21295 24.9421C8.26345 25.4539 8.69386 25.8439 9.20811 25.8439H20.5089C21.0232 25.8439 21.4536 25.4539 21.5041 24.9421L22.9192 10.6041C22.9772 10.0158 22.5151 9.50586 21.924 9.50586H7.79306ZM14.0128 21.9156C14.0128 22.3823 14.3911 22.7606 14.8578 22.7606C15.3245 22.7606 15.7029 22.3823 15.7029 21.9156V13.433C15.7029 12.9662 15.3245 12.5879 14.8578 12.5879C14.3911 12.5879 14.0128 12.9662 14.0128 13.433V21.9156ZM11.9595 22.7606C11.5264 22.7606 11.1641 22.4317 11.1223 22.0006L10.2994 13.5102C10.2515 13.0159 10.64 12.5879 11.1366 12.5879C11.5697 12.5879 11.932 12.9168 11.9738 13.3479L12.7967 21.8384C12.8446 22.3326 12.4561 22.7606 11.9595 22.7606ZM18.5946 22.0006C18.5529 22.4317 18.1905 22.7606 17.7574 22.7606C17.2608 22.7606 16.8723 22.3326 16.9202 21.8384L17.7431 13.3479C17.7849 12.9168 18.1472 12.5879 18.5803 12.5879C19.0769 12.5879 19.4654 13.0159 19.4175 13.5102L18.5946 22.0006Z"/>
</mask>
<path fill-rule="evenodd" clip-rule="evenodd" d="M7.79306 9.50586C7.20196 9.50586 6.73984 10.0158 6.7979 10.6041L8.21295 24.9421C8.26345 25.4539 8.69386 25.8439 9.20811 25.8439H20.5089C21.0232 25.8439 21.4536 25.4539 21.5041 24.9421L22.9192 10.6041C22.9772 10.0158 22.5151 9.50586 21.924 9.50586H7.79306ZM14.0128 21.9156C14.0128 22.3823 14.3911 22.7606 14.8578 22.7606C15.3245 22.7606 15.7029 22.3823 15.7029 21.9156V13.433C15.7029 12.9662 15.3245 12.5879 14.8578 12.5879C14.3911 12.5879 14.0128 12.9662 14.0128 13.433V21.9156ZM11.9595 22.7606C11.5264 22.7606 11.1641 22.4317 11.1223 22.0006L10.2994 13.5102C10.2515 13.0159 10.64 12.5879 11.1366 12.5879C11.5697 12.5879 11.932 12.9168 11.9738 13.3479L12.7967 21.8384C12.8446 22.3326 12.4561 22.7606 11.9595 22.7606ZM18.5946 22.0006C18.5529 22.4317 18.1905 22.7606 17.7574 22.7606C17.2608 22.7606 16.8723 22.3326 16.9202 21.8384L17.7431 13.3479C17.7849 12.9168 18.1472 12.5879 18.5803 12.5879C19.0769 12.5879 19.4654 13.0159 19.4175 13.5102L18.5946 22.0006Z" fill="#F5F5F5"/>
<path d="M6.7979 10.6041L3.8124 10.8987L6.7979 10.6041ZM8.21295 24.9421L11.1984 24.6475L8.21295 24.9421ZM21.5041 24.9421L18.5186 24.6475L21.5041 24.9421ZM22.9192 10.6041L19.9337 10.3094V10.3094L22.9192 10.6041ZM11.1223 22.0006L14.1083 21.7112L11.1223 22.0006ZM10.2994 13.5102L7.3134 13.7996L7.3134 13.7996L10.2994 13.5102ZM11.9738 13.3479L14.9598 13.0585V13.0585L11.9738 13.3479ZM12.7967 21.8384L9.81068 22.1278L9.81068 22.1278L12.7967 21.8384ZM18.5946 22.0006L15.6086 21.7112L18.5946 22.0006ZM16.9202 21.8384L19.9062 22.1278V22.1278L16.9202 21.8384ZM17.7431 13.3479L20.7291 13.6373V13.6373L17.7431 13.3479ZM19.4175 13.5102L16.4315 13.2208V13.2208L19.4175 13.5102ZM9.78339 10.3094C9.89951 11.4859 8.97527 12.5059 7.79306 12.5059V6.50586C5.42864 6.50586 3.58018 8.54573 3.8124 10.8987L9.78339 10.3094ZM11.1984 24.6475L9.78339 10.3094L3.8124 10.8987L5.22745 25.2367L11.1984 24.6475ZM9.20811 22.8439C10.2366 22.8439 11.0974 23.6239 11.1984 24.6475L5.22745 25.2367C5.42948 27.2838 7.15112 28.8439 9.20811 28.8439V22.8439ZM20.5089 22.8439H9.20811V28.8439H20.5089V22.8439ZM18.5186 24.6475C18.6196 23.6239 19.4804 22.8439 20.5089 22.8439V28.8439C22.5659 28.8439 24.2876 27.2838 24.4896 25.2367L18.5186 24.6475ZM19.9337 10.3094L18.5186 24.6475L24.4896 25.2367L25.9046 10.8987L19.9337 10.3094ZM21.924 12.5059C20.7418 12.5059 19.8175 11.4859 19.9337 10.3094L25.9046 10.8987C26.1369 8.54573 24.2884 6.50586 21.924 6.50586V12.5059ZM7.79306 12.5059H21.924V6.50586H7.79306V12.5059ZM14.8578 19.7606C16.048 19.7606 17.0128 20.7254 17.0128 21.9156H11.0128C11.0128 24.0391 12.7343 25.7606 14.8578 25.7606V19.7606ZM12.7029 21.9156C12.7029 20.7254 13.6677 19.7606 14.8578 19.7606V25.7606C16.9814 25.7606 18.7029 24.0391 18.7029 21.9156H12.7029ZM12.7029 13.433V21.9156H18.7029V13.433H12.7029ZM14.8578 15.5879C13.6677 15.5879 12.7029 14.6231 12.7029 13.433H18.7029C18.7029 11.3094 16.9814 9.58789 14.8578 9.58789V15.5879ZM17.0128 13.433C17.0128 14.6231 16.048 15.5879 14.8578 15.5879V9.58789C12.7343 9.58789 11.0128 11.3094 11.0128 13.433H17.0128ZM17.0128 21.9156V13.433H11.0128V21.9156H17.0128ZM8.13627 22.29C8.32707 24.2587 9.98161 25.7606 11.9595 25.7606V19.7606C13.0711 19.7606 14.0011 20.6048 14.1083 21.7112L8.13627 22.29ZM7.3134 13.7996L8.13627 22.29L14.1083 21.7112L13.2854 13.2208L7.3134 13.7996ZM11.1366 9.58789C8.86879 9.58789 7.09463 11.5423 7.3134 13.7996L13.2854 13.2208C13.4084 14.4894 12.4112 15.5879 11.1366 15.5879V9.58789ZM14.9598 13.0585C14.769 11.0898 13.1145 9.58789 11.1366 9.58789V15.5879C10.025 15.5879 9.09505 14.7437 8.98781 13.6373L14.9598 13.0585ZM15.7827 21.549L14.9598 13.0585L8.98781 13.6373L9.81068 22.1278L15.7827 21.549ZM11.9595 25.7606C14.2273 25.7606 16.0015 23.8062 15.7827 21.549L9.81068 22.1278C9.68773 20.8591 10.6849 19.7606 11.9595 19.7606V25.7606ZM17.7574 25.7606C19.7353 25.7606 21.3898 24.2587 21.5806 22.29L15.6086 21.7112C15.7159 20.6048 16.6458 19.7606 17.7574 19.7606V25.7606ZM13.9342 21.549C13.7154 23.8062 15.4896 25.7606 17.7574 25.7606V19.7606C19.032 19.7606 20.0292 20.8591 19.9062 22.1278L13.9342 21.549ZM14.7571 13.0585L13.9342 21.549L19.9062 22.1278L20.7291 13.6373L14.7571 13.0585ZM18.5803 9.58789C16.6024 9.58789 14.9479 11.0898 14.7571 13.0585L20.7291 13.6373C20.6219 14.7437 19.6919 15.5879 18.5803 15.5879V9.58789ZM22.4035 13.7996C22.6223 11.5423 20.8481 9.58789 18.5803 9.58789V15.5879C17.3057 15.5879 16.3085 14.4894 16.4315 13.2208L22.4035 13.7996ZM21.5806 22.29L22.4035 13.7996L16.4315 13.2208L15.6086 21.7112L21.5806 22.29Z" fill="#F5F5F5" mask="url(#path-1-inside-1_467_410)"/>
<rect x="5" y="7.25586" width="20" height="3.09859" rx="1" fill="#F5F5F5"/>
<path d="M18.5217 8.10563L18.1074 5.82151C18.0211 5.34583 17.6069 5 17.1235 5H12.8778C12.3944 5 11.9801 5.34583 11.8938 5.82151L11.4795 8.10563" stroke="#F5F5F5" stroke-width="2"/>
</svg>
