<svg width="48" height="48" viewBox="0 0 48 48" fill="none" xmlns="http://www.w3.org/2000/svg">
<path d="M1.5 6C1.5 3.51472 3.51472 1.5 6 1.5H42C44.4853 1.5 46.5 3.51472 46.5 6V42C46.5 44.4853 44.4853 46.5 42 46.5H6C3.51472 46.5 1.5 44.4853 1.5 42V6Z" stroke="white" stroke-width="3"/>
<path d="M22.0979 11.8541C22.6966 10.0115 25.3034 10.0115 25.9021 11.8541L27.5922 17.0557C27.86 17.8798 28.6279 18.4377 29.4943 18.4377H34.9636C36.9011 18.4377 37.7066 20.9169 36.1392 22.0557L31.7145 25.2705C31.0135 25.7798 30.7202 26.6825 30.9879 27.5066L32.678 32.7082C33.2767 34.5508 31.1678 36.0831 29.6003 34.9443L25.1756 31.7295C24.4746 31.2202 23.5254 31.2202 22.8244 31.7295L18.3997 34.9443C16.8322 36.0831 14.7233 34.5508 15.322 32.7082L17.0121 27.5066C17.2798 26.6825 16.9865 25.7798 16.2855 25.2705L11.8608 22.0557C10.2934 20.9169 11.0989 18.4377 13.0364 18.4377H18.5057C19.3721 18.4377 20.14 17.8798 20.4078 17.0557L22.0979 11.8541Z" fill="white"/>
</svg>
