<svg width="48" height="48" viewBox="0 0 48 48" fill="none" xmlns="http://www.w3.org/2000/svg">
<path d="M1.5 6C1.5 3.51472 3.51472 1.5 6 1.5H42C44.4853 1.5 46.5 3.51472 46.5 6V42C46.5 44.4853 44.4853 46.5 42 46.5H6C3.51472 46.5 1.5 44.4853 1.5 42V6Z" stroke="white" stroke-width="3"/>
<path d="M23.0489 12.1631C23.3483 11.2418 24.6517 11.2418 24.9511 12.1631L26.6412 17.3647C27.0428 18.6008 28.1947 19.4377 29.4943 19.4377H34.9636C35.9324 19.4377 36.3351 20.6773 35.5514 21.2467L31.1267 24.4615C30.0752 25.2254 29.6352 26.5795 30.0369 27.8156L31.727 33.0172C32.0263 33.9385 30.9718 34.7047 30.1881 34.1353L25.7634 30.9205C24.7119 30.1565 23.2881 30.1565 22.2366 30.9205L17.8119 34.1353C17.0282 34.7047 15.9737 33.9385 16.273 33.0172L17.9631 27.8156C18.3648 26.5795 17.9248 25.2254 16.8733 24.4615L12.4486 21.2467C11.6649 20.6773 12.0676 19.4377 13.0364 19.4377H18.5057C19.8053 19.4377 20.9572 18.6008 21.3588 17.3647L23.0489 12.1631Z" stroke="white" stroke-width="2"/>
</svg>
