<svg width="60" height="60" viewBox="0 0 60 60" fill="none" xmlns="http://www.w3.org/2000/svg">
<path d="M17.8005 12H13C11.3431 12 10 13.3431 10 15V45C10 46.6569 11.3431 48 13 48H43.0022C44.659 48 46.0022 46.6569 46.0022 45V33.3" stroke="white" stroke-width="3"/>
<path d="M30.6446 18.8341C29.8476 19.9263 28.064 20.493 26.743 19.4203L23.994 17.1878L23.9949 31.7013L39.1354 29.4839L36.5748 27.4045C35.788 26.7655 35.3732 25.5933 35.9188 24.5044C36.5889 23.1671 38.3494 20.4815 42.1671 18.9269C44.7127 17.8903 48.4408 17.3486 51.3767 17.0631C48.0582 15.4124 43.4027 13.7313 39.1749 14.3754C33.9255 15.1751 31.5596 17.5803 30.6446 18.8341ZM40.2621 29.3189C40.2617 29.3189 40.2613 29.319 40.2609 29.319L40.2621 29.3189Z" fill="white" stroke="white" stroke-width="3"/>
</svg>
