<svg width="60" height="60" viewBox="0 0 60 60" fill="none" xmlns="http://www.w3.org/2000/svg">
<path fill-rule="evenodd" clip-rule="evenodd" d="M12 12.9996L25.2 12.9996L25.2 23.4996C25.2 25.9849 27.2147 27.9996 29.7 27.9996L37.8 27.9996L37.8 31L40.8 31L40.8 27.9996L40.8 26.4996L39.5182 24.9996L28.2 11.7549L26.7 9.99961L25.2 9.99961L12 9.99961C10.3432 9.99961 9 11.3428 9 12.9996L9 46.5996C9 48.2565 10.3432 49.5996 12 49.5996L37.8 49.5996C39.4569 49.5996 40.8 48.2565 40.8 46.5996L40.8 42.4L37.8 42.4L37.8 46.5996L12 46.5996L12 12.9996ZM28.2 16.3728L35.572 24.9996L29.7 24.9996C28.8716 24.9996 28.2 24.328 28.2 23.4996L28.2 16.3728Z" fill="white"/>
<path d="M27.6 37L52.8 37" stroke="white" stroke-width="3"/>
<path d="M22.8001 37L33.1501 29.2058L33.15 44.7942L22.8001 37Z" fill="white"/>
</svg>
