<svg width="60" height="60" viewBox="0 0 60 60" fill="none" xmlns="http://www.w3.org/2000/svg">
<circle cx="29.1718" cy="50.9139" r="3.58582" stroke="white" stroke-width="3"/>
<path fill-rule="evenodd" clip-rule="evenodd" d="M18.8933 37.7503H20.0405C21.0985 37.7503 22.1135 38.1695 22.8631 38.9161L26.6985 42.7358C28.306 44.3368 30.9218 44.2817 32.4605 42.6145L35.7621 39.0373C36.5193 38.2169 37.585 37.7503 38.7015 37.7503L44.9871 37.7503C47.1963 37.7503 48.9871 35.9594 48.9871 33.7503V16.479L45.9871 18.5995V33.7503C45.9871 34.3026 45.5394 34.7503 44.9871 34.7503L38.7015 34.7503C36.7477 34.7503 34.8827 35.5669 33.5576 37.0026L30.256 40.5798C29.8713 40.9966 29.2174 41.0104 28.8155 40.6101L24.9801 36.7904C24.2702 36.0834 23.4242 35.5441 22.504 35.1981L18.8933 37.7503ZM39.1982 11.6094L13.4793 11.6095C12.9271 11.6095 12.4793 12.0573 12.4793 12.6095L12.4793 30.4952L9.47925 32.6157L9.47935 12.6095C9.47936 10.4004 11.2702 8.60955 13.4793 8.60954L43.4426 8.60938L39.1982 11.6094Z" fill="white"/>
<path d="M6 40.8809L52.5186 8.00006" stroke="white" stroke-width="3"/>
</svg>
