<svg width="60" height="60" viewBox="0 0 60 60" fill="none" xmlns="http://www.w3.org/2000/svg">
<path d="M33.6999 49.899C33.6999 51.8873 32.0881 53.4991 30.1 53.4991C28.1118 53.4991 26.5 51.8873 26.5 49.899C26.5 47.9106 28.1118 46.2988 30.1 46.2988C32.0881 46.2988 33.6999 47.9106 33.6999 49.899Z" stroke="white" stroke-width="3"/>
<path d="M28.6864 40.6449L24.829 36.8031L23.7705 37.8659L24.829 36.8031C23.7982 35.7764 22.4027 35.2 20.9478 35.2L14.3526 35.2C12.9719 35.2 11.8526 34.0807 11.8526 32.7L11.8527 11.4772C11.8527 10.0965 12.972 8.97718 14.3527 8.97717L45.9704 8.97699C47.3512 8.97699 48.4704 10.0963 48.4704 11.477L48.4704 32.7C48.4704 34.0807 47.3512 35.2 45.9704 35.2L39.6514 35.2C38.1162 35.2 36.6508 35.8417 35.6096 36.9698L32.2878 40.5691C31.3261 41.6111 29.6912 41.6456 28.6864 40.6449Z" stroke="white" stroke-width="3"/>
</svg>
