<svg width="60" height="60" viewBox="0 0 60 60" fill="none" xmlns="http://www.w3.org/2000/svg">
<path d="M32.7046 48.9028C32.7046 50.8909 31.0926 52.5029 29.1037 52.5029C27.1149 52.5029 25.5029 50.8909 25.5029 48.9028C25.5029 46.9147 27.1149 45.3027 29.1037 45.3027C31.0926 45.3027 32.7046 46.9147 32.7046 48.9028Z" stroke="white" stroke-width="3"/>
<path d="M38.6528 35.6305L33.8008 40.0376C32.7539 40.9886 31.0756 40.2458 31.0756 38.8314C31.0756 36.2745 29.0028 34.2018 26.446 34.2018L13.3529 34.2018C11.9722 34.2018 10.8529 33.0825 10.8529 31.7017L10.853 10.4793C10.853 9.0986 11.9723 7.97932 13.353 7.97932L44.9772 7.97915C46.358 7.97914 47.4773 9.09844 47.4773 10.4792L47.4773 31.7018C47.4773 33.0825 46.358 34.2018 44.9773 34.2018L42.3507 34.2018C40.9833 34.2018 39.665 34.7111 38.6528 35.6305Z" stroke="white" stroke-width="3"/>
<path d="M38.6528 35.6286L33.8008 40.0357C32.7539 40.9866 31.0756 40.2438 31.0756 38.8294C31.0756 36.2726 29.0028 34.1998 26.446 34.1998L13.3529 34.1998C11.9722 34.1998 10.8529 33.0805 10.8529 31.6998L10.853 10.4773C10.853 9.09664 11.9723 7.97737 13.353 7.97736L44.9772 7.9772C46.358 7.97719 47.4773 9.09649 47.4773 10.4772L47.4773 31.6998C47.4773 33.0805 46.358 34.1998 44.9773 34.1998L42.3507 34.1998C40.9833 34.1998 39.665 34.7092 38.6528 35.6286Z" stroke="white" stroke-width="3"/>
</svg>
