<svg width="60" height="60" viewBox="0 0 60 60" fill="none" xmlns="http://www.w3.org/2000/svg">
<path d="M18.8004 11.5996H14C12.3431 11.5996 11 12.9428 11 14.5996V44.5996C11 46.2565 12.3431 47.5996 14 47.5996H44.0018C45.6587 47.5996 47.0018 46.2565 47.0018 44.5996V32.8996" stroke="white" stroke-width="3"/>
<path d="M33.3448 13.5964C34.1323 13.7189 34.9029 13.4869 35.4785 13.0552C36.061 12.6183 36.5472 11.8905 36.5472 10.9725V7.77595L49.8269 16.476L36.5472 26.3207V22.7945C36.5472 22.1764 36.3136 21.4911 35.742 20.997L34.9126 21.9563L35.742 20.997C35.1431 20.4791 33.5936 19.309 31.5675 19.3288C29.3561 19.3504 27.2098 20.7537 25.4601 24.1059C23.8234 27.2417 23.0767 30.8017 22.7585 33.8915C21.8562 30.0104 21.6116 25.1474 23.804 20.4887C25.5195 16.8436 27.4748 15.0977 29.1334 14.2672C30.8021 13.4316 32.337 13.4395 33.3448 13.5964Z" fill="white" stroke="white" stroke-width="3"/>
</svg>
