<svg width="60" height="60" viewBox="0 0 60 60" fill="none" xmlns="http://www.w3.org/2000/svg">
<path fill-rule="evenodd" clip-rule="evenodd" d="M39.8 31.5996L39.8 28L39.8 26.5L38.5182 25L27.2 11.7553L25.7 10L24.2 10L11.0001 10C9.3432 10 8.00005 11.3431 8.00005 13L8.00005 46.6C8.00005 48.2568 9.3432 49.6 11.0001 49.6L36.8 49.6C38.4569 49.6 39.8 48.2568 39.8 46.6L39.8 42.9996L36.8 42.9996L36.8 46.6L11.0001 46.6L11.0001 13L24.2 13L24.2 23.5C24.2 25.9853 26.2148 28 28.7 28L36.8 28L36.8 31.5996L39.8 31.5996ZM27.2 16.3732L34.5721 25L28.7 25C27.8716 25 27.2 24.3284 27.2 23.5L27.2 16.3732Z" fill="white"/>
<path d="M49.4 37H24.2" stroke="white" stroke-width="3"/>
<path d="M54.2 37L43.85 44.7942L43.85 29.2058L54.2 37Z" fill="white"/>
</svg>
