<svg width="60" height="60" viewBox="0 0 60 60" fill="none" xmlns="http://www.w3.org/2000/svg">
<path d="M15.9004 25.8008C15.9004 25.5246 16.1242 25.3008 16.4004 25.3008H43.6004C43.8765 25.3008 44.1004 25.5246 44.1004 25.8008V50.0008C44.1004 50.2769 43.8765 50.5008 43.6004 50.5008H36.8004C36.5243 50.5008 36.3004 50.2769 36.3004 50.0008V39.9008C36.3004 37.9678 34.7334 36.4008 32.8004 36.4008H30.0004H27.2004C25.2674 36.4008 23.7004 37.9678 23.7004 39.9008V50.0008C23.7004 50.2769 23.4765 50.5008 23.2004 50.5008H16.4004C16.1242 50.5008 15.9004 50.2769 15.9004 50.0008V25.8008Z" fill="white" stroke="white" stroke-width="3"/>
<path d="M29.6551 9.40022C29.8482 9.21625 30.1518 9.21625 30.3449 9.40022L51.3266 29.388C51.6534 29.6993 51.433 30.25 50.9817 30.25H9.0183C8.56698 30.25 8.34664 29.6993 8.67342 29.388L29.6551 9.40022Z" fill="white" stroke="white" stroke-width="3"/>
</svg>
