<svg width="60" height="60" viewBox="0 0 60 60" fill="none" xmlns="http://www.w3.org/2000/svg">
<path fill-rule="evenodd" clip-rule="evenodd" d="M11 12.0176H49.8C50.3523 12.0176 50.8 12.4653 50.8 13.0176V29.5849C51.8558 29.7661 52.8627 30.0904 53.8 30.537V13.0176C53.8 10.8084 52.0091 9.01758 49.8 9.01758H11C8.79086 9.01758 7 10.8084 7 13.0176V46.4176C7 48.6268 8.79086 50.4176 11 50.4176H33.3999V47.4176H11C10.4477 47.4176 10 46.9699 10 46.4176V13.0176C10 12.4653 10.4477 12.0176 11 12.0176Z" fill="white"/>
<line x1="8.80005" y1="20.7168" x2="53.8" y2="20.7168" stroke="white" stroke-width="3"/>
<mask id="path-3-inside-1_467_362" fill="white">
<ellipse cx="45.1" cy="53.7172" rx="2.1" ry="2.1"/>
</mask>
<ellipse cx="45.1" cy="53.7172" rx="2.1" ry="2.1" fill="white"/>
<path d="M44.2 53.7172C44.2 53.2201 44.6029 52.8172 45.1 52.8172V58.8172C47.9167 58.8172 50.2 56.5338 50.2 53.7172H44.2ZM45.1 52.8172C45.5971 52.8172 46 53.2201 46 53.7172H40C40 56.5338 42.2833 58.8172 45.1 58.8172V52.8172ZM46 53.7172C46 54.2142 45.5971 54.6172 45.1 54.6172V48.6172C42.2833 48.6172 40 50.9005 40 53.7172H46ZM45.1 54.6172C44.6029 54.6172 44.2 54.2142 44.2 53.7172H50.2C50.2 50.9005 47.9167 48.6172 45.1 48.6172V54.6172Z" fill="white" mask="url(#path-3-inside-1_467_362)"/>
<path d="M38.8 40.3528C38.8 34.2007 41.6286 33.0176 45.2286 33.0176C48.8286 33.0176 51.4 34.2007 51.4 40.3528C51.4 42.9556 45.2286 43.1922 45.2286 45.3218C45.2286 47.0255 45.2286 49.0289 45.2286 49.8176" stroke="white" stroke-width="3"/>
<mask id="path-6-inside-2_467_362" fill="white">
<rect x="43.0001" y="18.0176" width="4.2" height="4.2" rx="2" transform="rotate(-90 43.0001 18.0176)"/>
</mask>
<rect x="43.0001" y="18.0176" width="4.2" height="4.2" rx="2" transform="rotate(-90 43.0001 18.0176)" fill="white" stroke="white" stroke-width="4.2" mask="url(#path-6-inside-2_467_362)"/>
<mask id="path-7-inside-3_467_362" fill="white">
<rect x="37.6001" y="18.0176" width="4.2" height="4.2" rx="2" transform="rotate(-90 37.6001 18.0176)"/>
</mask>
<rect x="37.6001" y="18.0176" width="4.2" height="4.2" rx="2" transform="rotate(-90 37.6001 18.0176)" fill="white" stroke="white" stroke-width="4.2" mask="url(#path-7-inside-3_467_362)"/>
</svg>
