<svg width="60" height="60" viewBox="0 0 60 60" fill="none" xmlns="http://www.w3.org/2000/svg">
<circle cx="45.1041" cy="53.6094" r="1.5" fill="white" stroke="white" stroke-width="1.19145"/>
<path d="M38.8173 40.2695C38.8173 34.1299 41.6401 32.9492 45.2327 32.9492C48.8254 32.9492 51.3916 34.1299 51.3916 40.2695C51.3916 42.867 45.2327 43.1032 45.2327 45.2284C45.2327 46.9286 45.2327 48.9279 45.2327 49.715" stroke="white" stroke-width="3"/>
<path fill-rule="evenodd" clip-rule="evenodd" d="M45.291 12.6172C44.1705 12.7573 43.2248 13.4604 42.7462 14.4344L45.291 12.6172Z" fill="white"/>
<path fill-rule="evenodd" clip-rule="evenodd" d="M51.6293 22.1719H53.7868V20.6312L51.6293 22.1719ZM37.5118 18.1719H8.87842V22.1719H31.9103L37.5118 18.1719Z" fill="white"/>
<path fill-rule="evenodd" clip-rule="evenodd" d="M41.8744 14.6832C41.5338 13.7033 40.6022 13 39.5064 13C38.1221 13 37 14.1221 37 15.5064C37 16.3069 37.3753 17.0198 37.9596 17.4787L41.8744 14.6832ZM40.0127 15.5064C40.0127 15.786 39.786 16.0127 39.5064 16.0127C39.2267 16.0127 39 15.786 39 15.5064C39 15.2267 39.2267 15 39.5064 15C39.786 15 40.0127 15.2267 40.0127 15.5064Z" fill="white"/>
<path fill-rule="evenodd" clip-rule="evenodd" d="M12.221 50.3157H33.4282V47.3157H16.4222L12.221 50.3157ZM46.1591 12H11.0818C10.5295 12 10.0818 12.4477 10.0818 13V37.7623L7.08179 39.9045V13C7.08179 10.7909 8.87265 9 11.0818 9H49.7865C49.9648 9 50.1403 9.01166 50.3123 9.03425L46.1591 12ZM50.7865 22.7767V29.5232C51.8424 29.7038 52.8493 30.0278 53.7865 30.4743V20.6344L50.7865 22.7767Z" fill="white"/>
<path d="M3 49.7578L58 10.4832" stroke="white" stroke-width="3"/>
<rect x="38.75" y="15.25" width="1.5" height="1.5" rx="0.75" transform="rotate(-90 38.75 15.25)" fill="white" stroke="white" stroke-width="1.5"/>
</svg>
