<?xml version="1.0" encoding="UTF-8" standalone="no"?>
<svg
   width="128"
   height="128"
   viewBox="0 0 128 128"
   fill="none"
   version="1.1"
   id="svg8"
   sodipodi:docname="AnnotationVisability_Shown_V2.svg"
   inkscape:version="1.1.1 (3bf5ae0d25, 2021-09-20)"
   xmlns:inkscape="http://www.inkscape.org/namespaces/inkscape"
   xmlns:sodipodi="http://sodipodi.sourceforge.net/DTD/sodipodi-0.dtd"
   xmlns="http://www.w3.org/2000/svg"
   xmlns:svg="http://www.w3.org/2000/svg">
  <defs
     id="defs12" />
  <sodipodi:namedview
     id="namedview10"
     pagecolor="#ffffff"
     bordercolor="#666666"
     borderopacity="1.0"
     inkscape:pageshadow="2"
     inkscape:pageopacity="0.0"
     inkscape:pagecheckerboard="true"
     showgrid="false"
     inkscape:zoom="4.0612245"
     inkscape:cx="50.354271"
     inkscape:cy="65.743718"
     inkscape:window-width="1920"
     inkscape:window-height="1000"
     inkscape:window-x="-11"
     inkscape:window-y="-11"
     inkscape:window-maximized="1"
     inkscape:current-layer="svg8"
     width="128px" />
  <path
     d="m 73.24577,112.75178 c 0,5.19344 -4.21089,9.40441 -9.40632,9.40441 -5.19518,0 -9.40607,-4.21097 -9.40607,-9.40441 0,-5.19344 4.21089,-9.40441 9.40607,-9.40441 5.19543,0 9.40632,4.21097 9.40632,9.40441 z"
     stroke="#D9D9D9"
     stroke-width="7.83672"
     id="path2"
     style="stroke:#ffffff" />
  <path
     d="m 88.78375,78.08105 -12.67447,11.5125 c -2.73473,2.48426 -7.11881,0.54387 -7.11881,-3.15091 0,-6.6793 -5.4146,-12.09373 -12.09351,-12.09373 H 22.694923 c -3.606737,0 -6.530589,-2.92391 -6.530563,-6.53092 l 2.61e-4,-55.438487 c 2.6e-5,-3.606752 2.9238,-6.530605 6.530485,-6.530605 l 82.609334,-4.44e-4 c 3.60694,-2.6e-5 6.53079,2.923879 6.53079,6.530657 V 67.81825 c 0,3.60675 -2.92385,6.53066 -6.53053,6.53066 h -6.86125 c -3.57194,0 -7.01562,1.33042 -9.6597,3.73214 z"
     stroke="#d9d9d9"
     stroke-width="7.83672"
     id="path4" />
  <path
     d="M 88.78375,78.07608 76.10928,89.58859 c -2.73473,2.484 -7.11881,0.54361 -7.11881,-3.15118 0,-6.67903 -5.4146,-12.09373 -12.09351,-12.09373 H 22.694923 c -3.606737,0 -6.530589,-2.9239 -6.530563,-6.53065 l 2.61e-4,-55.438621 c 2.6e-5,-3.606778 2.9238,-6.530605 6.530485,-6.530631 L 105.30444,5.84336 c 3.60694,-2.6e-5 6.53079,2.92388 6.53079,6.530657 V 67.81303 c 0,3.60675 -2.92385,6.53065 -6.53053,6.53065 h -6.86125 c -3.57194,0 -7.01562,1.33069 -9.6597,3.7324 z"
     stroke="#D9D9D9"
     stroke-width="7.83672"
     id="path6"
     style="stroke:#ffffff" />
</svg>
