<?xml version="1.0" encoding="UTF-8" standalone="no"?>
<svg
   width="128"
   height="128"
   viewBox="0 0 128 128"
   fill="none"
   version="1.1"
   id="svg8"
   sodipodi:docname="AnnotationVisability_Hidden_V2.svg"
   inkscape:version="1.1.1 (3bf5ae0d25, 2021-09-20)"
   xmlns:inkscape="http://www.inkscape.org/namespaces/inkscape"
   xmlns:sodipodi="http://sodipodi.sourceforge.net/DTD/sodipodi-0.dtd"
   xmlns="http://www.w3.org/2000/svg"
   xmlns:svg="http://www.w3.org/2000/svg">
  <defs
     id="defs12" />
  <sodipodi:namedview
     id="namedview10"
     pagecolor="#ffffff"
     bordercolor="#666666"
     borderopacity="1.0"
     inkscape:pageshadow="2"
     inkscape:pageopacity="0.0"
     inkscape:pagecheckerboard="true"
     showgrid="false"
     inkscape:zoom="3.9019608"
     inkscape:cx="55.741206"
     inkscape:cy="60.994975"
     inkscape:window-width="1920"
     inkscape:window-height="1000"
     inkscape:window-x="-11"
     inkscape:window-y="-11"
     inkscape:window-maximized="1"
     inkscape:current-layer="svg8" />
  <path
     d="m 72.59468,114.17825 c 0,5.00162 -4.07721,9.05706 -9.10771,9.05706 -5.03024,0 -9.10745,-4.05544 -9.10745,-9.05706 0,-5.00137 4.07721,-9.05681 9.10745,-9.05681 5.0305,0 9.10771,4.05544 9.10771,9.05681 z"
     stroke="#D9D9D9"
     stroke-width="7.56757"
     id="path2"
     style="stroke:#ffffff" />
  <path
     fill-rule="evenodd"
     clip-rule="evenodd"
     d="M 33.131996,80.96568 H 56.76413 c 4.37162,0 7.91565,3.52511 7.9154,7.87338 0,6.83361 8.1524,10.42288 13.23778,5.82805 l 12.2721,-11.08729 c 1.86181,-1.68205 4.28689,-2.61414 6.80226,-2.61414 h 6.64317 c 5.5877,0 10.11715,-4.50526 10.11715,-10.06287 V 24.285153 l -5e-4,5.05e-4 v -0.0023 l -7.58736,5.334461 V 70.90252 c 0,1.38947 -1.13236,2.51578 -2.52929,2.51578 h -6.64317 c -4.40172,0 -8.64586,1.63098 -11.90409,4.57495 L 72.81549,89.08057 c -0.0754,0.0679 -0.11888,0.0886 -0.12672,0.0921 -0.01,0.004 -0.0144,0.006 -0.0215,0.006 -0.0212,0.003 -0.0984,0.005 -0.20462,-0.042 -0.10623,-0.0468 -0.15682,-0.10466 -0.16896,-0.12227 -0.004,-0.006 -0.006,-0.0104 -0.01,-0.0203 -0.002,-0.008 -0.0164,-0.0541 -0.0167,-0.15548 C 72.26725,80.3222 65.32587,73.41789 56.76348,73.41789 H 43.86335 l -10.728981,7.54332 h 0.0031 z M 21.118519,60.3949 l -7.587885,5.33471 2.28e-4,-48.218017 c 2.5e-5,-5.55766 4.529572,-10.0630186 10.11707,-10.0630436 l 72.780218,-4.03e-4 -10.73531,7.5474146 -62.044858,3.27e-4 c -1.396849,0 -2.529236,1.12634 -2.529261,2.515755 z"
     fill="#D9D9D9"
     id="path4"
     style="fill:#ffffff;stroke-width:2.52252" />
  <path
     d="M 6.4417018,85.00979 121.55838,4.0763474"
     stroke="#D9D9D9"
     stroke-width="7.56757"
     id="path6"
     style="stroke:#ffffff" />
</svg>
