<svg width="57" height="68" viewBox="0 0 57 68" fill="none" xmlns="http://www.w3.org/2000/svg">
<path fill-rule="evenodd" clip-rule="evenodd" d="M15.6997 9.99208C14.7808 10.5466 13.7714 10.9608 12.6997 11.2059V12.3363H8V11.1737C6.92602 10.9123 5.91645 10.4807 5 9.9082V14.3363C5 14.8886 5.44772 15.3363 6 15.3363H14.6997C15.252 15.3363 15.6997 14.8886 15.6997 14.3363V9.99208Z" fill="#D9D9D9"/>
<path d="M17.7207 1.5772C18.3828 1.60557 18.9053 1.64659 19.2938 1.6985C18.8516 6.36479 15.0176 9.96316 10.4182 9.96316C5.79953 9.96316 1.95282 6.33473 1.53719 1.6401C1.91635 1.58871 2.43444 1.55056 3.10244 1.52782C4.29768 1.48714 5.77147 1.49901 7.45542 1.51258C8.38304 1.52006 9.37444 1.52804 10.4182 1.52804C11.0662 1.52804 11.6963 1.52657 12.3046 1.52514C14.4292 1.52016 16.2881 1.5158 17.7207 1.5772Z" stroke="#D9D9D9" stroke-width="3"/>
<path d="M31.3946 1.50081C32.958 1.49871 36.0664 1.50104 38.0401 1.50276C37.8896 1.82051 37.7136 2.16981 37.5212 2.53663C37.1466 3.25083 36.7442 3.96761 36.4142 4.55528C36.3813 4.61394 36.3491 4.67132 36.3177 4.72727C36.1491 5.02766 35.9964 5.3012 35.8905 5.50238C35.8409 5.5968 35.7823 5.7113 35.7365 5.81735C35.7197 5.8565 35.67 5.97186 35.6354 6.11432L35.6351 6.11547C35.6224 6.16792 35.5736 6.36848 35.5977 6.62419C35.6204 6.86613 35.8007 7.71854 36.7398 7.94755L36.7742 7.95593L36.8089 7.96268C37.7408 8.14387 38.2737 8.30409 38.5772 8.44112C38.6372 8.46822 38.6811 8.49114 38.7122 8.50909C38.7154 8.5624 38.7176 8.64799 38.7131 8.77786C38.7105 8.85214 38.7037 8.96518 38.6955 9.10274C38.6761 9.42804 38.6485 9.8905 38.6485 10.302C38.6485 11.2437 38.3163 13.0624 37.7262 14.6487C37.4332 15.4364 37.1126 16.0664 36.8076 16.4702C36.6515 16.6769 36.5479 16.7635 36.5013 16.7962H36.4878H36.4673H36.4469H36.4266H36.4063H36.3862H36.366H36.346H36.326H36.3061H36.2863H36.2665H36.2468H36.2272H36.2076H36.1881H36.1687H36.1493H36.13H36.1108H36.0916H36.0725H36.0535H36.0345H36.0156H35.9967H35.978H35.9592H35.9406H35.922H35.9035H35.8851H35.8667H35.8483H35.8301H35.8119H35.7937H35.7757H35.7577H35.7397H35.7218H35.704H35.6862H35.6686H35.6509H35.6333H35.6158H35.5984H35.581H35.5637H35.5464H35.5292H35.512H35.4949H35.4779H35.4609H35.444H35.4272H35.4104H35.3937H35.377H35.3604H35.3438H35.3273H35.3109H35.2945H35.2782H35.2619H35.2457H35.2295H35.2134H35.1974H35.1814H35.1655H35.1496H35.1338H35.118H35.1023H35.0867H35.0711H35.0555H35.0401H35.0246H35.0092H34.9939H34.9787H34.9634H34.9483H34.9332H34.9181H34.9031H34.8882H34.8733H34.8584H34.8437H34.8289H34.8142H34.7996H34.785H34.7705H34.756H34.7416H34.7272H34.7129H34.6986H34.6844H34.6702H34.6561H34.642H34.628H34.614H34.6001H34.5862H34.5724H34.5586H34.5448H34.5312H34.5175H34.5039H34.4904H34.4769H34.4635H34.4501H34.4367H34.4234H34.4101H34.3969H34.3838H34.3706H34.3576H34.3445H34.3316H34.3186H34.3057H34.2929H34.2801H34.2673H34.2546H34.2419H34.2293H34.2167H34.2042H34.1917H34.1792H34.1668H34.1545H34.1421H34.1299H34.1176H34.1054H34.0933H34.0812H34.0691H34.057H34.0451H34.0331H34.0212H34.0093H33.9975H33.9857H33.974H33.9623H33.9506H33.939H33.9274H33.9158H33.9043H33.8929H33.8814H33.87H33.8587H33.8473H33.8361H33.8248H33.8136H33.8024H33.7913H33.7802H33.7692H33.7581H33.7472H33.7362H33.7253H33.7144H33.7036H33.6928H33.682H33.6713H33.6606H33.6499H33.6393H33.6287H33.6181H33.6076H33.5971H33.5866H33.5762H33.5658H33.5554H33.5451H33.5348H33.5245H33.5143H33.5041H33.4939H33.4838H33.4737H33.4636H33.4535H33.4435H33.4335H33.4236H33.4137H33.4038H33.3939H33.3841H33.3743H33.3645H33.3547H33.345H33.3353H33.3257H33.316H33.3064H33.2969H33.2873H33.2778H33.2683H33.2588H33.2494H33.24H33.2306H33.2213H33.2119H33.2026H33.1933H33.1841H33.1749H33.1657H33.1565H33.1473H33.1382H33.1291H33.12H33.111H33.102H33.093H33.084H33.075H33.0661H33.0572H33.0483H33.0394H33.0306H33.0218H33.013H33.0042H32.9954H32.9867H32.978H32.9693H32.9606H32.952H32.9434H32.9348H32.9262H32.9176H32.9091H32.9005H32.892H32.8835H32.8751H32.8666H32.8582H32.8498H32.8414H32.833H32.8247H32.8163H32.808H32.7997H32.7914H32.7832H32.7749H32.7667H32.7585H32.7503H32.7421H32.7339H32.7258H32.7176H32.7095H32.7014H32.6933H32.6852H32.6772H32.6691H32.6611H32.6531H32.6451H32.6371H32.6291H32.6211H32.6132H32.6053H32.5973H32.5894H32.5815H32.5736H32.5658H32.5579H32.5501H32.5422H32.5344H32.5266H32.5188H32.511H32.5032H32.4954H32.4877H32.4799H32.4722H32.4644H32.4567H32.449H32.4413H32.4336H32.4259H32.4182H32.4106H32.4029H32.3952H32.3876H32.38H32.3723H32.3647H32.3571H32.3495H32.3419H32.3343H32.3267H32.3191H32.3115H32.304H32.2964H32.2888H32.2813H32.2737H32.2662H32.2587H32.2511H32.2436H32.2361H32.2285H32.221H32.2135H32.206H32.1985H32.191H32.1835H32.176H32.1685H32.161H32.1535H32.146H32.1385H32.131H32.1235H32.116H32.1085H32.1011H32.0936H32.0861H32.0786H32.0711H32.0636H32.0562H32.0487H32.0412H32.0337H32.0262H32.0187H32.0112H32.0037H31.9962H31.9888H31.9813H31.9738H31.9662H31.9587H31.9512H31.9437H31.9362H31.9287H31.9212H31.9136H31.9061H31.8986H31.891H31.8835H31.8759H31.8684H31.8608H31.8533H31.8457H31.8381H31.8305H31.8229H31.8153H31.8077H31.8001H31.7925H31.7849H31.7773H31.7696H31.762H31.7543H31.7467H31.739H31.7313H31.7236H31.7159H31.7082H31.7005H31.6928H31.6851H31.6773H31.6696H31.6618H31.6541H31.6463H31.6385H31.6307H31.6229H31.615H31.6072H31.5993H31.5915H31.5836H31.5757H31.5678H31.5599H31.552H31.5441H31.5361H31.5282H31.5202H31.5122H31.5042H31.4962H31.4881H31.4801H31.472H31.464H31.4559H31.4478H31.4397H31.4315H31.4234H31.4152H31.407H31.3988H31.3906H31.3824H31.3741H31.3659H31.3576H31.3493H31.341H31.3326H31.3243H31.3159H31.3075H31.2991H31.2907H31.2822H31.2738H31.2653H31.2568H31.2482H31.2397H31.2311H31.2226H31.214H31.2053H31.1967H31.188H31.1793H31.1706H31.1619H31.1531H31.1444H31.1356H31.1268H31.1254C31.0827 16.7659 31.0057 16.7031 30.8953 16.5816C30.6251 16.2843 30.3062 15.7934 29.9996 15.124C29.388 13.7882 28.9434 12.0018 28.9434 10.302C28.9434 9.86747 28.9157 9.42008 28.8956 9.09579C28.8877 8.96786 28.881 8.85909 28.8776 8.77781C28.871 8.6186 28.8734 8.51954 28.8769 8.46177C28.8962 8.45031 28.921 8.43661 28.9521 8.42081C29.1907 8.29984 29.6281 8.14807 30.4213 7.97171C31.1449 7.86023 31.4731 7.27839 31.5508 7.11467C31.6566 6.89155 31.6857 6.69051 31.6954 6.61923C31.7191 6.44466 31.7168 6.27366 31.7139 6.17015C31.7073 5.93653 31.6816 5.63715 31.6529 5.3369C31.6352 5.15038 31.6153 4.95327 31.5945 4.74805C31.5442 4.24912 31.489 3.70222 31.4475 3.14277C31.4005 2.51018 31.3782 1.94206 31.3946 1.50081ZM38.779 8.55399C38.7788 8.55402 38.7768 8.55238 38.7733 8.54896C38.7774 8.55224 38.7792 8.55395 38.779 8.55399ZM28.8157 8.50324C28.8156 8.50323 28.8166 8.50227 28.8189 8.50041C28.8169 8.50232 28.8158 8.50325 28.8157 8.50324Z" stroke="#D9D9D9" stroke-width="3"/>
<path d="M28.9254 13.099C26.8503 9.05851 23.8857 8.84333 23.8857 5.01793C23.8857 2.42058 26.8503 0.689011 31.0006 2.99784" stroke="#D9D9D9" stroke-width="3"/>
<path d="M7.22267 20.4607C7.2227 20.4608 7.22292 20.4622 7.2232 20.4651C7.22277 20.4621 7.22263 20.4607 7.22267 20.4607ZM7.87119 22.0864C7.8014 21.9412 7.73587 21.8014 7.6752 21.6683C9.71392 21.667 13.1067 21.6696 15.1421 21.6714C15.085 21.8002 15.0233 21.9352 14.9575 22.0755C14.7001 22.6243 14.4177 23.176 14.1808 23.6387C14.1554 23.6884 14.1305 23.7371 14.1062 23.7846C13.986 24.0197 13.8717 24.2446 13.792 24.4142C13.7556 24.4916 13.7051 24.6022 13.6654 24.7126L13.6653 24.713C13.6508 24.7534 13.6037 24.8844 13.5797 25.0494C13.5698 25.1175 13.5405 25.3325 13.5983 25.5977C13.6623 25.8915 13.9109 26.5001 14.6321 26.7192L14.6732 26.7317L14.715 26.7418C15.6163 26.9602 16.0827 27.1053 16.3488 27.2367C16.3954 27.2596 16.4264 27.2779 16.4459 27.2905C16.4714 27.3847 16.504 27.6191 16.4982 28.2137C16.4963 28.4072 16.4896 28.6641 16.4818 28.9633C16.4678 29.4967 16.4504 30.1647 16.4504 30.8488C16.4504 32.78 15.7987 35.1003 14.7367 36.9139C13.6243 38.8138 12.3765 39.6676 11.3978 39.6676C10.419 39.6676 9.17122 38.8138 8.05878 36.9139C6.99682 35.1003 6.34513 32.78 6.34513 30.8488C6.34513 30.1924 6.32868 29.5184 6.31564 28.9841C6.30806 28.6735 6.30163 28.4102 6.30025 28.2249C6.29587 27.6351 6.32973 27.4068 6.3545 27.3175C6.37491 27.3038 6.40925 27.283 6.46301 27.2561C6.73318 27.1208 7.19723 26.9715 8.08187 26.7418C8.33464 26.6812 8.59721 26.5505 8.81941 26.319C9.11014 26.0161 9.19503 25.6808 9.22288 25.5077C9.27255 25.1991 9.21287 24.9473 9.19858 24.887C9.19822 24.8855 9.1979 24.8841 9.1976 24.8829C9.15695 24.7103 9.09161 24.554 9.05827 24.476C8.97718 24.2861 8.85849 24.0465 8.73957 23.8113C8.66578 23.6654 8.58704 23.5116 8.50519 23.3518C8.30353 22.958 8.08302 22.5273 7.87119 22.0864ZM15.5753 20.4782C15.5756 20.4742 15.5759 20.4721 15.576 20.4721C15.576 20.472 15.5759 20.474 15.5753 20.4782Z" stroke="#D9D9D9" stroke-width="3"/>
<path fill-rule="evenodd" clip-rule="evenodd" d="M40.1973 32.0303C40.1973 32.0227 40.1974 32.0152 40.1974 32.0076C40.1974 28.695 37.4113 25.8666 33.7956 25.8666C30.1799 25.8666 27.3938 28.695 27.3938 32.0076C27.3938 34.2187 28.6351 36.2141 30.5359 37.2966C30.6637 37.5628 30.8025 37.8281 30.9522 38.0917C31.0744 38.3069 31.2015 38.5165 31.333 38.7205C30.7932 39.2481 30.307 39.7839 29.8797 40.3204C26.6423 38.8764 24.3938 35.6973 24.3938 32.0076C24.3938 26.9591 28.6031 22.8666 33.7956 22.8666C38.9881 22.8666 43.1974 26.9591 43.1974 32.0076C43.1974 32.093 43.1962 32.1781 43.1938 32.2629C42.4023 32.4488 41.5882 32.6877 40.7616 32.9793C40.7157 32.8941 40.6687 32.8091 40.6205 32.7243C40.4852 32.4861 40.3439 32.2547 40.1973 32.0303Z" fill="#D9D9D9"/>
<path d="M34.3424 47.5546L38.6712 47.8548C39.486 47.9114 40.1881 48.385 40.7834 48.9411C41.5748 49.6805 42.4922 49.9348 43.7996 49.9C46.0224 49.8409 51.9457 47.0499 52.3971 44.9914C52.8485 42.9329 50.7329 36.6375 49.0539 36.1495C48.2848 35.9259 46.0953 36.1755 44.1019 36.6971C42.215 37.1909 39.6634 36.6307 38.4859 35.0815C36.818 32.8872 34.9271 31.1198 33.419 32.0925C32.0533 32.9734 34.1111 36.8108 35.8989 39.6362C36.8036 41.0659 35.9282 43.0063 34.2388 43.1889C31.5579 43.4787 31.6502 47.3679 34.3424 47.5546Z" stroke="#D9D9D9" stroke-width="3"/>
</svg>
