<?xml version="1.0" encoding="UTF-8" standalone="no"?>
<svg
   width="128"
   height="128"
   viewBox="0 0 128 128"
   fill="none"
   version="1.1"
   id="svg16"
   sodipodi:docname="ArtifactCatalog_V2.svg"
   inkscape:version="1.1.1 (3bf5ae0d25, 2021-09-20)"
   xmlns:inkscape="http://www.inkscape.org/namespaces/inkscape"
   xmlns:sodipodi="http://sodipodi.sourceforge.net/DTD/sodipodi-0.dtd"
   xmlns="http://www.w3.org/2000/svg"
   xmlns:svg="http://www.w3.org/2000/svg">
  <defs
     id="defs20" />
  <sodipodi:namedview
     id="namedview18"
     pagecolor="#ffffff"
     bordercolor="#666666"
     borderopacity="1.0"
     inkscape:pageshadow="2"
     inkscape:pageopacity="0.0"
     inkscape:pagecheckerboard="true"
     showgrid="false"
     inkscape:zoom="2.9264705"
     inkscape:cx="58.261308"
     inkscape:cy="69.366836"
     inkscape:window-width="1920"
     inkscape:window-height="1000"
     inkscape:window-x="-11"
     inkscape:window-y="-11"
     inkscape:window-maximized="1"
     inkscape:current-layer="svg16" />
  <path
     fill-rule="evenodd"
     clip-rule="evenodd"
     d="m 39.218983,29.33016 c -2.025187,1.223835 -4.249828,2.137979 -6.611773,2.678921 v 2.49481 H 22.249427 v -2.565877 c -2.366971,-0.576913 -4.591987,-1.529463 -6.611774,-2.79298 v 9.772889 c 0,1.218936 0.986741,2.207018 2.203925,2.207018 h 19.173481 c 1.217227,0 2.203924,-0.988082 2.203924,-2.207018 z"
     fill="#D9D9D9"
     id="path2"
     style="fill:#ffffff;stroke-width:2.20547" />
  <path
     d="m 43.673111,10.758383 c 1.45922,0.06261 2.61077,0.153146 3.467,0.267712 -0.97458,10.298576 -9.424425,18.240238 -19.561155,18.240238 -10.179199,0 -18.6570563,-8.008004 -19.5730743,-18.369128 0.83564,-0.113418 1.977472,-0.197617 3.4496933,-0.247804 2.634218,-0.08978 5.882339,-0.06358 9.593638,-0.03363 2.044405,0.01656 4.229375,0.03412 6.529743,0.03412 1.428144,0 2.816836,-0.0033 4.157484,-0.0064 4.682457,-0.01103 8.779331,-0.02052 11.936671,0.114896 z"
     stroke="#D9D9D9"
     stroke-width="6.6164"
     id="path4"
     style="stroke:#ffffff" />
  <path
     d="m 73.809351,10.589789 c 3.44562,-0.0046 10.2963,5.08e-4 14.64618,0.0044 -0.33169,0.70128 -0.71958,1.472191 -1.14361,2.281768 -0.82559,1.576252 -1.71245,3.158197 -2.43975,4.455194 -0.0725,0.129464 -0.14347,0.256102 -0.21268,0.379585 -0.37158,0.662965 -0.70812,1.266673 -0.94151,1.71068 -0.10932,0.208386 -0.23847,0.46109 -0.33941,0.695144 -0.037,0.0864 -0.14656,0.341006 -0.22281,0.655418 l -6.7e-4,0.0026 c -0.028,0.115758 -0.13554,0.558397 -0.0824,1.122754 0.05,0.533965 0.4474,2.415246 2.51711,2.920677 l 0.0758,0.01865 0.0765,0.01478 c 2.05383,0.399889 3.22831,0.753498 3.8972,1.055924 0.13223,0.05982 0.22898,0.1104 0.29753,0.150021 0.007,0.117655 0.0119,0.306554 0.002,0.593179 -0.006,0.16394 -0.0207,0.41342 -0.0388,0.717015 -0.0428,0.717943 -0.10359,1.7386 -0.10359,2.646788 0,2.078348 -0.73214,6.092248 -2.03268,9.593236 -0.64575,1.738469 -1.35233,3.128889 -2.02452,4.020085 -0.34404,0.45619 -0.57236,0.64732 -0.67506,0.71948 h -0.0298 -0.0452 -0.045 -0.0447 -0.0447 -0.0443 -0.0445 -0.0441 -0.0441 -0.0439 -0.0436 -0.0436 -0.0434 -0.0432 -0.0432 -0.043 -0.0427 -0.0428 -0.0425 -0.0423 -0.0423 -0.0421 -0.0419 -0.0419 -0.0417 -0.0417 -0.0412 -0.0414 -0.041 -0.041 -0.0408 -0.0405 -0.0405 -0.0405 -0.0401 -0.0401 -0.0401 -0.0397 -0.0397 -0.0397 -0.0395 -0.0392 -0.0392 -0.0388 -0.039 -0.0388 -0.0386 -0.0383 -0.0384 -0.0381 -0.0381 -0.0379 -0.0379 -0.0377 -0.0375 -0.0375 -0.0372 -0.037 -0.037 -0.0368 -0.0368 -0.0366 -0.0366 -0.0364 -0.0361 -0.0361 -0.0359 -0.0359 -0.0357 -0.0357 -0.0355 -0.0353 -0.0353 -0.035 -0.035 -0.0348 -0.0348 -0.0346 -0.0344 -0.0344 -0.0344 -0.0339 -0.0342 -0.0339 -0.0337 -0.0335 -0.0337 -0.0333 -0.0333 -0.0333 -0.0331 -0.0328 -0.0328 -0.0328 -0.0324 -0.0326 -0.0324 -0.0322 -0.0322 -0.032 -0.032 -0.0317 -0.0317 -0.0315 -0.0315 -0.0313 -0.0313 -0.0311 -0.0311 -0.0309 -0.0309 -0.0306 -0.0306 -0.0304 -0.0304 -0.0304 -0.03 -0.0302 -0.03 -0.0298 -0.0298 -0.0295 -0.0295 -0.0295 -0.0293 -0.0293 -0.0291 -0.0289 -0.0291 -0.0286 -0.0289 -0.0284 -0.0286 -0.0284 -0.0282 -0.0282 -0.0282 -0.028 -0.028 -0.0278 -0.0278 -0.0275 -0.0275 -0.0276 -0.0273 -0.0271 -0.0273 -0.0269 -0.0271 -0.0269 -0.0267 -0.0267 -0.0267 -0.0267 -0.0262 -0.0264 -0.0262 -0.0262 -0.026 -0.026 -0.0258 -0.0258 -0.0258 -0.0256 -0.0256 -0.0256 -0.0253 -0.0251 -0.0254 -0.0251 -0.0249 -0.0251 -0.0247 -0.0249 -0.0247 -0.0247 -0.0245 -0.0245 -0.0242 -0.0245 -0.024 -0.0242 -0.024 -0.024 -0.0238 -0.0238 -0.0238 -0.0236 -0.0236 -0.0236 -0.0234 -0.0234 -0.0234 -0.0231 -0.0231 -0.0231 -0.0229 -0.0229 -0.0229 -0.0227 -0.0227 -0.0227 -0.0225 -0.0225 -0.0225 -0.0223 -0.0223 -0.0223 -0.0223 -0.022 -0.022 -0.0218 -0.0218 -0.0218 -0.0218 -0.0216 -0.0216 -0.0216 -0.0216 -0.0214 -0.0214 -0.0212 -0.0214 -0.0212 -0.0209 -0.0212 -0.0209 -0.0209 -0.0209 -0.0207 -0.0207 -0.0207 -0.0205 -0.0207 -0.0205 -0.0205 -0.0203 -0.0203 -0.0203 -0.0203 -0.0203 -0.02 -0.02 -0.02 -0.0198 -0.0198 -0.0198 -0.0198 -0.0198 -0.0196 -0.0196 -0.0196 -0.0196 -0.0194 -0.0194 -0.0194 -0.0194 -0.0194 -0.0192 -0.0192 -0.0192 -0.0192 -0.0189 -0.019 -0.0189 -0.019 -0.0189 -0.0187 -0.019 -0.0187 -0.0187 -0.0185 -0.0187 -0.0185 -0.0185 -0.0185 -0.0185 -0.0183 -0.0185 -0.0183 -0.0183 -0.0183 -0.0181 -0.0183 -0.0181 -0.0181 -0.0181 -0.0181 -0.0181 -0.0178 -0.0181 -0.0179 -0.0179 -0.0178 -0.0179 -0.0176 -0.0179 -0.0176 -0.0176 -0.0176 -0.0176 -0.0176 -0.0176 -0.0174 -0.0174 -0.0176 -0.0174 -0.0174 -0.0174 -0.0172 -0.0174 -0.0172 -0.0174 -0.0172 -0.0172 -0.0172 -0.0172 -0.0172 -0.0172 -0.017 -0.0172 -0.017 -0.0172 -0.017 -0.017 -0.017 -0.017 -0.017 -0.017 -0.0167 -0.017 -0.017 -0.0168 -0.0168 -0.017 -0.0168 -0.0168 -0.0168 -0.0168 -0.0167 -0.0168 -0.0168 -0.0168 -0.0165 -0.0168 -0.0168 -0.0165 -0.0168 -0.0165 -0.0165 -0.0168 -0.0165 -0.0165 -0.0168 -0.0165 -0.0165 -0.0165 -0.0165 -0.0165 -0.0165 -0.0165 -0.0165 -0.0165 -0.0165 -0.0165 -0.0165 -0.0165 -0.0165 -0.0165 -0.0165 -0.0163 -0.0165 -0.0165 -0.0165 -0.0165 -0.0165 -0.0163 -0.0165 -0.0165 -0.0165 -0.0165 -0.0165 -0.0165 -0.0165 -0.0165 -0.0163 -0.0165 -0.0165 -0.0168 -0.0165 -0.0165 -0.0165 -0.0165 -0.0165 -0.0165 -0.0168 -0.0165 -0.0165 -0.0168 -0.0165 -0.0168 -0.0165 -0.0168 -0.0165 -0.0168 -0.0168 -0.0168 -0.0168 -0.0168 -0.0168 -0.0168 -0.0168 -0.0167 -0.0168 -0.017 -0.0168 -0.017 -0.0168 -0.017 -0.017 -0.017 -0.017 -0.017 -0.017 -0.017 -0.017 -0.0172 -0.017 -0.0172 -0.017 -0.0172 -0.0172 -0.0172 -0.0172 -0.0174 -0.0172 -0.0174 -0.0172 -0.0174 -0.0174 -0.0174 -0.0174 -0.0174 -0.0174 -0.0176 -0.0174 -0.0176 -0.0176 -0.0176 -0.0176 -0.0178 -0.0176 -0.0178 -0.0176 -0.0179 -0.0179 -0.0178 -0.0181 -0.0178 -0.0181 -0.0181 -0.0181 -0.0181 -0.0181 -0.0183 -0.0181 -0.0183 -0.0183 -0.0183 -0.0185 -0.0183 -0.0185 -0.0185 -0.0185 -0.0185 -0.0187 -0.0185 -0.0187 -0.0187 -0.019 -0.0187 -0.019 -0.0187 -0.019 -0.0192 -0.019 -0.0192 -0.0192 -0.0192 -0.0192 -0.0194 -0.0192 -0.0194 -0.0194 -0.003 c -0.0941,-0.0669 -0.26381,-0.20547 -0.50713,-0.47362 -0.5955,-0.656148 -1.29833,-1.739573 -1.97405,-3.21695 -1.34792,-2.948132 -2.32779,-6.890745 -2.32779,-10.642231 0,-0.959016 -0.061,-1.946413 -0.10534,-2.662126 -0.0174,-0.282344 -0.0322,-0.522401 -0.0397,-0.701786 -0.0145,-0.35138 -0.009,-0.570008 -0.002,-0.697507 0.0425,-0.02529 0.0972,-0.05552 0.16573,-0.09041 0.52586,-0.266981 1.48985,-0.601941 3.23801,-0.99117 1.59476,-0.246038 2.31808,-1.530168 2.48933,-1.891502 0.23317,-0.49243 0.29731,-0.936126 0.31869,-1.093443 0.0522,-0.385278 0.0472,-0.762678 0.0408,-0.991127 -0.0146,-0.515701 -0.0712,-1.176437 -0.13449,-1.839094 -0.039,-0.411653 -0.0829,-0.846678 -0.12871,-1.299602 -0.11086,-1.1011 -0.23252,-2.308117 -0.32398,-3.542833 -0.10358,-1.396136 -0.15273,-2.649986 -0.11659,-3.623832 z m 16.27466,15.566483 c -4.4e-4,6.6e-5 -0.005,-0.0036 -0.0126,-0.01114 0.009,0.0073 0.013,0.01114 0.0126,0.01114 z m -21.95836,-0.112015 c -2.2e-4,-2.2e-5 0.002,-0.0021 0.007,-0.0061 -0.004,0.0041 -0.007,0.0061 -0.007,0.0061 z"
     stroke="#D9D9D9"
     stroke-width="6.6164"
     id="path6"
     style="stroke:#ffffff" />
  <path
     d="m 68.367421,36.187182 c -4.57336,-8.917427 -11.10711,-9.392333 -11.10711,-17.835052 0,-5.732393 6.53375,-9.5539935 15.6807,-4.458371"
     stroke="#D9D9D9"
     stroke-width="6.6164"
     id="path8"
     style="stroke:#ffffff" />
  <path
     d="m 20.53625,52.434577 c 6.6e-5,2.2e-4 5.51e-4,0.003 0.0012,0.01 -9.47e-4,-0.007 -0.0013,-0.01 -0.0012,-0.01 z m 1.429288,3.58794 c -0.153811,-0.32045 -0.298234,-0.629 -0.431947,-0.92275 4.493185,-0.003 11.970616,0.003 16.456483,0.007 -0.125844,0.28427 -0.261826,0.58221 -0.406844,0.89186 -0.56729,1.21121 -1.189678,2.42882 -1.711788,3.45 -0.05598,0.1097 -0.110857,0.21719 -0.164413,0.32201 -0.264911,0.51887 -0.51682,1.01523 -0.692472,1.38954 -0.08022,0.17083 -0.191522,0.41491 -0.279017,0.65857 l -2.21e-4,8.8e-4 c -0.03196,0.0892 -0.135761,0.37828 -0.188656,0.74244 -0.02182,0.15029 -0.0864,0.62481 0.04099,1.21011 0.141051,0.64842 0.688947,1.99161 2.278417,2.47517 l 0.09058,0.0276 0.09212,0.0223 c 1.986398,0.48201 3.014307,0.80225 3.600771,1.09225 0.1027,0.0505 0.17103,0.0909 0.214,0.11875 0.0562,0.2079 0.12805,0.72522 0.11527,2.03751 -0.004,0.42706 -0.019,0.99404 -0.0362,1.65438 -0.0309,1.17722 -0.0692,2.65151 -0.0692,4.16133 0,4.26219 -1.4363,9.38313 -3.776867,13.38578 -2.451646,4.1931 -5.201703,6.07746 -7.358683,6.07746 -2.157201,0 -4.907214,-1.88436 -7.358947,-6.07746 -2.340481,-4.00265 -3.776756,-9.12359 -3.776756,-13.38578 0,-1.44869 -0.03625,-2.93621 -0.06499,-4.11542 -0.01675,-0.6855 -0.03088,-1.26661 -0.03392,-1.67557 -0.0097,-1.3017 0.06497,-1.80556 0.119564,-2.00265 0.04498,-0.0302 0.120664,-0.0762 0.239147,-0.1355 0.595435,-0.29861 1.618166,-0.62812 3.567846,-1.13507 0.557086,-0.13374 1.135771,-0.42221 1.625483,-0.93313 0.640747,-0.6685 0.827837,-1.40852 0.889217,-1.79055 0.109468,-0.68109 -0.02206,-1.23681 -0.05356,-1.3699 -7.94e-4,-0.003 -0.0015,-0.006 -0.0022,-0.009 -0.08959,-0.38093 -0.233593,-0.72588 -0.307072,-0.89803 -0.178722,-0.41905 -0.440305,-0.94786 -0.702396,-1.46695 -0.162627,-0.322 -0.336164,-0.66144 -0.516556,-1.01412 -0.444443,-0.86912 -0.93043,-1.81968 -1.397289,-2.79276 z m 16.979277,-3.54932 c 6.61e-4,-0.009 0.0014,-0.0134 0.0016,-0.0134 0,-2.2e-4 -2.2e-4,0.004 -0.0016,0.0134 z"
     stroke="#D9D9D9"
     stroke-width="6.6164"
     id="path10"
     style="stroke:#ffffff" />
  <path
     fill-rule="evenodd"
     clip-rule="evenodd"
     d="m 93.209841,77.968867 c 0,-0.0168 2.2e-4,-0.0333 2.2e-4,-0.0501 0,-7.31096 -6.14036,-13.55328 -14.10908,-13.55328 -7.96873,0 -14.10909,6.24232 -14.10909,13.55328 0,4.87994 2.73573,9.28382 6.92495,11.67291 0.28167,0.58751 0.58757,1.17303 0.9175,1.7548 0.26932,0.47495 0.54944,0.93754 0.83925,1.38778 -1.18968,1.16442 -2.26122,2.34694 -3.20296,3.531 -7.13499,-3.18693 -12.09051,-10.20325 -12.09051,-18.34648 0,-11.14212 9.27698,-20.17434 20.72086,-20.17434 11.44387,0 20.72085,9.03222 20.72085,20.17434 0,0.18848 -0.003,0.3763 -0.008,0.56345 -1.74441,0.41029 -3.53862,0.93754 -5.36038,1.58111 -0.10116,-0.18803 -0.20475,-0.37564 -0.31098,-0.56279 -0.29819,-0.52571 -0.6096,-1.03642 -0.9327,-1.53167 z"
     fill="#D9D9D9"
     id="path12"
     style="fill:#ffffff;stroke-width:2.20547" />
  <path
     d="m 80.306081,112.23126 9.54035,0.66255 c 1.79576,0.12491 3.34313,1.17015 4.65513,2.39748 1.74418,1.63187 3.76606,2.19311 6.647469,2.11631 4.89889,-0.13044 17.95339,-6.29022 18.94824,-10.83336 0.99486,-4.54315 -3.66777,-18.437203 -7.36816,-19.514223 -1.69503,-0.49349 -6.52053,0.0574 -10.91383,1.20856 -4.158579,1.08982 -9.782119,-0.14654 -12.377239,-3.56566 -3.67592,-4.84286 -7.84332,-8.74354 -11.16706,-6.59677 -3.0099,1.94416 1.52533,10.41336 5.46551,16.64907 1.99389,3.15537 0.0646,7.437863 -3.65873,7.840873 -5.90851,0.63959 -5.70508,9.22312 0.22832,9.63517 z"
     stroke="#D9D9D9"
     stroke-width="6.6164"
     id="path14"
     style="stroke:#ffffff" />
</svg>
