<svg width="64" height="58" viewBox="0 0 64 58" fill="none" xmlns="http://www.w3.org/2000/svg">
<path d="M27.5869 48.459L27.2189 6.85637" stroke="#D9D9D9" stroke-width="3"/>
<path d="M43.1768 12.8477C39.2474 15.3725 33.7152 16.9446 27.5864 16.9446C21.4577 16.9446 15.9254 15.3725 11.9961 12.8477" stroke="#D9D9D9" stroke-width="3"/>
<path d="M6.02637 26.7754L46.1754 26.7754" stroke="#D9D9D9" stroke-width="3"/>
<path fill-rule="evenodd" clip-rule="evenodd" d="M15.8946 26.7432C15.8946 20.9698 17.3164 16.2166 19.5042 12.9543C21.6877 9.69852 24.5645 8.00057 27.5864 8.00057C30.6084 8.00057 33.4852 9.69852 35.6687 12.9543C37.8565 16.2166 39.2783 20.9698 39.2783 26.7432C39.2783 28.0257 39.208 29.2797 39.0739 30.4952L40.3481 30.905C40.4502 30.9378 40.5507 30.9747 40.6494 31.0155L42.0147 31.1799C42.1878 29.7433 42.2783 28.2598 42.2783 26.7432C42.2783 20.5085 40.7469 15.1404 38.1603 11.2834C35.5692 7.41988 31.8501 5.00057 27.5864 5.00057C23.3228 5.00057 19.6036 7.41988 17.0126 11.2834C14.426 15.1404 12.8946 20.5085 12.8946 26.7432C12.8946 32.978 14.4259 38.3494 17.0122 42.2098C19.6027 46.0765 23.3217 48.5006 27.5864 48.5006L27.6206 48.5006L27.7744 48.5006C30.4138 48.5017 33.5404 48.503 36.0905 45.7562L34.9533 44.2885L34.0617 43.5245C32.4194 45.4411 30.5097 45.5006 27.6207 45.5006L27.5864 45.5006C24.5655 45.5006 21.6886 43.8001 19.5046 40.5401C17.3164 37.2738 15.8946 32.5166 15.8946 26.7432Z" fill="#D9D9D9"/>
<path fill-rule="evenodd" clip-rule="evenodd" d="M12.8077 41.7684C16.4559 39.4243 21.6954 37.9096 27.5872 37.9096C28.6999 37.9096 29.791 37.9637 30.8539 38.0676L31.1458 35.0818C29.9855 34.9684 28.797 34.9096 27.5872 34.9096C21.2215 34.9096 15.3966 36.5391 11.186 39.2446L12.8077 41.7684Z" fill="#D9D9D9"/>
<path fill-rule="evenodd" clip-rule="evenodd" d="M34.7627 44.0375C32.5534 44.9708 30.1287 45.4861 27.5868 45.4861C17.342 45.4861 9.00016 37.1152 9.00016 26.7435C9.00016 16.3718 17.342 8.00081 27.5868 8.00081C37.8316 8.00081 46.1734 16.3718 46.1734 26.7435C46.1734 29.6401 45.5228 32.3806 44.3618 34.8264L46.4224 37.373C48.1743 34.2301 49.1734 30.6043 49.1734 26.7435C49.1734 14.7353 39.5088 5.00081 27.5868 5.00081C15.6648 5.00081 6.00016 14.7353 6.00016 26.7435C6.00016 38.7516 15.6648 48.4861 27.5868 48.4861C30.8258 48.4861 33.8982 47.7676 36.6554 46.4802L34.7627 44.0375Z" fill="#D9D9D9"/>
<path d="M40.7321 35.9655L46.6282 43.2532L41.9422 47.2969L36.1976 39.9323C35.8974 39.5474 35.7151 39.0827 35.6733 38.5952L35.2967 34.2019C35.2648 33.829 35.6343 33.554 35.9789 33.6943L39.7323 35.2225C40.1223 35.3813 40.4663 35.6369 40.7321 35.9655ZM48.5178 45.591L50.1596 47.6243C51.0282 48.6999 50.8687 50.2796 49.8033 51.1534L48.9415 51.8602C47.8958 52.7179 46.3608 52.5789 45.4801 51.5468L43.8414 49.6265L48.5178 45.591Z" stroke="#D9D9D9" stroke-width="3"/>
</svg>
