<?xml version="1.0" encoding="UTF-8" standalone="no"?>
<svg
   width="128"
   height="128"
   viewBox="0 0 128 128"
   fill="none"
   version="1.1"
   id="svg16"
   sodipodi:docname="EnvironmentCustomization_V2.svg"
   inkscape:version="1.1.1 (3bf5ae0d25, 2021-09-20)"
   xmlns:inkscape="http://www.inkscape.org/namespaces/inkscape"
   xmlns:sodipodi="http://sodipodi.sourceforge.net/DTD/sodipodi-0.dtd"
   xmlns="http://www.w3.org/2000/svg"
   xmlns:svg="http://www.w3.org/2000/svg">
  <defs
     id="defs20" />
  <sodipodi:namedview
     id="namedview18"
     pagecolor="#ffffff"
     bordercolor="#666666"
     borderopacity="1.0"
     inkscape:pageshadow="2"
     inkscape:pageopacity="0.0"
     inkscape:pagecheckerboard="true"
     showgrid="false"
     inkscape:zoom="4.8522155"
     inkscape:cx="45.237067"
     inkscape:cy="58.942147"
     inkscape:window-width="1920"
     inkscape:window-height="1000"
     inkscape:window-x="-11"
     inkscape:window-y="-11"
     inkscape:window-maximized="1"
     inkscape:current-layer="svg16" />
  <path
     d="M 60.64586,105.96291 59.83374,14.095021"
     stroke="#D9D9D9"
     stroke-width="6.62259"
     id="path2"
     style="stroke:#ffffff" />
  <path
     d="m 95.05018,27.325214 c -8.67153,5.575322 -20.88018,9.04687 -34.40543,9.04687 -13.525022,0 -25.733891,-3.471548 -34.405204,-9.04687"
     stroke="#D9D9D9"
     stroke-width="6.62259"
     id="path4"
     style="stroke:#ffffff" />
  <path
     d="M 13.065341,58.08068 H 101.66759"
     stroke="#D9D9D9"
     stroke-width="6.62259"
     id="path6"
     style="stroke:#ffffff" />
  <path
     fill-rule="evenodd"
     clip-rule="evenodd"
     d="m 34.842889,58.00958 c 0,-12.748957 3.137676,-23.245083 7.965788,-30.448969 C 47.627299,20.371122 53.97592,16.62167 60.64475,16.62167 c 6.66906,0 13.01768,3.749452 17.8363,10.938941 4.82811,7.203886 7.96579,17.700012 7.96579,30.448969 0,2.83205 -0.15514,5.60116 -0.45108,8.28525 l 2.81195,0.90493 c 0.22532,0.0724 0.4471,0.15391 0.66492,0.24401 l 3.01299,0.36303 c 0.382,-3.17233 0.58172,-6.44823 0.58172,-9.79722 0,-13.767608 -3.37955,-25.621572 -9.08774,-34.13869 C 78.26147,15.339376 70.05403,9.997 60.64475,9.997 c -9.40906,0 -17.616714,5.342376 -23.334621,13.87389 -5.708197,8.517118 -9.087744,20.371082 -9.087744,34.13869 0,13.76783 3.379326,25.62908 9.086861,34.15371 5.716804,8.53853 13.924024,13.89148 23.335504,13.89148 h 0.0755 0.33941 c 5.82472,0.002 12.72461,0.005 18.35226,-6.06024 L 76.9023,96.75352 74.93469,95.06644 c -3.62428,4.23228 -7.83867,4.36366 -14.21422,4.36366 h -0.0757 c -6.66662,0 -13.015464,-3.75508 -17.835191,-10.95389 -4.828994,-7.21272 -7.96667,-17.71767 -7.96667,-30.46663 z"
     fill="#D9D9D9"
     id="path8"
     style="fill:#ffffff;stroke-width:2.20753" />
  <path
     fill-rule="evenodd"
     clip-rule="evenodd"
     d="m 28.030612,91.18858 c 8.050972,-5.1763 19.61368,-8.5211 32.615908,-8.5211 2.45554,0 4.86342,0.11947 7.20906,0.3489 l 0.64418,-6.59331 c -2.56059,-0.25041 -5.18341,-0.38026 -7.85324,-0.38026 -14.048047,0 -26.902635,3.5983 -36.194731,9.57265 z"
     fill="#D9D9D9"
     id="path10"
     style="fill:#ffffff;stroke-width:2.20753" />
  <path
     fill-rule="evenodd"
     clip-rule="evenodd"
     d="m 76.48166,96.19925 c -4.87556,2.06094 -10.22647,3.19884 -15.83602,3.19884 -22.60858,0 -41.017638,-18.48482 -41.017638,-41.38785 0,-22.903025 18.409058,-41.388041 41.017638,-41.388041 22.60857,0 41.01754,18.485016 41.01754,41.388041 0,6.39634 -1.43577,12.44798 -3.9979,17.84885 l 4.5474,5.62346 c 3.86615,-6.94022 6.071,-14.9468 6.071,-23.47231 0,-26.516783 -21.32817,-48.01271 -47.63804,-48.01271 -26.309882,0 -47.63814,21.495927 -47.63814,48.01271 0,26.51657 21.328258,48.01252 47.63814,48.01252 7.14793,0 13.92821,-1.58661 20.01289,-4.42948 z"
     fill="#D9D9D9"
     id="path12"
     style="fill:#ffffff;stroke-width:2.20753" />
  <path
     d="m 89.65513,78.37448 13.01172,16.09286 -10.34123,8.9294 L 79.64824,87.13406 C 78.98575,86.28411 78.58345,85.25795 78.4912,84.18144 l -0.83109,-9.70139 c -0.0704,-0.82344 0.74502,-1.4307 1.5055,-1.12089 l 8.28313,3.37461 c 0.86066,0.35066 1.61982,0.91508 2.20639,1.64071 z m 17.18175,21.25525 3.62318,4.48998 c 1.91686,2.37516 1.56487,5.86349 -0.78629,7.79304 l -1.90185,1.56077 c -2.30769,1.89399 -5.69518,1.58705 -7.63874,-0.69205 l -3.61634,-4.24046 z"
     stroke="#D9D9D9"
     stroke-width="6.62259"
     id="path14"
     style="stroke:#ffffff" />
</svg>
