<?xml version="1.0" encoding="UTF-8" standalone="no"?>
<svg
   width="128"
   height="128"
   viewBox="0 0 128 128"
   fill="none"
   version="1.1"
   id="svg26"
   sodipodi:docname="EnvironmentVisability_Hidden_V2.svg"
   inkscape:version="1.1.1 (3bf5ae0d25, 2021-09-20)"
   xmlns:inkscape="http://www.inkscape.org/namespaces/inkscape"
   xmlns:sodipodi="http://sodipodi.sourceforge.net/DTD/sodipodi-0.dtd"
   xmlns="http://www.w3.org/2000/svg"
   xmlns:svg="http://www.w3.org/2000/svg">
  <defs
     id="defs30" />
  <sodipodi:namedview
     id="namedview28"
     pagecolor="#ffffff"
     bordercolor="#666666"
     borderopacity="1.0"
     inkscape:pageshadow="2"
     inkscape:pageopacity="0.0"
     inkscape:pagecheckerboard="true"
     showgrid="false"
     inkscape:zoom="2.814285"
     inkscape:cx="46.37057"
     inkscape:cy="21.675132"
     inkscape:window-width="1920"
     inkscape:window-height="1000"
     inkscape:window-x="-11"
     inkscape:window-y="-11"
     inkscape:window-maximized="1"
     inkscape:current-layer="svg26" />
  <path
     d="m 120.89507,90.99165 c 0.0277,5.56977 -13.33214,23.21542 -29.91988,23.31392 -16.58774,0.0985 -30.12211,-17.38746 -30.14976,-22.95722"
     stroke="#D9D9D9"
     stroke-width="7.69726"
     id="path2"
     style="stroke:#ffffff" />
  <path
     d="m 59.57291,114.49407 8.63407,-11.11561"
     stroke="#D9D9D9"
     stroke-width="7.69726"
     id="path4"
     style="stroke:#ffffff" />
  <path
     d="m 73.76208,124.02244 5.45373,-13.3085"
     stroke="#D9D9D9"
     stroke-width="7.69726"
     id="path6"
     style="stroke:#ffffff" />
  <path
     d="m 101.0077,110.58613 5.58659,13.24241"
     stroke="#D9D9D9"
     stroke-width="7.69726"
     id="path8"
     style="stroke:#ffffff" />
  <path
     d="m 90.96341,112.4146 0.0725,14.58303"
     stroke="#D9D9D9"
     stroke-width="7.69726"
     id="path10"
     style="stroke:#ffffff" />
  <path
     d="m 112.0795,103.11717 8.74415,11.01275"
     stroke="#D9D9D9"
     stroke-width="7.69726"
     id="path12"
     style="stroke:#ffffff" />
  <path
     d="m 98.48293,21.044191 c -10.06476,6.450366 -24.23499,10.466831 -39.93345,10.466831 -15.69845,0 -29.868708,-4.016465 -39.933474,-10.466831"
     stroke="#D9D9D9"
     stroke-width="7.69726"
     id="path14"
     style="stroke:#ffffff" />
  <path
     d="M 3.326496,56.62101 H 106.16501"
     stroke="#D9D9D9"
     stroke-width="7.69726"
     id="path16"
     style="stroke:#ffffff" />
  <path
     fill-rule="evenodd"
     clip-rule="evenodd"
     d="M 62.39026,81.52551 V 8.698071 H 54.71075 V 87.84879 c 2.14463,-2.34024 4.7316,-4.46703 7.67951,-6.32328 z"
     fill="#D9D9D9"
     id="path18"
     style="fill:#ffffff;stroke-width:2.56576" />
  <path
     fill-rule="evenodd"
     clip-rule="evenodd"
     d="m 69.24678,77.9735 c -3.47549,-0.40016 -7.05055,-0.60821 -10.69499,-0.60821 -16.29976,0 -31.215547,4.16151 -41.998628,11.07216 l 4.130194,6.50432 c 9.141432,-5.85857 22.184314,-9.69065 36.877524,-9.85601 3.25764,-2.81703 7.21336,-5.22979 11.6859,-7.11226 z"
     fill="#D9D9D9"
     id="path20"
     style="fill:#ffffff;stroke-width:2.56576" />
  <path
     fill-rule="evenodd"
     clip-rule="evenodd"
     d="m 82.73226,74.22757 c 1.2341,-5.43784 1.92807,-11.39773 1.92807,-17.69606 0,-14.15638 -3.50595,-26.601819 -8.77,-35.255712 C 70.54565,12.489566 64.19316,8.698071 58.55,8.698071 c -5.64316,0 -11.99566,3.791495 -17.34034,12.577727 -5.264047,8.653893 -8.769998,21.099332 -8.769998,35.255712 0,14.15639 3.505951,26.60183 8.769998,35.25582 2.20069,3.6176 4.57238,6.38859 6.99475,8.39683 -0.2675,1.36814 -0.40573,2.76482 -0.40573,4.18388 0,1.76289 0.21324,3.49133 0.62307,5.17347 C 34.708445,102.46756 24.760126,81.40953 24.760126,56.53151 24.760126,25.852918 39.88827,0.983 58.55,0.983 c 18.66146,0 33.78984,24.869918 33.78984,55.54851 0,5.92801 -0.56496,11.63922 -1.61091,16.99605 -2.73569,0.0674 -5.40842,0.30552 -7.99667,0.70001 z"
     fill="#D9D9D9"
     id="path22"
     style="fill:#ffffff;stroke-width:2.56576" />
  <path
     fill-rule="evenodd"
     clip-rule="evenodd"
     d="m 102.74685,74.35461 c 2.203,-5.5083 3.41508,-11.52348 3.41508,-17.8231 0,-26.417687 -21.31704,-47.833439 -47.61296,-47.833439 -26.295921,0 -47.61296,21.415752 -47.61296,47.833439 0,22.71575 15.761374,41.7334 36.89672,46.61704 -0.0225,0.40452 -0.034,0.81111 -0.034,1.21949 0,2.36133 0.38269,4.66093 1.10789,6.87027 C 22.966218,106.65505 3.2565,83.90561 3.2565,56.53151 3.2565,25.852918 28.011784,0.983 58.54897,0.983 c 30.53732,0 55.29247,24.869918 55.29247,55.54851 0,6.89548 -1.25047,13.49726 -3.53641,19.58934 -2.41444,-0.73833 -4.94125,-1.33214 -7.55818,-1.76624 z"
     fill="#D9D9D9"
     id="path24"
     style="fill:#ffffff;stroke-width:2.56576" />
</svg>
