<svg width="48" height="50" viewBox="0 0 48 50" fill="none" xmlns="http://www.w3.org/2000/svg">
<path d="M45.9555 34.9998C45.9663 37.1656 40.7473 44.0271 34.2673 44.0654C27.7873 44.1037 22.5001 37.3043 22.4893 35.1385" stroke="#D9D9D9" stroke-width="3"/>
<path d="M22 44.1387L25.3729 39.8164" stroke="#D9D9D9" stroke-width="3"/>
<path d="M27.543 47.8438L29.6735 42.6688" stroke="#D9D9D9" stroke-width="3"/>
<path d="M38.1865 42.6191L40.3689 47.7684" stroke="#D9D9D9" stroke-width="3"/>
<path d="M34.2627 43.3301L34.291 49.0007" stroke="#D9D9D9" stroke-width="3"/>
<path d="M42.5117 39.7148L45.9276 43.9971" stroke="#D9D9D9" stroke-width="3"/>
<path d="M37.2002 7.80078C33.2684 10.309 27.7328 11.8708 21.6002 11.8708C15.4676 11.8708 9.93199 10.309 6.00019 7.80078" stroke="#D9D9D9" stroke-width="3"/>
<path d="M0.0273438 21.6348H40.2012" stroke="#D9D9D9" stroke-width="3"/>
<path fill-rule="evenodd" clip-rule="evenodd" d="M23.1006 31.3189V3H20.1006V33.7777C20.9384 32.8677 21.949 32.0407 23.1006 31.3189Z" fill="#D9D9D9"/>
<path fill-rule="evenodd" clip-rule="evenodd" d="M25.7791 29.9377C24.4214 29.7821 23.0248 29.7012 21.6011 29.7012C15.2336 29.7012 9.40675 31.3194 5.19434 34.0066L6.8078 36.5358C10.3789 34.2577 15.4741 32.7676 21.214 32.7033C22.4866 31.6079 24.0319 30.6697 25.7791 29.9377Z" fill="#D9D9D9"/>
<path fill-rule="evenodd" clip-rule="evenodd" d="M31.0472 28.4811C31.5293 26.3666 31.8004 24.0491 31.8004 21.6C31.8004 16.0953 30.4308 11.2559 28.3744 7.89084C26.2865 4.47432 23.8049 3 21.6004 3C19.3959 3 16.9143 4.47432 14.8264 7.89084C12.77 11.2559 11.4004 16.0953 11.4004 21.6C11.4004 27.1047 12.77 31.9441 14.8264 35.3092C15.6861 36.7159 16.6126 37.7934 17.5589 38.5743C17.4544 39.1063 17.4004 39.6494 17.4004 40.2012C17.4004 40.8867 17.4837 41.5588 17.6438 42.2129C12.2867 39.4622 8.40039 31.2738 8.40039 21.6C8.40039 9.67065 14.3102 0 21.6004 0C28.8905 0 34.8004 9.67065 34.8004 21.6C34.8004 23.9051 34.5797 26.1259 34.1711 28.2089C33.1024 28.2351 32.0583 28.3277 31.0472 28.4811Z" fill="#D9D9D9"/>
<path fill-rule="evenodd" clip-rule="evenodd" d="M38.8659 28.5305C39.7265 26.3886 40.2 24.0496 40.2 21.6C40.2 11.3275 31.8725 3 21.6 3C11.3275 3 3 11.3275 3 21.6C3 30.433 9.15718 37.828 17.4137 39.727C17.4049 39.8843 17.4004 40.0424 17.4004 40.2012C17.4004 41.1194 17.5499 42.0136 17.8332 42.8727C7.6996 41.0905 0 32.2444 0 21.6C0 9.67065 9.67065 0 21.6 0C33.5294 0 43.2 9.67065 43.2 21.6C43.2 24.2813 42.7115 26.8484 41.8185 29.2173C40.8753 28.9302 39.8882 28.6993 38.8659 28.5305Z" fill="#D9D9D9"/>
</svg>
