<?xml version="1.0" encoding="UTF-8" standalone="no"?>
<svg
   width="128"
   height="128"
   viewBox="0 0 128 128"
   fill="none"
   version="1.1"
   id="svg28"
   sodipodi:docname="EnvironmentVisability_Shown_V2.svg"
   inkscape:version="1.1.1 (3bf5ae0d25, 2021-09-20)"
   xmlns:inkscape="http://www.inkscape.org/namespaces/inkscape"
   xmlns:sodipodi="http://sodipodi.sourceforge.net/DTD/sodipodi-0.dtd"
   xmlns="http://www.w3.org/2000/svg"
   xmlns:svg="http://www.w3.org/2000/svg">
  <defs
     id="defs32" />
  <sodipodi:namedview
     id="namedview30"
     pagecolor="#ffffff"
     bordercolor="#666666"
     borderopacity="1.0"
     inkscape:pageshadow="2"
     inkscape:pageopacity="0.0"
     inkscape:pagecheckerboard="true"
     showgrid="false"
     inkscape:zoom="3.754717"
     inkscape:cx="60.32412"
     inkscape:cy="54.331658"
     inkscape:window-width="1920"
     inkscape:window-height="1000"
     inkscape:window-x="-11"
     inkscape:window-y="-11"
     inkscape:window-maximized="1"
     inkscape:current-layer="svg28" />
  <path
     d="m 95.31909,19.805444 c -9.53131,6.057209 -22.95047,9.828869 -37.81686,9.828869 -14.86615,0 -28.285529,-3.77166 -37.816808,-9.828869"
     stroke="#D9D9D9"
     stroke-width="7.25863"
     id="path2"
     style="stroke:#ffffff" />
  <path
     d="M 5.206286,53.21382 H 102.59398"
     stroke="#D9D9D9"
     stroke-width="7.25863"
     id="path4"
     style="stroke:#ffffff" />
  <path
     fill-rule="evenodd"
     clip-rule="evenodd"
     d="M 61.13944,76.60038 V 8.211831 H 53.86696 V 82.53824 c 2.03096,-2.1976 4.48106,-4.19476 7.27248,-5.93786 z"
     fill="#D9D9D9"
     id="path6"
     style="fill:#ffffff;stroke-width:2.41955" />
  <path
     fill-rule="evenodd"
     clip-rule="evenodd"
     d="m 67.63254,73.26486 c -3.29128,-0.37577 -6.67685,-0.57114 -10.12813,-0.57114 -15.43582,0 -29.560975,3.90786 -39.77252,10.3973 l 3.911282,6.10788 C 30.300032,83.69741 42.6516,80.09891 56.56602,79.94363 59.651,77.2983 63.3973,75.0326 67.63254,73.26486 Z"
     fill="#D9D9D9"
     id="path8"
     style="fill:#ffffff;stroke-width:2.41955" />
  <path
     fill-rule="evenodd"
     clip-rule="evenodd"
     d="m 80.40325,69.74725 c 1.16868,-5.1064 1.82587,-10.70303 1.82587,-16.61747 0,-13.29354 -3.32012,-24.980416 -8.30516,-33.106846 C 68.86256,11.772231 62.84677,8.211831 57.50272,8.211831 c -5.34406,0 -11.35985,3.5604 -16.421248,11.811103 -4.985037,8.12643 -8.305163,19.813306 -8.305163,33.106846 0,13.29354 3.320126,24.98042 8.305163,33.10695 2.084048,3.3971 4.330028,5.9992 6.624258,7.88503 -0.25357,1.28475 -0.38448,2.5963 -0.38448,3.92887 0,1.65544 0.20218,3.27853 0.59029,4.85814 C 34.92484,96.26599 25.503861,76.49146 25.503861,53.12978 25.503861,24.321074 39.830365,0.967 57.50272,0.967 c 17.67259,0 31.99887,23.354074 31.99887,52.16278 0,5.56669 -0.53476,10.9298 -1.52552,15.96012 -2.59045,0.0633 -5.12176,0.2869 -7.57282,0.65735 z"
     fill="#D9D9D9"
     id="path10"
     style="fill:#ffffff;stroke-width:2.41955" />
  <path
     fill-rule="evenodd"
     clip-rule="evenodd"
     d="m 99.35701,69.86655 c 2.08623,-5.17257 3.23407,-10.82112 3.23407,-16.73677 0,-24.807505 -20.18718,-44.917949 -45.08933,-44.917949 -24.902162,0 -45.089286,20.110444 -45.089286,44.917949 0,21.3312 14.925975,39.1897 34.941276,43.77568 -0.0216,0.37987 -0.0325,0.76168 -0.0325,1.14517 0,2.2174 0.36265,4.37684 1.04917,6.45152 C 23.805035,100.19824 5.14,78.83541 5.14,53.12978 5.14,24.321074 28.583172,0.967 57.50175,0.967 c 28.91874,0 52.3618,23.354074 52.3618,52.16278 0,6.47519 -1.1842,12.67459 -3.34873,18.39535 -2.28671,-0.69333 -4.6796,-1.25094 -7.15781,-1.65858 z"
     fill="#D9D9D9"
     id="path12"
     style="fill:#ffffff;stroke-width:2.41955" />
  <path
     d="m 98.10905,107.55657 c 0,2.74314 -2.99771,6.11464 -8.2625,6.11464 -5.26503,0 -8.26274,-3.3715 -8.26274,-6.11464 0,-2.74337 2.99771,-6.11463 8.26274,-6.11463 5.26479,0 8.2625,3.37126 8.2625,6.11463 z"
     stroke="#D9D9D9"
     stroke-width="7.25863"
     id="path14"
     style="stroke:#ffffff" />
  <path
     d="m 116.46017,107.509 c 0.12581,0.25502 0.19102,0.42889 0.22399,0.52935 -0.0329,0.10048 -0.0982,0.27434 -0.22399,0.52936 -0.2732,0.55302 -0.72991,1.2804 -1.40165,2.13916 -1.34032,1.7134 -3.35915,3.72432 -5.92295,5.643 -5.15594,3.85908 -12.11448,7.05332 -19.61507,7.05332 -7.50082,0 -14.45913,-3.19424 -19.61507,-7.05332 -2.56403,-1.91868 -4.58287,-3.9296 -5.92294,-5.643 -0.67174,-0.85876 -1.12845,-1.58614 -1.40165,-2.13916 -0.12581,-0.25502 -0.19102,-0.42889 -0.22423,-0.52936 0.0332,-0.10047 0.0984,-0.27433 0.22423,-0.52935 0.2732,-0.55302 0.72991,-1.2804 1.40165,-2.13916 1.34007,-1.71316 3.35891,-3.72432 5.92294,-5.643 5.15594,-3.85908 12.11425,-7.05332 19.61507,-7.05332 7.50059,0 14.45913,3.19424 19.61507,7.05332 2.5638,1.91868 4.58263,3.92984 5.92295,5.643 0.67174,0.85876 1.12845,1.58614 1.40165,2.13916 z"
     stroke="#D9D9D9"
     stroke-width="7.25863"
     id="path16"
     style="stroke:#ffffff" />
  <path
     d="m 57.39436,89.0511 8.91726,9.20166"
     stroke="#D9D9D9"
     stroke-width="7.25863"
     id="path18"
     style="stroke:#ffffff" />
  <path
     d="m 72.10487,81.6365 5.66477,11.04088"
     stroke="#D9D9D9"
     stroke-width="7.25863"
     id="path20"
     style="stroke:#ffffff" />
  <path
     d="M 100.12716,92.67835 105.7929,81.63771"
     stroke="#D9D9D9"
     stroke-width="7.25863"
     id="path22"
     style="stroke:#ffffff" />
  <path
     d="M 90.06351,90.999 V 78.34083"
     stroke="#D9D9D9"
     stroke-width="7.25863"
     id="path24"
     style="stroke:#ffffff" />
  <path
     d="m 111.33647,97.66376 8.91751,-9.20166"
     stroke="#D9D9D9"
     stroke-width="7.25863"
     id="path26"
     style="stroke:#ffffff" />
</svg>
