<?xml version="1.0" encoding="UTF-8" standalone="no"?>
<svg
   width="128"
   height="128"
   viewBox="0 0 128 128"
   fill="none"
   version="1.1"
   id="svg16"
   sodipodi:docname="LightsCustomization_V2.svg"
   inkscape:version="1.1.1 (3bf5ae0d25, 2021-09-20)"
   xmlns:inkscape="http://www.inkscape.org/namespaces/inkscape"
   xmlns:sodipodi="http://sodipodi.sourceforge.net/DTD/sodipodi-0.dtd"
   xmlns="http://www.w3.org/2000/svg"
   xmlns:svg="http://www.w3.org/2000/svg">
  <defs
     id="defs20" />
  <sodipodi:namedview
     id="namedview18"
     pagecolor="#ffffff"
     bordercolor="#666666"
     borderopacity="1.0"
     inkscape:pageshadow="2"
     inkscape:pageopacity="0.0"
     inkscape:pagecheckerboard="true"
     showgrid="false"
     inkscape:zoom="4.937342"
     inkscape:cx="48.71042"
     inkscape:cy="59.141133"
     inkscape:window-width="1920"
     inkscape:window-height="1000"
     inkscape:window-x="-11"
     inkscape:window-y="-11"
     inkscape:window-maximized="1"
     inkscape:current-layer="svg16" />
  <path
     fill-rule="evenodd"
     clip-rule="evenodd"
     d="m 72.62743,64.78006 20.7801,-25.50452 c 1.3311,-1.633793 1.0859,-4.037436 -0.54744,-5.368728 -1.63334,-1.331515 -4.03643,-1.086277 -5.36753,0.547294 L 67.75188,58.68302 Z M 61.70151,78.19021 56.82596,72.09317 35.602609,98.14183 c -1.331105,1.63357 -1.086126,4.03722 0.547441,5.36874 1.633342,1.33129 4.036426,1.08628 5.36753,-0.54752 z"
     fill="#D9D9D9"
     id="path2"
     style="fill:#ffffff;stroke-width:2.24561" />
  <rect
     width="91.906403"
     height="7.22824"
     rx="3.6142318"
     transform="matrix(-0.62454043,-0.78099248,0.78085819,-0.62470832,0,0)"
     fill="#D9D9D9"
     id="rect4"
     style="fill:#ffffff;stroke-width:2.24561"
     x="-142.27568"
     y="4.1509333" />
  <rect
     width="70.180733"
     height="7.6303434"
     rx="3.8156843"
     transform="matrix(0.14207745,-0.98985554,0.98984679,0.14213845,0,0)"
     fill="#D9D9D9"
     id="rect6"
     style="fill:#ffffff;stroke-width:2.24561"
     x="-93.442993"
     y="102.95041" />
  <rect
     width="70.223824"
     height="7.8545742"
     rx="3.9278138"
     transform="matrix(-0.14624794,-0.98924797,-0.99042095,0.13808092,0,0)"
     fill="#D9D9D9"
     id="rect8"
     style="fill:#ffffff;stroke-width:2.24561"
     x="-112.86241"
     y="-23.875154" />
  <path
     d="m 92.83135,106.2814 c 0,3.54966 -2.43385,7.35017 -7.62871,10.44574 -5.12389,3.05312 -12.42139,5.05073 -20.66243,5.05073 -8.24126,0 -15.53853,-1.99761 -20.66266,-5.05073 -5.19463,-3.09557 -7.628476,-6.89608 -7.628476,-10.44574 0,-3.54944 2.433846,-7.35018 7.628476,-10.44552 5.12413,-3.05335 12.4214,-5.05073 20.66266,-5.05073 8.24104,0 15.53854,1.99738 20.66243,5.05073 5.19486,3.09534 7.62871,6.89608 7.62871,10.44552 z"
     stroke="#D9D9D9"
     stroke-width="6.73683"
     id="path10"
     style="stroke:#ffffff" />
  <path
     d="m 104.60672,6.9482561 6.4741,2.611986 c 5.17532,2.0880019 7.67855,7.9768099 5.59117,13.1529889 l -5.77866,14.328897 c -0.69565,1.725424 -2.65818,2.559952 -4.38335,1.863982 L 87.54151,31.253212 C 85.81633,30.55725 84.98192,28.594223 85.67778,26.868801 L 91.45623,12.539904 C 93.5436,7.3637011 99.43141,4.8602321 104.60672,6.9482561 Z"
     stroke="#D9D9D9"
     stroke-width="6.73683"
     id="path12"
     style="stroke:#ffffff" />
  <path
     d="m 16.642879,10.870804 6.394309,-2.8016169 c 5.111639,-2.239615 11.070398,0.08925 13.309564,5.2016919 l 6.198123,14.152402 c 0.746165,1.704088 -0.02987,3.690918 -1.733714,4.437412 L 22.07627,40.0692 c -1.70385,0.74649 -3.690134,-0.0296 -4.436478,-1.73396 L 11.441625,24.182862 c -2.239009,-5.1124 0.08966,-11.072421 5.201254,-13.312058 z"
     stroke="#D9D9D9"
     stroke-width="6.73683"
     id="path14"
     style="stroke:#ffffff" />
</svg>
