<?xml version="1.0" encoding="UTF-8" standalone="no"?>
<svg
   width="128"
   height="128"
   viewBox="0 0 128 128"
   fill="none"
   version="1.1"
   id="svg8"
   sodipodi:docname="Search_V2.svg"
   inkscape:version="1.1.1 (3bf5ae0d25, 2021-09-20)"
   xmlns:inkscape="http://www.inkscape.org/namespaces/inkscape"
   xmlns:sodipodi="http://sodipodi.sourceforge.net/DTD/sodipodi-0.dtd"
   xmlns="http://www.w3.org/2000/svg"
   xmlns:svg="http://www.w3.org/2000/svg">
  <defs
     id="defs12" />
  <sodipodi:namedview
     id="namedview10"
     pagecolor="#ffffff"
     bordercolor="#666666"
     borderopacity="1.0"
     inkscape:pageshadow="2"
     inkscape:pageopacity="0.0"
     inkscape:pagecheckerboard="true"
     showgrid="false"
     inkscape:zoom="3.3166667"
     inkscape:cx="74.623115"
     inkscape:cy="72.361808"
     inkscape:window-width="1920"
     inkscape:window-height="1000"
     inkscape:window-x="-11"
     inkscape:window-y="-11"
     inkscape:window-maximized="1"
     inkscape:current-layer="svg8" />
  <ellipse
     cx="52.401642"
     cy="41.496101"
     transform="matrix(0.99731061,0.07329085,-0.07300337,0.99733169,0,0)"
     stroke="#D9D9D9"
     stroke-width="16.8125"
     id="circle2"
     style="stroke:#ffffff"
     rx="32.94828"
     ry="33.012753" />
  <path
     d="m 88.259426,91.312937 c 3.20685,-2.54709 8.07684,-2.18863 10.8784,0.79941 l 19.081034,20.359083 c 2.80156,2.98886 2.4732,7.47635 -0.73314,10.02345 -3.20635,2.54709 -8.07718,2.18948 -10.8779,-0.79941 L 87.525696,101.33724 c -2.80131,-2.988863 -2.47278,-7.476373 0.73373,-10.024303 z"
     fill="#D9D9D9"
     id="path4"
     style="fill:#ffffff;stroke-width:8.40626" />
  <path
     d="m 81.374266,75.425617 c 2.6043,-2.0688 6.55982,-1.77808 8.83483,0.64927 2.27502,2.42744 2.0088,6.07238 -0.59541,8.1412 l -10.51771,8.35484 c -2.60429,2.06914 -6.55982,1.77799 -8.835,-0.64958 -2.27518,-2.42677 -2.00837,-6.07197 0.59592,-8.14078 z"
     fill="#D9D9D9"
     id="path6"
     style="fill:#ffffff;stroke-width:8.40626" />
</svg>
