<svg width="60" height="60" viewBox="0 0 60 60" fill="none" xmlns="http://www.w3.org/2000/svg">
<mask id="path-1-inside-1_467_397" fill="white">
<ellipse cx="30.0472" cy="39.096" rx="2.09998" ry="2.0999"/>
</mask>
<ellipse cx="30.0472" cy="39.096" rx="2.09998" ry="2.0999" fill="white"/>
<path d="M29.1472 39.096C29.1472 38.5988 29.5503 38.1959 30.0472 38.1959V44.1959C32.8638 44.1959 35.1472 41.9127 35.1472 39.096H29.1472ZM30.0472 38.1959C30.5442 38.1959 30.9473 38.5988 30.9473 39.096H24.9473C24.9473 41.9127 27.2307 44.1959 30.0472 44.1959V38.1959ZM30.9473 39.096C30.9473 39.5932 30.5442 39.9961 30.0472 39.9961V33.9961C27.2307 33.9961 24.9473 36.2793 24.9473 39.096H30.9473ZM30.0472 39.9961C29.5503 39.9961 29.1472 39.5932 29.1472 39.096H35.1472C35.1472 36.2793 32.8638 33.9961 30.0472 33.9961V39.9961Z" fill="white" mask="url(#path-1-inside-1_467_397)"/>
<path d="M25.2686 19.1973C26.341 17.1088 28.252 16.5957 30.4705 16.5957C33.8991 16.5957 36.348 17.821 36.348 24.1925C36.348 25.1364 35.4956 26.1973 34.9956 26.6973" stroke="white" stroke-width="3"/>
<path fill-rule="evenodd" clip-rule="evenodd" d="M10.3814 47.3827C11.6949 45.3678 12.9163 43.4941 11.7477 42.0996C8.95993 38.7726 8.63093 35.4375 8.22902 30.7848C7.87691 26.7086 8.66522 22.797 10.3291 19.3647L12.7631 21.2468C11.511 24.0673 10.9335 27.2348 11.2179 30.5266C11.6258 35.2483 11.9399 37.6579 14.0472 40.1728C15.4183 41.8091 15.3746 43.6781 14.9627 45.0828C14.5948 46.3374 13.8577 47.5258 13.3015 48.3934C13.1414 48.6431 12.9894 48.8765 12.845 49.0982L12.8443 49.0992L12.8443 49.0993C12.7026 49.3167 12.5682 49.523 12.4407 49.7226C12.5846 49.6784 12.733 49.6315 12.8856 49.5819C15.6713 48.6761 18.8659 47.2076 20.2436 46.4779L21.494 45.8157L22.8004 46.3594C25.514 47.4888 28.5332 48.0003 31.674 47.729C35.5181 47.397 38.9935 45.9364 41.8023 43.7017L44.2361 45.5837C40.8873 48.4365 36.6492 50.3105 31.9322 50.7179C28.299 51.0317 24.7965 50.4396 21.6477 49.1291C18.6477 50.7179 8.22901 55.2989 8.22902 52.2991C8.22902 50.6847 9.33447 48.9889 10.3814 47.3827ZM49.962 38.0204C51.4913 34.6894 52.2041 30.9283 51.8661 27.0156C50.8253 14.9661 40.213 6.04171 28.1629 7.08253C23.61 7.47579 19.5033 9.23538 16.2117 11.9226L18.6587 13.8148C21.4011 11.7405 24.7423 10.3892 28.4211 10.0714C38.8206 9.17315 47.979 16.875 48.8772 27.2738C49.1474 30.4011 48.6397 33.4161 47.5148 36.1281L49.962 38.0204Z" fill="white"/>
<path d="M8 11.4805L52.405 45.8171" stroke="white" stroke-width="3"/>
</svg>
