<svg width="60" height="60" viewBox="0 0 60 60" fill="none" xmlns="http://www.w3.org/2000/svg">
<mask id="path-1-inside-1_467_396" fill="white">
<ellipse cx="30.5521" cy="37.9026" rx="2.09998" ry="2.0999"/>
</mask>
<ellipse cx="30.5521" cy="37.9026" rx="2.09998" ry="2.0999" fill="white"/>
<path d="M29.6521 37.9026C29.6521 37.4054 30.0552 37.0025 30.5521 37.0025V43.0025C33.3687 43.0025 35.6521 40.7193 35.6521 37.9026H29.6521ZM30.5521 37.0025C31.0491 37.0025 31.4521 37.4054 31.4521 37.9026H25.4521C25.4521 40.7193 27.7356 43.0025 30.5521 43.0025V37.0025ZM31.4521 37.9026C31.4521 38.3999 31.0491 38.8027 30.5521 38.8027V32.8027C27.7356 32.8027 25.4521 35.0859 25.4521 37.9026H31.4521ZM30.5521 38.8027C30.0552 38.8027 29.6521 38.3999 29.6521 37.9026H35.6521C35.6521 35.0859 33.3687 32.8027 30.5521 32.8027V38.8027Z" fill="white" mask="url(#path-1-inside-1_467_396)"/>
<path d="M24.8525 22.9992C24.8525 16.6276 27.5464 15.4023 30.9749 15.4023C34.4035 15.4023 36.8524 16.6276 36.8524 22.9992C36.8524 25.6948 30.9749 25.9399 30.9749 28.1454C30.9749 29.9098 30.9749 31.9846 30.9749 32.8015" stroke="white" stroke-width="3"/>
<path fill-rule="evenodd" clip-rule="evenodd" d="M12.2526 40.9024C13.4211 42.2969 12.1997 44.1707 10.8863 46.1856C9.83932 47.7917 8.73388 49.4876 8.73387 51.1019C8.73387 54.1018 19.1525 49.5208 22.1525 47.9319C25.3014 49.2425 28.8039 49.8346 32.4371 49.5208C44.4871 48.4799 53.4118 37.8681 52.371 25.8185C51.3301 13.7689 40.7178 4.84456 28.6678 5.88539C16.6177 6.92621 7.69301 17.5381 8.73388 29.5876C9.13579 34.2404 9.46479 37.5754 12.2526 40.9024ZM12.9455 48.5255C13.0895 48.4813 13.2378 48.4344 13.3905 48.3847C16.1761 47.4789 19.3708 46.0104 20.7484 45.2808L21.9989 44.6185L23.3052 45.1622C26.0189 46.2916 29.0381 46.8032 32.1789 46.5319C42.5783 45.6336 50.2804 36.4754 49.3821 26.0767C48.4838 15.6779 39.3254 7.976 28.926 8.87425C18.5265 9.77251 10.8245 18.9307 11.7227 29.3295C12.1306 34.0511 12.4448 36.4608 14.552 38.9756C15.9231 40.6119 15.8794 42.4809 15.4675 43.8857C15.0997 45.1403 14.3625 46.3286 13.8063 47.1962C13.646 47.4463 13.4938 47.68 13.3492 47.902C13.2075 48.1195 13.0731 48.3259 12.9455 48.5255Z" fill="white"/>
</svg>
