<?xml version="1.0" encoding="UTF-8" standalone="no"?>
<!-- Created with Inkscape (http://www.inkscape.org/) -->

<svg
   width="256"
   height="256"
   viewBox="0 0 67.733332 67.733333"
   version="1.1"
   id="svg5"
   xml:space="preserve"
   sodipodi:docname="LogoV3_Transparent.svg"
   inkscape:version="1.1.1 (3bf5ae0d25, 2021-09-20)"
   xmlns:inkscape="http://www.inkscape.org/namespaces/inkscape"
   xmlns:sodipodi="http://sodipodi.sourceforge.net/DTD/sodipodi-0.dtd"
   xmlns="http://www.w3.org/2000/svg"
   xmlns:svg="http://www.w3.org/2000/svg"><sodipodi:namedview
     id="namedview41"
     pagecolor="#ffffff"
     bordercolor="#666666"
     borderopacity="1.0"
     inkscape:pageshadow="2"
     inkscape:pageopacity="0.0"
     inkscape:pagecheckerboard="0"
     inkscape:document-units="mm"
     showgrid="false"
     units="px"
     inkscape:zoom="1.0530417"
     inkscape:cx="-1.4244451"
     inkscape:cy="35.136311"
     inkscape:window-width="1920"
     inkscape:window-height="1000"
     inkscape:window-x="-11"
     inkscape:window-y="-11"
     inkscape:window-maximized="1"
     inkscape:current-layer="svg5" /><defs
     id="defs2"><rect
       x="741.73456"
       y="372.14465"
       width="54.501736"
       height="16.180202"
       id="rect7577" /><rect
       x="392.58279"
       y="315.08813"
       width="1.7031792"
       height="14.477023"
       id="rect7567" /><rect
       x="3.4063585"
       y="24.696098"
       width="68.97876"
       height="113.26142"
       id="rect24038" /><rect
       x="42.796021"
       y="814.98511"
       width="293.99005"
       height="117.22389"
       id="rect20750" /><rect
       x="3.4063585"
       y="24.696098"
       width="27.145819"
       height="63.950569"
       id="rect24038-9" /><rect
       x="3.4063585"
       y="24.696098"
       width="24.53126"
       height="51.458485"
       id="rect24038-9-3" /><rect
       x="3.4063585"
       y="24.696098"
       width="27.519325"
       height="58.690742"
       id="rect24038-9-3-8" /><rect
       x="3.4063585"
       y="24.696098"
       width="31.25441"
       height="60.005699"
       id="rect24038-9-3-8-8" /><rect
       x="3.4063585"
       y="24.696098"
       width="31.25441"
       height="63.293091"
       id="rect24038-9-3-8-8-1" /><rect
       x="3.4063585"
       y="24.696098"
       width="35.152859"
       height="73.590446"
       id="rect24038-9-3-8-8-1-5" /><rect
       x="3.4063585"
       y="24.696098"
       width="36.209297"
       height="68.011559"
       id="rect24038-9-3-8-8-1-5-0" /><rect
       x="3.4063585"
       y="24.696098"
       width="60.507446"
       height="73.590446"
       id="rect24038-9-3-8-8-1-5-0-3" /><rect
       x="3.4063585"
       y="24.696098"
       width="54.1688"
       height="64.292305"
       id="rect24038-9-3-8-8-1-5-0-3-3" /><rect
       x="3.4063585"
       y="24.696098"
       width="27.757769"
       height="81.028961"
       id="rect24038-9-3-8-8-1-5-8" /><rect
       x="3.4063585"
       y="24.696098"
       width="52.05592"
       height="51.274906"
       id="rect24038-9-3-8-8-1-5-0-3-3-5" /><rect
       x="3.4063585"
       y="24.696098"
       width="53.112358"
       height="60.573048"
       id="rect24038-9-3-8-8-1-5-0-3-3-5-4" /><rect
       x="3.4063585"
       y="24.696098"
       width="68.97876"
       height="113.26142"
       id="rect24038-5" /><rect
       x="3.4063585"
       y="24.696098"
       width="27.145819"
       height="63.950569"
       id="rect24038-9-1" /><rect
       x="3.4063585"
       y="24.696098"
       width="24.53126"
       height="51.458485"
       id="rect24038-9-3-4" /><rect
       x="3.4063585"
       y="24.696098"
       width="35.646175"
       height="58.426201"
       id="rect24038-9-3-4-9" /><rect
       x="3.4063585"
       y="24.696098"
       width="117.11427"
       height="65.146156"
       id="rect24038-9-3-8-8-1-5-0-7" /><rect
       x="3.4063585"
       y="24.696098"
       width="27.519325"
       height="58.690742"
       id="rect24038-9-3-8-9" /><rect
       x="3.4063585"
       y="24.696098"
       width="117.11427"
       height="65.146156"
       id="rect24038-9-3-8-8-1-5-0-7-5" /><rect
       x="3.4063585"
       y="24.696098"
       width="117.11427"
       height="65.146156"
       id="rect24038-9-3-8-8-1-5-0-7-5-7" /><rect
       x="3.4063585"
       y="24.696098"
       width="117.11427"
       height="65.146156"
       id="rect24038-9-3-8-8-1-5-0-7-9" /><rect
       x="3.4063585"
       y="24.696098"
       width="117.11427"
       height="65.146156"
       id="rect24038-9-3-8-8-1-5-0-7-5-7-4" /><rect
       x="3.4063585"
       y="24.696098"
       width="117.11427"
       height="65.146156"
       id="rect24038-9-3-8-8-1-5-0-7-9-7" /><rect
       x="3.4063585"
       y="24.696098"
       width="117.11427"
       height="65.146156"
       id="rect24038-9-3-8-8-1-5-0-7-5-7-4-5" /><rect
       x="3.4063585"
       y="24.696098"
       width="27.519325"
       height="58.690742"
       id="rect24038-9-3-8-9-8" /></defs><g
     id="layer37"
     transform="matrix(3.1100287,0,0,3.1100287,64.328194,-1679.6435)"><rect
       style="display:none;fill:#000000;fill-opacity:1;stroke:#020000;stroke-width:0.680457;stroke-dasharray:none;stroke-opacity:1"
       id="rect10336-4-3"
       width="24.319544"
       height="24.319542"
       x="-22.140406"
       y="539.12091" /><path
       id="path1420-9-6-6-0-3"
       style="display:none;fill:#d4aa00;fill-opacity:1;stroke:#020000;stroke-width:0.295568;stroke-dasharray:none;stroke-opacity:1"
       d="m -10.154354,542.68276 c -1.029459,0.006 -3.130993,0.27415 -5.060952,2.11708 -2.186694,2.08813 -2.486544,3.65157 -2.522662,4.16022 l 5.102948,3.68438 3.094784,-9.92858 c -0.03522,-0.006 -0.243958,-0.035 -0.614118,-0.0331 z m 2.229368,0.29294 -1.94534,6.24088 8.3519989,1.34682 c 0.0179,-0.80908 -0.136373,-2.66108 -1.6379009,-4.66504 -1.511472,-2.01725 -3.750795,-2.70535 -4.768758,-2.92266 z m -10.062047,7.80145 c -0.03907,1.42748 0.202663,4.94723 3.267648,7.1814 3.111569,2.26812 6.438747,1.23912 7.676542,0.72043 z m 7.630071,8.8e-4 -0.89366,2.86578 5.846066,4.22045 c 0.44593,-0.21685 1.57552,-0.88084 2.545346,-2.43159 0.94182,-1.50595 1.192448,-2.6851 1.2591009,-3.24275 z" /><circle
       style="display:none;fill:none;fill-opacity:1;stroke:#d6ac00;stroke-width:1.03108;stroke-dasharray:none;stroke-opacity:1"
       id="path10073-6-4"
       cx="-9.7380505"
       cy="551.10339"
       r="10.158428" /><rect
       style="display:none;fill:#d4aa00;fill-opacity:1;stroke:none;stroke-width:0.699496;stroke-dasharray:none;stroke-opacity:1"
       id="rect10336-4-5-0"
       width="25"
       height="25"
       x="-22.462936"
       y="538.80438" /><ellipse
       style="display:inline;fill:#d4aa00;fill-opacity:1;stroke:none;stroke-width:0.555722;stroke-dasharray:none;stroke-opacity:1"
       id="path9940-7-8-6-1"
       cx="-9.6047478"
       cy="550.93604"
       rx="10.370993"
       ry="10.266397" /><path
       id="path1420-9-6-6-5-2-4"
       style="display:inline;fill:#000000;fill-opacity:1;stroke:#020000;stroke-width:0.301538;stroke-dasharray:none;stroke-opacity:1"
       d="m -10.219313,542.37226 c -1.050275,0.006 -3.194229,0.27967 -5.163147,2.15984 -2.230854,2.13031 -2.536766,3.72529 -2.573615,4.24422 l 5.205991,3.75877 3.1572867,-10.12908 c -0.035859,-0.006 -0.2488973,-0.0359 -0.6265157,-0.0337 z m 2.2743746,0.29885 -1.9846468,6.36689 8.520675,1.37404 c 0.018279,-0.82543 -0.1391883,-2.71483 -1.6709813,-4.75925 -1.5419804,-2.05797 -3.8265312,-2.75998 -4.8650469,-2.98168 z m -10.2652386,7.95899 c -0.0397,1.4563 0.206763,5.04713 3.333627,7.3264 3.174424,2.31394 6.5687791,1.26414 7.8315678,0.73499 z m 7.784159,10e-4 -0.911715,2.92367 5.9641163,4.30565 c 0.4549379,-0.22121 1.6073424,-0.89863 2.5967261,-2.4807 0.960859,-1.53634 1.216544,-2.7393 1.2845373,-3.30821 z" /><circle
       style="display:inline;fill:none;fill-opacity:1;stroke:#020000;stroke-width:1.0519;stroke-dasharray:none;stroke-opacity:1"
       id="path10073-1-0-0"
       cx="-9.7946129"
       cy="550.96283"
       r="10.363553" /></g></svg>
