<?xml version="1.0" encoding="UTF-8" standalone="no"?>
<!-- Created with Inkscape (http://www.inkscape.org/) -->

<svg
   width="25mm"
   height="25mm"
   viewBox="0 0 25 25"
   version="1.1"
   id="svg5"
   xml:space="preserve"
   inkscape:version="1.2.2 (732a01da63, 2022-12-09)"
   sodipodi:docname="Logo Designs Export Base V2.svg"
   inkscape:export-filename="OneDrive - University of Wisconsin-Stout\Desktop\Logo Designs 3.png"
   inkscape:export-xdpi="300"
   inkscape:export-ydpi="300"
   xmlns:inkscape="http://www.inkscape.org/namespaces/inkscape"
   xmlns:sodipodi="http://sodipodi.sourceforge.net/DTD/sodipodi-0.dtd"
   xmlns="http://www.w3.org/2000/svg"
   xmlns:svg="http://www.w3.org/2000/svg"><sodipodi:namedview
     id="namedview7"
     pagecolor="#505050"
     bordercolor="#eeeeee"
     borderopacity="1"
     inkscape:showpageshadow="0"
     inkscape:pageopacity="0"
     inkscape:pagecheckerboard="0"
     inkscape:deskcolor="#505050"
     inkscape:document-units="mm"
     showgrid="false"
     inkscape:zoom="6.7995172"
     inkscape:cx="66.18117"
     inkscape:cy="47.723977"
     inkscape:window-width="1902"
     inkscape:window-height="973"
     inkscape:window-x="14"
     inkscape:window-y="70"
     inkscape:window-maximized="0"
     inkscape:current-layer="layer37"
     showguides="false" /><defs
     id="defs2"><rect
       x="741.73456"
       y="372.14465"
       width="54.501736"
       height="16.180202"
       id="rect7577" /><rect
       x="392.58279"
       y="315.08813"
       width="1.7031792"
       height="14.477023"
       id="rect7567" /><rect
       x="3.4063585"
       y="24.696098"
       width="68.97876"
       height="113.26142"
       id="rect24038" /><rect
       x="42.796021"
       y="814.98511"
       width="293.99005"
       height="117.22389"
       id="rect20750" /><rect
       x="3.4063585"
       y="24.696098"
       width="27.145819"
       height="63.950569"
       id="rect24038-9" /><rect
       x="3.4063585"
       y="24.696098"
       width="24.53126"
       height="51.458485"
       id="rect24038-9-3" /><rect
       x="3.4063585"
       y="24.696098"
       width="27.519325"
       height="58.690742"
       id="rect24038-9-3-8" /><rect
       x="3.4063585"
       y="24.696098"
       width="31.25441"
       height="60.005699"
       id="rect24038-9-3-8-8" /><rect
       x="3.4063585"
       y="24.696098"
       width="31.25441"
       height="63.293091"
       id="rect24038-9-3-8-8-1" /><rect
       x="3.4063585"
       y="24.696098"
       width="35.152859"
       height="73.590446"
       id="rect24038-9-3-8-8-1-5" /><rect
       x="3.4063585"
       y="24.696098"
       width="36.209297"
       height="68.011559"
       id="rect24038-9-3-8-8-1-5-0" /><rect
       x="3.4063585"
       y="24.696098"
       width="60.507446"
       height="73.590446"
       id="rect24038-9-3-8-8-1-5-0-3" /><rect
       x="3.4063585"
       y="24.696098"
       width="54.1688"
       height="64.292305"
       id="rect24038-9-3-8-8-1-5-0-3-3" /><rect
       x="3.4063585"
       y="24.696098"
       width="27.757769"
       height="81.028961"
       id="rect24038-9-3-8-8-1-5-8" /><rect
       x="3.4063585"
       y="24.696098"
       width="52.05592"
       height="51.274906"
       id="rect24038-9-3-8-8-1-5-0-3-3-5" /><rect
       x="3.4063585"
       y="24.696098"
       width="53.112358"
       height="60.573048"
       id="rect24038-9-3-8-8-1-5-0-3-3-5-4" /><rect
       x="3.4063585"
       y="24.696098"
       width="68.97876"
       height="113.26142"
       id="rect24038-5" /><rect
       x="3.4063585"
       y="24.696098"
       width="27.145819"
       height="63.950569"
       id="rect24038-9-1" /><rect
       x="3.4063585"
       y="24.696098"
       width="24.53126"
       height="51.458485"
       id="rect24038-9-3-4" /><rect
       x="3.4063585"
       y="24.696098"
       width="35.646175"
       height="58.426201"
       id="rect24038-9-3-4-9" /><rect
       x="3.4063585"
       y="24.696098"
       width="117.11427"
       height="65.146156"
       id="rect24038-9-3-8-8-1-5-0-7" /><rect
       x="3.4063585"
       y="24.696098"
       width="27.519325"
       height="58.690742"
       id="rect24038-9-3-8-9" /><rect
       x="3.4063585"
       y="24.696098"
       width="117.11427"
       height="65.146156"
       id="rect24038-9-3-8-8-1-5-0-7-5" /><rect
       x="3.4063585"
       y="24.696098"
       width="117.11427"
       height="65.146156"
       id="rect24038-9-3-8-8-1-5-0-7-5-7" /><rect
       x="3.4063585"
       y="24.696098"
       width="117.11427"
       height="65.146156"
       id="rect24038-9-3-8-8-1-5-0-7-9" /><rect
       x="3.4063585"
       y="24.696098"
       width="117.11427"
       height="65.146156"
       id="rect24038-9-3-8-8-1-5-0-7-5-7-4" /><rect
       x="3.4063585"
       y="24.696098"
       width="117.11427"
       height="65.146156"
       id="rect24038-9-3-8-8-1-5-0-7-9-7" /><rect
       x="3.4063585"
       y="24.696098"
       width="117.11427"
       height="65.146156"
       id="rect24038-9-3-8-8-1-5-0-7-5-7-4-5" /><rect
       x="3.4063585"
       y="24.696098"
       width="27.519325"
       height="58.690742"
       id="rect24038-9-3-8-9-8" /></defs><g
     inkscape:groupmode="layer"
     id="layer37"
     inkscape:label="Logo+Fonts"
     transform="translate(19.463186,-508.03403)"><rect
       style="display:none;fill:#000000;fill-opacity:1;stroke:none;stroke-width:0.695548;stroke-dasharray:none;stroke-opacity:1"
       id="rect18052-0-4-9-5-4"
       width="25"
       height="25"
       x="-19.484703"
       y="508.06848" /><path
       style="display:none;fill:#d4aa00;fill-opacity:1;stroke:none;stroke-width:0.571435;stroke-dasharray:none;stroke-opacity:1"
       d="m -11.792621,522.53112 c 0,0 3.4510549,6.37922 3.9315779,6.51494 0.480535,0.13574 1.223165,0.0905 1.441592,0.0452 0.218417,-0.0452 3.8879,-4.11709 3.8879,-4.11709 0,0 0.524213,-0.72389 0.480523,-0.90486 -0.04368,-0.18097 -2.358949,-3.34796 -2.358949,-3.34796 z"
       id="path18154-5-1-7-4-8-9" /><ellipse
       style="display:none;fill:#d4aa00;fill-opacity:1;stroke:none;stroke-width:0.604879;stroke-dasharray:none;stroke-opacity:1"
       id="path18097-3-5-7-9-5-9"
       cx="-6.8344541"
       cy="520.15588"
       rx="6.0939569"
       ry="4.3659239" /><ellipse
       style="display:none;fill:#d4aa00;fill-opacity:1;stroke:none;stroke-width:0.488442;stroke-dasharray:none;stroke-opacity:1"
       id="path14573-1-2-3-9-8"
       cx="-6.994061"
       cy="520.41034"
       rx="11.060652"
       ry="11.455245" /><ellipse
       style="display:none;fill:#000000;fill-opacity:1;stroke:none;stroke-width:0.431059;stroke-dasharray:none;stroke-opacity:1"
       id="path14573-3-0-4-6"
       cx="-6.9623685"
       cy="520.37756"
       rx="9.7612638"
       ry="10.109501" /><path
       id="path10013-2-3-4-5-8-29-2-0-0-4"
       style="display:none;fill:#d4aa00;fill-opacity:1;stroke:none;stroke-width:0.517833;stroke-dasharray:none;stroke-opacity:1"
       d="m -10.611361,512.69362 c -0.287631,0 0.8624403,2.72176 1.2201513,3.37975 a 6.3183186,4.3017477 0 0 0 -3.0102753,2.22991 9.2601161,4.6536569 73.549145 0 1 4.1932979,4.49881 5.7311407,10.139076 18.675717 0 1 6.173584,-5.4594 6.3183186,4.3017477 0 0 0 -2.208553,-1.26932 c 0.357722,-0.65799 1.507293,-3.37975 1.219661,-3.37975 -0.141467,0 -1.969195,0.008 -3.784287,0.0164 -0.0091,-5e-5 -0.0091,4e-5 -0.01877,0 -1.815103,-0.008 -3.6428089,-0.0164 -3.7842759,-0.0164 z m 9.1422729,5.27169 a 5.394025,9.5331713 19.912851 0 0 -5.825951,5.00808 9.4080064,5.4657881 45.993314 0 1 0.703171,-0.0312 9.4080064,5.4657881 45.993314 0 1 4.391377,1.42319 c 0.954642,-1.91913 1.727301,-3.9015 1.428147,-4.75165 -0.0057,-0.0157 -0.0141,-0.0311 -0.02127,-0.0466 a 6.3183186,4.3017477 0 0 0 -0.67544,-1.60167 z m -11.3122089,1.28625 a 6.3183186,4.3017477 0 0 0 -0.05938,0.31541 c -0.0068,0.0155 -0.0157,0.0309 -0.02127,0.0466 -0.631841,1.79551 3.5146963,8.6407 4.0675169,9.27662 0,0 0.645217,0.10131 1.460326,0.18412 -0.0068,-0.0106 -0.01024,-0.0165 -0.01683,-0.0267 a 8.6795096,4.3637798 72.934037 0 0 -0.990394,-4.06749 8.6795096,4.3637798 72.934037 0 0 -4.4399009,-5.72865 z m 5.8333789,4.62754 a 9.4090114,5.4652038 46.167645 0 0 -0.729424,0.0795 9.2601161,4.6536569 73.549145 0 1 0.253052,0.63594 9.2601161,4.6536569 73.549145 0 1 1.025041,4.49009 c 0.861438,-0.0845 1.559366,-0.19436 1.559366,-0.19436 0.255464,-0.29384 1.277251,-1.91585 2.241255,-3.75055 a 9.4090114,5.4652038 46.167645 0 0 -4.34929,-1.26062 z" /><rect
       style="display:inline;fill:#d4aa00;fill-opacity:1;stroke:none;stroke-width:0.695548;stroke-dasharray:none;stroke-opacity:1"
       id="rect18052-0-4-9-53"
       width="25"
       height="25"
       x="-19.463186"
       y="508.03403"
       sodipodi:insensitive="true" /><path
       style="fill:#d4aa00;fill-opacity:1;stroke:none;stroke-width:0.571435;stroke-dasharray:none;stroke-opacity:1"
       d="m -12.037516,522.44235 c 0,0 3.4510549,6.37922 3.9315782,6.51495 0.4805347,0.13573 1.2231647,0.0905 1.4415926,0.0452 0.2184166,-0.0452 3.8878878,-4.11708 3.8878878,-4.11708 0,0 0.5242248,-0.72389 0.4805347,-0.90486 -0.043679,-0.18097 -2.3589491,-3.34797 -2.3589491,-3.34797 z"
       id="path18154-5-1-4-9"
       inkscape:export-filename="..\Desktop\Logo SVGs\path18154-5-1-4-9.svg"
       inkscape:export-xdpi="391.82001"
       inkscape:export-ydpi="391.82001"
       sodipodi:insensitive="true" /><ellipse
       style="fill:#d4aa00;fill-opacity:1;stroke:none;stroke-width:0.604879;stroke-dasharray:none;stroke-opacity:1"
       id="path18097-3-5-1-9"
       cx="-7.0793362"
       cy="520.06708"
       rx="6.0939569"
       ry="4.3659239"
       sodipodi:insensitive="true" /><ellipse
       style="fill:#000000;fill-opacity:1;stroke:none;stroke-width:0.488442;stroke-dasharray:none;stroke-opacity:1"
       id="path14573-1-0-4"
       cx="-7.2389455"
       cy="520.32159"
       rx="11.060652"
       ry="11.455245"
       sodipodi:insensitive="true" /><ellipse
       style="display:inline;fill:#d4aa00;fill-opacity:1;stroke:none;stroke-width:0.431059;stroke-dasharray:none;stroke-opacity:1"
       id="path14573-30-6"
       cx="-7.2072439"
       cy="520.28876"
       rx="9.7612638"
       ry="10.109501"
       sodipodi:insensitive="true" /><path
       id="path10013-2-3-4-5-8-29-9-1"
       style="display:inline;fill:#000000;fill-opacity:1;stroke:none;stroke-width:0.517833;stroke-dasharray:none;stroke-opacity:1"
       d="m -10.856256,512.60485 c -0.287631,0 0.8624397,2.72177 1.2201506,3.37975 a 6.3183186,4.3017477 0 0 0 -3.0102856,2.22992 9.2601161,4.6536569 73.549145 0 1 4.1933094,4.49881 5.7311407,10.139076 18.675717 0 1 6.1735839,-5.45941 6.3183186,4.3017477 0 0 0 -2.2085644,-1.26932 c 0.3577336,-0.65798 1.5073041,-3.37975 1.2196726,-3.37975 -0.1414782,0 -1.9691957,0.008 -3.7842872,0.0164 -0.0091,-5e-5 -0.0091,5e-5 -0.018768,0 -1.8151033,-0.008 -3.6428093,-0.0164 -3.7842763,-0.0164 z m 9.1422732,5.27168 a 5.394025,9.5331713 19.912851 0 0 -5.8259624,5.0081 9.4080064,5.4657881 45.993314 0 1 0.7031713,-0.0312 9.4080064,5.4657881 45.993314 0 1 4.3913879,1.42319 c 0.9546426,-1.91914 1.7273018,-3.90151 1.4281478,-4.75166 -0.00569,-0.0157 -0.014105,-0.0311 -0.021271,-0.0466 A 6.3183186,4.3017477 0 0 0 -1.713949,517.8767 Z m -11.3122092,1.28627 a 6.3183186,4.3017477 0 0 0 -0.05938,0.31541 c -0.0068,0.0155 -0.0157,0.0309 -0.02127,0.0466 -0.63183,1.79551 3.5147071,8.64069 4.0675279,9.27662 0,0 0.6452176,0.10131 1.460327,0.18411 -0.00682,-0.0106 -0.010237,-0.0165 -0.016834,-0.0267 a 8.6795096,4.3637798 72.934037 0 0 -0.9903819,-4.06749 8.6795096,4.3637798 72.934037 0 0 -4.439902,-5.72864 z m 5.8333793,4.62753 a 9.4090114,5.4652038 46.167645 0 0 -0.729424,0.0795 9.2601161,4.6536569 73.549145 0 1 0.2530524,0.63595 9.2601161,4.6536569 73.549145 0 1 1.0250405,4.49009 c 0.8614386,-0.0845 1.5593661,-0.19437 1.5593661,-0.19437 0.2554639,-0.29384 1.2772512,-1.91584 2.2412552,-3.75055 a 9.4090114,5.4652038 46.167645 0 0 -4.3492902,-1.26061 z"
       sodipodi:insensitive="true" /></g></svg>
