<svg width="44" height="45" viewBox="0 0 44 45" fill="none" xmlns="http://www.w3.org/2000/svg">
<path d="M9.8004 6.59961H5C3.34315 6.59961 2 7.94275 2 9.59961V39.5996C2 41.2565 3.34315 42.5996 5 42.5996H35.0018C36.6587 42.5996 38.0018 41.2565 38.0018 39.5996V27.8996" stroke="#D9D9D9" stroke-width="3"/>
<path d="M27.5472 5.97248V2.77595L40.8269 11.476L27.5472 21.3207V17.7945C27.5472 17.1764 27.3136 16.4911 26.742 15.997C26.1431 15.4791 24.5936 14.309 22.5675 14.3288C20.3561 14.3504 18.2098 15.7537 16.4601 19.1059C14.8234 22.2417 14.0767 25.8017 13.7585 28.8915C12.8562 25.0104 12.6116 20.1474 14.804 15.4887C16.5195 11.8436 18.4748 10.0977 20.1334 9.26717C21.8021 8.43158 23.337 8.43953 24.3448 8.59638C25.1323 8.71894 25.9029 8.4869 26.4785 8.05519C27.061 7.61826 27.5472 6.89048 27.5472 5.97248Z" fill="#D9D9D9" stroke="#D9D9D9" stroke-width="3"/>
</svg>
