<svg width="51" height="47" viewBox="0 0 51 47" fill="none" xmlns="http://www.w3.org/2000/svg">
<path fill-rule="evenodd" clip-rule="evenodd" d="M16 0.599609H4C1.79086 0.599609 0 2.39047 0 4.59961V14H3V4.59961C3 4.04732 3.44772 3.59961 4 3.59961H16V0.599609ZM35 3.59961V0.599609H46.4C48.6091 0.599609 50.4 2.39047 50.4 4.59961V14H47.4V4.59961C47.4 4.04732 46.9523 3.59961 46.4 3.59961H35ZM35 43.7996H46.4C46.9523 43.7996 47.4 43.3519 47.4 42.7996V33H50.4V42.7996C50.4 45.0087 48.6091 46.7996 46.4 46.7996H35V43.7996ZM3 33V42.7996C3 43.3519 3.44772 43.7996 4 43.7996H16V46.7996H4C1.79086 46.7996 0 45.0088 0 42.7996V33H3Z" fill="#D9D9D9"/>
<path d="M9.60033 17.7004C9.60033 20.5171 16.8353 29.4004 25.7601 29.4004C34.6849 29.4004 41.9199 20.5171 41.9199 17.7004" stroke="#D9D9D9" stroke-width="3"/>
<path d="M42.6006 29.4004L37.9263 23.7303" stroke="#D9D9D9" stroke-width="3"/>
<path d="M34.8887 33.9707L31.9194 27.1672" stroke="#D9D9D9" stroke-width="3"/>
<path d="M20.2012 27.168L17.2313 33.9712" stroke="#D9D9D9" stroke-width="3"/>
<path d="M25.4775 28.1992L25.4775 35.9992" stroke="#D9D9D9" stroke-width="3"/>
<path d="M14.3252 24.0938L9.65093 29.7638" stroke="#D9D9D9" stroke-width="3"/>
</svg>
