<svg width="60" height="60" viewBox="0 0 60 60" fill="none" xmlns="http://www.w3.org/2000/svg">
<path fill-rule="evenodd" clip-rule="evenodd" d="M21.727 10H11C8.79086 10 7 11.7909 7 14V22.5458H10V14C10 13.4477 10.4477 13 11 13H21.727V10ZM38.6361 13V10H48.8182C51.0273 10 52.8182 11.7909 52.8182 14V22.5458H49.8182V14C49.8182 13.4477 49.3705 13 48.8182 13H38.6361ZM38.6361 49H48.8182C49.3705 49 49.8182 48.5523 49.8182 48V39.4549H52.8182V48C52.8182 50.2091 51.0273 52 48.8182 52H38.6361V49ZM10 39.4549V48C10 48.5523 10.4477 49 11 49H21.727V52H11C8.79086 52 7 50.2091 7 48V39.4549H10Z" fill="white"/>
<path d="M43.9786 25.0976V39.0376C43.9786 39.866 43.307 40.5376 42.4786 40.5376H17.4004C16.572 40.5376 15.9004 39.866 15.9004 39.0376V25.0976C15.9004 24.2691 16.572 23.5976 17.4004 23.5976H20.5038C22.3754 23.5976 24.0454 22.4225 24.6775 20.6608C24.882 20.091 25.4222 19.7109 26.0275 19.7109H33.8835C34.4462 19.7109 34.9616 20.0259 35.2183 20.5267L35.5379 21.1502C36.308 22.6526 37.8542 23.5976 39.5425 23.5976H42.4786C43.307 23.5976 43.9786 24.2691 43.9786 25.0976Z" stroke="white" stroke-width="3"/>
<circle cx="30" cy="31" r="4.5" stroke="white" stroke-width="3"/>
</svg>
