<svg width="60" height="60" viewBox="0 0 60 60" fill="none" xmlns="http://www.w3.org/2000/svg">
<path fill-rule="evenodd" clip-rule="evenodd" d="M22.5133 10H38.0234V13H22.5133V10ZM43.3723 10V13H49C49.5523 13 50 13.4477 50 14V18.7941H53V14C53 11.7909 51.2091 10 49 10H43.3723ZM50 29.0473H53V23.1894H50V29.0473ZM10 48V41.5044H7V48C7 50.2091 8.79086 52 11 52H16.0947V49H11C10.4477 49 10 48.5523 10 48ZM10 35.8881V23.1894H7V35.8881H10ZM11 13H16.0947V10H11C8.79086 10 7 11.7909 7 14V18.7941H10V14C10 13.4477 10.4477 13 11 13Z" fill="white"/>
<path d="M51.4995 34.6551V48.7499C51.4995 49.5783 50.828 50.2499 49.9995 50.2499H24.4414C23.613 50.2499 22.9414 49.5783 22.9414 48.7499V34.6551C22.9414 33.8266 23.613 33.1551 24.4414 33.1551H27.6531C29.5346 33.1551 31.2145 31.9761 31.8542 30.2067C32.0643 29.6255 32.6161 29.2383 33.2341 29.2383H41.26C41.8211 29.2383 42.3353 29.5514 42.5927 30.0499L42.9389 30.7201C43.7113 32.2156 45.2538 33.1551 46.9371 33.1551H49.9995C50.828 33.1551 51.4995 33.8266 51.4995 34.6551Z" stroke="white" stroke-width="3"/>
<circle cx="37" cy="41" r="4.5" stroke="white" stroke-width="3"/>
</svg>
