<svg width="66" height="61" viewBox="0 0 66 61" fill="none" xmlns="http://www.w3.org/2000/svg">
<path d="M29.5869 51.459L29.2189 9.85637" stroke="white" stroke-width="3"/>
<path d="M45.1768 15.8477C41.2474 18.3725 35.7152 19.9446 29.5864 19.9446C23.4577 19.9446 17.9254 18.3725 13.9961 15.8477" stroke="white" stroke-width="3"/>
<path d="M8.02637 29.7754L48.1754 29.7754" stroke="white" stroke-width="3"/>
<path fill-rule="evenodd" clip-rule="evenodd" d="M17.8946 29.7432C17.8946 23.9698 19.3164 19.2166 21.5042 15.9543C23.6877 12.6985 26.5645 11.0006 29.5864 11.0006C32.6084 11.0006 35.4852 12.6985 37.6687 15.9543C39.8565 19.2166 41.2783 23.9698 41.2783 29.7432C41.2783 31.0257 41.208 32.2797 41.0739 33.4952L42.3481 33.905C42.4502 33.9378 42.5507 33.9747 42.6494 34.0155L44.0147 34.1799C44.1878 32.7433 44.2783 31.2598 44.2783 29.7432C44.2783 23.5085 42.7469 18.1404 40.1603 14.2834C37.5692 10.4199 33.8501 8.00057 29.5864 8.00057C25.3228 8.00057 21.6036 10.4199 19.0126 14.2834C16.426 18.1404 14.8946 23.5085 14.8946 29.7432C14.8946 35.978 16.4259 41.3494 19.0122 45.2098C21.6027 49.0765 25.3217 51.5006 29.5864 51.5006L29.6206 51.5006L29.7744 51.5006C32.4138 51.5017 35.5404 51.503 38.0905 48.7562L36.9533 47.2885L36.0617 46.5245C34.4194 48.4411 32.5097 48.5006 29.6207 48.5006L29.5864 48.5006C26.5655 48.5006 23.6886 46.8001 21.5046 43.5401C19.3164 40.2738 17.8946 35.5166 17.8946 29.7432Z" fill="white"/>
<path fill-rule="evenodd" clip-rule="evenodd" d="M14.8077 44.7684C18.4559 42.4243 23.6954 40.9096 29.5872 40.9096C30.6999 40.9096 31.791 40.9637 32.8539 41.0676L33.1458 38.0818C31.9855 37.9684 30.797 37.9096 29.5872 37.9096C23.2215 37.9096 17.3966 39.5391 13.186 42.2446L14.8077 44.7684Z" fill="white"/>
<path fill-rule="evenodd" clip-rule="evenodd" d="M36.7627 47.0375C34.5534 47.9708 32.1287 48.4861 29.5868 48.4861C19.342 48.4861 11.0002 40.1152 11.0002 29.7435C11.0002 19.3718 19.342 11.0008 29.5868 11.0008C39.8316 11.0008 48.1734 19.3718 48.1734 29.7435C48.1734 32.6401 47.5228 35.3806 46.3618 37.8264L48.4224 40.373C50.1743 37.2301 51.1734 33.6043 51.1734 29.7435C51.1734 17.7353 41.5088 8.00081 29.5868 8.00081C17.6648 8.00081 8.00016 17.7353 8.00016 29.7435C8.00016 41.7516 17.6648 51.4861 29.5868 51.4861C32.8258 51.4861 35.8982 50.7676 38.6554 49.4802L36.7627 47.0375Z" fill="white"/>
<path d="M41.7323 38.2225C42.1223 38.3813 42.4663 38.6369 42.7321 38.9655L49.5494 47.3918L49.5503 47.3929L52.1596 50.6243C53.0282 51.6999 52.8687 53.2796 51.8033 54.1534L50.9415 54.8602C49.8958 55.7179 48.3608 55.5789 47.4801 54.5468L44.8861 51.507L38.1976 42.9323C37.8974 42.5474 37.7151 42.0827 37.6733 41.5952L37.2967 37.2019C37.2648 36.829 37.6343 36.554 37.9789 36.6943L41.7323 38.2225Z" stroke="white" stroke-width="3"/>
</svg>
