<svg width="60" height="61" viewBox="0 0 60 61" fill="none" xmlns="http://www.w3.org/2000/svg">
<path d="M27.7633 28.6729L27.1265 28.3743L26.4897 28.6729L12.9149 35.0378C11.9202 35.5042 10.7781 34.7783 10.7781 33.6796V16.2735C10.7781 15.6916 11.1145 15.1623 11.6413 14.9153L27.1265 7.65474L42.6117 14.9153C43.1385 15.1623 43.4749 15.6916 43.4749 16.2735V33.6796C43.4749 34.7783 42.3328 35.5042 41.3381 35.0378L27.7633 28.6729Z" stroke="white" stroke-width="3"/>
<path fill-rule="evenodd" clip-rule="evenodd" d="M39.7887 38.8437C39.5513 38.3609 39.2764 37.881 38.9638 37.4101C38.7067 37.0226 38.4338 36.6557 38.1484 36.311L43.2015 33.7637L44.5519 36.4425L39.7887 38.8437ZM29.9456 43.8056L28.5282 44.5201C27.2067 45.1863 25.6421 45.1601 24.3436 44.4501L9.65698 36.4192L11.0963 33.787L25.7829 41.8179C26.2158 42.0545 26.7373 42.0633 27.1778 41.8412L28.4967 41.1764C28.8019 41.9351 29.1995 42.6954 29.6894 43.4336C29.7732 43.5598 29.8586 43.6838 29.9456 43.8056Z" fill="white"/>
<path d="M16.27 23.2926V21.0284L18.2127 20.0115V22.2757L16.27 23.2926Z" fill="white" stroke="white" stroke-width="3"/>
<path d="M36.8845 31.0697V21.6561L33.2943 19.923V29.3365L36.8845 31.0697Z" fill="white" stroke="white" stroke-width="3"/>
<path fill-rule="evenodd" clip-rule="evenodd" d="M27.764 38.1543L17.2378 32.9102L16.3459 34.7003L28.2998 40.6557C28.0035 39.8017 27.8248 38.9566 27.764 38.1543Z" fill="white"/>
<path fill-rule="evenodd" clip-rule="evenodd" d="M29.0349 33.8757L20.8993 29.7969L20.0029 31.5848L28.0211 35.6047C28.2358 34.9311 28.5737 34.3427 29.0349 33.8757Z" fill="white"/>
<path d="M33.2415 52.6388L37.3592 52.6392C38.621 52.6394 39.7183 53.3814 40.835 53.9662C41.529 54.3296 42.3158 54.4218 43.3238 54.3249C45.5373 54.1121 51.2536 50.9179 51.5616 48.8331C51.8695 46.7483 49.3233 40.6142 47.6144 40.2435C46.666 40.0378 43.6857 40.6691 41.5166 41.582C40.3189 42.0861 38.6298 41.8951 37.8157 40.8858C35.8105 38.3997 33.3928 36.0387 31.7353 37.2781C30.4665 38.2269 32.6377 41.7532 34.5811 44.4266C35.6425 45.8866 34.8545 48.0172 33.0698 48.3362L32.8442 48.3765C31.5139 48.6144 30.7286 49.9868 31.2049 51.2414C31.5239 52.0816 32.3358 52.6387 33.2415 52.6388Z" stroke="white" stroke-width="3"/>
</svg>
