<svg width="70" height="70" viewBox="0 0 70 70" fill="none" xmlns="http://www.w3.org/2000/svg">
<path d="M1.5 6C1.5 3.51472 3.51472 1.5 6 1.5H64C66.4853 1.5 68.5 3.51472 68.5 6V64C68.5 66.4853 66.4853 68.5 64 68.5H6C3.51472 68.5 1.5 66.4853 1.5 64V6Z" stroke="white" stroke-width="3"/>
<path fill-rule="evenodd" clip-rule="evenodd" d="M19.2126 18.8202C19.3043 18.9223 19.3952 19.0233 19.4849 19.1226C19.6473 19.3023 19.8057 19.4769 19.9575 19.6442L19.9575 19.6442C20.6375 20.3934 21.1855 20.9972 21.3627 21.269C21.3753 21.2883 21.386 21.3059 21.3947 21.3218C21.4317 21.3889 21.4339 21.4249 21.3947 21.4249C20.267 21.6568 19.311 21.8628 18.5006 22.0696C18.3919 22.0974 18.2858 22.1251 18.1822 22.153C13.9874 23.2805 13.9899 24.5347 14.0011 30.1758C14.0017 30.4788 14.0023 30.7945 14.0023 31.1235C14.0023 38.8554 20.4475 49.1076 28.398 49.1076C28.8723 49.1076 29.3412 49.0711 29.8037 49.0008C28.8073 48.0975 27.8892 47.0795 27.0636 45.9636C24.8301 45.487 22.5576 43.8417 20.6324 41.2335C18.3466 38.1365 17.0023 34.2518 17.0023 31.1235C17.0023 30.7702 17.0017 30.4391 17.0012 30.1279C16.9987 28.6516 16.9969 27.624 17.0604 26.8009C17.1206 26.0213 17.2247 25.7559 17.252 25.6985C17.3087 25.6519 17.4984 25.5243 17.991 25.3471C18.8032 25.0549 20.0043 24.7742 21.9389 24.3758C22.3112 24.3085 22.7723 24.1543 23.2242 23.8125C24.0239 23.2079 24.3333 22.3727 24.4044 21.7375C24.5066 20.8242 24.1533 20.1285 24.1048 20.033L24.1005 20.0245C23.9253 19.6662 23.6971 19.3733 23.6142 19.2669L23.6119 19.2639C23.3808 18.9673 23.0602 18.6046 22.7567 18.2666C22.5643 18.0523 22.3609 17.8283 22.1505 17.5965C21.9747 17.4027 21.7939 17.2035 21.6105 17.0001C25.6402 16.9992 31.2549 17.0024 35.3023 17.0051C35.0073 17.327 34.719 17.6375 34.4501 17.9271L34.4498 17.9274L34.2013 18.1952C33.8859 18.5353 33.5765 18.8711 33.3541 19.1298C33.2578 19.2419 33.0972 19.4318 32.957 19.6371L32.9527 19.6433C32.9051 19.7127 32.705 20.0043 32.5648 20.4042C32.51 20.5604 32.2897 21.1925 32.4503 22.0007C32.544 22.4722 32.7749 23.0316 33.2482 23.5167C33.7175 23.9978 34.2588 24.2354 34.6984 24.3414L34.7664 24.3578L34.8352 24.371C36.81 24.7505 38.0253 25.0235 38.8361 25.3112C39.3048 25.4775 39.4908 25.5993 39.549 25.6462C39.5768 25.7056 39.6822 25.9774 39.7411 26.777C39.7462 26.8466 39.7509 26.9176 39.7551 26.9901C40.2632 27.0003 40.7769 27.0061 41.2955 27.0061C41.7882 27.0061 42.2765 27.0031 42.7597 26.9981C42.6129 23.9825 41.9134 22.9902 38.722 22.1443C38.5937 22.1104 38.4615 22.0766 38.3251 22.043C37.5083 21.8416 36.5427 21.6442 35.4014 21.4249C35.386 21.4212 35.3908 21.3993 35.4136 21.3611L35.4188 21.3527C35.5336 21.1689 36.0139 20.6517 36.6457 19.9715L36.6458 19.9714C36.875 19.7246 37.1242 19.4562 37.3831 19.1746C37.4882 19.0603 37.5948 18.9438 37.7024 18.8257C38.2372 18.2383 38.7948 17.6101 39.2911 17.0078C39.3492 16.9373 39.4065 16.8671 39.4628 16.7974C39.8273 16.3461 40.151 15.9142 40.3972 15.5308L40.3973 15.5306C40.9704 14.6382 41.1241 14.0085 40.3972 14.0085C40.2373 14.0085 39.5466 14.008 38.4945 14.0073L38.4945 14.0073L37.9182 14.0068L37.8099 14.0068C33.2102 14.0035 23.7411 13.9971 19.1341 14.0015L19.0414 14.0016C17.7217 14.0029 16.8182 14.0051 16.5698 14.0086C15.8265 14.0189 15.9978 14.6756 16.592 15.5942C16.8318 15.965 17.1406 16.3785 17.4859 16.8094C17.5374 16.8738 17.5898 16.9385 17.6429 17.0035C18.134 17.6053 18.6857 18.233 19.2126 18.8202ZM39.5711 25.6674C39.5703 25.6675 39.5645 25.6626 39.5559 25.652C39.5676 25.6619 39.5719 25.6672 39.5711 25.6674ZM17.2588 25.6856L17.2575 25.6877C17.2583 25.6862 17.2588 25.6856 17.2588 25.6856ZM17.2456 25.7039C17.2378 25.7135 17.2326 25.718 17.2319 25.7179C17.2313 25.7178 17.2352 25.713 17.2456 25.7039ZM18.9026 22.9834C18.902 22.983 18.8949 22.9738 18.8829 22.9568C18.8972 22.9752 18.9032 22.9837 18.9026 22.9834Z" fill="white"/>
<path d="M58.6954 33.2915C58.6954 44.0901 51.4647 52.3536 43.0972 52.3536C34.7297 52.3536 27.499 44.0901 27.499 33.2915C27.499 32.123 27.8432 31.6175 28.2454 31.3144C28.7547 30.9306 29.6443 30.6553 31.1133 30.5509C32.5526 30.4486 34.3021 30.5218 36.3632 30.6299C36.5783 30.6412 36.7965 30.6529 37.0174 30.6647C38.8807 30.7642 40.9433 30.8743 43.0972 30.8743C44.7151 30.8743 46.2959 30.8384 47.7746 30.8049C48.4669 30.7892 49.1369 30.774 49.7778 30.7632C51.8216 30.7289 53.5806 30.7391 55.0252 30.8964C56.5008 31.0569 57.4414 31.3529 57.9892 31.7379C58.4222 32.0423 58.6954 32.4535 58.6954 33.2915Z" stroke="white" stroke-width="3"/>
<path fill-rule="evenodd" clip-rule="evenodd" d="M34.3984 50.998V53.8019C34.3984 56.5633 36.637 58.8019 39.3984 58.8019H46.1967C48.9581 58.8019 51.1967 56.5633 51.1967 53.8019V51.4054C50.247 52.0208 49.2435 52.5314 48.1967 52.9242V53.8019C48.1967 54.9064 47.3012 55.8019 46.1967 55.8019H39.3984C38.2939 55.8019 37.3984 54.9064 37.3984 53.8019V52.6845C36.3475 52.2378 35.3437 51.6711 34.3984 50.998Z" fill="white"/>
<path d="M42.0764 35.3617L48.0068 40.869C48.4329 41.2646 48.4329 41.9389 48.0068 42.3345L42.0764 47.8418C41.4365 48.436 40.3959 47.9822 40.3959 47.109L40.3959 44.8192C40.3959 44.5362 40.5159 44.2664 40.726 44.0768L42.652 42.3391C43.0902 41.9438 43.0925 41.2571 42.6571 40.8588L40.7209 39.0875C40.5138 38.8981 40.3959 38.6305 40.3959 38.3498L40.3959 36.0942C40.3959 35.221 41.4365 34.7675 42.0764 35.3617Z" fill="white"/>
</svg>
