<svg width="48" height="48" viewBox="0 0 48 48" fill="none" xmlns="http://www.w3.org/2000/svg">
<path d="M11 29.791V33.541C11 35.1979 12.3431 36.541 14 36.541H35C36.6569 36.541 38 35.1979 38 33.541V29.791" stroke="white" stroke-width="2"/>
<path fill-rule="evenodd" clip-rule="evenodd" d="M19.523 14H24.4033V17.054C24.4033 19.2631 26.1942 21.054 28.4033 21.054H30.4775V28.3295C30.4775 28.8043 30.1466 29.2019 29.7028 29.3041V31.3212C31.2544 31.206 32.4775 29.9106 32.4775 28.3295L32.4775 21.054V20.054L31.5991 19.054L26.4033 13.1385L25.4033 12H24.4033H19.523C17.8661 12 16.5229 13.3431 16.5229 15V28.3295C16.5229 29.9106 17.746 31.206 19.2977 31.3212V29.3041C18.8539 29.2019 18.5229 28.8044 18.5229 28.3295L18.5229 15C18.523 14.4477 18.9707 14 19.523 14ZM26.4033 16.1691L28.9372 19.054H28.4033C27.2987 19.054 26.4033 18.1586 26.4033 17.054V16.1691Z" fill="white"/>
<path d="M24.4998 34.3945L21.3113 29.5621L27.6884 29.5621L24.4998 34.3945Z" fill="white"/>
<path d="M24.4998 31.7285L24.4998 24.268" stroke="white" stroke-width="2"/>
</svg>
