<svg width="60" height="60" viewBox="0 0 60 60" fill="none" xmlns="http://www.w3.org/2000/svg">
<rect width="13.8874" height="3.71601" rx="1.85801" transform="matrix(0.928226 -0.372016 0.37167 0.928365 8.01123 40.3789)" fill="white"/>
<rect width="13.8866" height="3.71623" rx="1.85811" transform="matrix(0.983855 0.178969 -0.178782 0.983889 6.66455 26.5898)" fill="white"/>
<rect width="13.8913" height="3.71498" rx="1.85749" transform="matrix(0.588152 -0.80875 0.808448 0.588567 14.8745 52.416)" fill="white"/>
<path fill-rule="evenodd" clip-rule="evenodd" d="M37.7848 20.2546L31.8502 22.633L30.4579 23.1911L25.1284 22.251C22.8122 21.8424 20.9477 24.138 21.822 26.3218L29.1125 44.5322C29.9868 46.7161 32.9196 47.089 34.3134 45.1935L37.5205 40.8322L38.9128 40.2741L52.9551 34.6463C54.493 34.0299 55.2406 32.2833 54.6248 30.7451L49.7922 18.6742C49.1764 17.136 47.4304 16.3888 45.8925 17.0052L44.9812 17.3704V20.6023L47.0075 19.7902L51.8401 31.8612L37.7978 37.489L32.9652 25.4181L37.7848 23.4865V20.2546ZM30.0319 26.1627L35.1618 38.9765L35.1043 39.0548L31.8972 43.4162L24.6067 25.2058L29.9362 26.1459L30.0319 26.1627Z" fill="white"/>
<rect x="43.1021" y="7" width="22.5893" height="3.51827" rx="1.75913" transform="rotate(90 43.1021 7)" fill="white"/>
</svg>
