<svg width="70" height="70" viewBox="0 0 70 70" fill="none" xmlns="http://www.w3.org/2000/svg">
<path d="M1.5 6C1.5 3.51472 3.51472 1.5 6 1.5H64C66.4853 1.5 68.5 3.51472 68.5 6V64C68.5 66.4853 66.4853 68.5 64 68.5H6C3.51472 68.5 1.5 66.4853 1.5 64V6Z" stroke="white" stroke-width="3"/>
<path fill-rule="evenodd" clip-rule="evenodd" d="M21.3987 49.998V51.8013C21.3987 54.5627 23.6373 56.8013 26.3987 56.8013H33.1953C35.9567 56.8013 38.1953 54.5627 38.1953 51.8013V50.4057C37.2445 51.0219 36.2396 51.5329 35.1915 51.926C35.1271 52.9725 34.258 53.8013 33.1953 53.8013H26.3987C25.2941 53.8013 24.3987 52.9059 24.3987 51.8013V51.6847C23.3477 51.238 22.3439 50.6712 21.3987 49.998Z" fill="white"/>
<path fill-rule="evenodd" clip-rule="evenodd" d="M39.6456 49.35C36.9189 51.5622 33.6332 52.8537 30.0966 52.8537C20.6544 52.8537 13 43.6477 13 32.2915C13 27.5746 17.6142 27.8208 24.0968 28.1667C25.149 28.2229 26.2504 28.2816 27.3893 28.3222C27.3887 28.7316 27.3887 29.1596 27.3887 29.6074C27.3887 30.1702 27.4185 30.7447 27.4768 31.327C26.2322 31.2851 25.042 31.2215 23.9376 31.1625L23.9376 31.1625L23.9373 31.1625C23.7162 31.1507 23.4985 31.1391 23.2846 31.1278C21.2081 31.0188 19.5515 30.9525 18.2202 31.0471C16.8295 31.1459 16.3024 31.3967 16.1492 31.5122C16.118 31.5357 16.1131 31.5417 16.0974 31.5778C16.0714 31.6373 16 31.841 16 32.2915C16 42.533 22.8059 49.8537 30.0966 49.8537C32.4308 49.8537 34.7152 49.1033 36.7425 47.747C37.6658 48.3996 38.6367 48.9424 39.6456 49.35Z" fill="white"/>
<path d="M54.5873 13.226C54.5871 13.2265 54.587 13.2271 54.5868 13.2277C54.5895 13.217 54.5905 13.216 54.5873 13.226ZM50.2337 21.8832L50.2677 21.8914L50.3021 21.898C52.262 22.2747 53.5869 22.5661 54.5211 22.8976C55.433 23.2211 55.7787 23.5181 55.9634 23.7863C56.17 24.0863 56.3407 24.588 56.4202 25.6668C56.4845 26.5401 56.482 27.6142 56.4786 29.0382C56.4778 29.3792 56.4769 29.7404 56.4769 30.1236C56.4769 33.6208 54.9992 37.8112 52.554 41.1245C50.0963 44.4546 46.8916 46.6078 43.5826 46.6078C40.2736 46.6078 37.0689 44.4546 34.6111 41.1245C32.1659 37.8112 30.6882 33.6208 30.6882 30.1236C30.6882 29.7826 30.6876 29.4592 30.6871 29.152C30.6843 27.6748 30.6823 26.573 30.7508 25.6855C30.8332 24.6182 31.0058 24.1261 31.2121 23.8312C31.3997 23.5628 31.7511 23.2659 32.6689 22.9357C33.6 22.6007 34.9106 22.3001 36.8388 21.9031C37.0302 21.8707 37.2701 21.7935 37.5048 21.616C37.907 21.3119 38.063 20.8917 38.0989 20.5706C38.1508 20.1075 37.9715 19.7499 37.941 19.6892C37.9398 19.6868 37.9388 19.6848 37.9381 19.6833C37.8365 19.4754 37.6936 19.2883 37.6139 19.1859C37.4197 18.9366 37.1332 18.611 36.826 18.2689C36.6434 18.0655 36.4461 17.8482 36.2394 17.6204C35.7174 17.0451 35.135 16.4033 34.5756 15.7523C34.1895 15.3029 33.8419 14.8801 33.5527 14.5023C37.9645 14.4961 49.0988 14.504 53.6415 14.5072C53.6795 14.5073 53.7171 14.5073 53.7543 14.5073C53.4725 14.8714 53.1368 15.2768 52.7643 15.707C52.0807 16.4965 51.3452 17.2886 50.7315 17.9495C50.6468 18.0406 50.5645 18.1293 50.485 18.2151C50.1654 18.5599 49.8761 18.8742 49.6756 19.1075C49.5828 19.2155 49.4692 19.3518 49.3793 19.4833L49.3776 19.4859C49.3461 19.532 49.2379 19.6901 49.1641 19.9007C49.1353 19.9829 49.0247 20.3021 49.1054 20.7084C49.1525 20.9453 49.2684 21.226 49.5057 21.4693C49.7411 21.7106 50.0127 21.8299 50.2337 21.8832ZM32.7463 13.2471C32.7428 13.2363 32.7438 13.2371 32.7466 13.2481C32.7465 13.2477 32.7464 13.2474 32.7463 13.2471ZM31.7797 14.5084C31.778 14.5084 31.777 14.5084 31.7766 14.5084L31.7765 14.5084C31.7776 14.5084 31.7786 14.5084 31.7797 14.5084Z" stroke="white" stroke-width="3"/>
<path d="M41.6643 38.7479L47.5931 33.2416C48.0191 32.8459 48.0191 32.1717 47.5931 31.7761L41.6643 26.2697C41.0245 25.6755 39.9838 26.1293 39.9838 27.0025V29.2916C39.9838 29.5747 40.1037 29.8444 40.3139 30.0341L42.2394 31.7715C42.6775 32.1668 42.6798 32.8535 42.2445 33.2518L40.3088 35.0228C40.1017 35.2122 39.9838 35.4798 39.9838 35.7604V38.0154C39.9838 38.8887 41.0245 39.3421 41.6643 38.7479Z" fill="white"/>
</svg>
