<svg width="60" height="60" viewBox="0 0 60 60" fill="none" xmlns="http://www.w3.org/2000/svg">
<circle cx="38.2287" cy="29.8823" r="4.54442" fill="white" stroke="white" stroke-width="3"/>
<path fill-rule="evenodd" clip-rule="evenodd" d="M44.0129 31.6409C44.1822 31.0839 44.2733 30.4928 44.2733 29.8804C44.2733 29.4555 44.2294 29.0409 44.146 28.6407L51.9896 28.6407L51.9762 31.6409L44.0129 31.6409ZM32.4448 31.6409L8.00012 31.6408L8.01354 28.6406L32.3117 28.6407C32.2283 29.0409 32.1844 29.4555 32.1844 29.8804C32.1844 30.4928 32.2755 31.0839 32.4448 31.6409Z" fill="white"/>
<circle cx="21.7606" cy="15.0435" r="4.54442" transform="rotate(-180 21.7606 15.0435)" fill="white" stroke="white" stroke-width="3"/>
<path fill-rule="evenodd" clip-rule="evenodd" d="M15.9761 13.2832C15.8072 13.8397 15.7163 14.4301 15.7163 15.0417C15.7163 15.4673 15.7603 15.8826 15.844 16.2834L8 16.2834L8.01341 13.2832L15.9761 13.2832ZM27.5454 13.2833C27.7143 13.8397 27.8052 14.4301 27.8052 15.0417C27.8052 15.4673 27.7612 15.8827 27.6775 16.2834L51.9761 16.2835L51.9895 13.2833L27.5454 13.2833Z" fill="white"/>
<circle cx="21.7606" cy="43.6177" r="4.54442" transform="rotate(-180 21.7606 43.6177)" fill="white" stroke="white" stroke-width="3"/>
<path fill-rule="evenodd" clip-rule="evenodd" d="M15.9773 41.8555C15.8076 42.4131 15.7163 43.0048 15.7163 43.6179C15.7163 44.0421 15.76 44.4561 15.8432 44.8557L8 44.8556L8.01341 41.8555L15.9773 41.8555ZM27.5442 41.8555C27.7139 42.4131 27.8052 43.0048 27.8052 43.6179C27.8052 44.0421 27.7615 44.4561 27.6783 44.8557L51.9761 44.8558L51.9895 41.8556L27.5442 41.8555Z" fill="white"/>
</svg>
