<svg width="48" height="48" viewBox="0 0 48 48" fill="none" xmlns="http://www.w3.org/2000/svg">
<path d="M6 1.5H42C44.4853 1.5 46.5 3.51472 46.5 6V42C46.5 44.4853 44.4853 46.5 42 46.5H6C3.51472 46.5 1.5 44.4853 1.5 42V6C1.5 3.51472 3.51472 1.5 6 1.5Z" stroke="#D9D9D9" stroke-width="3"/>
<path d="M11.1014 16.5735L23.1808 33.8297C23.5789 34.3984 24.4211 34.3984 24.8192 33.8297L36.8986 16.5735C37.3625 15.9107 36.8884 15 36.0793 15L29.5059 15C29.1748 15 28.8651 15.1639 28.679 15.4376L24.8212 21.1101C24.4259 21.6914 23.5701 21.6941 23.171 21.1154L19.2522 15.4323C19.0655 15.1616 18.7584 15 18.4296 15L11.9188 15C11.1098 15 10.6375 15.9107 11.1014 16.5735Z" fill="#D9D9D9"/>
</svg>
