<svg width="48" height="48" viewBox="0 0 48 48" fill="none" xmlns="http://www.w3.org/2000/svg">
<path d="M6 1.5H42C44.4853 1.5 46.5 3.51472 46.5 6V42C46.5 44.4853 44.4853 46.5 42 46.5H6C3.51472 46.5 1.5 44.4853 1.5 42V6C1.5 3.51472 3.51472 1.5 6 1.5Z" stroke="#D9D9D9" stroke-width="3"/>
<path d="M36.8986 31.4265L24.8192 14.1703C24.4211 13.6016 23.5789 13.6016 23.1808 14.1703L11.1014 31.4265C10.6375 32.0893 11.1116 33 11.9207 33L18.4941 33C18.8252 33 19.1349 32.8361 19.321 32.5624L23.1788 26.8899C23.5741 26.3086 24.4299 26.3059 24.829 26.8846L28.7478 32.5677C28.9345 32.8384 29.2416 33 29.5704 33L36.0812 33C36.8902 33 37.3625 32.0893 36.8986 31.4265Z" fill="#D9D9D9"/>
</svg>
