<svg width="48" height="51" viewBox="0 0 48 51" fill="none" xmlns="http://www.w3.org/2000/svg">
<path d="M27.7046 45.7641C27.7046 47.7522 26.0926 49.3642 24.1037 49.3642C22.1149 49.3642 20.5029 47.7522 20.5029 45.7641C20.5029 43.7761 22.1149 42.1641 24.1037 42.1641C26.0926 42.1641 27.7046 43.7761 27.7046 45.7641Z" stroke="#D9D9D9" stroke-width="3"/>
<path fill-rule="evenodd" clip-rule="evenodd" d="M12.1023 32.5624H21.4457C23.1741 32.5624 24.5753 33.9636 24.5752 35.692C24.5752 38.4083 27.7984 39.835 29.809 38.0086L34.661 33.6015C35.3971 32.9329 36.3559 32.5624 37.3504 32.5624H39.9769C42.1861 32.5624 43.9769 30.7716 43.9769 28.5625V10.0324L43.9767 10.0326V10.0317L40.9769 12.1521V28.5624C40.9769 29.1147 40.5292 29.5624 39.9769 29.5624H37.3504C35.6101 29.5624 33.9321 30.2107 32.6439 31.3809L27.7919 35.788C27.7621 35.815 27.7449 35.8232 27.7418 35.8246C27.738 35.8264 27.7361 35.8269 27.7333 35.8272C27.7249 35.8284 27.6944 35.8291 27.6524 35.8105C27.6104 35.7919 27.5904 35.7689 27.5856 35.7619C27.584 35.7595 27.5831 35.7578 27.5818 35.7538C27.5808 35.7506 27.5753 35.7323 27.5752 35.692C27.5753 32.3068 24.8309 29.5624 21.4456 29.5624H16.3453L12.1034 32.5608H12.1046L12.1023 32.5624ZM7.35255 24.3857L4.35254 26.5062L4.35263 7.33997C4.35264 5.13085 6.14348 3.34001 8.3526 3.34L37.1276 3.33984L32.8832 6.33987L8.35262 6.34C7.80035 6.34 7.35264 6.78771 7.35263 7.33999L7.35255 24.3857Z" fill="#D9D9D9"/>
<path d="M1.5498 34.1699L47.0633 1.99958" stroke="#D9D9D9" stroke-width="3"/>
</svg>
