<svg width="41" height="49" viewBox="0 0 41 49" fill="none" xmlns="http://www.w3.org/2000/svg">
<path d="M23.7046 42.9028C23.7046 44.8909 22.0926 46.5029 20.1037 46.5029C18.1149 46.5029 16.5029 44.8909 16.5029 42.9028C16.5029 40.9147 18.1149 39.3027 20.1037 39.3027C22.0926 39.3027 23.7046 40.9147 23.7046 42.9028Z" stroke="#D9D9D9" stroke-width="3"/>
<path d="M29.6528 29.6305L24.8008 34.0376C23.7539 34.9886 22.0756 34.2458 22.0756 32.8314C22.0756 30.2745 20.0028 28.2018 17.446 28.2018L4.35288 28.2018C2.97216 28.2018 1.85286 27.0825 1.85287 25.7017L1.85297 4.4793C1.85298 3.0986 2.97225 1.97932 4.35295 1.97932L35.9772 1.97915C37.358 1.97914 38.4773 3.09844 38.4773 4.47915L38.4773 25.7018C38.4773 27.0825 37.358 28.2018 35.9773 28.2018L33.3507 28.2018C31.9833 28.2018 30.665 28.7111 29.6528 29.6305Z" stroke="#D9D9D9" stroke-width="3"/>
<path d="M29.6528 29.6286L24.8008 34.0357C23.7539 34.9866 22.0756 34.2438 22.0756 32.8294C22.0756 30.2726 20.0028 28.1998 17.446 28.1998L4.35288 28.1998C2.97216 28.1998 1.85286 27.0805 1.85287 25.6998L1.85297 4.47735C1.85298 3.09664 2.97225 1.97737 4.35295 1.97736L35.9772 1.9772C37.358 1.97719 38.4773 3.09649 38.4773 4.4772L38.4773 25.6998C38.4773 27.0805 37.358 28.1998 35.9773 28.1998L33.3507 28.1998C31.9833 28.1998 30.665 28.7092 29.6528 29.6286Z" stroke="#D9D9D9" stroke-width="3"/>
</svg>
