<svg width="49" height="53" viewBox="0 0 49 53" fill="none" xmlns="http://www.w3.org/2000/svg">
<path d="M37.1992 7.80078C33.2674 10.309 27.7318 11.8708 21.5992 11.8708C15.4667 11.8708 9.93101 10.309 5.99922 7.80078" stroke="#D9D9D9" stroke-width="3"/>
<path d="M0.0263672 21.6348H40.2002" stroke="#D9D9D9" stroke-width="3"/>
<path fill-rule="evenodd" clip-rule="evenodd" d="M23.0996 31.3189V3H20.0996V33.7777C20.9374 32.8677 21.9481 32.0407 23.0996 31.3189Z" fill="#D9D9D9"/>
<path fill-rule="evenodd" clip-rule="evenodd" d="M25.7781 29.9377C24.4204 29.7821 23.0238 29.7012 21.6001 29.7012C15.2326 29.7012 9.40577 31.3194 5.19336 34.0066L6.80682 36.5358C10.3779 34.2577 15.4731 32.7676 21.213 32.7033C22.4856 31.6079 24.031 30.6697 25.7781 29.9377Z" fill="#D9D9D9"/>
<path fill-rule="evenodd" clip-rule="evenodd" d="M31.0462 28.4811C31.5283 26.3666 31.7994 24.0491 31.7994 21.6C31.7994 16.0953 30.4298 11.2559 28.3734 7.89084C26.2855 4.47432 23.8039 3 21.5994 3C19.3949 3 16.9133 4.47432 14.8254 7.89084C12.769 11.2559 11.3994 16.0953 11.3994 21.6C11.3994 27.1047 12.769 31.9441 14.8254 35.3092C15.6851 36.7159 16.6116 37.7934 17.558 38.5743C17.4534 39.1063 17.3994 39.6494 17.3994 40.2012C17.3994 40.8867 17.4828 41.5588 17.6429 42.2129C12.2857 39.4622 8.39941 31.2738 8.39941 21.6C8.39941 9.67065 14.3093 0 21.5994 0C28.8896 0 34.7994 9.67065 34.7994 21.6C34.7994 23.9051 34.5788 26.1259 34.1701 28.2089C33.1015 28.2351 32.0573 28.3277 31.0462 28.4811Z" fill="#D9D9D9"/>
<path fill-rule="evenodd" clip-rule="evenodd" d="M38.8649 28.5305C39.7255 26.3886 40.199 24.0496 40.199 21.6C40.199 11.3275 31.8715 3 21.599 3C11.3265 3 2.99902 11.3275 2.99902 21.6C2.99902 30.433 9.1562 37.828 17.4128 39.727C17.4039 39.8843 17.3994 40.0424 17.3994 40.2012C17.3994 41.1194 17.549 42.0136 17.8322 42.8727C7.69862 41.0905 -0.000976562 32.2444 -0.000976562 21.6C-0.000976562 9.67065 9.66967 0 21.599 0C33.5284 0 43.199 9.67065 43.199 21.6C43.199 24.2813 42.7105 26.8484 41.8176 29.2173C40.8743 28.9302 39.8872 28.6993 38.8649 28.5305Z" fill="#D9D9D9"/>
<path d="M38.3501 44.1375C38.3501 45.2734 37.1135 46.6695 34.9417 46.6695C32.7698 46.6695 31.5332 45.2734 31.5332 44.1375C31.5332 43.0015 32.7698 41.6055 34.9417 41.6055C37.1135 41.6055 38.3501 43.0015 38.3501 44.1375Z" stroke="#D9D9D9" stroke-width="3"/>
<path d="M45.9202 44.1178C45.9721 44.2234 45.999 44.2954 46.0126 44.337C45.999 44.3786 45.9721 44.4506 45.9202 44.5562C45.8075 44.7852 45.6191 45.0864 45.342 45.442C44.7891 46.1515 43.9563 46.9842 42.8987 47.7787C40.7718 49.3767 37.9013 50.6994 34.8072 50.6994C31.713 50.6994 28.8426 49.3767 26.7157 47.7787C25.658 46.9842 24.8252 46.1515 24.2724 45.442C23.9953 45.0864 23.8069 44.7852 23.6942 44.5562C23.6423 44.4506 23.6154 44.3786 23.6017 44.337C23.6154 44.2954 23.6423 44.2234 23.6942 44.1178C23.8069 43.8888 23.9953 43.5876 24.2724 43.232C24.8252 42.5226 25.658 41.6898 26.7157 40.8953C28.8426 39.2973 31.713 37.9746 34.8072 37.9746C37.9013 37.9746 40.7718 39.2973 42.8987 40.8953C43.9563 41.6898 44.7891 42.5226 45.342 43.232C45.6191 43.5876 45.8075 43.8888 45.9202 44.1178Z" stroke="#D9D9D9" stroke-width="3"/>
<path d="M21.5547 36.4746L25.2332 40.2849" stroke="#D9D9D9" stroke-width="3"/>
<path d="M27.623 33.4043L29.9598 37.9762" stroke="#D9D9D9" stroke-width="3"/>
<path d="M39.1826 37.9766L41.5198 33.4048" stroke="#D9D9D9" stroke-width="3"/>
<path d="M35.0312 37.2812V32.0396" stroke="#D9D9D9" stroke-width="3"/>
<path d="M43.8066 40.041L47.4852 36.2307" stroke="#D9D9D9" stroke-width="3"/>
</svg>
