<svg width="55" height="57" viewBox="0 0 55 57" fill="none" xmlns="http://www.w3.org/2000/svg">
<path fill-rule="evenodd" clip-rule="evenodd" d="M31.03 29.3872L40.2843 18.0305C40.8771 17.303 40.7679 16.2327 40.0405 15.6399C39.3131 15.047 38.2429 15.1562 37.6501 15.8836L28.8587 26.6723L31.03 29.3872ZM26.1642 35.3585L23.9929 32.6436L14.5412 44.2426C13.9484 44.97 14.0575 46.0403 14.785 46.6332C15.5124 47.226 16.5826 47.1169 17.1754 46.3894L26.1642 35.3585Z" fill="#D9D9D9"/>
<rect width="40.9265" height="3.21888" rx="1.60944" transform="matrix(-0.624594 -0.78095 0.780901 -0.624655 39.7012 48.8652)" fill="#D9D9D9"/>
<rect width="31.2503" height="3.39812" rx="1.69906" transform="matrix(0.142097 -0.989853 0.98985 0.142119 38.1562 48.2441)" fill="#D9D9D9"/>
<rect width="31.2695" height="3.49798" rx="1.74899" transform="matrix(-0.146268 -0.989245 -0.990424 0.138062 16.5674 48.7891)" fill="#D9D9D9"/>
<path d="M40.0277 47.867C40.0277 49.4476 38.9438 51.1399 36.6303 52.5183C34.3484 53.8778 31.0985 54.7673 27.4284 54.7673C23.7582 54.7673 20.5084 53.8778 18.2264 52.5183C15.913 51.1399 14.8291 49.4476 14.8291 47.867C14.8291 46.2865 15.913 44.5941 18.2264 43.2158C20.5084 41.8562 23.7582 40.9668 27.4284 40.9668C31.0985 40.9668 34.3484 41.8562 36.6303 43.2158C38.9438 44.5941 40.0277 46.2865 40.0277 47.867Z" stroke="#D9D9D9" stroke-width="3"/>
<path d="M45.2718 3.63574L48.155 4.79881C50.4598 5.72856 51.5746 8.35074 50.645 10.6556L48.0715 17.036C47.7617 17.8043 46.8877 18.1759 46.1194 17.866L37.6719 14.4583C36.9036 14.1484 36.532 13.2743 36.8419 12.506L39.4153 6.1256C40.3449 3.82073 42.967 2.70598 45.2718 3.63574Z" stroke="#D9D9D9" stroke-width="3"/>
<path d="M6.09759 5.38238L8.94526 4.13487C11.2217 3.13761 13.8754 4.17461 14.8726 6.45109L17.6329 12.7529C17.9652 13.5117 17.6196 14.3964 16.8608 14.7288L8.51732 18.3839C7.75852 18.7163 6.87394 18.3707 6.54156 17.6118L3.78124 11.31C2.78411 9.03354 3.82117 6.37965 6.09759 5.38238Z" stroke="#D9D9D9" stroke-width="3"/>
</svg>
