<svg width="15" height="15" viewBox="0 0 15 15" fill="none" xmlns="http://www.w3.org/2000/svg">
<circle cx="5.27022" cy="5.27026" r="3.92332" transform="rotate(4.19476 5.27022 5.27026)" stroke="#D9D9D9" stroke-width="2"/>
<path d="M9.91754 10.7473C10.2994 10.4446 10.8793 10.4872 11.2129 10.8423L13.485 13.2618C13.8186 13.617 13.7795 14.1503 13.3977 14.453C13.0159 14.7557 12.4359 14.7132 12.1024 14.358L9.83017 11.9386C9.4966 11.5834 9.53572 11.0501 9.91754 10.7473Z" fill="#D9D9D9"/>
<path d="M9.09768 8.85923C9.40779 8.61337 9.8788 8.64792 10.1497 8.93639C10.4206 9.22487 10.3889 9.65804 10.0788 9.9039L8.82639 10.8968C8.51628 11.1427 8.04527 11.1081 7.77435 10.8196C7.50343 10.5312 7.5352 10.098 7.84531 9.85214L9.09768 8.85923Z" fill="#D9D9D9"/>
</svg>
