<svg width="60" height="60" viewBox="0 0 60 60" fill="none" xmlns="http://www.w3.org/2000/svg">
<path fill-rule="evenodd" clip-rule="evenodd" d="M29.97 32.41C24.66 35.47 19.52 37.75 15.48 38.97C13.46 39.58 11.63 39.95 10.15 39.97C8.82002 39.99 7.12002 39.74 6.31002 38.34C5.50002 36.94 6.13002 35.34 6.81002 34.2C7.29002 33.4 7.95002 32.55 8.76002 31.67C8.62002 32.59 8.50002 33.57 8.41002 34.61C8.19002 36.97 9.00002 37.5 10.5 36.96C11.54 36.89 12.93 36.61 14.61 36.11C18.37 34.98 23.3 32.8 28.47 29.82L28.68 29.69L33.02 27.02C34.09 26.32 35.11 25.61 36.06 24.92C39.13 22.68 41.52 20.57 42.99 18.83C43.56 18.15 43.96 17.58 44.21 17.11C44.34 16.93 44.41 16.76 44.44 16.59C44.49 16.44 44.51 16.33 44.52 16.27C44.5 16.26 44.46 16.24 44.42 16.23C44.25 15.71 43.48 15.25 41.91 14.88C40.63 14.58 39.49 14.27 38.44 13.98C40.28 13.45 41.94 13.14 43.31 13.12C44.64 13.1 46.34 13.35 47.15 14.75C47.75 15.8 47.54 16.96 47.17 17.86C46.79 18.79 46.11 19.78 45.28 20.76C43.59 22.74 41 25.02 37.83 27.33C36.84 28.05 35.78 28.78 34.67 29.51L30.21 32.26" fill="white"/>
<path fill-rule="evenodd" clip-rule="evenodd" d="M15.66 12.87L15.74 13L15.87 13.2C16.46 14.12 16.94 14.87 17.15 15.28C17.18 15.34 17.2 15.39 17.22 15.43C17.27 15.55 17.27 15.61 17.22 15.61C16.1 15.84 15.15 16.05 14.34 16.26L14.27 16.28C9.90998 17.42 9.93998 18.52 10.09 23.09C10.12 24.06 10.16 25.19 10.16 26.5C10.16 29.24 10.88 32.26 12.13 35.11C13.05 34.81 13.99 34.47 14.96 34.09C13.8 31.53 13.16 28.84 13.16 26.5C13.16 25.37 13.13 24.38 13.11 23.52C13.11 23.33 13.1 23.14 13.09 22.97C13.07 22.35 13.05 21.83 13.05 21.36C13.05 20.76 13.06 20.36 13.1 20.08C13.11 19.97 13.13 19.9 13.14 19.85C13.21 19.8 13.35 19.73 13.6 19.63C14.38 19.32 15.63 19.01 17.79 18.56C18.22 18.48 18.71 18.3 19.17 17.91C19.84 17.35 20.11 16.65 20.2 16.17C20.35 15.41 20.17 14.79 20.13 14.65C20.01 14.25 19.83 13.91 19.75 13.76C19.55 13.38 19.25 12.9 18.96 12.44C18.78 12.15 18.58 11.85 18.38 11.54C17.89 10.77 17.35 9.92997 16.83 9.06997C16.73 8.90997 16.64 8.74997 16.55 8.59997C21.66 8.59997 30.86 8.59997 35.94 8.59997C35.86 8.74997 35.77 8.89997 35.68 9.04997C35.05 10.12 34.36 11.19 33.78 12.1L33.6 12.39C33.31 12.85 33.02 13.29 32.82 13.63C32.73 13.78 32.6 14.01 32.49 14.25C32.45 14.34 32.32 14.64 32.24 15.03C32.21 15.2 32.12 15.73 32.3 16.38C32.54 17.25 33.25 18.21 34.5 18.52L34.57 18.54H34.64C36.25 18.86 37.35 19.11 38.14 19.34C38.95 18.52 39.67 17.71 40.29 16.93C39.75 16.69 39.08 16.48 38.25 16.26L38.13 16.23C37.32 16.03 36.35 15.83 35.21 15.61C35.19 15.61 35.2 15.56 35.24 15.48C35.24 15.48 35.24 15.46 35.25 15.45C35.39 15.17 35.79 14.54 36.31 13.73C36.45 13.51 36.6 13.28 36.75 13.04L36.85 12.88C37.69 11.56 38.67 9.96997 39.34 8.61997C39.4 8.49997 39.45 8.38997 39.5 8.27997C40.21 6.75997 40.44 5.61997 39.5 5.61997C39.32 5.61997 38.55 5.61997 37.38 5.61997C31.27 5.61997 14.21 5.59997 12.92 5.61997C11.98 5.62997 12.23 6.77997 12.96 8.28997C13.01 8.39997 13.06 8.49997 13.12 8.60997C13.81 9.96997 14.81 11.56 15.66 12.88V12.87ZM13.06 19.9C13.06 19.9 13.06 19.9 13.08 19.88C13.07 19.89 13.06 19.9 13.06 19.9ZM37.14 6.05997C37.14 6.05997 37.14 6.06997 37.14 6.10997C37.14 6.07997 37.14 6.05997 37.14 6.05997ZM15.29 6.02997C15.29 6.02997 15.29 6.04997 15.29 6.06997C15.29 6.03997 15.28 6.01997 15.29 6.02997ZM14.48 16.64C14.48 16.64 14.48 16.64 14.47 16.62C14.47 16.64 14.48 16.64 14.48 16.64Z" fill="white"/>
<path d="M40.32 27.5C40.78 28.77 41.02 30.12 41.02 31.5C41.02 37.96 35.76 43.22 29.3 43.22C25.78 43.22 22.52 41.65 20.33 39.05C20.31 39.03 23.19 37.73 23.23 37.76C24.82 39.31 26.99 40.22 29.3 40.22C34.11 40.22 38.02 36.31 38.02 31.5C38.02 30.85 37.95 30.2 37.81 29.57L40.32 27.5Z" fill="white"/>
<path d="M45.98 23.24C46.27 23.94 46.96 24.61 47.93 24.61H50.99C52.62 24.61 53.96 25.93 53.99 27.56L54.07 31.9C54.08 32.71 53.78 33.48 53.21 34.06C52.64 34.64 51.88 34.96 51.07 34.96H48.31C47.21 34.96 46.5 35.82 46.28 36.66C46.07 37.47 45.99 38.58 46.81 39.33L48.92 41.27C49.52 41.82 49.86 42.57 49.89 43.38C49.92 44.19 49.62 44.96 49.06 45.55L45.73 49.04C44.6 50.23 42.7 50.28 41.5 49.16L39.04 46.85C38.31 46.17 37.29 46.28 36.56 46.49C35.83 46.7 34.97 47.34 34.97 48.43V51.41C34.97 53.06 33.62 54.41 31.97 54.41H27.67C26.02 54.41 24.67 53.06 24.67 51.41V48.53C24.67 47.69 24.15 46.94 23.08 46.23C22.26 45.69 21.24 45.76 20.53 46.42L18.07 48.73C16.89 49.84 15.07 49.82 13.91 48.69L10.92 45.75C10.34 45.18 10.02 44.41 10.02 43.59C10.02 42.77 10.35 42.01 10.94 41.44C10.94 41.44 14.07 40.94 15.09 40.7C15.36 40.64 16.15 40.48 16.15 40.48C15.95 40.77 15.44 41.28 15.18 41.54L13.03 43.61L16.02 46.55L18.48 44.24C20.19 42.63 22.76 42.42 24.74 43.73C27.16 45.34 27.67 47.23 27.67 48.53V51.41H31.97V48.43C31.97 45.84 33.86 44.14 35.73 43.6C37.82 43 39.72 43.37 41.09 44.66L43.55 46.97L46.88 43.48L44.77 41.54C43.3 40.19 42.79 38.13 43.37 35.9C43.97 33.57 46 31.95 48.3 31.95H51.06L50.98 27.61H47.92C46.22 27.61 44.67 26.75 43.73 25.38" fill="white"/>
</svg>
