<svg width="60" height="60" viewBox="0 0 60 60" fill="none" xmlns="http://www.w3.org/2000/svg">
<circle cx="30.7174" cy="30.7174" r="10.2174" stroke="white" stroke-width="3"/>
<path d="M27.0594 12.3311V9.00011C27.0594 8.1717 27.731 7.50013 28.5594 7.50011L32.8633 7.50005C33.6917 7.50003 34.3633 8.17161 34.3633 9.00005V12.2211C34.3633 14.0027 35.6813 15.1303 36.7969 15.6497C38.0765 16.2454 39.7946 16.2474 41.012 14.9985L43.5315 12.4136C44.1108 11.8193 45.0626 11.8083 45.6554 12.3891L48.5755 15.25C49.1755 15.8378 49.176 16.8037 48.5765 17.392L46.2245 19.7003C44.9313 20.9695 44.9932 22.7094 45.3037 23.9103C45.7009 25.4464 47.0566 26.7063 48.8125 26.7063H51.8733C52.6916 26.7063 53.359 27.3623 53.373 28.1805L53.4477 32.5221C53.4622 33.3605 52.7865 34.0479 51.948 34.0479H49.1904C47.3764 34.0479 46.0934 35.396 45.7097 36.8743C45.4055 38.0463 45.3272 39.7892 46.6765 41.028L48.7885 42.9672C49.4071 43.5351 49.439 44.5003 48.8591 45.1078L45.5276 48.5982C44.9586 49.1943 44.0153 49.2198 43.415 48.6553L40.957 46.3441C39.711 45.1724 38.0916 45.3284 37.0372 45.6319C35.6316 46.0365 34.3633 47.2668 34.3633 49.0165V51.9998C34.3633 52.8282 33.6917 53.4998 32.8633 53.4998L28.5593 53.4999C27.7309 53.5 27.0592 52.8283 27.0593 51.9999L27.0594 49.1178C27.0594 47.2993 25.6989 46.1652 24.7999 45.5689C23.4417 44.668 21.6326 44.7548 20.3957 45.9179L17.9383 48.2285C17.3519 48.78 16.4347 48.7702 15.8602 48.2064L12.8672 45.2693C12.2638 44.6772 12.2686 43.7037 12.8779 43.1177L15.0299 41.0476C16.3411 39.7863 16.3366 38.0017 15.7676 36.6737C15.2372 35.4357 14.0385 34.0479 12.1708 34.0479H9.12673C8.30836 34.0479 7.64103 33.392 7.62695 32.5737L7.55227 28.2321C7.53785 27.3937 8.21353 26.7063 9.05205 26.7063H12.4045C14.1202 26.7063 15.1889 25.416 15.73 24.6089C16.6315 23.2642 16.5113 21.4809 15.3099 20.3018L12.8103 17.8486C12.2179 17.2672 12.2103 16.3153 12.7933 15.7245L16.0309 12.4436C16.6208 11.8458 17.5865 11.8488 18.1727 12.4502L20.7334 15.0773C21.8947 16.2688 23.5875 16.3205 24.8608 15.5917C25.7311 15.0934 27.0594 14.0696 27.0594 12.3311Z" stroke="white" stroke-width="3"/>
</svg>
