<svg width="60" height="62" viewBox="0 0 60 62" fill="none" xmlns="http://www.w3.org/2000/svg">
<path fill-rule="evenodd" clip-rule="evenodd" d="M18.6997 15.9921C17.7808 16.5466 16.7714 16.9608 15.6997 17.2059V18.3363H11V17.1737C9.92602 16.9123 8.91645 16.4807 8 15.9082V20.3363C8 20.8886 8.44772 21.3363 9 21.3363H17.6997C18.252 21.3363 18.6997 20.8886 18.6997 20.3363V15.9921Z" fill="white"/>
<path d="M20.7207 7.5772C21.3828 7.60557 21.9053 7.64659 22.2938 7.6985C21.8516 12.3648 18.0176 15.9632 13.4182 15.9632C8.79953 15.9632 4.95282 12.3347 4.53719 7.6401C4.91635 7.58871 5.43444 7.55056 6.10244 7.52782C7.29768 7.48714 8.77147 7.49901 10.4554 7.51258C11.383 7.52006 12.3744 7.52804 13.4182 7.52804C14.0662 7.52804 14.6963 7.52657 15.3046 7.52514C17.4292 7.52016 19.2881 7.5158 20.7207 7.5772Z" stroke="white" stroke-width="3"/>
<path d="M34.3946 7.50081C35.958 7.49871 39.0664 7.50104 41.0401 7.50276C40.8896 7.82051 40.7136 8.16981 40.5212 8.53663C40.1466 9.25085 39.7441 9.96766 39.4142 10.5553C39.3812 10.614 39.349 10.6713 39.3177 10.7273C39.1491 11.0277 38.9964 11.3012 38.8905 11.5024C38.8409 11.5968 38.7823 11.7113 38.7365 11.8173C38.7197 11.8565 38.67 11.9719 38.6354 12.1143L38.6351 12.1155C38.6224 12.1679 38.5736 12.3685 38.5977 12.6242C38.6204 12.8661 38.8007 13.7185 39.7398 13.9475L39.7742 13.9559L39.8089 13.9627C40.7408 14.1439 41.2737 14.3041 41.5772 14.4411C41.6372 14.4682 41.6811 14.4911 41.7122 14.5091C41.7154 14.5624 41.7176 14.648 41.7131 14.7779C41.7105 14.8521 41.7037 14.9652 41.6955 15.1027C41.6761 15.428 41.6485 15.8905 41.6485 16.302C41.6485 17.2437 41.3163 19.0624 40.7262 20.6487C40.4332 21.4364 40.1126 22.0664 39.8076 22.4702C39.6515 22.6769 39.5479 22.7635 39.5013 22.7962H39.4878H39.4673H39.4469H39.4266H39.4063H39.3862H39.366H39.346H39.326H39.3061H39.2863H39.2665H39.2468H39.2272H39.2076H39.1881H39.1687H39.1493H39.13H39.1108H39.0916H39.0725H39.0535H39.0345H39.0156H38.9967H38.978H38.9592H38.9406H38.922H38.9035H38.8851H38.8667H38.8483H38.8301H38.8119H38.7937H38.7757H38.7577H38.7397H38.7218H38.704H38.6862H38.6686H38.6509H38.6333H38.6158H38.5984H38.581H38.5637H38.5464H38.5292H38.512H38.4949H38.4779H38.4609H38.444H38.4272H38.4104H38.3937H38.377H38.3604H38.3438H38.3273H38.3109H38.2945H38.2782H38.2619H38.2457H38.2295H38.2134H38.1974H38.1814H38.1655H38.1496H38.1338H38.118H38.1023H38.0867H38.0711H38.0555H38.0401H38.0246H38.0092H37.9939H37.9787H37.9634H37.9483H37.9332H37.9181H37.9031H37.8882H37.8733H37.8584H37.8437H37.8289H37.8142H37.7996H37.785H37.7705H37.756H37.7416H37.7272H37.7129H37.6986H37.6844H37.6702H37.6561H37.642H37.628H37.614H37.6001H37.5862H37.5724H37.5586H37.5448H37.5312H37.5175H37.5039H37.4904H37.4769H37.4635H37.4501H37.4367H37.4234H37.4101H37.3969H37.3838H37.3706H37.3576H37.3445H37.3316H37.3186H37.3057H37.2929H37.2801H37.2673H37.2546H37.2419H37.2293H37.2167H37.2042H37.1917H37.1792H37.1668H37.1545H37.1421H37.1299H37.1176H37.1054H37.0933H37.0812H37.0691H37.057H37.0451H37.0331H37.0212H37.0093H36.9975H36.9857H36.974H36.9623H36.9506H36.939H36.9274H36.9158H36.9043H36.8929H36.8814H36.87H36.8587H36.8473H36.8361H36.8248H36.8136H36.8024H36.7913H36.7802H36.7692H36.7581H36.7472H36.7362H36.7253H36.7144H36.7036H36.6928H36.682H36.6713H36.6606H36.6499H36.6393H36.6287H36.6181H36.6076H36.5971H36.5866H36.5762H36.5658H36.5554H36.5451H36.5348H36.5245H36.5143H36.5041H36.4939H36.4838H36.4737H36.4636H36.4535H36.4435H36.4335H36.4236H36.4137H36.4038H36.3939H36.3841H36.3743H36.3645H36.3547H36.345H36.3353H36.3257H36.316H36.3064H36.2969H36.2873H36.2778H36.2683H36.2588H36.2494H36.24H36.2306H36.2213H36.2119H36.2026H36.1933H36.1841H36.1749H36.1657H36.1565H36.1473H36.1382H36.1291H36.12H36.111H36.102H36.093H36.084H36.075H36.0661H36.0572H36.0483H36.0394H36.0306H36.0218H36.013H36.0042H35.9954H35.9867H35.978H35.9693H35.9606H35.952H35.9434H35.9348H35.9262H35.9176H35.9091H35.9005H35.892H35.8835H35.8751H35.8666H35.8582H35.8498H35.8414H35.833H35.8247H35.8163H35.808H35.7997H35.7914H35.7832H35.7749H35.7667H35.7585H35.7503H35.7421H35.7339H35.7258H35.7176H35.7095H35.7014H35.6933H35.6852H35.6772H35.6691H35.6611H35.6531H35.6451H35.6371H35.6291H35.6211H35.6132H35.6053H35.5973H35.5894H35.5815H35.5736H35.5658H35.5579H35.5501H35.5422H35.5344H35.5266H35.5188H35.511H35.5032H35.4954H35.4877H35.4799H35.4722H35.4644H35.4567H35.449H35.4413H35.4336H35.4259H35.4182H35.4106H35.4029H35.3952H35.3876H35.38H35.3723H35.3647H35.3571H35.3495H35.3419H35.3343H35.3267H35.3191H35.3115H35.304H35.2964H35.2888H35.2813H35.2737H35.2662H35.2587H35.2511H35.2436H35.2361H35.2285H35.221H35.2135H35.206H35.1985H35.191H35.1835H35.176H35.1685H35.161H35.1535H35.146H35.1385H35.131H35.1235H35.116H35.1085H35.1011H35.0936H35.0861H35.0786H35.0711H35.0636H35.0562H35.0487H35.0412H35.0337H35.0262H35.0187H35.0112H35.0037H34.9962H34.9888H34.9813H34.9738H34.9662H34.9587H34.9512H34.9437H34.9362H34.9287H34.9212H34.9136H34.9061H34.8986H34.891H34.8835H34.8759H34.8684H34.8608H34.8533H34.8457H34.8381H34.8305H34.8229H34.8153H34.8077H34.8001H34.7925H34.7849H34.7773H34.7696H34.762H34.7543H34.7467H34.739H34.7313H34.7236H34.7159H34.7082H34.7005H34.6928H34.6851H34.6773H34.6696H34.6618H34.6541H34.6463H34.6385H34.6307H34.6229H34.615H34.6072H34.5993H34.5915H34.5836H34.5757H34.5678H34.5599H34.552H34.5441H34.5361H34.5282H34.5202H34.5122H34.5042H34.4962H34.4881H34.4801H34.472H34.464H34.4559H34.4478H34.4397H34.4315H34.4234H34.4152H34.407H34.3988H34.3906H34.3824H34.3741H34.3659H34.3576H34.3493H34.341H34.3326H34.3243H34.3159H34.3075H34.2991H34.2907H34.2822H34.2738H34.2653H34.2568H34.2482H34.2397H34.2311H34.2226H34.214H34.2053H34.1967H34.188H34.1793H34.1706H34.1619H34.1531H34.1444H34.1356H34.1268H34.1254C34.0827 22.7659 34.0057 22.7031 33.8953 22.5816C33.6251 22.2843 33.3062 21.7935 32.9996 21.124C32.388 19.7882 31.9434 18.0018 31.9434 16.302C31.9434 15.8675 31.9157 15.4201 31.8956 15.0958C31.8877 14.9679 31.881 14.8591 31.8776 14.7778C31.871 14.6186 31.8734 14.5195 31.8769 14.4618C31.8962 14.4503 31.921 14.4366 31.9521 14.4208C32.1907 14.2998 32.6281 14.1481 33.4213 13.9717C34.1449 13.8602 34.4731 13.2784 34.5508 13.1147C34.6566 12.8916 34.6857 12.6905 34.6954 12.6192C34.7191 12.4447 34.7168 12.2737 34.7139 12.1701C34.7073 11.9365 34.6816 11.6371 34.6529 11.3369C34.6352 11.1504 34.6153 10.9533 34.5945 10.748C34.5442 10.2491 34.489 9.70222 34.4475 9.14277C34.4005 8.51018 34.3782 7.94206 34.3946 7.50081ZM41.779 14.554C41.7788 14.554 41.7768 14.5524 41.7733 14.549C41.7775 14.5522 41.7792 14.554 41.779 14.554ZM31.8157 14.5032C31.8156 14.5032 31.8166 14.5023 31.8189 14.5004C31.8169 14.5023 31.8158 14.5032 31.8157 14.5032Z" stroke="white" stroke-width="3"/>
<path d="M31.9254 19.099C29.8503 15.0585 26.8857 14.8433 26.8857 11.0179C26.8857 8.42058 29.8503 6.68901 34.0006 8.99784" stroke="white" stroke-width="3"/>
<path d="M10.2227 26.4607C10.2227 26.4608 10.2229 26.4622 10.2232 26.4651C10.2228 26.4621 10.2226 26.4607 10.2227 26.4607ZM10.8712 28.0864C10.8014 27.9412 10.7359 27.8014 10.6752 27.6683C12.7139 27.667 16.1067 27.6696 18.1421 27.6714C18.085 27.8002 18.0233 27.9352 17.9575 28.0755C17.7001 28.6243 17.4177 29.176 17.1808 29.6387C17.1554 29.6884 17.1305 29.7371 17.1062 29.7846C16.986 30.0197 16.8717 30.2446 16.792 30.4142C16.7556 30.4916 16.7051 30.6022 16.6654 30.7126L16.6653 30.713C16.6508 30.7534 16.6037 30.8844 16.5797 31.0494C16.5698 31.1175 16.5405 31.3325 16.5983 31.5977C16.6623 31.8915 16.9109 32.5001 17.6321 32.7192L17.6732 32.7317L17.715 32.7418C18.6163 32.9602 19.0827 33.1053 19.3488 33.2367C19.3954 33.2596 19.4264 33.2779 19.4459 33.2905C19.4714 33.3847 19.504 33.6191 19.4982 34.2137C19.4963 34.4072 19.4896 34.6641 19.4818 34.9633C19.4678 35.4967 19.4504 36.1647 19.4504 36.8488C19.4504 38.78 18.7987 41.1003 17.7367 42.9139C16.6243 44.8138 15.3765 45.6676 14.3978 45.6676C13.419 45.6676 12.1712 44.8138 11.0588 42.9139C9.99682 41.1003 9.34513 38.78 9.34513 36.8488C9.34513 36.1924 9.32868 35.5184 9.31564 34.9841C9.30806 34.6735 9.30163 34.4102 9.30025 34.2249C9.29587 33.6351 9.32973 33.4068 9.3545 33.3175C9.37491 33.3038 9.40925 33.283 9.46301 33.2561C9.73318 33.1208 10.1972 32.9715 11.0819 32.7418C11.3346 32.6812 11.5972 32.5505 11.8194 32.319C12.1101 32.0161 12.195 31.6808 12.2229 31.5077C12.2726 31.1991 12.2129 30.9473 12.1986 30.887C12.1982 30.8855 12.1979 30.8841 12.1976 30.8829C12.1569 30.7103 12.0916 30.554 12.0583 30.476C11.9772 30.2861 11.8585 30.0465 11.7396 29.8113C11.6658 29.6654 11.587 29.5116 11.5052 29.3518C11.3035 28.958 11.083 28.5273 10.8712 28.0864ZM18.5753 26.4782C18.5756 26.4742 18.5759 26.4721 18.576 26.4721C18.576 26.472 18.5759 26.474 18.5753 26.4782Z" stroke="white" stroke-width="3"/>
<path d="M37.9752 54.0607L42.0928 54.0611C43.3547 54.0612 44.4519 54.8032 45.5686 55.388C46.2627 55.7515 47.0494 55.8436 48.0575 55.7468C50.2709 55.534 55.9873 52.3398 56.2952 50.255C56.6031 48.1701 54.0569 42.0361 52.3481 41.6654C51.3997 41.4597 48.4193 42.091 46.2502 43.0039C45.0525 43.508 43.3634 43.317 42.5494 42.3077C40.5441 39.8216 38.1265 37.4606 36.4689 38.7C35.2002 39.6488 37.3713 43.1751 39.3148 45.8485C40.3761 47.3084 39.5881 49.439 37.8035 49.7581L37.5779 49.7984C36.2476 50.0363 35.4623 51.4087 35.9385 52.6633C36.2575 53.5035 37.0695 54.0606 37.9752 54.0607Z" stroke="white" stroke-width="3"/>
<path fill-rule="evenodd" clip-rule="evenodd" d="M43.1963 38.0303C43.1964 38.0227 43.1964 38.0152 43.1964 38.0076C43.1964 34.695 40.4103 31.8666 36.7946 31.8666C33.1789 31.8666 30.3929 34.695 30.3929 38.0076C30.3929 40.2187 31.6341 42.2141 33.5349 43.2966C33.6627 43.5628 33.8015 43.8281 33.9512 44.0917C34.0734 44.3069 34.2005 44.5165 34.332 44.7205C33.7922 45.2481 33.306 45.7839 32.8787 46.3204C29.6413 44.8764 27.3929 41.6973 27.3929 38.0076C27.3929 32.9591 31.6022 28.8666 36.7946 28.8666C41.9871 28.8666 46.1964 32.9591 46.1964 38.0076C46.1964 38.093 46.1952 38.1781 46.1928 38.2629C45.4014 38.4488 44.5873 38.6877 43.7607 38.9793C43.7147 38.8941 43.6677 38.8091 43.6195 38.7243C43.4842 38.4861 43.3429 38.2547 43.1963 38.0303Z" fill="white"/>
</svg>
