<svg width="60" height="60" viewBox="0 0 60 60" fill="none" xmlns="http://www.w3.org/2000/svg">
<path d="M20.6989 7.07429C21.6054 7.11239 22.2762 7.17498 22.7041 7.26444C22.444 12.1183 18.4433 15.9672 13.5545 15.9672C8.64781 15.9672 4.63583 12.0902 4.40212 7.21131C4.40394 7.2109 4.40578 7.21049 4.40762 7.21008C4.82423 7.1172 5.4883 7.05737 6.40143 7.02689C7.57702 6.98764 9.03238 6.99912 10.6836 7.01213C11.5866 7.01925 12.5481 7.02683 13.5545 7.02683C14.1821 7.02683 14.7938 7.02542 15.3854 7.02405C17.4606 7.01927 19.2894 7.01505 20.6989 7.07429Z" stroke="white" stroke-width="2"/>
<path fill-rule="evenodd" clip-rule="evenodd" d="M18.774 15.5215C18.1479 15.8985 17.4781 16.2097 16.774 16.4456V18.3708H10.3362V16.4456C9.63206 16.2097 8.96224 15.8985 8.33618 15.5215V18.3708C8.33618 19.4754 9.23161 20.3708 10.3362 20.3708H16.774C17.8786 20.3708 18.774 19.4754 18.774 18.3708V15.5215Z" fill="white"/>
<path d="M9.18267 24.3995C11.3346 24.3965 16.3952 24.4006 18.5353 24.4023C18.4183 24.6758 18.2646 24.9939 18.0866 25.3373C17.8152 25.861 17.5177 26.387 17.2713 26.8226C17.2447 26.8695 17.2188 26.9154 17.1935 26.9601C17.0675 27.1831 16.9518 27.3893 16.8723 27.5425C16.8353 27.6137 16.7895 27.705 16.7548 27.7923C16.7421 27.8246 16.7032 27.9228 16.6834 28.0456C16.6752 28.0967 16.6514 28.2559 16.6983 28.4506C16.7559 28.6899 16.9536 29.0606 17.4098 29.186L17.4351 29.193L17.4608 29.1986C18.394 29.4032 18.9455 29.5526 19.2929 29.7077C19.5842 29.8379 19.6187 29.9209 19.6366 29.964C19.6371 29.9653 19.6377 29.9666 19.6382 29.9679C19.693 30.0981 19.7342 30.3526 19.7273 30.987C19.7252 31.1814 19.718 31.4289 19.7097 31.7141C19.6953 32.2113 19.6775 32.8232 19.6775 33.4684C19.6775 35.3466 18.9808 37.5924 17.8386 39.358C16.6744 41.1574 15.2313 42.197 13.8514 42.197C12.4714 42.197 11.0284 41.1574 9.86418 39.358C8.72194 37.5924 8.02525 35.3466 8.02525 33.4684C8.02525 32.8464 8.00855 32.2332 7.99505 31.7371C7.98699 31.4409 7.98006 31.1864 7.9785 30.9969C7.97334 30.3682 8.01592 30.1196 8.06999 29.9935C8.07046 29.9924 8.07094 29.9913 8.07143 29.9901C8.08948 29.9475 8.12557 29.8625 8.42387 29.7274C8.77206 29.5697 9.31876 29.4158 10.236 29.2002C10.3952 29.1671 10.5695 29.0917 10.7241 28.9459C10.934 28.7481 11.0036 28.5174 11.0275 28.3831C11.0683 28.1537 11.019 27.9652 11.0069 27.9189C11.0066 27.9179 11.0064 27.9169 11.0062 27.916C10.9717 27.7835 10.915 27.6596 10.8816 27.5887C10.8029 27.4221 10.6851 27.2063 10.5607 26.9838C10.4856 26.8494 10.4047 26.7063 10.3201 26.5568C10.1092 26.184 9.87547 25.771 9.65238 25.3507C9.46703 25.0015 9.30582 24.6779 9.18267 24.3995Z" stroke="white" stroke-width="2"/>
<path d="M25.5112 13.1992H54.8049" stroke="white" stroke-width="3"/>
<path fill-rule="evenodd" clip-rule="evenodd" d="M41.8431 35.1038L54.8036 35.1038L54.8036 32.1008L40.58 32.1008C41.1113 32.9743 41.5454 33.9899 41.8431 35.1038ZM31.1083 35.1038C31.1989 34.0025 31.4426 32.9831 31.8144 32.1008L25.5104 32.1008L25.5104 35.1038L31.1083 35.1038Z" fill="white"/>
<path d="M31.2055 47.7172L35.0288 49.246C36.2005 49.7145 36.9439 50.8107 37.7638 51.7683C38.2733 52.3634 38.9697 52.741 39.9417 53.0252C42.076 53.6492 48.5696 52.805 49.6294 50.9834C50.6891 49.1618 50.6017 42.5208 49.1525 41.5424C48.3482 40.9993 45.3464 40.4793 42.9935 40.5218C41.6942 40.5453 40.1967 39.741 39.8154 38.5016C38.8762 35.4488 37.5076 32.3591 35.5085 32.8948C33.9782 33.3048 34.6853 37.3851 35.4976 40.5889C35.9412 42.3385 34.4187 44.0244 32.6431 43.6582L32.4187 43.6119C31.0951 43.339 29.8565 44.3219 29.8331 45.6637C29.8174 46.5622 30.3645 47.3809 31.2055 47.7172Z" stroke="white" stroke-width="3"/>
</svg>
