<svg width="60" height="60" viewBox="0 0 60 60" fill="none" xmlns="http://www.w3.org/2000/svg">
<path fill-rule="evenodd" clip-rule="evenodd" d="M20.6032 9.60156H10C7.79086 9.60156 6 11.3924 6 13.6016V21.8299H9V13.6016C9 13.0493 9.44772 12.6016 10 12.6016H20.6032V9.60156ZM37.9444 12.6016V9.60156H48C50.2091 9.60156 52 11.3924 52 13.6016V21.8299H49V13.6016C49 13.0493 48.5523 12.6016 48 12.6016H37.9444ZM37.9444 48.7682H48C48.5523 48.7682 49 48.3205 49 47.7682V39.1711H52V47.7682C52 49.9774 50.2091 51.7682 48 51.7682H37.9444V48.7682ZM9 39.1711V47.7682C9 48.3205 9.44772 48.7682 10 48.7682H20.6032V51.7682H10C7.79086 51.7682 6 49.9774 6 47.7682V39.1711H9Z" fill="white"/>
<path d="M14.7617 25.2081C14.7617 27.7789 21.3651 35.8867 29.5107 35.8867C37.6564 35.8867 44.2598 27.7789 44.2598 25.2081" stroke="white" stroke-width="3"/>
<path d="M44.8809 35.8867L40.6146 30.7117" stroke="white" stroke-width="3"/>
<path d="M37.8418 40.0586L35.1317 33.8491" stroke="white" stroke-width="3"/>
<path d="M24.4365 33.8516L21.7259 40.0608" stroke="white" stroke-width="3"/>
<path d="M29.2529 34.793L29.2529 41.912" stroke="white" stroke-width="3"/>
<path d="M19.0742 31.043L14.808 36.218" stroke="white" stroke-width="3"/>
</svg>
