<svg width="60" height="60" viewBox="0 0 60 60" fill="none" xmlns="http://www.w3.org/2000/svg">
<path fill-rule="evenodd" clip-rule="evenodd" d="M21.7114 10H11C8.79086 10 7 11.7909 7 14V22.528H10V14C10 13.4477 10.4477 13 11 13H21.7114V10ZM38.6021 13V10H48.7683C50.9774 10 52.7683 11.7909 52.7683 14V22.528H49.7683V14C49.7683 13.4477 49.3206 13 48.7683 13H38.6021ZM38.6021 48.9543H48.7683C49.3206 48.9543 49.7683 48.5065 49.7683 47.9543V39.4186H52.7683V47.9543C52.7683 50.1634 50.9774 51.9543 48.7683 51.9543H38.6021V48.9543ZM10 39.4186V47.9543C10 48.5065 10.4477 48.9543 11 48.9543H21.7114V51.9543H11C8.79086 51.9543 7 50.1634 7 47.9543V39.4186H10Z" fill="white"/>
<path d="M34.9225 33.9759C34.9225 36.0254 33.0484 37.9246 30.429 37.9246C27.8096 37.9246 25.9355 36.0254 25.9355 33.9759C25.9355 31.9265 27.8096 30.0273 30.429 30.0273C33.0484 30.0273 34.9225 31.9265 34.9225 33.9759Z" stroke="white" stroke-width="3"/>
<path d="M44.2934 34.25C44.2931 34.2545 44.2906 34.3036 44.2635 34.4055C44.2349 34.513 44.1856 34.655 44.1072 34.8314C43.9495 35.1862 43.6985 35.6257 43.3466 36.1254C42.6436 37.1238 41.5991 38.2763 40.2862 39.368C37.6429 41.5657 34.0891 43.3746 30.2649 43.3746C26.4407 43.3746 22.8868 41.5657 20.2435 39.368C18.9306 38.2763 17.8861 37.1238 17.1831 36.1254C16.8312 35.6257 16.5802 35.1862 16.4225 34.8314C16.3441 34.655 16.2948 34.513 16.2662 34.4055C16.2392 34.3036 16.2366 34.2545 16.2364 34.25C16.2363 34.2496 16.2363 34.2495 16.2363 34.2498C16.2363 34.2501 16.2363 34.25 16.2364 34.2496C16.2366 34.2451 16.2392 34.196 16.2662 34.094C16.2948 33.9866 16.3441 33.8445 16.4225 33.6681C16.5802 33.3133 16.8312 32.8739 17.1831 32.3742C17.8861 31.3757 18.9306 30.2233 20.2435 29.1316C22.8868 26.9338 26.4407 25.125 30.2649 25.125C34.0891 25.125 37.6429 26.9338 40.2862 29.1316C41.5991 30.2233 42.6436 31.3757 43.3466 32.3742C43.6985 32.8739 43.9495 33.3133 44.1072 33.6681C44.1856 33.8445 44.2349 33.9866 44.2635 34.094C44.2906 34.196 44.2931 34.2451 44.2934 34.2496C44.2934 34.25 44.2934 34.2501 44.2934 34.2498C44.2934 34.2495 44.2934 34.2496 44.2934 34.25Z" stroke="white" stroke-width="3"/>
<path d="M14.083 23.625L18.5747 28.774" stroke="white" stroke-width="3"/>
<path d="M21.4932 19.4727L24.3465 25.6509" stroke="white" stroke-width="3"/>
<path d="M35.6094 25.6484L38.4632 19.4704" stroke="white" stroke-width="3"/>
<path d="M30.5381 24.7109V17.6278" stroke="white" stroke-width="3"/>
<path d="M41.2539 28.4414L45.7456 23.2924" stroke="white" stroke-width="3"/>
</svg>
