<svg width="48" height="48" viewBox="0 0 48 48" fill="none" xmlns="http://www.w3.org/2000/svg">
<path d="M23.5489 13.1631C23.8483 12.2418 25.1517 12.2418 25.4511 13.1631L27.0289 18.0193C27.4305 19.2553 28.5824 20.0922 29.8821 20.0922L34.9881 20.0922C35.9568 20.0922 36.3596 21.3318 35.5759 21.9012L31.445 24.9025C30.3936 25.6664 29.9536 27.0205 30.3552 28.2566L31.9331 33.1127C32.2324 34.034 31.1779 34.8002 30.3942 34.2307L26.2634 31.2295C25.2119 30.4656 23.7881 30.4656 22.7366 31.2295L18.6058 34.2308C17.8221 34.8001 16.7676 34.034 17.0669 33.1127L18.6448 28.2566C19.0464 27.0205 18.6064 25.6664 17.555 24.9025L13.4241 21.9012C12.6404 21.3318 13.0431 20.0922 14.0119 20.0922L19.1179 20.0922C20.4176 20.0922 21.5695 19.2553 21.9711 18.0193L23.5489 13.1631Z" stroke="white" stroke-width="2"/>
</svg>
