<svg width="48" height="48" viewBox="0 0 48 48" fill="none" xmlns="http://www.w3.org/2000/svg">
<path d="M22.5979 11.8541C23.1966 10.0115 25.8034 10.0115 26.4021 11.8541L27.98 16.7102C28.2477 17.5343 29.0156 18.0922 29.8821 18.0922L34.9881 18.0922C36.9256 18.0922 37.7311 20.5714 36.1637 21.7102L32.0328 24.7115C31.3318 25.2208 31.0385 26.1235 31.3063 26.9476L32.8841 31.8037C33.4828 33.6463 31.3739 35.1786 29.8064 34.0398L25.6756 31.0385C24.9746 30.5292 24.0254 30.5292 23.3244 31.0385L19.1936 34.0398C17.6261 35.1786 15.5172 33.6463 16.1159 31.8037L17.6937 26.9476C17.9615 26.1235 17.6682 25.2208 16.9672 24.7115L12.8363 21.7102C11.2689 20.5714 12.0744 18.0922 14.0119 18.0922L19.1179 18.0922C19.9844 18.0922 20.7523 17.5343 21.02 16.7102L22.5979 11.8541Z" fill="white"/>
</svg>
