<svg width="60" height="60" viewBox="0 0 60 60" fill="none" xmlns="http://www.w3.org/2000/svg">
<path fill-rule="evenodd" clip-rule="evenodd" d="M34.03 30.3872L43.2843 19.0305C43.8771 18.303 43.7679 17.2327 43.0405 16.6399C42.3131 16.047 41.2429 16.1562 40.6501 16.8836L31.8587 27.6723L34.03 30.3872ZM29.1642 36.3585L26.9929 33.6436L17.5412 45.2426C16.9484 45.97 17.0575 47.0403 17.785 47.6332C18.5124 48.226 19.5826 48.1169 20.1754 47.3894L29.1642 36.3585Z" fill="#F5F5F5"/>
<rect width="40.9265" height="3.21888" rx="1.60944" transform="matrix(-0.624594 -0.78095 0.780901 -0.624655 42.7012 49.8652)" fill="#F5F5F5"/>
<rect width="31.2503" height="3.39812" rx="1.69906" transform="matrix(0.142097 -0.989853 0.98985 0.142119 41.1562 49.2441)" fill="#F5F5F5"/>
<rect width="31.2695" height="3.49798" rx="1.74899" transform="matrix(-0.146268 -0.989245 -0.990424 0.138062 19.5674 49.7891)" fill="#F5F5F5"/>
<path d="M43.0277 48.867C43.0277 50.4476 41.9438 52.1399 39.6303 53.5183C37.3484 54.8778 34.0985 55.7673 30.4284 55.7673C26.7582 55.7673 23.5084 54.8778 21.2264 53.5183C18.913 52.1399 17.8291 50.4476 17.8291 48.867C17.8291 47.2865 18.913 45.5941 21.2264 44.2158C23.5084 42.8562 26.7582 41.9668 30.4284 41.9668C34.0985 41.9668 37.3484 42.8562 39.6303 44.2158C41.9438 45.5941 43.0277 47.2865 43.0277 48.867Z" stroke="white" stroke-width="3"/>
<path d="M42.4153 7.1256C43.3449 4.82073 45.967 3.70598 48.2718 4.63574L51.155 5.79881C53.4598 6.72856 54.5746 9.35074 53.645 11.6556L51.0715 18.036C50.7617 18.8043 49.8877 19.1759 49.1194 18.866L40.6719 15.4583C39.9036 15.1484 39.532 14.2743 39.8419 13.506L42.4153 7.1256Z" stroke="white" stroke-width="3"/>
<path d="M6.78124 12.31C5.78411 10.0335 6.82117 7.37965 9.09759 6.38238L11.9453 5.13487C14.2217 4.13761 16.8754 5.17461 17.8726 7.45109L20.6329 13.7529C20.9652 14.5117 20.6196 15.3964 19.8608 15.7288L11.5173 19.3839C10.7585 19.7163 9.87394 19.3707 9.54156 18.6118L6.78124 12.31Z" stroke="white" stroke-width="3"/>
</svg>
