<svg width="115" height="115" viewBox="0 0 115 115" fill="none" xmlns="http://www.w3.org/2000/svg">
<mask id="path-1-inside-1_478_408" fill="white">
<path fill-rule="evenodd" clip-rule="evenodd" d="M55.0895 76.6688C56.2611 75.4972 58.1606 75.4972 59.3321 76.6688L75.0264 92.363C76.198 93.5346 78.0975 93.5346 79.269 92.363L92.3629 79.2691C93.5345 78.0976 93.5345 76.1981 92.3629 75.0265L76.6687 59.3322C75.4971 58.1607 75.4971 56.2612 76.6687 55.0896L92.3629 39.3954C93.5345 38.2238 93.5345 36.3243 92.3629 35.1527L79.269 22.0588C78.0975 20.8872 76.198 20.8872 75.0264 22.0588L59.3321 37.7531C58.1606 38.9246 56.2611 38.9246 55.0895 37.7531L39.395 22.0586C38.2234 20.887 36.3239 20.887 35.1524 22.0586L22.0585 35.1525C20.8869 36.324 20.8869 38.2235 22.0585 39.3951L37.753 55.0896C38.9245 56.2612 38.9245 58.1607 37.753 59.3322L22.0585 75.0268C20.8869 76.1983 20.8869 78.0978 22.0585 79.2694L35.1524 92.3633C36.3239 93.5349 38.2234 93.5349 39.395 92.3633L55.0895 76.6688Z"/>
</mask>
<path d="M37.753 59.3322L33.5103 55.0896L37.753 59.3322ZM55.0895 37.7531L50.8469 41.9957L55.0895 37.7531ZM79.269 22.0588L83.5117 17.8162L79.269 22.0588ZM75.0264 22.0588L70.7838 17.8162L75.0264 22.0588ZM92.3629 39.3954L96.6056 43.638L92.3629 39.3954ZM92.3629 35.1527L88.1203 39.3954L92.3629 35.1527ZM92.3629 79.2691L88.1203 75.0265L92.3629 79.2691ZM92.3629 75.0265L88.1203 79.2691L92.3629 75.0265ZM55.0895 76.6688L59.3321 80.9114L55.0895 76.6688ZM79.269 92.363L83.5117 96.6057L79.269 92.363ZM79.269 88.1204L63.5748 72.4261L55.0895 80.9114L70.7838 96.6057L79.269 88.1204ZM88.1203 75.0265L75.0264 88.1204L83.5117 96.6057L96.6056 83.5118L88.1203 75.0265ZM72.426 63.5749L88.1203 79.2691L96.6056 70.7839L80.9113 55.0896L72.426 63.5749ZM88.1203 35.1527L72.426 50.847L80.9113 59.3322L96.6056 43.638L88.1203 35.1527ZM75.0264 26.3015L88.1203 39.3954L96.6056 30.9101L83.5117 17.8162L75.0264 26.3015ZM63.5748 41.9957L79.269 26.3015L70.7838 17.8162L55.0895 33.5104L63.5748 41.9957ZM35.1524 26.3012L50.8469 41.9957L59.3321 33.5104L43.6376 17.8159L35.1524 26.3012ZM26.3011 39.3951L39.395 26.3012L30.9097 17.8159L17.8158 30.9098L26.3011 39.3951ZM41.9956 50.847L26.3011 35.1525L17.8158 43.6378L33.5103 59.3322L41.9956 50.847ZM26.3011 79.2694L41.9956 63.5749L33.5103 55.0896L17.8158 70.7841L26.3011 79.2694ZM39.395 88.1207L26.3011 75.0268L17.8158 83.512L30.9097 96.6059L39.395 88.1207ZM50.8469 72.4261L35.1524 88.1207L43.6376 96.6059L59.3321 80.9114L50.8469 72.4261ZM30.9097 96.6059C34.4244 100.121 40.1229 100.121 43.6376 96.6059L35.1524 88.1207C36.3239 86.9491 38.2234 86.9491 39.395 88.1207L30.9097 96.6059ZM17.8158 70.7841C14.3011 74.2988 14.3011 79.9973 17.8158 83.512L26.3011 75.0268C27.4727 76.1983 27.4727 78.0978 26.3011 79.2694L17.8158 70.7841ZM33.5103 59.3322C32.3387 58.1607 32.3387 56.2612 33.5103 55.0896L41.9956 63.5749C45.5103 60.0602 45.5103 54.3617 41.9956 50.847L33.5103 59.3322ZM17.8158 30.9098C14.3011 34.4245 14.3011 40.123 17.8158 43.6378L26.3011 35.1525C27.4727 36.324 27.4727 38.2235 26.3011 39.3951L17.8158 30.9098ZM43.6376 17.8159C40.1229 14.3012 34.4244 14.3012 30.9097 17.8159L39.395 26.3012C38.2234 27.4728 36.3239 27.4728 35.1524 26.3012L43.6376 17.8159ZM55.0895 33.5104C56.2611 32.3389 58.1606 32.3388 59.3321 33.5104L50.8469 41.9957C54.3616 45.5104 60.0601 45.5104 63.5748 41.9957L55.0895 33.5104ZM83.5117 17.8162C79.997 14.3015 74.2985 14.3015 70.7838 17.8162L79.269 26.3015C78.0975 27.473 76.198 27.473 75.0264 26.3015L83.5117 17.8162ZM96.6056 43.638C100.12 40.1233 100.12 34.4248 96.6056 30.9101L88.1203 39.3954C86.9487 38.2238 86.9487 36.3243 88.1203 35.1527L96.6056 43.638ZM80.9113 55.0896C82.0829 56.2612 82.0829 58.1607 80.9113 59.3322L72.426 50.847C68.9113 54.3617 68.9113 60.0602 72.426 63.5749L80.9113 55.0896ZM96.6056 83.5118C100.12 79.9971 100.12 74.2986 96.6056 70.7839L88.1203 79.2691C86.9487 78.0976 86.9487 76.1981 88.1203 75.0265L96.6056 83.5118ZM63.5748 72.4261C60.0601 68.9114 54.3616 68.9114 50.8469 72.4261L59.3321 80.9114C58.1606 82.083 56.2611 82.083 55.0895 80.9114L63.5748 72.4261ZM70.7838 96.6057C74.2985 100.12 79.997 100.12 83.5117 96.6057L75.0264 88.1204C76.198 86.9488 78.0975 86.9488 79.269 88.1204L70.7838 96.6057Z" fill="white" mask="url(#path-1-inside-1_478_408)"/>
</svg>
