<?xml version="1.0" encoding="UTF-8" standalone="no"?>
<svg
   width="128"
   height="128"
   viewBox="0 0 128 128"
   fill="none"
   version="1.1"
   id="svg4"
   sodipodi:docname="Favorited_Light_V2.svg"
   inkscape:version="1.1.1 (3bf5ae0d25, 2021-09-20)"
   xmlns:inkscape="http://www.inkscape.org/namespaces/inkscape"
   xmlns:sodipodi="http://sodipodi.sourceforge.net/DTD/sodipodi-0.dtd"
   xmlns="http://www.w3.org/2000/svg"
   xmlns:svg="http://www.w3.org/2000/svg">
  <defs
     id="defs8" />
  <sodipodi:namedview
     id="namedview6"
     pagecolor="#ffffff"
     bordercolor="#666666"
     borderopacity="1.0"
     inkscape:pageshadow="2"
     inkscape:pageopacity="0.0"
     inkscape:pagecheckerboard="true"
     showgrid="false"
     inkscape:zoom="2.814285"
     inkscape:cx="67.690373"
     inkscape:cy="46.903565"
     inkscape:window-width="1920"
     inkscape:window-height="1000"
     inkscape:window-x="-11"
     inkscape:window-y="-11"
     inkscape:window-maximized="1"
     inkscape:current-layer="svg4" />
  <path
     d="m 54.261224,9.4924015 c 3.065354,-9.43436095 16.412216,-9.43433635 19.47757,0 L 81.81767,34.356158 c 1.370628,4.219139 5.30229,7.075727 9.738785,7.075727 h 26.142805 c 9.92004,0 14.04421,12.693667 6.0191,18.524398 l -21.15028,15.366854 c -3.589136,2.607649 -5.090837,7.229533 -3.719696,11.448979 l 8.078366,24.863554 c 3.06535,9.43423 -7.732253,17.27971 -15.757881,11.44898 L 70.019101,107.7178 c -3.589132,-2.60765 -8.449052,-2.60765 -12.038185,0 l -21.150023,15.36685 c -8.025269,5.83073 -18.82313,-2.01475 -15.757776,-11.44898 L 29.151788,86.772116 C 30.522621,82.55267 29.020869,77.930786 25.431839,75.323137 L 4.2816775,59.956283 C -3.7435812,54.125552 0.38087445,41.431885 10.300652,41.431885 h 26.143014 c 4.436239,0 8.367951,-2.856588 9.738836,-7.075727 z"
     fill="#D9D9D9"
     id="path2"
     style="fill:#ffffff;stroke-width:5.12005" />
</svg>
