<?xml version="1.0" encoding="UTF-8" standalone="no"?>
<svg
   width="128"
   height="128"
   viewBox="0 0 128 128"
   fill="none"
   version="1.1"
   id="svg4"
   sodipodi:docname="Unfavorited_Light_V2.svg"
   inkscape:version="1.1.1 (3bf5ae0d25, 2021-09-20)"
   xmlns:inkscape="http://www.inkscape.org/namespaces/inkscape"
   xmlns:sodipodi="http://sodipodi.sourceforge.net/DTD/sodipodi-0.dtd"
   xmlns="http://www.w3.org/2000/svg"
   xmlns:svg="http://www.w3.org/2000/svg">
  <defs
     id="defs8" />
  <sodipodi:namedview
     id="namedview6"
     pagecolor="#ffffff"
     bordercolor="#666666"
     borderopacity="1.0"
     inkscape:pageshadow="2"
     inkscape:pageopacity="0.0"
     inkscape:pagecheckerboard="true"
     showgrid="false"
     inkscape:zoom="3.98"
     inkscape:cx="-19.723618"
     inkscape:cy="52.763819"
     inkscape:window-width="1920"
     inkscape:window-height="1000"
     inkscape:window-x="-11"
     inkscape:window-y="-11"
     inkscape:window-maximized="1"
     inkscape:current-layer="svg4" />
  <path
     d="m 59.199629,11.078208 c 1.532449,-4.7206072 8.203768,-4.7206583 9.736217,5.2e-5 l 8.075808,24.882106 c 2.055549,6.333443 7.951431,10.621495 14.603814,10.621495 h 26.134542 c 4.95819,0 7.01989,6.351528 3.0086,9.269051 L 99.615011,71.229141 c -5.381482,3.914113 -7.633578,10.852326 -5.57803,17.18592 l 8.076329,24.881949 c 1.53194,4.72061 -3.865422,8.64651 -7.87671,5.72847 L 73.09352,103.64777 c -5.381996,-3.914108 -12.669571,-3.914108 -18.051565,0 l -21.143233,15.37822 c -4.01134,2.91702 -9.408639,-1.00837 -7.876395,-5.72898 L 34.09839,88.415061 C 36.154042,82.081467 33.9021,75.143254 28.520309,71.229141 L 7.3768213,55.850912 C 3.3654764,52.933389 5.4270187,46.581861 10.385364,46.581861 H 36.52011 c 6.652279,0 12.548008,-4.288052 14.603659,-10.621495 z"
     stroke="#D9D9D9"
     stroke-width="10.2422"
     id="path2"
     style="stroke:#ffffff" />
</svg>
