<svg width="70" height="70" viewBox="0 0 70 70" fill="none" xmlns="http://www.w3.org/2000/svg">
<path d="M1.5 6C1.5 3.51472 3.51472 1.5 6 1.5H64C66.4853 1.5 68.5 3.51472 68.5 6V64C68.5 66.4853 66.4853 68.5 64 68.5H6C3.51472 68.5 1.5 66.4853 1.5 64V6Z" stroke="white" stroke-width="3"/>
<path fill-rule="evenodd" clip-rule="evenodd" d="M49.5819 49.998V51.8015C49.5819 54.563 47.3433 56.8015 44.5819 56.8015H37.7852C35.0237 56.8015 32.7852 54.563 32.7852 51.8015V50.4061C33.736 51.0222 34.7408 51.5333 35.789 51.9263C35.8534 52.9727 36.7225 53.8015 37.7852 53.8015H44.5819C45.6865 53.8015 46.5819 52.9061 46.5819 51.8015V51.6847C47.6329 51.238 48.6367 50.6712 49.5819 49.998Z" fill="white"/>
<path fill-rule="evenodd" clip-rule="evenodd" d="M43.5911 28.3222C44.7298 28.2816 45.8312 28.2229 46.8833 28.1667C53.3659 27.8208 57.9801 27.5746 57.9801 32.2915C57.9801 43.6477 50.3257 52.8537 40.8834 52.8537C37.3469 52.8537 34.0611 51.5622 31.3344 49.3501C32.3433 48.9425 33.3143 48.3998 34.2376 47.7471C36.2649 49.1034 38.5493 49.8537 40.8834 49.8537C48.1742 49.8537 54.9801 42.533 54.9801 32.2915C54.9801 31.841 54.9087 31.6373 54.8827 31.5778C54.867 31.5417 54.8621 31.5357 54.831 31.5122C54.6777 31.3967 54.1506 31.1459 52.7599 31.0471C51.4286 30.9525 49.7719 31.0188 47.6955 31.1278C47.4815 31.1391 47.2639 31.1507 47.0428 31.1625L47.0425 31.1625C45.9382 31.2215 44.7481 31.2851 43.5036 31.327C43.5618 30.7447 43.5917 30.1702 43.5917 29.6074C43.5917 29.1596 43.5917 28.7316 43.5911 28.3222Z" fill="white"/>
<path d="M16.3931 13.226C16.3933 13.2265 16.3934 13.2271 16.3936 13.2277C16.3909 13.217 16.3899 13.216 16.3931 13.226ZM20.7467 21.8832L20.7127 21.8914L20.6783 21.898C18.7184 22.2747 17.3935 22.5661 16.4593 22.8976C15.5474 23.2211 15.2017 23.5181 15.017 23.7863C14.8104 24.0863 14.6397 24.588 14.5602 25.6668C14.4958 26.5401 14.4984 27.6142 14.5018 29.0382C14.5026 29.3792 14.5035 29.7404 14.5035 30.1236C14.5035 33.6208 15.9811 37.8112 18.4264 41.1245C20.8841 44.4546 24.0889 46.6078 27.3979 46.6078C30.7069 46.6078 33.9117 44.4546 36.3694 41.1245C38.8147 37.8112 40.2924 33.6208 40.2924 30.1236C40.2924 29.7826 40.293 29.4592 40.2935 29.152C40.2963 27.6748 40.2983 26.573 40.2298 25.6855C40.1474 24.6182 39.9748 24.1261 39.7685 23.8312C39.5808 23.5628 39.2295 23.2659 38.3116 22.9357C37.3805 22.6007 36.0699 22.3001 34.1417 21.9031C33.9503 21.8707 33.7104 21.7935 33.4757 21.616C33.0736 21.3119 32.9175 20.8917 32.8816 20.5706C32.8298 20.1075 33.0091 19.7499 33.0395 19.6892C33.0407 19.6868 33.0417 19.6848 33.0424 19.6833C33.1441 19.4754 33.2869 19.2883 33.3666 19.1859C33.5608 18.9366 33.8474 18.611 34.1546 18.2689C34.3372 18.0655 34.5344 17.8482 34.7411 17.6204C35.2632 17.0451 35.8456 16.4033 36.4049 15.7523C36.7911 15.3029 37.1387 14.8801 37.4279 14.5023C33.0161 14.4961 21.8817 14.504 17.3389 14.5072C17.3009 14.5073 17.2633 14.5073 17.2261 14.5073C17.5079 14.8714 17.8436 15.2768 18.2161 15.707C18.8997 16.4965 19.6353 17.2886 20.2489 17.9495C20.3336 18.0406 20.4159 18.1293 20.4954 18.2151C20.8151 18.5598 21.1044 18.8742 21.3048 19.1075C21.3976 19.2155 21.5112 19.3518 21.6011 19.4833L21.6028 19.4859C21.6343 19.5319 21.7425 19.6901 21.8164 19.9007C21.8452 19.9829 21.9557 20.3021 21.875 20.7085C21.828 20.9453 21.712 21.226 21.4747 21.4693C21.2393 21.7106 20.9678 21.8299 20.7467 21.8832ZM38.2343 13.2471C38.2378 13.2363 38.2368 13.2371 38.234 13.2481C38.2341 13.2477 38.2342 13.2474 38.2343 13.2471ZM39.2008 14.5084C39.2025 14.5084 39.2036 14.5084 39.204 14.5084L39.2041 14.5084C39.203 14.5084 39.2019 14.5084 39.2008 14.5084Z" stroke="white" stroke-width="3"/>
<path d="M29.3161 38.7479L23.3872 33.2416C22.9612 32.8459 22.9612 32.1717 23.3872 31.7761L29.3161 26.2697C29.956 25.6755 30.9966 26.1293 30.9966 27.0025V29.2916C30.9966 29.5747 30.8767 29.8444 30.6666 30.0341L28.741 31.7715C28.3029 32.1668 28.3006 32.8535 28.7359 33.2518L30.6717 35.0228C30.8787 35.2122 30.9966 35.4798 30.9966 35.7604V38.0155C30.9966 38.8887 29.956 39.3422 29.3161 38.7479Z" fill="white"/>
</svg>
