<?xml version="1.0" encoding="UTF-8" standalone="no"?>
<svg
   width="128"
   height="128"
   viewBox="0 0 128 128"
   fill="none"
   version="1.1"
   id="svg6"
   sodipodi:docname="FlyoutSide_In_V2.svg"
   inkscape:version="1.1.1 (3bf5ae0d25, 2021-09-20)"
   xmlns:inkscape="http://www.inkscape.org/namespaces/inkscape"
   xmlns:sodipodi="http://sodipodi.sourceforge.net/DTD/sodipodi-0.dtd"
   xmlns="http://www.w3.org/2000/svg"
   xmlns:svg="http://www.w3.org/2000/svg">
  <defs
     id="defs10" />
  <sodipodi:namedview
     id="namedview8"
     pagecolor="#ffffff"
     bordercolor="#666666"
     borderopacity="1.0"
     inkscape:pageshadow="2"
     inkscape:pageopacity="0.0"
     inkscape:pagecheckerboard="true"
     showgrid="false"
     inkscape:zoom="4.1458333"
     inkscape:cx="52.462313"
     inkscape:cy="57.648242"
     inkscape:window-width="1920"
     inkscape:window-height="1000"
     inkscape:window-x="-11"
     inkscape:window-y="-11"
     inkscape:window-maximized="1"
     inkscape:current-layer="svg6" />
  <path
     d="m 16,4.0000011 h 96 c 6.62746,0 12,5.3725863 12,11.9999999 V 112 c 0,6.62746 -5.37254,12 -12,12 H 16 C 9.3725876,124 4.0000011,118.62746 4.0000011,112 V 16.000001 C 4.0000011,9.3725874 9.3725876,4.0000011 16,4.0000011 Z"
     stroke="#D9D9D9"
     stroke-width="8.00001"
     id="path2"
     style="stroke:#ffffff" />
  <path
     d="M 83.803999,29.603733 37.787467,61.815466 c -1.516533,1.061599 -1.516533,3.307465 0,4.369064 L 83.803999,98.396264 C 85.571466,99.63333 88,98.369004 88,96.211464 V 78.682398 C 88,77.799463 87.562933,76.973597 86.833067,76.47733 L 71.706399,66.189865 C 70.156267,65.135732 70.149067,62.853597 71.692269,61.78933 L 86.847203,51.339199 c 0.721866,-0.497867 1.1528,-1.316801 1.1528,-2.1936 V 31.783467 c 0,-2.157334 -2.428534,-3.416801 -4.196001,-2.179734 z"
     fill="#D9D9D9"
     id="path4"
     style="fill:#ffffff;stroke-width:2.66667" />
</svg>
