<svg width="48" height="48" viewBox="0 0 48 48" fill="none" xmlns="http://www.w3.org/2000/svg">
<path d="M6 1.5H42C44.4853 1.5 46.5 3.51472 46.5 6V42C46.5 44.4853 44.4853 46.5 42 46.5H6C3.51472 46.5 1.5 44.4853 1.5 42V6C1.5 3.51472 3.51472 1.5 6 1.5Z" stroke="#D9D9D9" stroke-width="3"/>
<path d="M17.5735 36.8986L34.8297 24.8192C35.3984 24.4211 35.3984 23.5789 34.8297 23.1808L17.5735 11.1014C16.9107 10.6375 16 11.1116 16 11.9207L16 18.4941C16 18.8252 16.1639 19.1349 16.4376 19.321L22.1101 23.1788C22.6914 23.5741 22.6941 24.4299 22.1154 24.829L16.4323 28.7478C16.1616 28.9345 16 29.2416 16 29.5704V36.0812C16 36.8902 16.9107 37.3625 17.5735 36.8986Z" fill="#D9D9D9"/>
</svg>
