<svg width="60" height="60" viewBox="0 0 60 60" fill="none" xmlns="http://www.w3.org/2000/svg">
<mask id="path-1-inside-1_467_365" fill="white">
<rect x="11" y="23" width="7" height="20" rx="1"/>
</mask>
<rect x="11" y="23" width="7" height="20" rx="1" fill="white" stroke="white" stroke-width="4" mask="url(#path-1-inside-1_467_365)"/>
<mask id="path-2-inside-2_467_365" fill="white">
<rect x="30" y="31" width="8" height="8" rx="1" transform="rotate(-90 30 31)"/>
</mask>
<rect x="30" y="31" width="8" height="8" rx="1" transform="rotate(-90 30 31)" fill="white" stroke="white" stroke-width="6" mask="url(#path-2-inside-2_467_365)"/>
<mask id="path-3-inside-3_467_365" fill="white">
<rect x="20" y="31" width="8" height="8" rx="1" transform="rotate(-90 20 31)"/>
</mask>
<rect x="20" y="31" width="8" height="8" rx="1" transform="rotate(-90 20 31)" fill="white" stroke="white" stroke-width="6" mask="url(#path-3-inside-3_467_365)"/>
<mask id="path-4-inside-4_467_365" fill="white">
<rect x="40" y="31" width="8" height="8" rx="1" transform="rotate(-90 40 31)"/>
</mask>
<rect x="40" y="31" width="8" height="8" rx="1" transform="rotate(-90 40 31)" fill="white" stroke="white" stroke-width="6" mask="url(#path-4-inside-4_467_365)"/>
<line x1="7.7998" y1="19.6992" x2="52.7946" y2="19.6992" stroke="white" stroke-width="3"/>
<path fill-rule="evenodd" clip-rule="evenodd" d="M10 11H48.7946C49.3469 11 49.7946 11.4477 49.7946 12V34.4705C50.8621 34.8403 51.8668 35.2837 52.7946 35.791V12C52.7946 9.79086 51.0038 8 48.7946 8H10C7.79086 8 6 9.79086 6 12V45.4005C6 47.6096 7.79086 49.4005 10 49.4005H25.6933C25.1792 48.4516 24.8343 47.4458 24.6838 46.4005H10C9.44772 46.4005 9 45.9528 9 45.4005V12C9 11.4477 9.44771 11 10 11Z" fill="white"/>
<path d="M46.0456 49.1356C46.0456 50.6353 44.4888 52.1676 42.1377 52.1676C39.7866 52.1676 38.2299 50.6353 38.2299 49.1356C38.2299 47.6359 39.7866 46.1035 42.1377 46.1035C44.4888 46.1035 46.0456 47.6359 46.0456 49.1356Z" stroke="white" stroke-width="2"/>
<path d="M53.7198 49.3372C53.7197 49.3404 53.7176 49.3776 53.6948 49.4553C53.6709 49.5367 53.6296 49.644 53.5642 49.777C53.4326 50.0445 53.2237 50.3748 52.9317 50.7495C52.3488 51.4978 51.4833 52.3608 50.3947 53.1787C48.2099 54.8203 45.2369 56.1996 42.004 56.1996C38.771 56.1996 35.798 54.8203 33.6132 53.1787C32.5247 52.3608 31.6592 51.4978 31.0762 50.7495C30.7842 50.3748 30.5753 50.0445 30.4438 49.777C30.3783 49.644 30.3371 49.5367 30.3132 49.4553C30.2903 49.3776 30.2883 49.3404 30.2881 49.3372C30.2881 49.337 30.2881 49.3369 30.2881 49.3371C30.2881 49.3373 30.2881 49.3372 30.2881 49.337C30.2883 49.3338 30.2903 49.2966 30.3132 49.2189C30.3371 49.1375 30.3783 49.0302 30.4438 48.8972C30.5753 48.6297 30.7842 48.2994 31.0762 47.9247C31.6592 47.1764 32.5247 46.3134 33.6132 45.4955C35.798 43.8539 38.771 42.4746 42.004 42.4746C45.2369 42.4746 48.2099 43.8539 50.3947 45.4955C51.4833 46.3134 52.3488 47.1764 52.9317 47.9247C53.2237 48.2994 53.4326 48.6297 53.5642 48.8972C53.6296 49.0302 53.6709 49.1375 53.6948 49.2189C53.7194 49.3027 53.7198 49.3394 53.7198 49.3371C53.7198 49.3369 53.7198 49.337 53.7198 49.3372Z" stroke="white" stroke-width="2"/>
<path d="M28.7527 41.4746L32.4308 45.2849" stroke="white" stroke-width="2"/>
<path d="M34.8207 38.4023L37.1572 42.9743" stroke="white" stroke-width="2"/>
<path d="M46.3788 42.9746L48.7157 38.4028" stroke="white" stroke-width="2"/>
<path d="M42.2271 42.2812V37.0396" stroke="white" stroke-width="2"/>
<path d="M51.0021 45.041L54.6802 41.2307" stroke="white" stroke-width="2"/>
<mask id="path-14-inside-5_467_365" fill="white">
<rect x="41.9958" y="17" width="4.20005" height="4.19952" rx="2" transform="rotate(-90 41.9958 17)"/>
</mask>
<rect x="41.9958" y="17" width="4.20005" height="4.19952" rx="2" transform="rotate(-90 41.9958 17)" fill="white" stroke="white" stroke-width="4.19952" mask="url(#path-14-inside-5_467_365)"/>
<mask id="path-15-inside-6_467_365" fill="white">
<rect x="36.5964" y="17" width="4.20005" height="4.19952" rx="2" transform="rotate(-90 36.5964 17)"/>
</mask>
<rect x="36.5964" y="17" width="4.20005" height="4.19952" rx="2" transform="rotate(-90 36.5964 17)" fill="white" stroke="white" stroke-width="4.19952" mask="url(#path-15-inside-6_467_365)"/>
</svg>
