<svg width="60" height="60" viewBox="0 0 60 60" fill="none" xmlns="http://www.w3.org/2000/svg">
<path d="M52.9555 39.9998C52.9663 42.1656 47.7473 49.0271 41.2673 49.0654C34.7873 49.1037 29.5001 42.3043 29.4893 40.1385" stroke="white" stroke-width="3"/>
<path d="M29 49.1387L32.3729 44.8164" stroke="white" stroke-width="3"/>
<path d="M34.543 52.8438L36.6735 47.6688" stroke="white" stroke-width="3"/>
<path d="M45.1865 47.6191L47.3689 52.7684" stroke="white" stroke-width="3"/>
<path d="M41.2627 48.3301L41.291 54.0007" stroke="white" stroke-width="3"/>
<path d="M49.5117 44.7148L52.9276 48.9971" stroke="white" stroke-width="3"/>
<path d="M44.2002 12.8008C40.2684 15.309 34.7328 16.8708 28.6002 16.8708C22.4676 16.8708 16.932 15.309 13.0002 12.8008" stroke="white" stroke-width="3"/>
<path d="M7.02734 26.6348H47.2012" stroke="white" stroke-width="3"/>
<path fill-rule="evenodd" clip-rule="evenodd" d="M30.1006 36.3189V8H27.1006V38.7777C27.9384 37.8677 28.949 37.0407 30.1006 36.3189Z" fill="white"/>
<path fill-rule="evenodd" clip-rule="evenodd" d="M32.7791 34.9377C31.4214 34.7821 30.0248 34.7012 28.6011 34.7012C22.2336 34.7012 16.4067 36.3194 12.1943 39.0066L13.8078 41.5358C17.3789 39.2577 22.4741 37.7676 28.214 37.7033C29.4866 36.6079 31.0319 35.6697 32.7791 34.9377Z" fill="white"/>
<path fill-rule="evenodd" clip-rule="evenodd" d="M38.0472 33.4811C38.5293 31.3666 38.8004 29.0491 38.8004 26.6C38.8004 21.0953 37.4308 16.2559 35.3744 12.8908C33.2865 9.47432 30.8049 8 28.6004 8C26.3959 8 23.9143 9.47432 21.8264 12.8908C19.77 16.2559 18.4004 21.0953 18.4004 26.6C18.4004 32.1047 19.77 36.9441 21.8264 40.3092C22.6861 41.7159 23.6126 42.7934 24.5589 43.5743C24.4544 44.1063 24.4004 44.6494 24.4004 45.2012C24.4004 45.8867 24.4837 46.5588 24.6438 47.2129C19.2867 44.4622 15.4004 36.2738 15.4004 26.6C15.4004 14.6706 21.3102 5 28.6004 5C35.8905 5 41.8004 14.6706 41.8004 26.6C41.8004 28.9051 41.5797 31.1259 41.1711 33.2089C40.1024 33.2351 39.0583 33.3277 38.0472 33.4811Z" fill="white"/>
<path fill-rule="evenodd" clip-rule="evenodd" d="M45.8659 33.5305C46.7265 31.3886 47.2 29.0496 47.2 26.6C47.2 16.3275 38.8725 8 28.6 8C18.3275 8 10 16.3275 10 26.6C10 35.433 16.1572 42.828 24.4137 44.727C24.4049 44.8843 24.4004 45.0424 24.4004 45.2012C24.4004 46.1194 24.5499 47.0136 24.8332 47.8727C14.6996 46.0905 7 37.2444 7 26.6C7 14.6706 16.6706 5 28.6 5C40.5294 5 50.2 14.6706 50.2 26.6C50.2 29.2813 49.7115 31.8484 48.8185 34.2173C47.8753 33.9302 46.8882 33.6993 45.8659 33.5305Z" fill="white"/>
</svg>
