<svg width="60" height="60" viewBox="0 0 60 60" fill="none" xmlns="http://www.w3.org/2000/svg">
<path d="M44.1992 12.8008C40.2674 15.309 34.7318 16.8708 28.5992 16.8708C22.4667 16.8708 16.931 15.309 12.9992 12.8008" stroke="white" stroke-width="3"/>
<path d="M7.02637 26.6348H47.2002" stroke="white" stroke-width="3"/>
<path fill-rule="evenodd" clip-rule="evenodd" d="M30.0996 36.3189V8H27.0996V38.7777C27.9374 37.8677 28.9481 37.0407 30.0996 36.3189Z" fill="white"/>
<path fill-rule="evenodd" clip-rule="evenodd" d="M32.7781 34.9377C31.4204 34.7821 30.0238 34.7012 28.6001 34.7012C22.2326 34.7012 16.4058 36.3194 12.1934 39.0066L13.8068 41.5358C17.3779 39.2577 22.4731 37.7676 28.213 37.7033C29.4856 36.6079 31.031 35.6697 32.7781 34.9377Z" fill="white"/>
<path fill-rule="evenodd" clip-rule="evenodd" d="M38.0462 33.4811C38.5283 31.3666 38.7994 29.0491 38.7994 26.6C38.7994 21.0953 37.4298 16.2559 35.3734 12.8908C33.2855 9.47432 30.8039 8 28.5994 8C26.3949 8 23.9133 9.47432 21.8254 12.8908C19.769 16.2559 18.3994 21.0953 18.3994 26.6C18.3994 32.1047 19.769 36.9441 21.8254 40.3092C22.6851 41.7159 23.6116 42.7934 24.558 43.5743C24.4534 44.1063 24.3994 44.6494 24.3994 45.2012C24.3994 45.8867 24.4828 46.5588 24.6429 47.2129C19.2857 44.4622 15.3994 36.2738 15.3994 26.6C15.3994 14.6706 21.3093 5 28.5994 5C35.8896 5 41.7994 14.6706 41.7994 26.6C41.7994 28.9051 41.5788 31.1259 41.1701 33.2089C40.1015 33.2351 39.0573 33.3277 38.0462 33.4811Z" fill="white"/>
<path fill-rule="evenodd" clip-rule="evenodd" d="M45.8649 33.5305C46.7255 31.3886 47.199 29.0496 47.199 26.6C47.199 16.3275 38.8715 8 28.599 8C18.3265 8 9.99902 16.3275 9.99902 26.6C9.99902 35.433 16.1562 42.828 24.4128 44.727C24.4039 44.8843 24.3994 45.0424 24.3994 45.2012C24.3994 46.1194 24.549 47.0136 24.8322 47.8727C14.6986 46.0905 6.99902 37.2444 6.99902 26.6C6.99902 14.6706 16.6697 5 28.599 5C40.5284 5 50.199 14.6706 50.199 26.6C50.199 29.2813 49.7105 31.8484 48.8176 34.2173C47.8743 33.9302 46.8872 33.6993 45.8649 33.5305Z" fill="white"/>
<path d="M45.3501 49.1375C45.3501 50.2734 44.1135 51.6695 41.9417 51.6695C39.7698 51.6695 38.5332 50.2734 38.5332 49.1375C38.5332 48.0015 39.7698 46.6055 41.9417 46.6055C44.1135 46.6055 45.3501 48.0015 45.3501 49.1375Z" stroke="white" stroke-width="3"/>
<path d="M52.9202 49.1178C52.9721 49.2234 52.999 49.2954 53.0126 49.337C52.999 49.3786 52.9721 49.4506 52.9202 49.5562C52.8075 49.7852 52.6191 50.0864 52.342 50.442C51.7891 51.1515 50.9563 51.9842 49.8987 52.7787C47.7718 54.3767 44.9013 55.6994 41.8072 55.6994C38.713 55.6994 35.8426 54.3767 33.7157 52.7787C32.658 51.9842 31.8252 51.1515 31.2724 50.442C30.9953 50.0864 30.8069 49.7852 30.6942 49.5562C30.6423 49.4506 30.6154 49.3786 30.6017 49.337C30.6154 49.2954 30.6423 49.2234 30.6942 49.1178C30.8069 48.8888 30.9953 48.5876 31.2724 48.232C31.8252 47.5226 32.658 46.6898 33.7157 45.8953C35.8426 44.2973 38.713 42.9746 41.8072 42.9746C44.9013 42.9746 47.7718 44.2973 49.8987 45.8953C50.9563 46.6898 51.7891 47.5226 52.342 48.232C52.6191 48.5876 52.8075 48.8888 52.9202 49.1178Z" stroke="white" stroke-width="3"/>
<path d="M28.5547 41.4746L32.2332 45.2849" stroke="white" stroke-width="3"/>
<path d="M34.623 38.4043L36.9598 42.9762" stroke="white" stroke-width="3"/>
<path d="M46.1826 42.9766L48.5198 38.4048" stroke="white" stroke-width="3"/>
<path d="M42.0312 42.2812V37.0396" stroke="white" stroke-width="3"/>
<path d="M50.8066 45.041L54.4852 41.2307" stroke="white" stroke-width="3"/>
</svg>
