<svg width="48" height="48" viewBox="0 0 48 48" fill="none" xmlns="http://www.w3.org/2000/svg">
<path d="M1.5 6C1.5 3.51472 3.51472 1.5 6 1.5H42C44.4853 1.5 46.5 3.51472 46.5 6V42C46.5 44.4853 44.4853 46.5 42 46.5H6C3.51472 46.5 1.5 44.4853 1.5 42V6Z" stroke="white" stroke-width="3"/>
<path d="M23.9938 22.3449L22.5896 23.508L24.0016 24.6616L31.3163 30.6376C31.4326 30.7326 31.5 30.8748 31.5 31.0248L31.5 37.705C31.5 38.13 31.0035 38.3612 30.6782 38.0877L13.7857 23.8827C13.5481 23.6829 13.5481 23.3171 13.7857 23.1173L30.6782 8.91228C31.0052 8.63727 31.5 8.87075 31.5 9.29338L31.5 15.892C31.5 16.0408 31.4338 16.1818 31.319 16.2769L23.9938 22.3449Z" stroke="white" stroke-width="3"/>
</svg>
