<svg width="48" height="48" viewBox="0 0 48 48" fill="none" xmlns="http://www.w3.org/2000/svg">
<path d="M1.5 6C1.5 3.51472 3.51472 1.5 6 1.5H42C44.4853 1.5 46.5 3.51472 46.5 6V42C46.5 44.4853 44.4853 46.5 42 46.5H6C3.51472 46.5 1.5 44.4853 1.5 42V6Z" stroke="white" stroke-width="3"/>
<path d="M24.0062 24.6551L25.4104 23.492L23.9984 22.3384L16.6837 16.3624C16.5674 16.2674 16.5 16.1252 16.5 15.9752L16.5 9.29496C16.5 8.87 16.9965 8.63877 17.3218 8.91228L34.2143 23.1173C34.4519 23.3171 34.4519 23.6829 34.2143 23.8827L17.3218 38.0877C16.9948 38.3627 16.5 38.1293 16.5 37.7066L16.5 31.108C16.5 30.9592 16.5662 30.8182 16.681 30.7231L24.0062 24.6551Z" stroke="white" stroke-width="3"/>
</svg>
