<svg width="60" height="60" viewBox="0 0 60 60" fill="none" xmlns="http://www.w3.org/2000/svg">
<path d="M32.0393 36.3509L24.3708 42.3279L24.3708 30.3739L32.0393 36.3509Z" fill="white"/>
<path fill-rule="evenodd" clip-rule="evenodd" d="M48.0509 30.5386C48.2786 30.1191 48.3989 29.604 48.3989 28.9766C48.3989 28.4416 48.3872 27.9316 48.3643 27.4456C49.1572 27.7292 49.865 28.0386 50.4682 28.3743C51.6268 29.0191 52.9663 30.0823 52.9663 31.6992C52.9663 32.9068 52.2025 33.8015 51.432 34.3967C50.636 35.0116 49.5657 35.5239 48.353 35.9568C45.9106 36.8286 42.5381 37.5004 38.6543 37.9119C37.4365 38.0409 36.1632 38.1448 34.8459 38.2212C34.0189 38.2692 33.3096 37.6376 33.2616 36.8106C33.2137 35.9835 33.8452 35.2742 34.6723 35.2262C35.9443 35.1525 37.1701 35.0523 38.3382 34.9285C42.1008 34.5299 45.2134 33.8921 47.3444 33.1314C48.4184 32.748 49.1569 32.3633 49.598 32.0225C49.7917 31.8729 49.888 31.7648 49.9345 31.7007C49.8615 31.5967 49.643 31.3483 49.0093 30.9957C48.7341 30.8425 48.4143 30.6896 48.0509 30.5386ZM10.8019 30.5864C10.4851 30.7219 10.2032 30.8587 9.95697 30.9957C9.32638 31.3466 9.10695 31.5943 9.03291 31.6992C9.10695 31.804 9.32638 32.0517 9.95697 32.4026C10.8953 32.9248 12.3526 33.4438 14.2824 33.898C18.1181 34.8009 23.4931 35.3737 29.4831 35.3737V38.3737C23.3322 38.3737 17.7156 37.7882 13.595 36.8182C11.5466 36.3361 9.78456 35.74 8.49812 35.024C7.33951 34.3792 6 33.316 6 31.6992C6 30.0823 7.33951 29.0191 8.49812 28.3743C9.10431 28.0369 9.81613 27.7262 10.6137 27.4414C10.583 27.9274 10.5674 28.4387 10.5674 28.9766C10.5674 29.6281 10.6467 30.1584 10.8019 30.5864ZM49.9749 31.6316C49.975 31.6317 49.9746 31.6334 49.9731 31.6368C49.9741 31.6334 49.9748 31.6316 49.9749 31.6316Z" fill="white"/>
<path fill-rule="evenodd" clip-rule="evenodd" d="M19.222 16.226L19.3058 16.3567L19.4407 16.567L19.4407 16.567C20.0261 17.4796 20.5089 18.2321 20.7121 18.6381C20.74 18.6938 20.7626 18.743 20.7795 18.7852C20.8259 18.901 20.829 18.9639 20.7795 18.9639C19.6548 19.1966 18.704 19.406 17.9008 19.6137L17.8289 19.6323C13.4982 20.7639 13.5333 21.8615 13.6787 26.4051C13.7095 27.3707 13.7454 28.4918 13.7454 29.802C13.7454 30.2885 13.7681 30.7838 13.8125 31.2856C14.7885 31.5334 15.8245 31.7586 16.9124 31.9587C16.8022 31.2173 16.7454 30.4942 16.7454 29.802C16.7454 28.6769 16.72 27.6902 16.6938 26.8364C16.6879 26.6447 16.682 26.4624 16.6765 26.2884L16.6765 26.2879C16.6567 25.6684 16.6402 25.1528 16.6359 24.6855C16.6303 24.089 16.6471 23.6956 16.682 23.4164C16.695 23.3124 16.7088 23.2395 16.7199 23.1912C16.7941 23.1454 16.9316 23.0727 17.1679 22.9783C17.9398 22.6699 19.1832 22.3585 21.3371 21.9121C21.7656 21.8325 22.2591 21.6473 22.7207 21.2635C23.3956 20.7023 23.6595 20.0013 23.7548 19.5285C23.9084 18.7672 23.7235 18.1472 23.6837 18.0138L23.6806 18.0034C23.565 17.6114 23.3846 17.2709 23.3051 17.1223C23.1007 16.7404 22.8054 16.2649 22.5162 15.8085C22.3347 15.522 22.1416 15.2211 21.9414 14.9089C21.45 14.1431 20.9153 13.3096 20.4005 12.4543C20.3072 12.2993 20.2173 12.148 20.1312 12.0009C25.2113 11.9976 34.3425 12.0035 39.3968 12.0071C39.3173 12.1463 39.2345 12.2893 39.1484 12.4357C38.5232 13.4996 37.8369 14.5698 37.2585 15.4716L37.0765 15.7555C36.784 16.2121 36.5022 16.6546 36.3045 16.9905C36.2161 17.1406 36.0837 17.3707 35.9771 17.6076L35.9753 17.6117C35.9372 17.6964 35.8011 17.9986 35.7297 18.3897C35.6995 18.5555 35.6085 19.0912 35.7865 19.7432C36.0232 20.6101 36.736 21.5768 37.9839 21.8794L38.0524 21.896L38.1215 21.9094C40.314 22.3333 41.5682 22.6359 42.3365 22.9385C42.5568 23.0253 42.6877 23.0929 42.7604 23.1365C42.7717 23.187 42.7858 23.2633 42.7988 23.3723C42.833 23.6587 42.8482 24.059 42.8408 24.6616C42.8365 25.0067 42.8208 25.4914 42.8022 26.0644V26.0644V26.0645C42.768 27.1179 42.7241 28.4698 42.7241 29.802C42.7241 30.4637 42.6722 31.1536 42.5713 31.8608C43.6616 31.6491 44.6968 31.4117 45.6684 31.1513C45.7053 30.6954 45.7241 30.245 45.7241 29.802C45.7241 28.4655 45.7626 27.3231 45.7957 26.3405V26.3404C45.947 21.8534 45.9859 20.7008 41.7301 19.6187C41.6896 19.6084 41.6487 19.5981 41.6074 19.5878C40.796 19.3856 39.833 19.1847 38.691 18.9639C38.6689 18.9586 38.6791 18.9121 38.7169 18.8299C38.7193 18.8246 38.7219 18.8191 38.7246 18.8135C38.7265 18.8096 38.7284 18.8055 38.7304 18.8015C38.8674 18.52 39.2684 17.8948 39.785 17.0893L39.7854 17.0887C39.927 16.8679 40.0774 16.6334 40.2334 16.3888L40.3339 16.231C41.1665 14.9221 42.1368 13.3513 42.7994 12.0094L42.8029 12.0023C42.8601 11.8863 42.915 11.7721 42.9672 11.66L42.9674 11.6596C43.6708 10.1504 43.9045 9.00952 42.9673 9.00949C42.7897 9.0095 42.0225 9.00895 40.8539 9.00811C34.7661 9.00374 17.7837 8.99153 16.5022 9.00956C15.5624 9.02277 15.8157 10.1618 16.5396 11.6649C16.5925 11.7747 16.6479 11.8865 16.7055 12L16.7094 12.0077C17.3914 13.3482 18.3838 14.9176 19.222 16.226ZM43.2277 39.501C42.0298 39.7372 40.7642 39.9423 39.4423 40.1127C39.1823 40.5234 38.9087 40.9253 38.622 41.316C36.0194 44.8637 32.8102 46.8989 29.7348 46.8989C26.6593 46.8989 23.4501 44.8637 20.8475 41.316C20.5433 40.9013 20.2537 40.4741 19.9796 40.037C18.6501 39.8534 17.3807 39.6343 16.1834 39.3836C19.0116 45.1067 24.0235 49.8989 29.7348 49.8989C35.4069 49.8989 40.3893 45.1721 43.2277 39.501ZM16.6446 23.2465C16.6433 23.2463 16.6501 23.239 16.6689 23.2252C16.6553 23.2398 16.6459 23.2467 16.6446 23.2465ZM42.8386 23.1925C42.8373 23.1927 42.8277 23.1858 42.814 23.1713C42.833 23.185 42.8399 23.1923 42.8386 23.1925ZM40.6054 9.45666C40.6064 9.45603 40.6043 9.47122 40.5961 9.50411C40.6003 9.47373 40.6044 9.45728 40.6054 9.45666ZM18.8699 9.42574C18.8708 9.42631 18.8749 9.44183 18.8792 9.47062C18.8712 9.43957 18.869 9.42518 18.8699 9.42574ZM18.039 20.0006C18.0386 20.0002 18.0343 19.9919 18.0271 19.9763C18.0358 19.9931 18.0394 20.0009 18.039 20.0006Z" fill="white"/>
</svg>
