<svg width="60" height="60" viewBox="0 0 60 60" fill="none" xmlns="http://www.w3.org/2000/svg">
<path d="M34.3769 33.7138L30.7085 42.7632L24.7056 32.366L34.3769 33.7138Z" fill="white"/>
<path fill-rule="evenodd" clip-rule="evenodd" d="M47.5099 20.6323C47.3416 20.1098 46.5658 19.6559 45.0007 19.2832C43.7252 18.9795 42.5794 18.6751 41.5348 18.3838C43.3732 17.857 45.0374 17.5437 46.4006 17.5222C47.7319 17.5012 49.4273 17.7534 50.2373 19.1564C50.8422 20.2042 50.6279 21.3635 50.257 22.2673C49.8738 23.201 49.2006 24.1834 48.3634 25.1687C46.6774 27.1529 44.0819 29.4304 40.9107 31.7384C39.9164 32.4621 38.8612 33.1918 37.754 33.9197C37.0617 34.3747 36.1316 34.1824 35.6766 33.4902C35.2215 32.7979 35.4138 31.8678 36.1061 31.4128C37.1755 30.7098 38.1914 30.0071 39.1454 29.3128C42.218 27.0765 44.6053 24.9584 46.0773 23.2261C46.652 22.5497 47.0514 21.9735 47.3011 21.507C47.4266 21.3296 47.5058 21.1578 47.5339 20.9918C47.5883 20.8377 47.6076 20.7351 47.6136 20.673C47.5891 20.6614 47.5553 20.6473 47.5099 20.6323ZM13.5892 41.3519C14.6337 41.2816 16.0213 41.0036 17.703 40.4973C21.4932 39.3563 26.4563 37.1551 31.6665 34.147L33.1665 36.7451C27.8169 39.8337 22.6382 42.1446 18.5678 43.37C16.5443 43.9791 14.7131 44.3453 13.2355 44.3686C11.9042 44.3896 10.2088 44.1374 9.39883 42.7344C8.58885 41.3315 9.21813 39.7371 9.90194 38.5947C10.3793 37.7972 11.0441 36.9464 11.8547 36.0645C11.7163 36.9867 11.5997 37.9639 11.5008 39.003C11.276 41.365 12.0887 41.8908 13.5892 41.3519ZM47.6138 20.5962C47.6137 20.5957 47.6136 20.5954 47.6136 20.5954C47.6135 20.5955 47.6137 20.5973 47.6146 20.6007C47.6143 20.5985 47.614 20.597 47.6138 20.5962Z" fill="white"/>
<path fill-rule="evenodd" clip-rule="evenodd" d="M18.7487 17.2689L18.8324 17.3994L18.9609 17.5997C19.5488 18.5162 20.0337 19.272 20.2377 19.6797C20.2657 19.7357 20.2885 19.7851 20.3054 19.8275C20.352 19.9438 20.3552 20.007 20.3054 20.007C19.1817 20.2394 18.2309 20.4488 17.4269 20.6562L17.3552 20.6748C12.9926 21.8125 13.0278 22.9125 13.1739 27.4803C13.205 28.45 13.241 29.576 13.241 30.8918C13.241 33.6301 13.9569 36.6499 15.2155 39.5011C16.132 39.1999 17.0772 38.8595 18.0454 38.4811C16.886 35.9182 16.241 33.2303 16.241 30.8918C16.241 29.7621 16.2154 28.7712 16.1891 27.9138C16.1832 27.7212 16.1773 27.538 16.1717 27.3631C16.1519 26.7409 16.1353 26.2228 16.131 25.7534C16.1254 25.1541 16.1422 24.7583 16.1774 24.477C16.1909 24.3684 16.2054 24.2932 16.2169 24.2443C16.2912 24.198 16.4308 24.1236 16.6735 24.0266C17.4499 23.7164 18.6998 23.4035 20.8629 22.9552C21.2915 22.8756 21.785 22.6904 22.2467 22.3065C22.9216 21.7453 23.1856 21.0443 23.2809 20.5714C23.4345 19.81 23.2496 19.1899 23.2098 19.0563L23.2067 19.046C23.0909 18.6536 22.9103 18.3126 22.8305 18.1635C22.6255 17.7804 22.3291 17.3032 22.0387 16.8448C21.8565 16.5572 21.6627 16.2551 21.4616 15.9417L21.4615 15.9416C20.968 15.1724 20.4308 14.335 19.9137 13.4759C19.8158 13.3133 19.7217 13.1549 19.6317 13.0009C24.7368 12.9976 33.9465 13.0036 39.0255 13.0071C38.9422 13.1531 38.8553 13.3032 38.7648 13.4571C38.1367 14.5259 37.4474 15.6008 36.8665 16.5065L36.6838 16.7916C36.3899 17.2503 36.107 17.6945 35.9086 18.0315C35.8198 18.1823 35.6873 18.4129 35.5805 18.6501L35.5787 18.6542C35.5405 18.739 35.4043 19.0414 35.333 19.4325C35.3027 19.5984 35.2117 20.1342 35.3897 20.7862C35.6265 21.6531 36.3393 22.6198 37.5872 22.9225L37.6557 22.9391L37.7248 22.9524C39.3331 23.2634 40.4392 23.5094 41.2199 23.7381C42.031 22.9141 42.7518 22.107 43.3729 21.3268C42.8357 21.0863 42.1662 20.8725 41.3333 20.6612L41.2107 20.6304C40.3984 20.4283 39.4353 20.2276 38.2943 20.007C38.272 20.0016 38.2823 19.9549 38.3203 19.8724C38.3245 19.8633 38.329 19.8538 38.3338 19.8438C38.4714 19.5611 38.8741 18.9332 39.393 18.1243L39.393 18.1243C39.5333 17.9056 39.682 17.6736 39.8363 17.4317L39.9368 17.2739C40.7773 15.9528 41.7593 14.3639 42.4268 13.0095L42.4301 13.0027C42.4853 12.8906 42.5384 12.7801 42.589 12.6715L42.5892 12.6711C43.2956 11.1553 43.5303 10.0096 42.5891 10.0095C42.4107 10.0095 41.6402 10.009 40.4665 10.0081C34.3524 10.0038 17.2967 9.99149 16.0097 10.0096C15.0658 10.0229 15.3202 11.1668 16.0472 12.6764C16.0984 12.7827 16.1519 12.8909 16.2076 13.0006L16.2112 13.0078C16.8984 14.3609 17.9026 15.9482 18.7487 17.2689ZM45.3602 30.3043C44.4104 31.2582 43.3409 32.2337 42.166 33.2152C41.6798 36.2905 40.2898 39.663 38.2355 42.4632C35.6203 46.028 32.3939 48.0755 29.2994 48.0755C26.9818 48.0755 24.5902 46.9271 22.4369 44.8529C21.3768 45.2693 20.3438 45.6404 19.3456 45.9645C22.0819 49.0078 25.5398 51.0755 29.2994 51.0755C38.1682 51.0755 45.3577 39.5694 45.3577 30.8918C45.3577 30.6917 45.3586 30.4959 45.3602 30.3043ZM16.1438 24.2987C16.1425 24.2985 16.1494 24.291 16.1685 24.2768C16.1548 24.2918 16.1452 24.2989 16.1438 24.2987ZM40.2295 10.4616C40.2305 10.461 40.2284 10.476 40.2204 10.5086C40.2245 10.4785 40.2285 10.4622 40.2295 10.4616ZM18.375 10.4307C18.376 10.4313 18.3799 10.4466 18.3843 10.4752C18.3763 10.4444 18.3741 10.4302 18.375 10.4307ZM17.5647 21.0422C17.5643 21.0419 17.5599 21.0335 17.5528 21.018C17.5615 21.0348 17.565 21.0425 17.5647 21.0422Z" fill="white"/>
</svg>
