<svg width="60" height="60" viewBox="0 0 60 60" fill="none" xmlns="http://www.w3.org/2000/svg">
<path d="M42.3406 24.3898C42.3407 24.3898 42.34 24.3908 42.3385 24.3926L42.3406 24.3898ZM28.6503 17.7443C31.5979 19.4414 38.4824 23.4227 41.4043 25.1124C41.1029 25.3075 40.7496 25.5191 40.3588 25.7405C39.6272 26.1549 38.8582 26.5517 38.2187 26.8817C38.1499 26.9172 38.0826 26.952 38.017 26.9859C37.6907 27.1545 37.3868 27.3126 37.1686 27.4359C37.0685 27.4925 36.9351 27.5703 36.8178 27.6547L36.8167 27.6555C36.7744 27.6859 36.6345 27.7867 36.5023 27.9423C36.4465 28.008 36.2721 28.2187 36.1859 28.5469C36.0714 28.9833 36.1394 29.5806 36.6044 30.0237L36.6299 30.048L36.6565 30.071C37.7882 31.0523 38.454 31.6804 38.8346 32.1586C39.1673 32.5765 39.1445 32.7087 39.1411 32.7281C39.141 32.729 39.1408 32.7296 39.1408 32.7301C39.1298 32.8708 39.0397 33.1619 38.5903 33.9186C38.4592 34.1393 38.2806 34.4264 38.073 34.7602C37.7047 35.3524 37.2449 36.0916 36.7969 36.8676C35.5277 39.066 33.0615 41.1918 30.2939 42.4068C27.5059 43.6308 24.7599 43.792 22.7647 42.6401C20.7695 41.4882 19.5362 39.0295 19.2022 36.0031C18.8706 32.9987 19.4785 29.8 20.7477 27.6016C21.1222 26.9531 21.4363 26.3752 21.7071 25.8709C21.7671 25.7591 21.8244 25.6522 21.8794 25.5495C22.0767 25.1809 22.2442 24.8682 22.4019 24.5891C22.8306 23.8304 23.0352 23.6147 23.1475 23.5389C23.1479 23.5386 23.1485 23.5382 23.1492 23.5376C23.1655 23.5246 23.2733 23.4389 23.8115 23.517C24.4179 23.6048 25.2907 23.8576 26.6928 24.3215C26.9001 24.3961 27.1635 24.4411 27.4636 24.3897C27.8975 24.3155 28.1884 24.0773 28.3493 23.8949C28.6093 23.6001 28.6858 23.2798 28.7031 23.2071C28.7036 23.2052 28.704 23.2035 28.7044 23.2019C28.7553 22.9904 28.7641 22.7775 28.7676 22.6668C28.7761 22.3972 28.7648 22.0389 28.7495 21.674C28.7402 21.4514 28.729 21.2145 28.7173 20.9673C28.6882 20.3533 28.656 19.6756 28.6433 18.9963C28.6347 18.5359 28.6363 18.1129 28.6503 17.7443ZM25.7665 22.6209C25.7665 22.6208 25.7666 22.6182 25.7671 22.6135C25.7668 22.6186 25.7665 22.621 25.7665 22.6209Z" stroke="white" stroke-width="3"/>
<path d="M25.6595 10.3477C15.656 11.8734 8 20.3662 8 30.6144C8 40.2686 14.7942 48.365 23.9446 50.5467M35.1111 11.0272C43.6132 13.6257 49.7858 21.4124 49.7858 30.6144C49.7858 39.8165 43.6132 47.6031 35.1111 50.2017" stroke="white" stroke-width="3"/>
<path d="M31.8018 9.81828L24.6611 14.8571L24.6611 4.7795L31.8018 9.81828Z" fill="white"/>
<path d="M28.6289 50.545L35.7695 45.5062L35.7695 55.5838L28.6289 50.545Z" fill="white"/>
</svg>
