<svg width="25" height="25" viewBox="0 0 25 25" fill="none" xmlns="http://www.w3.org/2000/svg">
<path d="M10.5979 1.8541C11.1966 0.0114751 13.8034 0.0114799 14.4021 1.8541L15.98 6.71024C16.2477 7.53428 17.0156 8.0922 17.8821 8.0922L22.9881 8.0922C24.9256 8.0922 25.7311 10.5714 24.1637 11.7102L20.0328 14.7115C19.3318 15.2208 19.0385 16.1235 19.3063 16.9476L20.8841 21.8037C21.4828 23.6463 19.3739 25.1786 17.8064 24.0398L13.6756 21.0385C12.9746 20.5292 12.0254 20.5292 11.3244 21.0385L7.19355 24.0398C5.62612 25.1786 3.51717 23.6463 4.11587 21.8037L5.69373 16.9476C5.96147 16.1235 5.66816 15.2208 4.96718 14.7115L0.836303 11.7102C-0.731125 10.5714 0.07443 8.0922 2.01188 8.0922L7.11792 8.0922C7.98437 8.0922 8.75228 7.53428 9.02003 6.71024L10.5979 1.8541Z" fill="#D9D9D9"/>
</svg>
