<svg width="25" height="25" viewBox="0 0 25 25" fill="none" xmlns="http://www.w3.org/2000/svg">
<path d="M11.5489 2.16311C11.8483 1.24181 13.1517 1.2418 13.4511 2.16312L15.0289 7.01925C15.4305 8.25532 16.5824 9.0922 17.8821 9.0922L22.9881 9.0922C23.9568 9.0922 24.3596 10.3318 23.5759 10.9012L19.445 13.9025C18.3936 14.6664 17.9536 16.0205 18.3552 17.2566L19.9331 22.1127C20.2324 23.034 19.1779 23.8002 18.3942 23.2307L14.2634 20.2295C13.2119 19.4656 11.7881 19.4656 10.7366 20.2295L6.60577 23.2308C5.82206 23.8001 4.76757 23.034 5.06693 22.1127L6.64478 17.2566C7.0464 16.0205 6.60643 14.6664 5.55497 13.9025L1.42409 10.9012C0.640379 10.3318 1.04315 9.0922 2.01188 9.0922L7.11792 9.0922C8.4176 9.0922 9.56947 8.25532 9.97109 7.01925L11.5489 2.16311Z" stroke="#D9D9D9" stroke-width="2"/>
</svg>
