<svg width="60" height="60" viewBox="0 0 60 60" fill="none" xmlns="http://www.w3.org/2000/svg">
<path fill-rule="evenodd" clip-rule="evenodd" d="M17.5879 49.7169L27.0993 54.6047C28.6224 55.3874 30.4232 55.416 31.9704 54.6821L51.3324 45.4976L50.0466 42.7871L30.6847 51.9716C29.9814 52.3052 29.1629 52.2922 28.4705 51.9364L19.816 47.489L17.5879 49.7169Z" fill="white"/>
<path d="M16.9443 29.3026V25.5515L20.4511 23.7981V27.5492L16.9443 29.3026Z" fill="white" stroke="white" stroke-width="3"/>
<mask id="path-3-inside-1_467_356" fill="white">
<path fill-rule="evenodd" clip-rule="evenodd" d="M36.3418 30.9683C36.1542 31.1558 36.0488 31.4102 36.0488 31.6754V36.9097C36.0488 37.2896 36.2641 37.6367 36.6045 37.8055L42.4669 40.713C43.1316 41.0427 43.9112 40.5591 43.9112 39.8171V26.4285C43.9112 26.0486 43.6959 25.7015 43.3555 25.5327L42.9444 25.3288C42.5599 25.1381 42.0965 25.214 41.793 25.5175L36.3418 30.9683Z"/>
</mask>
<path fill-rule="evenodd" clip-rule="evenodd" d="M36.3418 30.9683C36.1542 31.1558 36.0488 31.4102 36.0488 31.6754V36.9097C36.0488 37.2896 36.2641 37.6367 36.6045 37.8055L42.4669 40.713C43.1316 41.0427 43.9112 40.5591 43.9112 39.8171V26.4285C43.9112 26.0486 43.6959 25.7015 43.3555 25.5327L42.9444 25.3288C42.5599 25.1381 42.0965 25.214 41.793 25.5175L36.3418 30.9683Z" fill="white"/>
<path d="M36.6045 37.8055L35.2716 40.4931H35.2716L36.6045 37.8055ZM42.4669 40.713L43.7998 38.0254H43.7998L42.4669 40.713ZM43.3555 25.5327L44.6885 22.8451L44.6885 22.8451L43.3555 25.5327ZM42.9444 25.3288L41.6115 28.0164L42.9444 25.3288ZM41.793 25.5175L39.6718 23.3961L41.793 25.5175ZM33.0488 31.6754V36.9097H39.0488V31.6754H33.0488ZM33.0488 36.9097C33.0488 38.4294 33.9101 39.8179 35.2716 40.4931L37.9375 35.1179C38.6182 35.4555 39.0488 36.1498 39.0488 36.9097H33.0488ZM35.2716 40.4931L41.134 43.4006L43.7998 38.0254L37.9374 35.1179L35.2716 40.4931ZM41.134 43.4006C43.7928 44.7193 46.9112 42.785 46.9112 39.8171H40.9112C40.9112 38.3332 42.4704 37.3661 43.7998 38.0254L41.134 43.4006ZM46.9112 39.8171V26.4285H40.9112V39.8171H46.9112ZM46.9112 26.4285C46.9112 24.9088 46.05 23.5203 44.6885 22.8451L42.0226 28.2203C41.3418 27.8827 40.9112 27.1884 40.9112 26.4285H46.9112ZM44.6885 22.8451L44.2773 22.6411L41.6115 28.0164L42.0226 28.2203L44.6885 22.8451ZM39.6718 23.3961L34.2205 28.8469L38.463 33.0897L43.9142 27.6389L39.6718 23.3961ZM44.2773 22.6411C42.7392 21.8783 40.8858 22.1821 39.6718 23.3961L43.9142 27.6389C43.3072 28.2459 42.3805 28.3978 41.6115 28.0164L44.2773 22.6411ZM39.0488 31.6754C39.0488 32.2059 38.8381 32.7146 38.463 33.0897L34.2205 28.8469C33.4703 29.597 33.0488 30.6145 33.0488 31.6754H39.0488Z" fill="white" mask="url(#path-3-inside-1_467_356)"/>
<path fill-rule="evenodd" clip-rule="evenodd" d="M22.3582 44.9477L36.2404 51.8888L37.1348 50.1L23.8489 43.457L22.3582 44.9477Z" fill="white"/>
<path fill-rule="evenodd" clip-rule="evenodd" d="M26.3286 40.977L41.6617 48.6435L42.5561 46.8547L27.8194 39.4863L26.3286 40.977Z" fill="white"/>
<path fill-rule="evenodd" clip-rule="evenodd" d="M29.5338 37.771L30.356 37.3651L46.0036 45.0899C48.6619 46.4022 51.7742 44.4678 51.7742 41.5031V20.0598C51.7742 18.8532 51.2315 17.7296 50.3267 16.9798L48.1676 19.1387L48.2169 19.1631C48.5582 19.3315 48.7742 19.6792 48.7742 20.0598V41.5031C48.7742 42.2443 47.9962 42.7279 47.3316 42.3998L32.3173 34.9877L29.5338 37.771ZM37.8613 14.0508L31.856 11.0862V20.0555L28.856 23.0553V11.0862L12.4951 19.1631C12.1538 19.3315 11.9377 19.6792 11.9377 20.0598V39.9721L9.13917 42.7705C9.009 42.3767 8.93774 41.9517 8.93774 41.5031V20.0598C8.93774 18.5374 9.80195 17.1469 11.1671 16.473L28.856 7.74051L30.356 7L31.856 7.74051L40.1013 11.811L37.8613 14.0508Z" fill="white"/>
<path d="M6 53.4961L51.4159 8.08398" stroke="white" stroke-width="3"/>
</svg>
