<svg width="60" height="60" viewBox="0 0 60 60" fill="none" xmlns="http://www.w3.org/2000/svg">
<path d="M30.5479 34.6803L29.8839 34.3525L29.2199 34.6803L13.1067 42.6349C11.4452 43.4551 9.5 42.2461 9.5 40.3932V18.2896C9.5 17.3381 10.0401 16.4691 10.8933 16.0479L29.8839 6.67283L48.8745 16.0479C49.7277 16.4691 50.2678 17.3381 50.2678 18.2896V40.3932C50.2678 42.2461 48.3226 43.4551 46.6612 42.6349L30.5479 34.6803Z" stroke="white" stroke-width="3"/>
<path d="M9.10815 42.9512L27.2956 52.2975C28.4033 52.8667 29.7129 52.8875 30.8382 52.3538L50.6599 42.9512" stroke="white" stroke-width="3"/>
<path d="M16.1484 27.8364V23.9309L19.7967 22.1067V26.0122L16.1484 27.8364Z" fill="white" stroke="white" stroke-width="3"/>
<path d="M42.2346 37.7629V25.1509L37.2013 22.6546V35.2666L42.2346 37.7629Z" fill="white" stroke="white" stroke-width="3"/>
<line x1="36.3621" y1="49.9393" x2="18.6334" y2="41.075" stroke="white" stroke-width="2"/>
<line x1="41.9024" y1="46.6171" x2="24.1737" y2="37.7527" stroke="white" stroke-width="2"/>
</svg>
