<svg width="48" height="48" viewBox="0 0 48 48" fill="none" xmlns="http://www.w3.org/2000/svg">
<path d="M1.5 6C1.5 3.51472 3.51472 1.5 6 1.5H42C44.4853 1.5 46.5 3.51472 46.5 6V42C46.5 44.4853 44.4853 46.5 42 46.5H6C3.51472 46.5 1.5 44.4853 1.5 42V6Z" stroke="white" stroke-width="3"/>
<path d="M22.3449 24.0062L23.508 25.4104L24.6616 23.9984L30.6376 16.6837C30.7326 16.5674 30.8748 16.5 31.0248 16.5L37.705 16.5C38.13 16.5 38.3612 16.9965 38.0877 17.3218L23.8827 34.2143C23.6829 34.4519 23.3171 34.4519 23.1173 34.2143L8.91228 17.3218C8.63727 16.9948 8.87075 16.5 9.29338 16.5L15.892 16.5C16.0408 16.5 16.1818 16.5662 16.2769 16.681L22.3449 24.0062Z" stroke="white" stroke-width="3"/>
</svg>
