<svg width="48" height="48" viewBox="0 0 48 48" fill="none" xmlns="http://www.w3.org/2000/svg">
<path d="M1.5 6C1.5 3.51472 3.51472 1.5 6 1.5H42C44.4853 1.5 46.5 3.51472 46.5 6V42C46.5 44.4853 44.4853 46.5 42 46.5H6C3.51472 46.5 1.5 44.4853 1.5 42V6Z" stroke="white" stroke-width="3"/>
<path d="M24.6551 24.9938L23.492 23.5896L22.3384 25.0016L16.3624 32.3163C16.2674 32.4326 16.1252 32.5 15.9752 32.5H9.29496C8.87 32.5 8.63877 32.0035 8.91228 31.6782L23.1173 14.7857C23.3171 14.5481 23.6829 14.5481 23.8827 14.7857L38.0877 31.6782C38.3627 32.0052 38.1293 32.5 37.7066 32.5L31.108 32.5C30.9592 32.5 30.8182 32.4338 30.7231 32.319L24.6551 24.9938Z" stroke="white" stroke-width="3"/>
</svg>
