<svg width="60" height="60" viewBox="0 0 60 60" fill="none" xmlns="http://www.w3.org/2000/svg">
<path d="M33.1548 48.7641C33.1548 50.7522 31.5428 52.3642 29.5539 52.3642C27.5651 52.3642 25.9531 50.7522 25.9531 48.7641C25.9531 46.7761 27.5651 45.1641 29.5539 45.1641C31.5428 45.1641 33.1548 46.7761 33.1548 48.7641Z" stroke="white" stroke-width="3"/>
<path fill-rule="evenodd" clip-rule="evenodd" d="M17.5525 35.5624H26.8959C28.6243 35.5624 30.0254 36.9636 30.0254 38.692C30.0254 41.4083 33.2486 42.835 35.2592 41.0086L40.1112 36.6015C40.8473 35.9329 41.8061 35.5624 42.8006 35.5624H45.4271C47.6363 35.5624 49.4271 33.7716 49.4271 31.5625V13.0324L49.4269 13.0326V13.0317L46.4271 15.1521V31.5624C46.4271 32.1147 45.9794 32.5624 45.4271 32.5624H42.8006C41.0602 32.5624 39.3823 33.2107 38.0941 34.3809L33.2421 38.788C33.2123 38.815 33.1951 38.8232 33.192 38.8246C33.1882 38.8264 33.1863 38.8269 33.1835 38.8272C33.1751 38.8284 33.1446 38.8291 33.1026 38.8105C33.0606 38.7919 33.0406 38.7689 33.0358 38.7619C33.0342 38.7595 33.0333 38.7578 33.032 38.7538C33.031 38.7506 33.0254 38.7323 33.0254 38.692C33.0255 35.3068 30.2811 32.5624 26.8958 32.5624H21.7955L17.5535 35.5608H17.5548L17.5525 35.5624ZM12.8027 27.3857L9.80273 29.5062L9.80283 10.34C9.80284 8.13085 11.5937 6.34001 13.8028 6.34L42.5778 6.33984L38.3334 9.33987L13.8028 9.34C13.2505 9.34 12.8028 9.78771 12.8028 10.34L12.8027 27.3857Z" fill="white"/>
<path d="M7 37.1699L52.5135 4.99958" stroke="white" stroke-width="3"/>
</svg>
