<svg width="60" height="60" viewBox="0 0 60 60" fill="none" xmlns="http://www.w3.org/2000/svg">
<path fill-rule="evenodd" clip-rule="evenodd" d="M21.2 7.59961H9C6.79086 7.59961 5 9.39047 5 11.5996V21.4H8V11.5996C8 11.0473 8.44772 10.5996 9 10.5996H21.2V7.59961ZM39.8 10.5996V7.59961H51.4C53.6091 7.59961 55.4 9.39047 55.4 11.5996V21.4H52.4V11.5996C52.4 11.0473 51.9523 10.5996 51.4 10.5996H39.8ZM39.8 50.7996H51.4C51.9523 50.7996 52.4 50.3519 52.4 49.7996V40H55.4V49.7996C55.4 52.0087 53.6091 53.7996 51.4 53.7996H39.8V50.7996ZM8 40V49.7996C8 50.3519 8.44772 50.7996 9 50.7996H21.2V53.7996H9C6.79086 53.7996 5 52.0088 5 49.7996V40H8Z" fill="white"/>
<path d="M35.9002 34C35.9002 36.3539 33.7546 38.5 30.8002 38.5C27.8458 38.5 25.7002 36.3539 25.7002 34C25.7002 31.6461 27.8458 29.5 30.8002 29.5C33.7546 29.5 35.9002 31.6461 35.9002 34Z" stroke="white" stroke-width="3"/>
<path d="M46.2195 34.2996C46.2195 34.3509 46.1909 34.5756 46.0014 35.0018C45.8228 35.4037 45.5409 35.8962 45.1493 36.4524C44.3667 37.5638 43.2072 38.8426 41.7521 40.0525C38.8244 42.4867 34.8777 44.4996 30.6195 44.4996C26.3614 44.4996 22.4147 42.4867 19.487 40.0525C18.0318 38.8426 16.8723 37.5638 16.0898 36.4524C15.6982 35.8962 15.4163 35.4037 15.2376 35.0018C15.0482 34.5756 15.0195 34.3509 15.0195 34.2996C15.0195 34.2483 15.0482 34.0236 15.2376 33.5974C15.4163 33.1955 15.6982 32.703 16.0898 32.1468C16.8723 31.0354 18.0318 29.7566 19.487 28.5468C22.4147 26.1125 26.3614 24.0996 30.6195 24.0996C34.8777 24.0996 38.8244 26.1125 41.7521 28.5468C43.2072 29.7566 44.3667 31.0354 45.1493 32.1468C45.5409 32.703 45.8228 33.1955 46.0014 33.5974C46.1909 34.0236 46.2195 34.2483 46.2195 34.2996Z" stroke="white" stroke-width="3"/>
<path d="M12.7998 22.5996L17.7461 28.2697" stroke="white" stroke-width="3"/>
<path d="M20.96 18.0293L24.102 24.8328" stroke="white" stroke-width="3"/>
<path d="M36.5039 24.832L39.6466 18.0288" stroke="white" stroke-width="3"/>
<path d="M30.9199 23.8008V16.0008" stroke="white" stroke-width="3"/>
<path d="M42.7207 27.9062L47.6669 22.2362" stroke="white" stroke-width="3"/>
</svg>
