<svg width="60" height="60" viewBox="0 0 60 60" fill="none" xmlns="http://www.w3.org/2000/svg">
<path fill-rule="evenodd" clip-rule="evenodd" d="M21 7.59961H9C6.79086 7.59961 5 9.39047 5 11.5996V21H8V11.5996C8 11.0473 8.44772 10.5996 9 10.5996H21V7.59961ZM40 10.5996V7.59961H51.4C53.6091 7.59961 55.4 9.39047 55.4 11.5996V21H52.4V11.5996C52.4 11.0473 51.9523 10.5996 51.4 10.5996H40ZM40 50.7996H51.4C51.9523 50.7996 52.4 50.3519 52.4 49.7996V40H55.4V49.7996C55.4 52.0087 53.6091 53.7996 51.4 53.7996H40V50.7996ZM8 40V49.7996C8 50.3519 8.44772 50.7996 9 50.7996H21V53.7996H9C6.79086 53.7996 5 52.0088 5 49.7996V40H8Z" fill="white"/>
<path d="M14.6003 24.7004C14.6003 27.5171 21.8353 36.4004 30.7601 36.4004C39.6849 36.4004 46.9199 27.5171 46.9199 24.7004" stroke="white" stroke-width="3"/>
<path d="M47.6006 36.4004L42.9263 30.7303" stroke="white" stroke-width="3"/>
<path d="M39.8887 40.9707L36.9194 34.1672" stroke="white" stroke-width="3"/>
<path d="M25.2012 34.168L22.2313 40.9712" stroke="white" stroke-width="3"/>
<path d="M30.4775 35.1992L30.4775 42.9992" stroke="white" stroke-width="3"/>
<path d="M19.3252 31.0938L14.6509 36.7638" stroke="white" stroke-width="3"/>
</svg>
