<svg width="60" height="60" viewBox="0 0 60 60" fill="none" xmlns="http://www.w3.org/2000/svg">
<path d="M30 12.5C30 11.6716 30.6716 11 31.5 11C32.3284 11 33 11.6716 33 12.5V16.5C33 17.3284 32.3284 18 31.5 18C30.6716 18 30 17.3284 30 16.5V12.5Z" fill="white"/>
<mask id="path-2-inside-1_467_404" fill="white">
<path fill-rule="evenodd" clip-rule="evenodd" d="M9 48V12C9 10.3431 10.3431 9 12 9H15C16.6569 9 18 10.3431 18 12V17.1774C18 18.8343 19.3431 20.1774 21 20.1774H32.4923C34.1492 20.1774 35.4923 18.8343 35.4923 17.1774V12C35.4923 10.3431 36.8355 9 38.4923 9H41.3157C42.1359 9 42.9203 9.33584 43.4865 9.92937L50.1708 16.9372C50.7031 17.4951 51 18.2367 51 19.0078V48C51 49.6569 49.6569 51 48 51H12C10.3431 51 9 49.6569 9 48ZM20.4004 26.4004C18.7435 26.4004 17.4004 27.7435 17.4004 29.4004V42.6004C17.4004 44.2572 18.7435 45.6004 20.4004 45.6004H40.2004C41.8572 45.6004 43.2004 44.2572 43.2004 42.6004V29.4004C43.2004 27.7435 41.8572 26.4004 40.2004 26.4004H20.4004Z"/>
</mask>
<path fill-rule="evenodd" clip-rule="evenodd" d="M9 48V12C9 10.3431 10.3431 9 12 9H15C16.6569 9 18 10.3431 18 12V17.1774C18 18.8343 19.3431 20.1774 21 20.1774H32.4923C34.1492 20.1774 35.4923 18.8343 35.4923 17.1774V12C35.4923 10.3431 36.8355 9 38.4923 9H41.3157C42.1359 9 42.9203 9.33584 43.4865 9.92937L50.1708 16.9372C50.7031 17.4951 51 18.2367 51 19.0078V48C51 49.6569 49.6569 51 48 51H12C10.3431 51 9 49.6569 9 48ZM20.4004 26.4004C18.7435 26.4004 17.4004 27.7435 17.4004 29.4004V42.6004C17.4004 44.2572 18.7435 45.6004 20.4004 45.6004H40.2004C41.8572 45.6004 43.2004 44.2572 43.2004 42.6004V29.4004C43.2004 27.7435 41.8572 26.4004 40.2004 26.4004H20.4004Z" fill="white"/>
<path d="M43.4865 9.92937L41.3157 12L41.3157 12L43.4865 9.92937ZM50.1708 16.9372L48 19.0078L48 19.0078L50.1708 16.9372ZM6 12V48H12V12H6ZM12 6C8.68629 6 6 8.68629 6 12H12L12 12V6ZM15 6H12V12H15V6ZM21 12C21 8.68629 18.3137 6 15 6V12L15 12H21ZM21 17.1774V12H15V17.1774H21ZM21 17.1774V17.1774H15C15 20.4911 17.6863 23.1774 21 23.1774V17.1774ZM32.4923 17.1774H21V23.1774H32.4923V17.1774ZM32.4923 17.1774V23.1774C35.806 23.1774 38.4923 20.4911 38.4923 17.1774H32.4923ZM32.4923 12V17.1774H38.4923V12H32.4923ZM38.4923 6C35.1786 6 32.4923 8.68629 32.4923 12H38.4923V12V6ZM41.3157 6H38.4923V12H41.3157V6ZM45.6573 7.85874C44.525 6.67168 42.9561 6 41.3157 6V12L41.3157 12L45.6573 7.85874ZM52.3417 14.8665L45.6573 7.85874L41.3157 12L48 19.0078L52.3417 14.8665ZM54 19.0078C54 17.4655 53.4061 15.9825 52.3416 14.8665L48 19.0078L48 19.0078H54ZM54 48V19.0078H48V48H54ZM48 54C51.3137 54 54 51.3137 54 48H48V48V54ZM12 54H48V48H12V54ZM6 48C6 51.3137 8.68629 54 12 54V48H12H6ZM20.4004 29.4004V29.4004V23.4004C17.0867 23.4004 14.4004 26.0867 14.4004 29.4004H20.4004ZM20.4004 42.6004V29.4004H14.4004V42.6004H20.4004ZM20.4004 42.6004H20.4004H14.4004C14.4004 45.9141 17.0867 48.6004 20.4004 48.6004V42.6004ZM40.2004 42.6004H20.4004V48.6004H40.2004V42.6004ZM40.2004 42.6004V42.6004V48.6004C43.5141 48.6004 46.2004 45.9141 46.2004 42.6004H40.2004ZM40.2004 29.4004V42.6004H46.2004V29.4004H40.2004ZM40.2004 29.4004H40.2004H46.2004C46.2004 26.0867 43.5141 23.4004 40.2004 23.4004V29.4004ZM20.4004 29.4004H40.2004V23.4004H20.4004V29.4004Z" fill="white" mask="url(#path-2-inside-1_467_404)"/>
<path d="M21.5 34C20.6716 34 20 33.3284 20 32.5C20 31.6716 20.6716 31 21.5 31L38.5 31C39.3284 31 40 31.6716 40 32.5C40 33.3284 39.3284 34 38.5 34L21.5 34Z" fill="white"/>
<path d="M21.5 41C20.6716 41 20 40.3284 20 39.5C20 38.6716 20.6716 38 21.5 38L38.5 38C39.3284 38 40 38.6716 40 39.5C40 40.3284 39.3284 41 38.5 41L21.5 41Z" fill="white"/>
</svg>
