<svg width="60" height="60" viewBox="0 0 60 60" fill="none" xmlns="http://www.w3.org/2000/svg">
<path d="M10.5 48V12C10.5 11.1716 11.1716 10.5 12 10.5H17.3077C18.1361 10.5 18.8077 11.1716 18.8077 12V17.1774C18.8077 19.6627 20.8224 21.6774 23.3077 21.6774H32.4923C34.9776 21.6774 36.9923 19.6627 36.9923 17.1774V12C36.9923 11.1716 37.6639 10.5 38.4923 10.5H41.3157C41.7258 10.5 42.118 10.6679 42.4011 10.9647L43.4865 9.92937L42.4011 10.9647L49.0854 17.9725C49.3515 18.2515 49.5 18.6222 49.5 19.0078V48C49.5 48.8284 48.8284 49.5 48 49.5H12C11.1716 49.5 10.5 48.8284 10.5 48Z" stroke="white" stroke-width="3"/>
<path d="M30 12.6008C30 11.6067 30.8059 10.8008 31.8 10.8008C32.7941 10.8008 33.6 11.6067 33.6 12.6008V16.8008C33.6 17.7949 32.7941 18.6008 31.8 18.6008C30.8059 18.6008 30 17.7949 30 16.8008V12.6008Z" fill="white"/>
<rect x="18.9" y="27.9004" width="22.8" height="16.2" rx="1.5" stroke="white" stroke-width="3"/>
</svg>
