<?xml version="1.0" encoding="UTF-8" standalone="no"?>
<!-- Created with Inkscape (http://www.inkscape.org/) -->

<svg
   width="25mm"
   height="25mm"
   viewBox="0 0 25 25"
   version="1.1"
   id="svg5"
   xml:space="preserve"
   xmlns="http://www.w3.org/2000/svg"
   xmlns:svg="http://www.w3.org/2000/svg"><defs
     id="defs2"><rect
       x="741.73456"
       y="372.14465"
       width="54.501736"
       height="16.180202"
       id="rect7577" /><rect
       x="392.58279"
       y="315.08813"
       width="1.7031792"
       height="14.477023"
       id="rect7567" /><rect
       x="3.4063585"
       y="24.696098"
       width="68.97876"
       height="113.26142"
       id="rect24038" /><rect
       x="42.796021"
       y="814.98511"
       width="293.99005"
       height="117.22389"
       id="rect20750" /><rect
       x="3.4063585"
       y="24.696098"
       width="27.145819"
       height="63.950569"
       id="rect24038-9" /><rect
       x="3.4063585"
       y="24.696098"
       width="24.53126"
       height="51.458485"
       id="rect24038-9-3" /><rect
       x="3.4063585"
       y="24.696098"
       width="27.519325"
       height="58.690742"
       id="rect24038-9-3-8" /><rect
       x="3.4063585"
       y="24.696098"
       width="31.25441"
       height="60.005699"
       id="rect24038-9-3-8-8" /><rect
       x="3.4063585"
       y="24.696098"
       width="31.25441"
       height="63.293091"
       id="rect24038-9-3-8-8-1" /><rect
       x="3.4063585"
       y="24.696098"
       width="35.152859"
       height="73.590446"
       id="rect24038-9-3-8-8-1-5" /><rect
       x="3.4063585"
       y="24.696098"
       width="36.209297"
       height="68.011559"
       id="rect24038-9-3-8-8-1-5-0" /><rect
       x="3.4063585"
       y="24.696098"
       width="60.507446"
       height="73.590446"
       id="rect24038-9-3-8-8-1-5-0-3" /><rect
       x="3.4063585"
       y="24.696098"
       width="54.1688"
       height="64.292305"
       id="rect24038-9-3-8-8-1-5-0-3-3" /><rect
       x="3.4063585"
       y="24.696098"
       width="27.757769"
       height="81.028961"
       id="rect24038-9-3-8-8-1-5-8" /><rect
       x="3.4063585"
       y="24.696098"
       width="52.05592"
       height="51.274906"
       id="rect24038-9-3-8-8-1-5-0-3-3-5" /><rect
       x="3.4063585"
       y="24.696098"
       width="53.112358"
       height="60.573048"
       id="rect24038-9-3-8-8-1-5-0-3-3-5-4" /><rect
       x="3.4063585"
       y="24.696098"
       width="68.97876"
       height="113.26142"
       id="rect24038-5" /><rect
       x="3.4063585"
       y="24.696098"
       width="27.145819"
       height="63.950569"
       id="rect24038-9-1" /><rect
       x="3.4063585"
       y="24.696098"
       width="24.53126"
       height="51.458485"
       id="rect24038-9-3-4" /><rect
       x="3.4063585"
       y="24.696098"
       width="35.646175"
       height="58.426201"
       id="rect24038-9-3-4-9" /><rect
       x="3.4063585"
       y="24.696098"
       width="117.11427"
       height="65.146156"
       id="rect24038-9-3-8-8-1-5-0-7" /><rect
       x="3.4063585"
       y="24.696098"
       width="27.519325"
       height="58.690742"
       id="rect24038-9-3-8-9" /><rect
       x="3.4063585"
       y="24.696098"
       width="117.11427"
       height="65.146156"
       id="rect24038-9-3-8-8-1-5-0-7-5" /><rect
       x="3.4063585"
       y="24.696098"
       width="117.11427"
       height="65.146156"
       id="rect24038-9-3-8-8-1-5-0-7-5-7" /><rect
       x="3.4063585"
       y="24.696098"
       width="117.11427"
       height="65.146156"
       id="rect24038-9-3-8-8-1-5-0-7-9" /><rect
       x="3.4063585"
       y="24.696098"
       width="117.11427"
       height="65.146156"
       id="rect24038-9-3-8-8-1-5-0-7-5-7-4" /><rect
       x="3.4063585"
       y="24.696098"
       width="117.11427"
       height="65.146156"
       id="rect24038-9-3-8-8-1-5-0-7-9-7" /><rect
       x="3.4063585"
       y="24.696098"
       width="117.11427"
       height="65.146156"
       id="rect24038-9-3-8-8-1-5-0-7-5-7-4-5" /><rect
       x="3.4063585"
       y="24.696098"
       width="27.519325"
       height="58.690742"
       id="rect24038-9-3-8-9-8" /></defs><g
     id="layer37"
     transform="translate(20.424706,-478.79102)"><rect
       style="display:inline;fill:#d4aa00;fill-opacity:1;stroke:none;stroke-width:0.695548;stroke-dasharray:none;stroke-opacity:1"
       id="rect18052-0-1-4"
       width="25"
       height="25"
       x="-20.424706"
       y="478.79102" /><path
       id="path18154-5-6-5-9"
       style="fill:#d4aa00;fill-opacity:1;stroke:none;stroke-width:0.802358;stroke-dasharray:none;stroke-opacity:1"
       d="m -13.771062,480.61933 -0.0023,6.1e-4 c -0.418017,0 0.839138,3.20796 1.358985,4.10058 -2.2238,0.9677 -3.681102,2.70515 -4.012809,5.02252 -0.0023,0.0166 -0.0059,0.0337 -0.0082,0.0508 -0.02038,0.12696 -0.02823,0.26553 -0.02425,0.41587 1.2e-5,7.2e-4 -3.5e-5,0.001 0,0.002 -8.67e-4,0.0155 -0.0012,0.0312 -0.0023,0.0466 0.0023,0.53661 0.114212,1.0701 0.331731,1.5866 1.163583,3.6668 5.100403,9.36914 5.733795,10.04927 1.876525,0.33358 3.8225728,0.41379 5.5703484,0 0.6333918,-0.68013 4.57021217,-6.38247 5.73379492,-10.04927 0.21751868,-0.5165 0.32938818,-1.04999 0.33173098,-1.5866 -0.00117,-0.0155 -0.00117,-0.0312 -0.00234,-0.0466 3.51e-5,-10e-4 -1.17e-5,-10e-4 0,-0.002 0.00351,-0.15034 -0.00351,-0.28891 -0.024248,-0.41587 -0.00234,-0.0171 -0.00586,-0.0342 -0.0082,-0.0508 -0.33170756,-2.31739 -1.78899738,-4.05482 -4.0128096,-5.02252 0.5198591,-0.89262 1.7770022,-4.10058 1.3589853,-4.10058 l -0.00234,-6.1e-4 v -6.1e-4 c -4.1929369,0.0429 -7.913281,0.006 -12.319906,0 z" /><path
       style="fill:#d4aa00;fill-opacity:1;stroke:none;stroke-width:0.686404;stroke-dasharray:none;stroke-opacity:1"
       d="m -13.563278,493.29777 c 0,0 4.2186848,7.52955 4.8060989,7.68975 0.587414,0.1602 1.4952316,0.10683 1.7622423,0.0534 0.266999,-0.0534 4.7526941,-4.8595 4.7526941,-4.8595 0,0 0.6408186,-0.85442 0.5874141,-1.06802 -0.053416,-0.21361 -2.8836544,-3.95169 -2.8836544,-3.95169 z"
       id="path18154-5-4-3" /><ellipse
       style="fill:#d4aa00;fill-opacity:1;stroke:none;stroke-width:0.726578;stroke-dasharray:none;stroke-opacity:1"
       id="path18097-3-79-1"
       cx="-7.5022182"
       cy="490.49423"
       rx="7.4494562"
       ry="5.1532083" /><path
       id="path10013-2-3-4-5-8-7-27"
       style="display:inline;fill:#000000;fill-opacity:1;stroke:none;stroke-width:0.622018;stroke-dasharray:none;stroke-opacity:1"
       d="m -12.11926,481.68632 c -0.35161,0 1.054267,3.21256 1.491554,3.9892 a 7.7237234,5.0774593 0 0 0 -3.679872,2.63204 10.962455,5.6719146 72.596621 0 1 5.126033,5.31006 6.9791926,12.013263 19.914605 0 1 7.5467944,-6.44386 7.7237234,5.0774593 0 0 0 -2.6998138,-1.49822 c 0.4372982,-0.77665 1.8425776,-3.98921 1.4909561,-3.98921 -0.1729349,0 -2.4072078,0.009 -4.6260298,0.0193 -0.011714,-5e-5 -0.011714,6e-5 -0.02296,0 -2.2188453,-0.009 -4.4530939,-0.0193 -4.6260289,-0.0193 z m 11.17581565,6.22231 a 6.5653919,11.300988 21.220369 0 0 -7.12184285,5.91117 11.300988,6.5653925 43.965627 0 1 0.859579,-0.0369 11.300988,6.5653925 43.965627 0 1 5.3681752,1.67982 c 1.1669798,-2.26521 2.1115093,-4.60505 1.74580751,-5.6085 -0.0070284,-0.0185 -0.01721969,-0.0367 -0.02600525,-0.0551 a 7.7237234,5.0774593 0 0 0 -0.82569019,-1.89049 z m -13.82842165,1.51821 a 7.7237234,5.0774593 0 0 0 -0.07263,0.37229 c -0.0082,0.0184 -0.01921,0.0364 -0.026,0.055 -0.77238,2.11929 4.296489,10.19884 4.972274,10.94943 0,0 0.7887323,0.11958 1.785155,0.21732 -0.0082,-0.0124 -0.012651,-0.0194 -0.020617,-0.0315 a 10.277356,5.3174488 71.950241 0 0 -1.210685,-4.80096 10.277356,5.3174488 71.950241 0 0 -5.427483,-6.76167 z m 7.1309212,5.46198 a 11.300988,6.5653919 44.140317 0 0 -0.8916754,0.0938 10.962455,5.6719146 72.596621 0 1 0.3093336,0.75063 10.962455,5.6719146 72.596621 0 1 1.2530548,5.29976 c 1.0530487,-0.0997 1.9062201,-0.22942 1.9062201,-0.22942 0.3122856,-0.34683 1.561346,-2.26132 2.7397822,-4.42686 a 11.300988,6.5653919 44.140317 0 0 -5.3167153,-1.48794 z" /><path
       id="path18154-5-6-5-8-2-1-7"
       style="fill:#000000;fill-opacity:1;stroke:none;stroke-width:0.917791;stroke-dasharray:none;stroke-opacity:1"
       d="m -15.319956,479.46958 6.09e-4,6.1e-4 -0.0023,6e-4 c -0.493057,0 0.770646,3.55897 1.383808,4.54915 -2.239498,1.4296 -3.355802,3.00093 -3.747064,5.57157 -0.0023,0.0184 -0.0059,0.0372 -0.01054,0.0562 -0.09805,0.75291 0.08879,1.65685 0.360173,2.27488 1.372468,4.06755 5.714326,10.39353 6.461415,11.14798 2.2409263,0.4147 4.2802182,0.36387 6.4856393,6e-4 0.747077,-0.75445 5.0889467,-7.08042 6.4614149,-11.14797 0.2713801,-0.61804 0.4582196,-1.52197 0.3601728,-2.27488 -0.00469,-0.019 -0.0082,-0.038 -0.010543,-0.0563 -0.3912619,-2.57063 -1.5075784,-4.14197 -3.747064,-5.57157 0.61316165,-0.99018 1.87686462,-4.54914 1.38380738,-4.54914 l -0.0023428,-6.1e-4 6.0914e-4,-5.9e-4 c -5.27194402,0.0295 -10.51815172,0.006 -15.37809972,-6.1e-4 z m 1.571467,1.20524 c 4.1019537,0.0365 8.3093457,0.006 12.2357756,6e-4 l -6.091e-4,6.1e-4 0.00234,6.1e-4 c 0.4180169,0 -0.8391497,3.20795 -1.358997,4.10058 2.22377706,0.9677 3.68110202,2.70514 4.0128096,5.02252 0.00234,0.0166 0.00586,0.0337 0.0082,0.0508 0.020734,0.12696 0.027762,0.26554 0.024248,0.41588 -1.18e-5,0.001 3.51e-5,0.001 0,0.002 0.00117,0.0155 6.442e-4,0.0312 0.00234,0.0466 -0.00234,0.53661 -0.1142123,1.07011 -0.33173099,1.58659 -1.16358276,3.66678 -5.10040311,9.36916 -5.73379501,10.04929 -1.8731161,0.36425 -3.746607,0.30386 -5.4856091,-6.1e-4 -0.633392,-0.68013 -4.570212,-6.38251 -5.733795,-10.04928 -0.217519,-0.51649 -0.329388,-1.04999 -0.331731,-1.5866 0.0012,-0.0155 0.0012,-0.0312 0.0023,-0.0466 -3.5e-5,-10e-4 1.2e-5,-10e-4 0,-0.002 -0.0035,-0.15034 0.0035,-0.28892 0.02425,-0.41587 0.0023,-0.0171 0.0059,-0.0342 0.0082,-0.0508 0.331707,-2.31738 1.789044,-4.05483 4.012809,-5.02253 -0.519847,-0.89263 -1.777002,-4.10059 -1.358985,-4.10059 l 0.0023,-6e-4 z" /></g></svg>
