<svg width="47" height="47" viewBox="0 0 47 47" fill="none" xmlns="http://www.w3.org/2000/svg">
<mask id="path-1-inside-1_340_2721" fill="white">
<ellipse cx="23.0472" cy="32.096" rx="2.09998" ry="2.0999"/>
</mask>
<ellipse cx="23.0472" cy="32.096" rx="2.09998" ry="2.0999" fill="#D9D9D9"/>
<path d="M22.1472 32.096C22.1472 31.5988 22.5503 31.1959 23.0472 31.1959V37.1959C25.8638 37.1959 28.1472 34.9127 28.1472 32.096H22.1472ZM23.0472 31.1959C23.5442 31.1959 23.9473 31.5988 23.9473 32.096H17.9473C17.9473 34.9127 20.2307 37.1959 23.0472 37.1959V31.1959ZM23.9473 32.096C23.9473 32.5932 23.5442 32.9961 23.0472 32.9961V26.9961C20.2307 26.9961 17.9473 29.2793 17.9473 32.096H23.9473ZM23.0472 32.9961C22.5503 32.9961 22.1472 32.5932 22.1472 32.096H28.1472C28.1472 29.2793 25.8638 26.9961 23.0472 26.9961V32.9961Z" fill="#D9D9D9" mask="url(#path-1-inside-1_340_2721)"/>
<path d="M18.2686 12.1973C19.341 10.1088 21.252 9.5957 23.4705 9.5957C26.8991 9.5957 29.348 10.821 29.348 17.1925C29.348 18.1364 28.4956 19.1973 27.9956 19.6973" stroke="#D9D9D9" stroke-width="3"/>
<path fill-rule="evenodd" clip-rule="evenodd" d="M3.38144 40.3827C4.69486 38.3678 5.91625 36.4941 4.74774 35.0996C1.95993 31.7726 1.63093 28.4375 1.22902 23.7848C0.876915 19.7086 1.66522 15.797 3.32915 12.3647L5.76307 14.2468C4.51102 17.0673 3.93354 20.2348 4.21789 23.5266C4.62576 28.2483 4.93991 30.6579 7.04719 33.1728C8.41829 34.8091 8.37457 36.6781 7.96267 38.0828C7.59481 39.3374 6.85769 40.5258 6.30146 41.3934C6.14138 41.6431 5.98939 41.8765 5.84496 42.0982L5.84434 42.0992L5.84428 42.0993C5.70262 42.3167 5.56825 42.523 5.44066 42.7226C5.58461 42.6784 5.73297 42.6315 5.88564 42.5819C8.67129 41.6761 11.8659 40.2076 13.2436 39.4779L14.494 38.8157L15.8004 39.3594C18.514 40.4888 21.5332 41.0003 24.674 40.729C28.5181 40.397 31.9935 38.9364 34.8023 36.7017L37.2361 38.5837C33.8873 41.4365 29.6492 43.3105 24.9322 43.7179C21.299 44.0317 17.7965 43.4396 14.6477 42.1291C11.6477 43.7179 1.22901 48.2989 1.22902 45.2991C1.22902 43.6847 2.33447 41.9889 3.38144 40.3827ZM42.962 31.0204C44.4913 27.6894 45.2041 23.9283 44.8661 20.0156C43.8253 7.96607 33.213 -0.958289 21.1629 0.0825336C16.61 0.47579 12.5033 2.23538 9.21168 4.9226L11.6587 6.81481C14.4011 4.74054 17.7423 3.38916 21.4211 3.0714C31.8206 2.17315 40.979 9.87505 41.8772 20.2738C42.1474 23.4011 41.6397 26.4161 40.5148 29.1281L42.962 31.0204Z" fill="#D9D9D9"/>
<path d="M1 4.48047L45.405 38.8171" stroke="#D9D9D9" stroke-width="3"/>
</svg>
