<svg width="50" height="49" viewBox="0 0 50 49" fill="none" xmlns="http://www.w3.org/2000/svg">
<mask id="path-1-inside-1_340_2527" fill="white">
<ellipse cx="25.5521" cy="33.9026" rx="2.09998" ry="2.0999"/>
</mask>
<ellipse cx="25.5521" cy="33.9026" rx="2.09998" ry="2.0999" fill="#D9D9D9"/>
<path d="M24.6521 33.9026C24.6521 33.4054 25.0552 33.0025 25.5521 33.0025V39.0025C28.3687 39.0025 30.6521 36.7193 30.6521 33.9026H24.6521ZM25.5521 33.0025C26.0491 33.0025 26.4521 33.4054 26.4521 33.9026H20.4521C20.4521 36.7193 22.7356 39.0025 25.5521 39.0025V33.0025ZM26.4521 33.9026C26.4521 34.3999 26.0491 34.8027 25.5521 34.8027V28.8027C22.7356 28.8027 20.4521 31.0859 20.4521 33.9026H26.4521ZM25.5521 34.8027C25.0552 34.8027 24.6521 34.3999 24.6521 33.9026H30.6521C30.6521 31.0859 28.3687 28.8027 25.5521 28.8027V34.8027Z" fill="#D9D9D9" mask="url(#path-1-inside-1_340_2527)"/>
<path d="M19.8525 18.9992C19.8525 12.6276 22.5464 11.4023 25.9749 11.4023C29.4035 11.4023 31.8524 12.6276 31.8524 18.9992C31.8524 21.6948 25.9749 21.9399 25.9749 24.1454C25.9749 25.9098 25.9749 27.9846 25.9749 28.8015" stroke="#D9D9D9" stroke-width="3"/>
<path fill-rule="evenodd" clip-rule="evenodd" d="M7.25259 36.9024C8.42111 38.2969 7.19971 40.1707 5.88629 42.1856C4.83932 43.7917 3.73388 45.4876 3.73387 47.1019C3.73387 50.1018 14.1525 45.5208 17.1525 43.9319C20.3014 45.2425 23.8039 45.8346 27.4371 45.5208C39.4871 44.4799 48.4118 33.8681 47.371 21.8185C46.3301 9.76892 35.7178 0.844563 23.6678 1.88539C11.6177 2.92621 2.69301 13.5381 3.73388 25.5876C4.13579 30.2404 4.46479 33.5754 7.25259 36.9024ZM7.94551 44.5255C8.08946 44.4813 8.23783 44.4344 8.3905 44.3847C11.1761 43.4789 14.3708 42.0104 15.7484 41.2808L16.9989 40.6185L18.3052 41.1622C21.0189 42.2916 24.0381 42.8032 27.1789 42.5319C37.5783 41.6336 45.2804 32.4754 44.3821 22.0767C43.4838 11.6779 34.3254 3.976 23.926 4.87425C13.5265 5.77251 5.82448 14.9307 6.72275 25.3295C7.13061 30.0511 7.44476 32.4608 9.55205 34.9756C10.9231 36.6119 10.8794 38.4809 10.4675 39.8857C10.0997 41.1403 9.36254 42.3286 8.80632 43.1962C8.646 43.4463 8.4938 43.68 8.34919 43.902C8.20751 44.1195 8.07312 44.3259 7.94551 44.5255Z" fill="#D9D9D9"/>
</svg>
