<?xml version="1.0" encoding="UTF-8" standalone="no"?>
<svg
   width="128"
   height="128"
   viewBox="0 0 128 128"
   fill="none"
   version="1.1"
   id="svg13"
   sodipodi:docname="ControlsHelp_Shown_V2.svg"
   inkscape:version="1.1.1 (3bf5ae0d25, 2021-09-20)"
   xmlns:inkscape="http://www.inkscape.org/namespaces/inkscape"
   xmlns:sodipodi="http://sodipodi.sourceforge.net/DTD/sodipodi-0.dtd"
   xmlns="http://www.w3.org/2000/svg"
   xmlns:svg="http://www.w3.org/2000/svg">
  <defs
     id="defs17" />
  <sodipodi:namedview
     id="namedview15"
     pagecolor="#ffffff"
     bordercolor="#666666"
     borderopacity="1.0"
     inkscape:pageshadow="2"
     inkscape:pageopacity="0.0"
     inkscape:pagecheckerboard="true"
     showgrid="false"
     inkscape:zoom="5.7434388"
     inkscape:cx="59.981487"
     inkscape:cy="63.028442"
     inkscape:window-width="1920"
     inkscape:window-height="1000"
     inkscape:window-x="-11"
     inkscape:window-y="-11"
     inkscape:window-maximized="1"
     inkscape:current-layer="svg13" />
  <mask
     id="path-1-inside-1_340_2527"
     fill="#ffffff">
    <ellipse
       cx="25.552099"
       cy="33.902599"
       rx="2.0999801"
       ry="2.0999"
       id="ellipse2" />
  </mask>
  <ellipse
     cx="63.999199"
     cy="86.917336"
     rx="5.3759265"
     ry="5.3757105"
     fill="#d9d9d9"
     id="ellipse5"
     style="stroke-width:2.55999" />
  <path
     d="m 24.6521,33.9026 c 0,-0.4972 0.4031,-0.9001 0.9,-0.9001 v 6 c 2.8166,0 5.1,-2.2832 5.1,-5.0999 z m 0.9,-0.9001 c 0.497,0 0.9,0.4029 0.9,0.9001 h -6 c 0,2.8167 2.2835,5.0999 5.1,5.0999 z m 0.9,0.9001 c 0,0.4973 -0.403,0.9001 -0.9,0.9001 v -6 c -2.8165,0 -5.1,2.2832 -5.1,5.0999 z m -0.9,0.9001 c -0.4969,0 -0.9,-0.4028 -0.9,-0.9001 h 6 c 0,-2.8167 -2.2834,-5.0999 -5.1,-5.0999 z"
     fill="#D9D9D9"
     mask="url(#path-1-inside-1_340_2527)"
     id="path7"
     style="fill:#ffffff;stroke:#ffffff"
     transform="matrix(2.5599892,0,0,2.5599841,-1.4138956,0.12721838)" />
  <path
     d="m 49.40829,48.76487 c 0,-16.311197 6.89635,-19.447945 15.67328,-19.447945 8.77718,0 15.04633,3.136748 15.04633,19.447945 0,6.90069 -15.04633,7.52814 -15.04633,13.17419 0,4.51684 0,9.82829 0,11.91954"
     stroke="#D9D9D9"
     stroke-width="7.67996"
     id="path9"
     style="stroke:#ffffff" />
  <path
     fill-rule="evenodd"
     clip-rule="evenodd"
     d="m 17.152656,94.59678 c 2.991398,3.56989 -0.135372,8.36679 -3.497713,13.5249 -2.680232,4.11159 -5.5101466,8.45307 -5.5101716,12.58565 0,7.6797 26.6715796,-4.04759 34.3515466,-8.11515 8.061152,3.35512 17.027512,4.87088 26.328462,4.06756 30.84787,-2.66469 53.69501,-29.83072 51.03057,-60.67751 C 117.19066,25.135498 90.02328,2.2892864 59.17542,4.9537864 28.32729,7.6182694 5.4801804,34.784539 8.1447964,65.63107 9.1736824,77.54216 10.015918,86.07971 17.152656,94.59678 Z m 1.773868,19.51501 c 0.36851,-0.11315 0.748336,-0.23322 1.139169,-0.36045 7.131106,-2.31883 15.309503,-6.07817 18.836144,-7.94593 l 3.201267,-1.69548 3.344116,1.39186 c 6.94704,2.89125 14.67616,4.20094 22.71657,3.50641 C 94.78614,106.70857 114.50344,83.26373 112.2038,56.64322 109.90416,30.022456 86.45876,10.305715 59.8364,12.605221 33.213798,14.904752 13.49671,38.349573 15.796271,64.97034 c 1.044117,12.08722 1.848338,18.25601 7.242978,24.69386 3.509873,4.1889 3.398001,8.97351 2.343542,12.56978 -0.941564,3.21175 -2.828686,6.25378 -4.252603,8.47482 -0.410418,0.64025 -0.800048,1.23852 -1.170248,1.80684 -0.362699,0.55679 -0.706736,1.08517 -1.033416,1.59615 z"
     fill="#D9D9D9"
     id="path11"
     style="fill:#ffffff;stroke-width:2.55999" />
</svg>
