<?xml version="1.0" encoding="UTF-8" standalone="no"?>
<svg
   width="128"
   height="128"
   viewBox="0 0 128 128"
   fill="none"
   version="1.1"
   id="svg15"
   sodipodi:docname="ControlsHelp_Hidden_V2.svg"
   inkscape:version="1.1.1 (3bf5ae0d25, 2021-09-20)"
   xmlns:inkscape="http://www.inkscape.org/namespaces/inkscape"
   xmlns:sodipodi="http://sodipodi.sourceforge.net/DTD/sodipodi-0.dtd"
   xmlns="http://www.w3.org/2000/svg"
   xmlns:svg="http://www.w3.org/2000/svg">
  <defs
     id="defs19" />
  <sodipodi:namedview
     id="namedview17"
     pagecolor="#ffffff"
     bordercolor="#666666"
     borderopacity="1.0"
     inkscape:pageshadow="2"
     inkscape:pageopacity="0.0"
     inkscape:pagecheckerboard="true"
     showgrid="false"
     inkscape:zoom="4.2340425"
     inkscape:cx="60.344222"
     inkscape:cy="62.115579"
     inkscape:window-width="1920"
     inkscape:window-height="1000"
     inkscape:window-x="-11"
     inkscape:window-y="-11"
     inkscape:window-maximized="1"
     inkscape:current-layer="svg15" />
  <mask
     id="path-1-inside-1_340_2721"
     fill="#ffffff">
    <ellipse
       cx="23.047199"
       cy="32.096001"
       rx="2.0999801"
       ry="2.0999"
       id="ellipse2" />
  </mask>
  <ellipse
     cx="63.573303"
     cy="88.36985"
     rx="5.7701306"
     ry="5.7188411"
     fill="#d9d9d9"
     id="ellipse5"
     style="stroke-width:2.73552" />
  <path
     d="m 22.1472,32.096 c 0,-0.4972 0.4031,-0.9001 0.9,-0.9001 v 6 c 2.8166,0 5.1,-2.2832 5.1,-5.0999 z m 0.9,-0.9001 c 0.497,0 0.9001,0.4029 0.9001,0.9001 h -6 c 0,2.8167 2.2834,5.0999 5.0999,5.0999 z m 0.9001,0.9001 c 0,0.4972 -0.4031,0.9001 -0.9001,0.9001 v -6 c -2.8165,0 -5.0999,2.2832 -5.0999,5.0999 z m -0.9001,0.9001 c -0.4969,0 -0.9,-0.4029 -0.9,-0.9001 h 6 c 0,-2.8167 -2.2834,-5.0999 -5.1,-5.0999 z"
     fill="#D9D9D9"
     mask="url(#path-1-inside-1_340_2721)"
     id="path7"
     style="fill:#ffffff;stroke:#ffffff"
     transform="matrix(2.7477074,0,0,2.7233873,0.24634456,0.95999999)" />
  <path
     d="m 50.443111,34.177972 c 2.94664,-5.687794 8.19751,-7.085165 14.2933,-7.085165 9.42079,0 16.14965,3.336967 16.14965,20.689033 0,2.5706 -2.34215,5.45984 -3.716,6.82154"
     stroke="#D9D9D9"
     stroke-width="8.20656"
     id="path9"
     style="stroke:#ffffff" />
  <path
     fill-rule="evenodd"
     clip-rule="evenodd"
     d="M 9.5375526,110.93773 C 13.146447,105.45038 16.502469,100.34757 13.291745,96.54981 5.6316586,87.4891 4.7276636,78.40633 3.6233316,65.73522 2.6558506,54.63415 4.8218816,43.98135 9.3938746,34.633867 l 6.6877004,5.125683 c -3.440267,7.68132 -5.027013,16.30765 -4.245702,25.27249 1.120707,12.85902 1.983899,19.4213 7.774088,26.27034 3.767382,4.45628 3.647252,9.54629 2.515471,13.37183 -1.010772,3.41677 -3.036162,6.65324 -4.564519,9.01605 -0.439853,0.68003 -0.857477,1.31567 -1.254328,1.91944 l -0.0017,0.003 -1.65e-4,2.7e-4 c -0.389239,0.59206 -0.758449,1.1539 -1.109029,1.69749 0.395532,-0.12038 0.803182,-0.2481 1.222674,-0.38318 7.654151,-2.46685 16.432005,-6.46614 20.217516,-8.4534 l 3.43574,-1.80343 3.5896,1.48071 c 7.45618,3.07579 15.75206,4.46881 24.38206,3.72995 10.56246,-0.90416 20.11184,-4.88194 27.8296,-10.9679 l 6.687379,5.12542 c -9.201529,7.76928 -20.846589,12.87291 -33.807519,13.98241 -9.98297,0.8546 -19.60682,-0.75792 -28.2588,-4.32691 -8.243121,4.32691 -36.8706324,16.80275 -36.8706054,8.63313 0,-4.39663 3.037453,-9.01495 5.914221,-13.38926 z M 118.29334,85.44056 c 4.20207,-9.0716 6.16064,-19.31453 5.23191,-29.97033 C 120.66544,22.654694 91.505951,-1.649792 58.395801,1.184771 45.885761,2.255761 34.601754,7.047806 25.557346,14.366146 l 6.723695,5.153221 c 7.53531,-5.649041 16.71595,-9.329372 26.82422,-10.194755 28.57478,-2.446283 53.739379,18.528974 56.207369,46.848798 0.74243,8.51685 -0.65258,16.72786 -3.74348,24.11369 z"
     fill="#D9D9D9"
     id="path11"
     style="fill:#ffffff;stroke-width:2.73552" />
  <path
     d="M 2.9940516,13.162055 125.00599,106.674"
     stroke="#D9D9D9"
     stroke-width="8.20656"
     id="path13"
     style="stroke:#ffffff" />
</svg>
