<?xml version="1.0" encoding="UTF-8" standalone="no"?>
<svg
   width="128"
   height="128"
   viewBox="0 0 128 128"
   fill="none"
   version="1.1"
   id="svg6"
   sodipodi:docname="Export_V2.svg"
   inkscape:version="1.1.1 (3bf5ae0d25, 2021-09-20)"
   xmlns:inkscape="http://www.inkscape.org/namespaces/inkscape"
   xmlns:sodipodi="http://sodipodi.sourceforge.net/DTD/sodipodi-0.dtd"
   xmlns="http://www.w3.org/2000/svg"
   xmlns:svg="http://www.w3.org/2000/svg">
  <defs
     id="defs10" />
  <sodipodi:namedview
     id="namedview8"
     pagecolor="#ffffff"
     bordercolor="#666666"
     borderopacity="1.0"
     inkscape:pageshadow="2"
     inkscape:pageopacity="0.0"
     inkscape:pagecheckerboard="true"
     showgrid="false"
     inkscape:zoom="3.1269833"
     inkscape:cx="43.972092"
     inkscape:cy="86.664996"
     inkscape:window-width="1920"
     inkscape:window-height="1000"
     inkscape:window-x="-11"
     inkscape:window-y="-11"
     inkscape:window-maximized="1"
     inkscape:current-layer="svg6" />
  <path
     d="M 28.461341,20.702037 H 14.475569 c -4.827166,0 -8.740379,3.759805 -8.740379,8.397796 v 83.977947 c 0,4.6381 3.913213,8.39779 8.740379,8.39779 h 87.409041 c 4.82731,0 8.74038,-3.75969 8.74038,-8.39779 V 80.326369"
     stroke="#D9D9D9"
     stroke-width="8.56738"
     id="path2"
     style="stroke:#ffffff" />
  <path
     d="M 80.16593,18.946534 V 9.9985985 L 118.8558,34.352347 80.16593,61.910279 v -9.87077 c 0,-1.73023 -0.68059,-3.64857 -2.34592,-5.03168 -1.74487,-1.44974 -6.25928,-4.72516 -12.16224,-4.66974 -6.44282,0.0605 -12.69598,3.98868 -17.79366,13.37237 -4.76846,8.77794 -6.94394,18.74333 -7.871,27.3925 -2.628818,-10.86423 -3.341451,-24.47706 3.04602,-37.518 4.99804,-10.203602 10.69473,-15.090838 15.52699,-17.415713 4.86169,-2.339039 9.33356,-2.316785 12.26974,-1.87772 2.29435,0.34308 4.53947,-0.306464 6.21645,-1.514934 1.69709,-1.223083 3.11362,-3.260333 3.11362,-5.830058 z"
     fill="#D9D9D9"
     stroke="#D9D9D9"
     stroke-width="8.56738"
     id="path4"
     style="fill:#ffffff;stroke:#ffffff" />
</svg>
