<svg width="60" height="45" viewBox="0 0 60 45" fill="none" xmlns="http://www.w3.org/2000/svg">
<path d="M16.4004 18.3008H43.6004C43.8765 18.3008 44.1004 18.5246 44.1004 18.8008V43.0008C44.1004 43.2769 43.8765 43.5008 43.6004 43.5008H36.8004C36.5243 43.5008 36.3004 43.2769 36.3004 43.0008V32.9008C36.3004 30.9678 34.7334 29.4008 32.8004 29.4008H30.0004H27.2004C25.2674 29.4008 23.7004 30.9678 23.7004 32.9008V43.0008C23.7004 43.2769 23.4765 43.5008 23.2004 43.5008H16.4004C16.1242 43.5008 15.9004 43.2769 15.9004 43.0008V18.8008C15.9004 18.5246 16.1242 18.3008 16.4004 18.3008Z" fill="#D9D9D9" stroke="#D9D9D9" stroke-width="3"/>
<path d="M30.3449 2.40022L51.3266 22.388C51.6534 22.6993 51.433 23.25 50.9817 23.25H9.0183C8.56697 23.25 8.34664 22.6993 8.67342 22.388L29.6551 2.40022C29.8482 2.21625 30.1518 2.21625 30.3449 2.40022Z" fill="#D9D9D9" stroke="#D9D9D9" stroke-width="3"/>
</svg>
