<?xml version="1.0" encoding="UTF-8" standalone="no"?>
<svg
   width="128"
   height="128"
   viewBox="0 0 128 128"
   fill="none"
   version="1.1"
   id="svg6"
   sodipodi:docname="Home_V2.svg"
   inkscape:version="1.1.1 (3bf5ae0d25, 2021-09-20)"
   xmlns:inkscape="http://www.inkscape.org/namespaces/inkscape"
   xmlns:sodipodi="http://sodipodi.sourceforge.net/DTD/sodipodi-0.dtd"
   xmlns="http://www.w3.org/2000/svg"
   xmlns:svg="http://www.w3.org/2000/svg">
  <defs
     id="defs10" />
  <sodipodi:namedview
     id="namedview8"
     pagecolor="#ffffff"
     bordercolor="#666666"
     borderopacity="1.0"
     inkscape:pageshadow="2"
     inkscape:pageopacity="0.0"
     inkscape:pagecheckerboard="true"
     showgrid="false"
     inkscape:zoom="4.4222223"
     inkscape:cx="49.409547"
     inkscape:cy="66.482412"
     inkscape:window-width="1920"
     inkscape:window-height="1000"
     inkscape:window-x="-11"
     inkscape:window-y="-11"
     inkscape:window-maximized="1"
     inkscape:current-layer="svg6" />
  <path
     d="m 34.98177,54.21412 h 58.03839 c 0.58914,0 1.06688,0.4777 1.06688,1.06726 v 51.65547 c 0,0.58934 -0.47774,1.06726 -1.06688,1.06726 h -14.5096 c -0.58913,0 -1.06688,-0.47792 -1.06688,-1.06726 V 85.37816 c 0,-4.12603 -3.34361,-7.47083 -7.46817,-7.47083 h -5.97454 -5.97455 c -4.12456,0 -7.468169,3.3448 -7.468169,7.47083 v 21.55869 c 0,0.58934 -0.477751,1.06726 -1.066883,1.06726 H 34.98177 c -0.589346,0 -1.066882,-0.47792 -1.066882,-1.06726 V 55.28138 c 0,-0.58956 0.477536,-1.06726 1.066882,-1.06726 z"
     fill="#D9D9D9"
     stroke="#D9D9D9"
     stroke-width="6.40244"
     id="path2"
     style="fill:#ffffff;stroke:#ffffff" />
  <path
     d="m 64.73605,20.273951 44.77,42.664389 c 0.69732,0.66448 0.22703,1.83996 -0.73594,1.83996 H 19.230107 c -0.963032,0 -1.433164,-1.17548 -0.735893,-1.83996 L 63.26418,20.273951 c 0.41203,-0.392688 1.05984,-0.392688 1.47187,0 z"
     fill="#D9D9D9"
     stroke="#D9D9D9"
     stroke-width="6.40244"
     id="path4"
     style="fill:#ffffff;stroke:#ffffff" />
</svg>
