<?xml version="1.0" encoding="UTF-8" standalone="no"?>
<svg
   width="128"
   height="128"
   viewBox="0 0 128 128"
   fill="none"
   version="1.1"
   id="svg6"
   sodipodi:docname="Import_V2.svg"
   inkscape:version="1.1.1 (3bf5ae0d25, 2021-09-20)"
   xmlns:inkscape="http://www.inkscape.org/namespaces/inkscape"
   xmlns:sodipodi="http://sodipodi.sourceforge.net/DTD/sodipodi-0.dtd"
   xmlns="http://www.w3.org/2000/svg"
   xmlns:svg="http://www.w3.org/2000/svg">
  <defs
     id="defs10" />
  <sodipodi:namedview
     id="namedview8"
     pagecolor="#ffffff"
     bordercolor="#666666"
     borderopacity="1.0"
     inkscape:pageshadow="2"
     inkscape:pageopacity="0.0"
     inkscape:pagecheckerboard="true"
     showgrid="false"
     inkscape:zoom="3.98"
     inkscape:cx="46.859296"
     inkscape:cy="49.497487"
     inkscape:window-width="1920"
     inkscape:window-height="1000"
     inkscape:window-x="-11"
     inkscape:window-y="-11"
     inkscape:window-maximized="1"
     inkscape:current-layer="svg6" />
  <path
     d="M 26.077575,17.92048 H 13.788439 c -4.2415141,0 -7.6799591,3.438318 -7.6799591,7.679959 v 76.799581 c 0,4.24164 3.43842,7.67996 7.6799591,7.67996 H 90.59365 c 4.24139,0 7.67996,-3.43832 7.67996,-7.67996 V 72.44818"
     stroke="#D9D9D9"
     stroke-width="7.67996"
     id="path2"
     style="stroke:#ffffff" />
  <path
     d="m 48.97033,36.916346 -7.0374,-5.71517 0.002,37.154364 38.75947,-5.67652 -6.5551,-5.32323 c -2.0142,-1.63583 -3.07608,-4.63665 -1.67935,-7.424219 1.71545,-3.423469 6.2223,-10.298568 15.99556,-14.278323 6.5167,-2.653681 16.06059,-4.040426 23.57645,-4.771302 -8.49532,-4.225769 -20.41333,-8.529362 -31.23644,-6.880475 -13.43839,2.047221 -19.49506,8.2045 -21.83745,11.414211 -2.04031,2.796017 -6.6063,4.246761 -9.98804,1.500664 z"
     fill="#D9D9D9"
     stroke="#D9D9D9"
     stroke-width="7.67996"
     id="path4"
     style="fill:#ffffff;stroke:#ffffff" />
</svg>
