<svg width="49" height="50" viewBox="0 0 49 50" fill="none" xmlns="http://www.w3.org/2000/svg">
<path d="M9.80047 12H5C3.34315 12 2 13.3431 2 15V45C2 46.6569 3.34314 48 5 48H35.0022C36.659 48 38.0022 46.6569 38.0022 45V33.3" stroke="#D9D9D9" stroke-width="3"/>
<path d="M18.743 19.4203L15.994 17.1878L15.9949 31.7013L31.1354 29.4839L28.5748 27.4045C27.788 26.7655 27.3732 25.5933 27.9188 24.5044C28.5889 23.1671 30.3494 20.4815 34.1671 18.9269C36.7127 17.8903 40.4408 17.3486 43.3767 17.0631C40.0582 15.4124 35.4027 13.7313 31.1749 14.3754C25.9255 15.1751 23.5596 17.5803 22.6446 18.8341C21.8476 19.9263 20.064 20.493 18.743 19.4203Z" fill="#D9D9D9" stroke="#D9D9D9" stroke-width="3"/>
</svg>
