<svg width="42" height="42" viewBox="0 0 42 42" fill="none" xmlns="http://www.w3.org/2000/svg">
<path d="M21 3.5C21 2.67157 21.6716 2 22.5 2V2C23.3284 2 24 2.67157 24 3.5V7.5C24 8.32843 23.3284 9 22.5 9V9C21.6716 9 21 8.32843 21 7.5V3.5Z" fill="#D9D9D9"/>
<mask id="path-2-inside-1_340_2510" fill="white">
<path fill-rule="evenodd" clip-rule="evenodd" d="M0 39V3C0 1.34315 1.34315 0 3 0H6C7.65685 0 9 1.34315 9 3V8.17742C9 9.83428 10.3431 11.1774 12 11.1774H23.4923C25.1492 11.1774 26.4923 9.83427 26.4923 8.17742V3C26.4923 1.34314 27.8355 0 29.4923 0H32.3157C33.1359 0 33.9203 0.335842 34.4865 0.929368L41.1708 7.93716C41.7031 8.49515 42 9.23666 42 10.0078V39C42 40.6569 40.6569 42 39 42H3C1.34315 42 0 40.6569 0 39ZM11.4004 17.4004C9.74354 17.4004 8.40039 18.7435 8.40039 20.4004V33.6004C8.40039 35.2572 9.74354 36.6004 11.4004 36.6004H31.2004C32.8572 36.6004 34.2004 35.2572 34.2004 33.6004V20.4004C34.2004 18.7435 32.8572 17.4004 31.2004 17.4004H11.4004Z"/>
</mask>
<path fill-rule="evenodd" clip-rule="evenodd" d="M0 39V3C0 1.34315 1.34315 0 3 0H6C7.65685 0 9 1.34315 9 3V8.17742C9 9.83428 10.3431 11.1774 12 11.1774H23.4923C25.1492 11.1774 26.4923 9.83427 26.4923 8.17742V3C26.4923 1.34314 27.8355 0 29.4923 0H32.3157C33.1359 0 33.9203 0.335842 34.4865 0.929368L41.1708 7.93716C41.7031 8.49515 42 9.23666 42 10.0078V39C42 40.6569 40.6569 42 39 42H3C1.34315 42 0 40.6569 0 39ZM11.4004 17.4004C9.74354 17.4004 8.40039 18.7435 8.40039 20.4004V33.6004C8.40039 35.2572 9.74354 36.6004 11.4004 36.6004H31.2004C32.8572 36.6004 34.2004 35.2572 34.2004 33.6004V20.4004C34.2004 18.7435 32.8572 17.4004 31.2004 17.4004H11.4004Z" fill="#D9D9D9"/>
<path d="M34.4865 0.929368L32.3157 3L32.3157 3L34.4865 0.929368ZM41.1708 7.93716L39 10.0078L39 10.0078L41.1708 7.93716ZM-3 3V39H3V3H-3ZM3 -3C-0.31371 -3 -3 -0.313706 -3 3H3L3 3V-3ZM6 -3H3V3H6V-3ZM12 3C12 -0.313709 9.31371 -3 6 -3V3L6 3H12ZM12 8.17742V3H6V8.17742H12ZM12 8.17742V8.17742H6C6 11.4911 8.6863 14.1774 12 14.1774V8.17742ZM23.4923 8.17742H12V14.1774H23.4923V8.17742ZM23.4923 8.17742V14.1774C26.806 14.1774 29.4923 11.4911 29.4923 8.17742H23.4923ZM23.4923 3V8.17742H29.4923V3H23.4923ZM29.4923 -3C26.1786 -3 23.4923 -0.313714 23.4923 3H29.4923V3V-3ZM32.3157 -3H29.4923V3H32.3157V-3ZM36.6573 -1.14126C35.525 -2.32832 33.9561 -3 32.3157 -3V3L32.3157 3L36.6573 -1.14126ZM43.3417 5.86652L36.6573 -1.14126L32.3157 3L39 10.0078L43.3417 5.86652ZM45 10.0078C45 8.46554 44.4061 6.98251 43.3416 5.86652L39 10.0078L39 10.0078H45ZM45 39V10.0078H39V39H45ZM39 45C42.3137 45 45 42.3137 45 39H39V39V45ZM3 45H39V39H3V45ZM-3 39C-3 42.3137 -0.313706 45 3 45V39H3H-3ZM11.4004 20.4004V20.4004V14.4004C8.08668 14.4004 5.40039 17.0867 5.40039 20.4004H11.4004ZM11.4004 33.6004V20.4004H5.40039V33.6004H11.4004ZM11.4004 33.6004H11.4004H5.40039C5.40039 36.9141 8.08669 39.6004 11.4004 39.6004V33.6004ZM31.2004 33.6004H11.4004V39.6004H31.2004V33.6004ZM31.2004 33.6004V33.6004V39.6004C34.5141 39.6004 37.2004 36.9141 37.2004 33.6004H31.2004ZM31.2004 20.4004V33.6004H37.2004V20.4004H31.2004ZM31.2004 20.4004H31.2004H37.2004C37.2004 17.0867 34.5141 14.4004 31.2004 14.4004V20.4004ZM11.4004 20.4004H31.2004V14.4004H11.4004V20.4004Z" fill="#D9D9D9" mask="url(#path-2-inside-1_340_2510)"/>
<path d="M12.5 25C11.6716 25 11 24.3284 11 23.5V23.5C11 22.6716 11.6716 22 12.5 22L29.5 22C30.3284 22 31 22.6716 31 23.5V23.5C31 24.3284 30.3284 25 29.5 25L12.5 25Z" fill="#D9D9D9"/>
<path d="M12.5 32C11.6716 32 11 31.3284 11 30.5V30.5C11 29.6716 11.6716 29 12.5 29L29.5 29C30.3284 29 31 29.6716 31 30.5V30.5C31 31.3284 30.3284 32 29.5 32L12.5 32Z" fill="#D9D9D9"/>
</svg>
