<?xml version="1.0" encoding="UTF-8" standalone="no"?>
<svg
   width="128"
   height="128"
   viewBox="0 0 128 128"
   fill="none"
   version="1.1"
   id="svg6"
   sodipodi:docname="Settings_V2.svg"
   inkscape:version="1.1.1 (3bf5ae0d25, 2021-09-20)"
   xmlns:inkscape="http://www.inkscape.org/namespaces/inkscape"
   xmlns:sodipodi="http://sodipodi.sourceforge.net/DTD/sodipodi-0.dtd"
   xmlns="http://www.w3.org/2000/svg"
   xmlns:svg="http://www.w3.org/2000/svg">
  <defs
     id="defs10" />
  <sodipodi:namedview
     id="namedview8"
     pagecolor="#ffffff"
     bordercolor="#666666"
     borderopacity="1.0"
     inkscape:pageshadow="2"
     inkscape:pageopacity="0.0"
     inkscape:pagecheckerboard="true"
     showgrid="false"
     inkscape:zoom="3.9019608"
     inkscape:cx="85.982413"
     inkscape:cy="51.256282"
     inkscape:window-width="1920"
     inkscape:window-height="1000"
     inkscape:window-x="-11"
     inkscape:window-y="-11"
     inkscape:window-maximized="1"
     inkscape:current-layer="svg6" />
  <circle
     cx="64.000023"
     cy="64.000847"
     stroke="#D9D9D9"
     stroke-width="7.52943"
     id="circle2"
     style="stroke:#ffffff"
     r="26.844181" />
  <path
     d="M 54.85879,16.538472 V 7.5296576 c 0,-2.0791773 1.68534,-3.7646908 3.76472,-3.7647159 L 70.48086,3.764766 c 2.07912,-5.02e-5 3.76471,1.6854884 3.76471,3.764716 v 8.721567 c 0,4.568608 3.38022,7.472484 6.26851,8.817015 3.29939,1.536104 7.71264,1.5351 10.83585,-1.669099 l 6.79682,-6.973058 c 1.45393,-1.491605 3.84252,-1.519138 5.33058,-0.06144 l 8.07206,7.908363 c 1.50588,1.475242 1.50689,3.899468 0.002,5.37599 l -6.36764,6.249177 c -3.32048,3.258989 -3.16989,7.734233 -2.36424,10.849661 1.02225,3.953453 4.50863,7.18885 9.01725,7.18885 h 8.29743 c 2.05403,0 3.72883,1.646185 3.76422,3.699963 l 0.20555,11.955985 c 0.0364,2.104226 -1.65948,3.829469 -3.76421,3.829469 h -7.51588 c -4.6547,0 -7.95535,3.459272 -8.94371,7.26791 -0.78934,3.040887 -0.98134,7.520397 2.48044,10.698821 l 5.74822,5.27763 c 1.55257,1.425321 1.63238,3.847794 0.1772,5.372504 l -9.12994,9.56514 c -1.42783,1.49609 -3.79533,1.56009 -5.30222,0.14331 l -6.64297,-6.24642 c -3.19524,-3.00475 -7.35575,-2.61221 -10.0917,-1.82488 -3.62065,1.04232 -6.87387,4.20594 -6.87387,8.69398 v 8.10041 c 0,2.07913 -1.68559,3.76472 -3.76471,3.76472 l -11.85785,2.5e-4 c -2.07913,2.5e-4 -3.76472,-1.68559 -3.76472,-3.76472 l 2.5e-4,-7.83613 c 2.5e-4,-4.66674 -3.49165,-7.58916 -5.83355,-9.14248 -3.4914,-2.31606 -8.13806,-2.09168 -11.31473,0.8955 l -6.634183,6.23813 c -1.472004,1.38416 -3.773751,1.35957 -5.215888,-0.0555 l -8.254968,-8.10066 c -1.514395,-1.48606 -1.502222,-3.92936 0.0269,-5.40036 l 5.849641,-5.626744 c 3.366032,-3.237907 3.361515,-7.82559 1.892271,-11.254493 -1.372741,-3.204024 -4.461439,-6.765948 -9.254374,-6.765948 H 7.8655739 c -2.053954,0 -3.728826,-1.646435 -3.764164,-3.699962 L 3.8957559,57.765977 c -0.03619,-2.104225 1.659612,-3.829469 3.764164,-3.829469 h 9.0701551 c 4.398217,0 7.149898,-3.308683 8.559132,-5.4109 2.316053,-3.454253 2.006091,-8.029889 -1.077286,-11.055967 l -6.749509,-6.624395 c -1.486786,-1.459203 -1.505911,-3.848292 -0.04264,-5.331088 l 8.894191,-9.012831 c 1.480538,-1.500314 3.904262,-1.492835 5.375513,0.01659 l 6.907754,7.087003 c 2.97789,3.055217 7.32111,3.191751 10.59541,1.317449 2.2631,-1.295388 5.66615,-3.930238 5.66615,-8.383897 z"
     stroke="#D9D9D9"
     stroke-width="7.52943"
     id="path4"
     style="stroke:#ffffff" />
</svg>
