<svg width="51" height="51" viewBox="0 0 51 51" fill="none" xmlns="http://www.w3.org/2000/svg">
<circle cx="25.5" cy="25.5003" r="10.6957" stroke="#D9D9D9" stroke-width="3"/>
<path d="M21.8578 6.58956V3.00012C21.8578 2.1717 22.5293 1.50013 23.3578 1.50012L28.0822 1.50005C28.9106 1.50003 29.5822 2.17161 29.5822 3.00005V6.47504C29.5822 8.29534 30.929 9.45235 32.0798 9.98806C33.3944 10.6001 35.1528 10.5997 36.3972 9.32303L39.1053 6.54471C39.6846 5.9504 40.6363 5.93943 41.2292 6.52023L44.4454 9.67121C45.0454 10.259 45.0458 11.2249 44.4463 11.8132L41.9092 14.3031C40.5862 15.6016 40.6462 17.3847 40.9672 18.626C41.3745 20.2012 42.7636 21.4903 44.56 21.4903H47.866C48.6844 21.4903 49.3517 22.1462 49.3658 22.9645L49.4477 27.7282C49.4622 28.5666 48.7865 29.254 47.9479 29.254H44.9533C43.0987 29.254 41.7836 30.6323 41.3898 32.1498C41.0753 33.3614 40.9988 35.1462 42.3781 36.4126L44.6684 38.5154C45.287 39.0833 45.3188 40.0485 44.739 40.656L41.1013 44.4671C40.5324 45.0632 39.5891 45.0887 38.9887 44.5242L36.3419 42.0354C35.0688 40.8382 33.4111 40.9946 32.321 41.3083C30.8784 41.7236 29.5822 42.9841 29.5822 44.7723V47.9998C29.5822 48.8282 28.9106 49.4998 28.0822 49.4998L23.3576 49.4999C22.5292 49.5 21.8576 48.8283 21.8576 47.9999L21.8577 44.8777C21.8578 43.0183 20.4665 41.8539 19.5334 41.235C18.1423 40.3122 16.2909 40.4016 15.0252 41.5918L12.3819 44.0773C11.7954 44.6288 10.8783 44.619 10.3037 44.0552L7.01462 40.8276C6.41123 40.2355 6.41608 39.262 7.02534 38.6759L9.35605 36.434C10.6972 35.1439 10.6954 33.316 10.11 31.9498C9.56305 30.6732 8.3324 29.254 6.42272 29.254H3.13399C2.31562 29.254 1.64829 28.598 1.63421 27.7798L1.55227 23.0161C1.53785 22.1777 2.21352 21.4903 3.05205 21.4903H6.66593C8.41834 21.4903 9.51471 20.172 10.0762 19.3344C10.999 17.9581 10.8755 16.135 9.64697 14.9293L6.95772 12.2899C6.36533 11.7085 6.35771 10.7566 6.94073 10.1658L10.4845 6.57476C11.0744 5.97698 12.0401 5.97996 12.6263 6.58137L15.3786 9.40509C16.5651 10.6224 18.2956 10.6768 19.6002 9.93001C20.5019 9.41388 21.8578 8.36406 21.8578 6.58956Z" stroke="#D9D9D9" stroke-width="3"/>
</svg>
