<?xml version="1.0" encoding="UTF-8" standalone="no"?>
<svg
   width="128"
   height="128"
   viewBox="0 0 128 128"
   fill="none"
   version="1.1"
   id="svg18"
   sodipodi:docname="UIVisability_Shown_V2.svg"
   inkscape:version="1.1.1 (3bf5ae0d25, 2021-09-20)"
   xmlns:inkscape="http://www.inkscape.org/namespaces/inkscape"
   xmlns:sodipodi="http://sodipodi.sourceforge.net/DTD/sodipodi-0.dtd"
   xmlns="http://www.w3.org/2000/svg"
   xmlns:svg="http://www.w3.org/2000/svg">
  <defs
     id="defs22" />
  <sodipodi:namedview
     id="namedview20"
     pagecolor="#ffffff"
     bordercolor="#666666"
     borderopacity="1.0"
     inkscape:pageshadow="2"
     inkscape:pageopacity="0.0"
     inkscape:pagecheckerboard="true"
     showgrid="false"
     inkscape:zoom="4.2340425"
     inkscape:cx="61.052765"
     inkscape:cy="58.809046"
     inkscape:window-width="1920"
     inkscape:window-height="1000"
     inkscape:window-x="-11"
     inkscape:window-y="-11"
     inkscape:window-maximized="1"
     inkscape:current-layer="svg18" />
  <path
     fill-rule="evenodd"
     clip-rule="evenodd"
     d="M 41.41182,6.0235 H 10.792216 C 5.247708,6.0235 0.753,10.51821 0.753,16.062718 V 40.659775 H 8.282412 V 16.062718 c 0,-1.386139 1.123689,-2.509804 2.509804,-2.509804 H 41.41182 Z m 46.68236,7.529414 V 6.0235 h 29.11372 c 5.54441,0 10.03922,4.49471 10.03922,10.039218 v 24.597057 h -7.52941 V 16.062718 c 0,-1.386139 -1.12364,-2.509804 -2.50981,-2.509804 z m 0,100.894096 h 29.11372 c 1.38617,0 2.50981,-1.12364 2.50981,-2.50981 V 87.34213 h 7.52941 v 24.59507 c 0,5.54441 -4.49481,10.03922 -10.03922,10.03922 H 88.09418 Z M 8.282412,87.34213 v 24.59507 c 0,1.38617 1.123689,2.50981 2.509804,2.50981 H 41.41182 v 7.52941 H 10.792216 C 5.247708,121.97642 0.753,117.48186 0.753,111.9372 V 87.34213 Z"
     fill="#D9D9D9"
     id="path2"
     style="fill:#ffffff;stroke-width:2.5098" />
  <path
     d="m 78.30644,72.2833 c 0,5.90783 -5.38503,11.29412 -12.8,11.29412 -7.41496,0 -12.8,-5.38629 -12.8,-11.29412 0,-5.90782 5.38504,-11.29411 12.8,-11.29411 7.41497,0 12.8,5.38629 12.8,11.29411 z"
     stroke="#D9D9D9"
     stroke-width="7.52941"
     id="path4"
     style="stroke:#ffffff" />
  <path
     d="m 104.20586,73.03524 c 0,0.12875 -0.0718,0.69271 -0.54739,1.76239 -0.44825,1.00869 -1.15576,2.24476 -2.1386,3.64072 -1.96417,2.78939 -4.87429,5.99893 -8.52631,9.03554 -7.34795,6.10937 -17.25339,11.16135 -27.94064,11.16135 -10.68699,0 -20.59244,-5.05198 -27.94039,-11.16135 -3.652267,-3.03661 -6.562385,-6.24615 -8.526306,-9.03554 -0.98284,-1.39596 -1.690353,-2.63203 -2.138855,-3.64072 -0.475357,-1.06968 -0.547389,-1.63364 -0.547389,-1.76239 0,-0.12875 0.07203,-0.6927 0.547389,-1.76238 0.448502,-1.00869 1.156015,-2.24477 2.138855,-3.64072 1.963921,-2.7894 4.874039,-5.99894 8.526306,-9.0353 7.34795,-6.10961 17.2534,-11.1616 27.94039,-11.1616 10.68725,0 20.59269,5.05199 27.94064,11.1616 3.65202,3.03636 6.56214,6.2459 8.52631,9.0353 0.98284,1.39595 1.69035,2.63203 2.1386,3.64072 0.47561,1.06968 0.54739,1.63363 0.54739,1.76238 z"
     stroke="#D9D9D9"
     stroke-width="7.52941"
     id="path6"
     style="stroke:#ffffff" />
  <path
     d="M 20.328969,43.67054 32.743212,57.90137"
     stroke="#D9D9D9"
     stroke-width="7.52941"
     id="path8"
     style="stroke:#ffffff" />
  <path
     d="M 40.80947,32.199979 48.69528,49.27543"
     stroke="#D9D9D9"
     stroke-width="7.52941"
     id="path10"
     style="stroke:#ffffff" />
  <path
     d="M 79.82161,49.27342 87.70917,32.198724"
     stroke="#D9D9D9"
     stroke-width="7.52941"
     id="path12"
     style="stroke:#ffffff" />
  <path
     d="M 65.80687,46.68531 V 27.108792"
     stroke="#D9D9D9"
     stroke-width="7.52941"
     id="path14"
     style="stroke:#ffffff" />
  <path
     d="M 95.42456,56.98906 107.83855,42.75847"
     stroke="#D9D9D9"
     stroke-width="7.52941"
     id="path16"
     style="stroke:#ffffff" />
</svg>
