<svg width="51" height="47" viewBox="0 0 51 47" fill="none" xmlns="http://www.w3.org/2000/svg">
<path fill-rule="evenodd" clip-rule="evenodd" d="M16.2 0.599609H4C1.79086 0.599609 0 2.39047 0 4.59961V14.4H3V4.59961C3 4.04732 3.44772 3.59961 4 3.59961H16.2V0.599609ZM34.8 3.59961V0.599609H46.4C48.6091 0.599609 50.4 2.39047 50.4 4.59961V14.4H47.4V4.59961C47.4 4.04732 46.9523 3.59961 46.4 3.59961H34.8ZM34.8 43.7996H46.4C46.9523 43.7996 47.4 43.3519 47.4 42.7996V33H50.4V42.7996C50.4 45.0087 48.6091 46.7996 46.4 46.7996H34.8V43.7996ZM3 33V42.7996C3 43.3519 3.44772 43.7996 4 43.7996H16.2V46.7996H4C1.79086 46.7996 0 45.0088 0 42.7996V33H3Z" fill="#D9D9D9"/>
<path d="M30.9002 27C30.9002 29.3539 28.7546 31.5 25.8002 31.5C22.8458 31.5 20.7002 29.3539 20.7002 27C20.7002 24.6461 22.8458 22.5 25.8002 22.5C28.7546 22.5 30.9002 24.6461 30.9002 27Z" stroke="#D9D9D9" stroke-width="3"/>
<path d="M41.2195 27.2996C41.2195 27.3509 41.1909 27.5756 41.0014 28.0018C40.8228 28.4037 40.5409 28.8962 40.1493 29.4524C39.3667 30.5638 38.2072 31.8426 36.7521 33.0525C33.8244 35.4867 29.8777 37.4996 25.6195 37.4996C21.3614 37.4996 17.4147 35.4867 14.487 33.0525C13.0318 31.8426 11.8723 30.5638 11.0898 29.4524C10.6982 28.8962 10.4163 28.4037 10.2376 28.0018C10.0482 27.5756 10.0195 27.3509 10.0195 27.2996C10.0195 27.2483 10.0482 27.0236 10.2376 26.5974C10.4163 26.1955 10.6982 25.703 11.0898 25.1468C11.8723 24.0354 13.0318 22.7566 14.487 21.5468C17.4147 19.1125 21.3614 17.0996 25.6195 17.0996C29.8777 17.0996 33.8244 19.1125 36.7521 21.5468C38.2072 22.7566 39.3667 24.0354 40.1493 25.1468C40.5409 25.703 40.8228 26.1955 41.0014 26.5974C41.1909 27.0236 41.2195 27.2483 41.2195 27.2996Z" stroke="#D9D9D9" stroke-width="3"/>
<path d="M7.7998 15.5996L12.7461 21.2697" stroke="#D9D9D9" stroke-width="3"/>
<path d="M15.96 11.0293L19.102 17.8328" stroke="#D9D9D9" stroke-width="3"/>
<path d="M31.5039 17.832L34.6466 11.0288" stroke="#D9D9D9" stroke-width="3"/>
<path d="M25.9199 16.8008V9.00078" stroke="#D9D9D9" stroke-width="3"/>
<path d="M37.7207 20.9062L42.6669 15.2362" stroke="#D9D9D9" stroke-width="3"/>
</svg>
