<?xml version="1.0" encoding="UTF-8" standalone="no"?>
<svg
   width="128"
   height="128"
   viewBox="0 0 128 128"
   fill="none"
   version="1.1"
   id="svg12"
   sodipodi:docname="ChangeArtifacts_R_V2.svg"
   inkscape:version="1.1.1 (3bf5ae0d25, 2021-09-20)"
   xmlns:inkscape="http://www.inkscape.org/namespaces/inkscape"
   xmlns:sodipodi="http://sodipodi.sourceforge.net/DTD/sodipodi-0.dtd"
   xmlns="http://www.w3.org/2000/svg"
   xmlns:svg="http://www.w3.org/2000/svg">
  <defs
     id="defs16" />
  <sodipodi:namedview
     id="namedview14"
     pagecolor="#ffffff"
     bordercolor="#666666"
     borderopacity="1.0"
     inkscape:pageshadow="2"
     inkscape:pageopacity="0.0"
     inkscape:pagecheckerboard="true"
     showgrid="false"
     inkscape:zoom="4.0204073"
     inkscape:cx="58.824886"
     inkscape:cy="58.949251"
     inkscape:window-width="1920"
     inkscape:window-height="1000"
     inkscape:window-x="-11"
     inkscape:window-y="-11"
     inkscape:window-maximized="1"
     inkscape:current-layer="svg12" />
  <path
     d="M 10.971429,2.7428578 H 117.02858 c 4.54454,0 8.22856,3.6840593 8.22856,8.2285712 V 117.02857 c 0,4.54455 -3.68402,8.22857 -8.22856,8.22857 H 10.971429 c -4.5445118,0 -8.2285712,-3.68402 -8.2285712,-8.22857 V 10.971429 c 0,-4.5445119 3.6840594,-8.2285712 8.2285712,-8.2285712 z"
     stroke="#D9D9D9"
     stroke-width="5.48572"
     id="path2"
     style="stroke:#ffffff" />
  <path
     fill-rule="evenodd"
     clip-rule="evenodd"
     d="m 35.131612,34.414078 c 0.16768,0.186699 0.333897,0.371383 0.49792,0.552962 0.29696,0.328594 0.586606,0.647861 0.864182,0.953783 v 0 c 1.243429,1.369965 2.245486,2.474057 2.56951,2.971062 0.02304,0.0353 0.0426,0.06747 0.05851,0.09654 0.06766,0.122697 0.07168,0.188526 0,0.188526 -2.062079,0.424046 -3.810194,0.800732 -5.292068,1.178881 -0.198766,0.05082 -0.392777,0.101483 -0.582218,0.152512 -7.670491,2.061714 -7.665919,4.355108 -7.64544,14.670262 0.0011,0.554057 0.0022,1.131338 0.0022,1.732936 0,14.138332 11.785508,32.88521 26.323565,32.88521 0.867291,0 1.724708,-0.06675 2.570422,-0.19529 -1.821988,-1.65175 -3.500799,-3.513235 -5.010468,-5.553737 -4.084114,-0.871498 -8.239542,-3.880046 -11.759909,-8.649326 -4.179748,-5.663085 -6.637897,-12.766536 -6.637897,-18.486857 0,-0.646033 -0.0011,-1.251473 -0.002,-1.820524 -0.0045,-2.69952 -0.0079,-4.57856 0.108252,-6.083659 0.11008,-1.425552 0.300435,-1.910855 0.350354,-2.015815 0.103681,-0.08521 0.45056,-0.318537 1.351315,-0.64256 1.485165,-0.534309 3.681462,-1.04759 7.219017,-1.776093 0.680777,-0.123068 1.523931,-0.405028 2.350263,-1.030033 1.462308,-1.105554 2.028068,-2.632777 2.158079,-3.794285 0.186881,-1.670035 -0.459153,-2.942172 -0.54784,-3.1168 l -0.0079,-0.0156 c -0.320372,-0.65518 -0.737651,-1.190768 -0.88924,-1.385329 l -0.0043,-0.0056 c -0.422583,-0.542353 -1.008823,-1.205577 -1.563794,-1.823634 -0.351818,-0.391862 -0.723749,-0.801462 -1.108481,-1.225325 -0.321462,-0.354378 -0.652068,-0.718628 -0.987428,-1.090561 7.368595,-0.0016 17.635474,0.0043 25.036434,0.0091 -0.539429,0.588618 -1.066606,1.156389 -1.558309,1.685944 l -5.48e-4,5.48e-4 -0.4544,0.489691 c -0.576731,0.621898 -1.142492,1.235932 -1.549166,1.708984 -0.176091,0.204983 -0.46976,0.552228 -0.726125,0.927634 l -0.0079,0.01133 c -0.08704,0.126895 -0.452938,0.660114 -0.709304,1.391359 -0.100206,0.285623 -0.50304,1.441463 -0.209371,2.919314 0.171337,0.862172 0.593554,1.885073 1.459017,2.772115 0.858149,0.879724 1.847954,1.314193 2.651794,1.508023 l 0.124343,0.02998 0.125806,0.02413 c 3.611063,0.693941 5.833326,1.193141 7.315931,1.719221 0.857052,0.304092 1.197166,0.526812 1.303589,0.612572 0.05083,0.108616 0.243566,0.605624 0.351268,2.067748 0.0093,0.127266 0.01792,0.257097 0.0256,0.389669 0.929097,0.01865 1.868435,0.02926 2.816732,0.02926 0.900937,0 1.793828,-0.0056 2.677393,-0.01468 -0.268433,-5.51424 -1.547519,-7.328733 -7.383222,-8.87552 -0.234606,-0.06199 -0.476343,-0.123793 -0.725759,-0.185226 -1.493578,-0.368273 -3.259247,-0.729233 -5.346196,-1.13024 -0.02816,-0.0067 -0.01938,-0.04681 0.02231,-0.116659 l 0.0095,-0.01542 c 0.209921,-0.336091 1.088183,-1.281829 2.243475,-2.525623 l 1.83e-4,-1.83e-4 c 0.419108,-0.451292 0.874788,-0.94208 1.348205,-1.457005 0.192183,-0.209007 0.387108,-0.422035 0.583863,-0.63799 0.97792,-1.074102 1.997532,-2.22281 2.905051,-3.324158 0.106241,-0.128921 0.211017,-0.25728 0.313967,-0.384732 0.666513,-0.825235 1.258422,-1.614993 1.708617,-2.316068 l 1.82e-4,-3.66e-4 c 1.047954,-1.631818 1.329006,-2.783269 -1.82e-4,-2.783269 -0.292389,0 -1.555383,-9.14e-4 -3.479223,-0.0022 v 0 l -1.053806,-9.14e-4 h -0.198035 c -8.410879,-0.0059 -25.725805,-0.01765 -34.150033,-0.0097 l -0.169509,1.84e-4 c -2.413166,0.0024 -4.06528,0.0063 -4.519497,0.01282 -1.359177,0.01884 -1.045943,1.219658 0.04059,2.899384 0.438491,0.678035 1.003155,1.434148 1.63456,2.222079 0.09417,0.117755 0.189988,0.236069 0.287086,0.354926 0.898011,1.100434 1.906834,2.248229 2.870309,3.321965 z m 37.226971,12.520594 c -0.0015,1.84e-4 -0.01207,-0.0087 -0.02779,-0.02816 0.0214,0.01802 0.02926,0.02779 0.02779,0.02816 z m -40.799634,0.03329 -0.0024,0.0039 c 0.0015,-0.0028 0.0024,-0.0039 0.0024,-0.0039 z m -0.02414,0.03346 c -0.01426,0.01765 -0.02377,0.02578 -0.02505,0.0256 -0.0011,-1.82e-4 0.006,-0.0089 0.02505,-0.0256 z m 3.029942,-4.974627 c -0.0011,-7.32e-4 -0.01407,-0.01765 -0.03603,-0.04863 0.02615,0.03364 0.03712,0.04919 0.03603,0.04863 z"
     fill="#D9D9D9"
     id="path4"
     style="fill:#ffffff;stroke-width:1.82857" />
  <path
     d="m 107.32873,60.875885 c 0,19.746009 -13.221851,34.856409 -28.522422,34.856409 -15.30057,0 -28.522422,-15.1104 -28.522422,-34.856409 0,-2.136687 0.629394,-3.06103 1.364845,-3.61527 0.931292,-0.701805 2.557989,-1.205211 5.24416,-1.396113 2.631863,-0.187064 5.830949,-0.0532 9.599817,0.14445 0.393326,0.02066 0.79232,0.04206 1.196252,0.06364 3.407177,0.181937 7.178789,0.383268 11.117348,0.383268 2.958446,0 5.849052,-0.06565 8.55296,-0.126895 1.26592,-0.0287 2.491063,-0.05651 3.662994,-0.07626 3.737235,-0.06271 6.953692,-0.04406 9.595238,0.243566 2.69825,0.293487 4.4182,0.834743 5.41989,1.538742 0.79177,0.556618 1.29134,1.308527 1.29134,2.84087 z"
     stroke="#D9D9D9"
     stroke-width="5.48572"
     id="path6"
     style="stroke:#ffffff" />
  <path
     fill-rule="evenodd"
     clip-rule="evenodd"
     d="m 62.899932,93.253482 v 5.127132 c 0,5.049416 4.09344,9.142856 9.142856,9.142856 h 12.431178 c 5.049417,0 9.142857,-4.09344 9.142857,-9.142856 v -4.382172 c -1.736594,1.125304 -3.571566,2.058972 -5.485715,2.777234 v 1.604938 c 0,2.019656 -1.637485,3.657146 -3.657142,3.657146 H 72.042788 c -2.019657,0 -3.657142,-1.63749 -3.657142,-3.657146 V 96.337368 C 66.464,95.520545 64.62848,94.484294 62.899932,93.253482 Z"
     fill="#D9D9D9"
     id="path8"
     style="fill:#ffffff;stroke-width:1.82857" />
  <path
     d="m 76.939702,64.661392 10.844161,10.070491 c 0.779154,0.723384 0.779154,1.956389 0,2.679772 L 76.939702,87.482146 c -1.170102,1.086538 -3.072913,0.256732 -3.072913,-1.339978 v -4.187063 c 0,-0.517484 0.219428,-1.010834 0.60361,-1.357531 l 3.521829,-3.177508 c 0.80128,-0.722835 0.805486,-1.978514 0.0093,-2.706833 l -3.540445,-3.238949 c -0.378697,-0.346331 -0.594285,-0.835658 -0.594285,-1.348938 v -4.124525 c 0,-1.596708 1.902811,-2.425966 3.072913,-1.339429 z"
     fill="#D9D9D9"
     id="path10"
     style="fill:#ffffff;stroke-width:1.82857" />
</svg>
