<?xml version="1.0" encoding="UTF-8" standalone="no"?>
<svg
   width="128"
   height="128"
   viewBox="0 0 128 128"
   fill="none"
   version="1.1"
   id="svg12"
   sodipodi:docname="ChangeArtifacts_L_V2.svg"
   inkscape:version="1.1.1 (3bf5ae0d25, 2021-09-20)"
   xmlns:inkscape="http://www.inkscape.org/namespaces/inkscape"
   xmlns:sodipodi="http://sodipodi.sourceforge.net/DTD/sodipodi-0.dtd"
   xmlns="http://www.w3.org/2000/svg"
   xmlns:svg="http://www.w3.org/2000/svg">
  <defs
     id="defs16" />
  <sodipodi:namedview
     id="namedview14"
     pagecolor="#ffffff"
     bordercolor="#666666"
     borderopacity="1.0"
     inkscape:pageshadow="2"
     inkscape:pageopacity="0.0"
     inkscape:pagecheckerboard="true"
     showgrid="false"
     inkscape:zoom="2.8428573"
     inkscape:cx="68.768842"
     inkscape:cy="89.698489"
     inkscape:window-width="1920"
     inkscape:window-height="1000"
     inkscape:window-x="-11"
     inkscape:window-y="-11"
     inkscape:window-maximized="1"
     inkscape:current-layer="svg12"
     width="128px" />
  <path
     d="M 10.971429,2.7428578 H 117.02858 c 4.54454,0 8.22856,3.6840593 8.22856,8.2285712 V 117.02857 c 0,4.54455 -3.68402,8.22857 -8.22856,8.22857 H 10.971429 c -4.5445118,0 -8.2285712,-3.68402 -8.2285712,-8.22857 V 10.971429 c 0,-4.5445119 3.6840594,-8.2285712 8.2285712,-8.2285712 z"
     stroke="#D9D9D9"
     stroke-width="5.48572"
     id="path2"
     style="stroke:#ffffff" />
  <path
     fill-rule="evenodd"
     clip-rule="evenodd"
     d="m 63.25888,93.507105 v 5.60512 c 0,5.049415 4.09344,9.142855 9.142857,9.142855 h 12.431177 c 5.049417,0 9.142857,-4.09344 9.142857,-9.142855 v -5.35296 c -1.733852,1.159498 -3.569189,2.126628 -5.485714,2.876891 v 2.476069 c 0,2.019835 -1.637302,3.657145 -3.657143,3.657145 H 72.401737 c -2.019657,0 -3.657143,-1.63731 -3.657143,-3.657145 V 96.487859 C 66.825509,95.704134 64.990172,94.702443 63.25888,93.507105 Z"
     fill="#D9D9D9"
     id="path4"
     style="fill:#ffffff;stroke-width:1.82857" />
  <path
     fill-rule="evenodd"
     clip-rule="evenodd"
     d="m 82.472228,59.167815 c 0.110446,-1.084892 0.166949,-2.154788 0.166949,-3.202742 0,-0.796892 0.0033,-1.558309 0.008,-2.28608 1.5744,-0.02432 3.112594,-0.05924 4.605623,-0.09307 13.16261,-0.298788 22.81599,-0.51785 22.81599,7.288137 0,20.76544 -13.997887,37.599268 -31.26527,37.599268 -6.632777,0 -12.782994,-2.483749 -17.842834,-6.72 1.779017,-0.789577 3.490011,-1.807909 5.116343,-3.012205 3.847131,2.728594 8.236434,4.246491 12.726491,4.246491 13.33376,0 25.77956,-13.386788 25.77956,-32.113554 0,-0.678948 -0.11227,-0.605622 -0.12489,-0.597576 l -9.9e-4,7.31e-4 c -0.42093,-0.296046 -1.57148,-0.776595 -4.13915,-1.056001 -2.454307,-0.267153 -5.518445,-0.290377 -9.252387,-0.227655 -1.140846,0.01902 -2.3488,0.04644 -3.605395,0.07497 v 0 c -1.596525,0.03621 -3.271862,0.07406 -4.987976,0.09929 z"
     fill="#D9D9D9"
     id="path6"
     style="fill:#ffffff;stroke-width:1.82857" />
  <path
     d="m 72.053211,26.013074 c -3.66e-4,9.14e-4 -7.31e-4,0.002 -0.0011,0.0032 0.0051,-0.01956 0.0069,-0.02121 0.0011,-0.0032 z m -7.961965,15.830307 0.06236,0.01505 0.06272,0.01207 c 3.584183,0.688822 6.007039,1.221667 7.715657,1.827839 1.667657,0.591726 2.299977,1.134628 2.637715,1.625052 0.377782,0.548755 0.68992,1.465966 0.83529,3.438627 0.117761,1.596892 0.113006,3.560778 0.106789,6.164663 -0.0015,0.623727 -0.0031,1.284023 -0.0031,1.984914 0,6.394698 -2.70208,14.05696 -7.173851,20.115383 -4.494629,6.089326 -10.355383,10.026604 -16.406857,10.026604 -6.051657,0 -11.912411,-3.937278 -16.406857,-10.026604 -4.471771,-6.058423 -7.174034,-13.720685 -7.174034,-20.115383 0,-0.623725 -0.0011,-1.215084 -0.0022,-1.776639 -0.0049,-2.701166 -0.0086,-4.716068 0.116663,-6.338742 0.150674,-1.951453 0.466285,-2.851475 0.84352,-3.39072 0.343223,-0.490607 0.985783,-1.033691 2.664412,-1.637486 1.702765,-0.612571 4.099474,-1.162239 7.62569,-1.888183 0.349989,-0.05905 0.788664,-0.200411 1.217829,-0.5248 0.735269,-0.556069 1.020708,-1.324434 1.086354,-1.911589 0.09491,-0.846994 -0.23296,-1.500891 -0.288731,-1.611885 -0.0022,-0.0046 -0.0041,-0.008 -0.0053,-0.01077 -0.185782,-0.380161 -0.447085,-0.722468 -0.592822,-0.90953 -0.355109,-0.455863 -0.879178,-1.051246 -1.440915,-1.676801 -0.334079,-0.371931 -0.694674,-0.76928 -1.07264,-1.18583 -0.954696,-1.051975 -2.01984,-2.22537 -3.042742,-3.415952 -0.706011,-0.821578 -1.341806,-1.594698 -1.870629,-2.285532 8.068023,-0.01133 28.43008,0.0032 36.737646,0.0089 0.06967,1.84e-4 0.138423,1.84e-4 0.206445,1.84e-4 -0.515291,0.665781 -1.129142,1.407085 -1.810286,2.193552 -1.250194,1.443476 -2.595109,2.891887 -3.717485,4.100389 -0.154697,0.16676 -0.305372,0.328778 -0.450926,0.485853 -0.584411,0.630308 -1.113417,1.205028 -1.480046,1.631815 -0.169691,0.197486 -0.3776,0.446722 -0.541805,0.687178 l -0.0033,0.0048 c -0.0576,0.08411 -0.255268,0.373395 -0.3904,0.758491 -0.05266,0.150302 -0.254903,0.733989 -0.107337,1.477121 0.08613,0.433189 0.298057,0.946469 0.73216,1.391359 0.430446,0.441052 0.926903,0.6592 1.331017,0.756663 z M 32.110629,26.051839 c -0.0062,-0.01975 -0.0043,-0.01839 5.49e-4,0.0016 -1.83e-4,-5.48e-4 -3.66e-4,-0.0011 -5.49e-4,-0.0016 z m -1.767131,2.306377 c -0.0031,0 -0.0051,0 -0.0058,0 h -1.83e-4 c 0.002,0 0.0041,0 0.006,0 z"
     stroke="#D9D9D9"
     stroke-width="5.48572"
     id="path8"
     style="stroke:#ffffff" />
  <path
     d="M 54.333623,73.217095 43.48928,63.146786 c -0.778971,-0.723566 -0.778971,-1.956388 0,-2.679954 L 54.333623,50.396525 c 1.16992,-1.086537 3.072914,-0.256915 3.072914,1.339793 v 4.187064 c 0,0.517484 -0.219428,1.010833 -0.603794,1.357713 l -3.521829,3.177326 c -0.801097,0.722834 -0.805485,1.978696 -0.0093,2.707018 l 3.54048,3.238765 c 0.378697,0.346331 0.594469,0.835657 0.594469,1.348936 v 4.124526 c 0,1.596709 -1.902995,2.425966 -3.072914,1.339429 z"
     fill="#D9D9D9"
     id="path10"
     style="fill:#ffffff;stroke-width:1.82857" />
</svg>
