<svg width="70" height="70" viewBox="0 0 70 70" fill="none" xmlns="http://www.w3.org/2000/svg">
<path d="M6 1.5H64C66.4853 1.5 68.5 3.51472 68.5 6V64C68.5 66.4853 66.4853 68.5 64 68.5H6C3.51472 68.5 1.5 66.4853 1.5 64V6C1.5 3.51472 3.51472 1.5 6 1.5Z" stroke="#D9D9D9" stroke-width="3"/>
<path fill-rule="evenodd" clip-rule="evenodd" d="M34.5947 51.1367V54.202C34.5947 56.9634 36.8333 59.202 39.5947 59.202H46.393C49.1544 59.202 51.393 56.9634 51.393 54.202V51.2746C50.4448 51.9087 49.4411 52.4376 48.393 52.8479V54.202C48.393 55.3066 47.4976 56.202 46.393 56.202H39.5947C38.4902 56.202 37.5947 55.3066 37.5947 54.202V52.7668C36.5452 52.3382 35.5415 51.7904 34.5947 51.1367Z" fill="#D9D9D9"/>
<path fill-rule="evenodd" clip-rule="evenodd" d="M45.102 32.3574C45.1624 31.7641 45.1933 31.179 45.1933 30.6059C45.1933 30.1701 45.1951 29.7537 45.1977 29.3557C46.0587 29.3424 46.8999 29.3233 47.7164 29.3048C54.9147 29.1414 60.1939 29.0216 60.1939 33.2905C60.1939 44.6466 52.5388 53.8526 43.0957 53.8526C39.4684 53.8526 36.105 52.4943 33.3379 50.1776C34.3108 49.7458 35.2465 49.1889 36.1359 48.5303C38.2398 50.0225 40.6402 50.8526 43.0957 50.8526C50.3876 50.8526 57.1939 43.5317 57.1939 33.2905C57.1939 32.9192 57.1325 32.9593 57.1256 32.9637L57.125 32.9641C56.8948 32.8022 56.2656 32.5394 54.8614 32.3866C53.5192 32.2405 51.8435 32.2278 49.8015 32.2621C49.1776 32.2725 48.517 32.2875 47.8298 32.3031L47.8298 32.3031C46.9567 32.3229 46.0405 32.3436 45.102 32.3574Z" fill="#D9D9D9"/>
<path d="M39.4041 14.2259C39.4039 14.2264 39.4037 14.227 39.4035 14.2276C39.4063 14.2169 39.4073 14.216 39.4041 14.2259ZM35.0499 22.8831L35.084 22.8913L35.1183 22.8979C37.0784 23.2746 38.4034 23.566 39.3378 23.8975C40.2498 24.2211 40.5956 24.518 40.7803 24.7862C40.9869 25.0863 41.1576 25.5879 41.2371 26.6667C41.3015 27.54 41.2989 28.614 41.2955 30.038C41.2947 30.3791 41.2938 30.7402 41.2938 31.1235C41.2938 34.6206 39.8161 38.8109 37.3706 42.1241C34.9126 45.4542 31.7075 47.6074 28.3981 47.6074C25.0886 47.6074 21.8835 45.4542 19.4256 42.1241C16.9801 38.8109 15.5023 34.6206 15.5023 31.1235C15.5023 30.7824 15.5017 30.459 15.5011 30.1519C15.4984 28.6747 15.4964 27.5728 15.5649 26.6854C15.6473 25.6182 15.8199 25.126 16.0262 24.8311C16.2139 24.5628 16.5653 24.2658 17.4833 23.9356C18.4145 23.6006 19.7252 23.3 21.6536 22.903C21.845 22.8707 22.0849 22.7934 22.3196 22.616C22.7217 22.3119 22.8778 21.8917 22.9137 21.5706C22.9656 21.1074 22.7863 20.7498 22.7558 20.6891C22.7546 20.6866 22.7536 20.6847 22.7529 20.6832C22.6513 20.4753 22.5084 20.2881 22.4287 20.1858C22.2345 19.9365 21.9479 19.6109 21.6407 19.2688C21.458 19.0654 21.2608 18.8481 21.0541 18.6203C20.532 18.045 19.9495 17.4033 19.3901 16.7522C19.004 16.3029 18.6563 15.8801 18.3671 15.5023C22.7793 15.4961 33.9148 15.504 38.458 15.5072C38.4961 15.5073 38.5337 15.5073 38.5709 15.5073C38.2891 15.8714 37.9534 16.2768 37.5809 16.7069C36.8972 17.4963 36.1617 18.2884 35.5479 18.9493C35.4633 19.0405 35.3809 19.1291 35.3013 19.215C34.9817 19.5597 34.6924 19.874 34.4919 20.1074C34.3991 20.2154 34.2854 20.3517 34.1956 20.4832L34.1938 20.4858C34.1623 20.5318 34.0542 20.69 33.9803 20.9006C33.9515 20.9828 33.8409 21.302 33.9216 21.7084C33.9687 21.9453 34.0846 22.226 34.322 22.4693C34.5574 22.7105 34.8289 22.8298 35.0499 22.8831ZM17.5605 14.2471C17.5571 14.2363 17.5581 14.237 17.5608 14.248C17.5607 14.2477 17.5606 14.2474 17.5605 14.2471ZM16.5941 15.5084C16.5924 15.5084 16.5913 15.5084 16.5909 15.5084L16.5908 15.5084C16.5919 15.5084 16.593 15.5084 16.5941 15.5084Z" stroke="#D9D9D9" stroke-width="3"/>
<path d="M29.7137 40.0406L23.7832 34.5334C23.3572 34.1377 23.3572 33.4635 23.7832 33.0678L29.7137 27.5606C30.3535 26.9664 31.3942 27.4201 31.3942 28.2933V30.5831C31.3942 30.8661 31.2742 31.1359 31.064 31.3256L29.138 33.0632C28.6999 33.4585 28.6975 34.1453 29.1329 34.5436L31.0691 36.3148C31.2762 36.5042 31.3942 36.7718 31.3942 37.0525V39.3081C31.3942 40.1813 30.3535 40.6348 29.7137 40.0406Z" fill="#D9D9D9"/>
</svg>
