<svg width="48" height="48" viewBox="0 0 48 48" fill="none" xmlns="http://www.w3.org/2000/svg">
<path d="M1.5 6C1.5 3.51472 3.51472 1.5 6 1.5H42C44.4853 1.5 46.5 3.51472 46.5 6V42C46.5 44.4853 44.4853 46.5 42 46.5H6C3.51472 46.5 1.5 44.4853 1.5 42V6Z" stroke="white" stroke-width="3"/>
<path d="M31.4265 11.1014L14.1703 23.1808C13.6016 23.5789 13.6016 24.4211 14.1703 24.8192L31.4265 36.8986C32.0893 37.3625 33 36.8884 33 36.0793L33 29.5059C33 29.1748 32.8361 28.8651 32.5624 28.679L26.8899 24.8212C26.3086 24.4259 26.3059 23.5701 26.8846 23.171L32.5677 19.2522C32.8384 19.0655 33 18.7584 33 18.4296L33 11.9188C33 11.1098 32.0893 10.6375 31.4265 11.1014Z" fill="white"/>
</svg>
